<svg width="121" height="121" viewBox="0 0 121 121" fill="none" xmlns="http://www.w3.org/2000/svg">
<path opacity="0.3" d="M120.86 0H0V120.86H120.86V0Z" fill="#092B49"/>
<path opacity="0.3" d="M40.8898 17.8999C40.8898 20.3034 40.177 22.6529 38.8415 24.6511C37.506 26.6494 35.6078 28.2068 33.3871 29.1261C31.1664 30.0454 28.7229 30.2854 26.3658 29.8158C24.0086 29.3462 21.8438 28.188 20.145 26.4878C18.4461 24.7876 17.2898 22.6217 16.8221 20.2642C16.3544 17.9066 16.5965 15.4634 17.5176 13.2434C18.4388 11.0235 19.9976 9.12658 21.997 7.79273C23.9964 6.45887 26.3463 5.74803 28.7498 5.75C30.3449 5.75 31.9243 6.06434 33.3979 6.67505C34.8714 7.28577 36.2103 8.18085 37.3377 9.30921C38.4651 10.4376 39.3591 11.7771 39.9686 13.2511C40.5781 14.7252 40.8911 16.3048 40.8898 17.8999Z" fill="#001A31"/>
<path opacity="0.3" d="M40.8898 47.0099C40.8898 49.4134 40.177 51.7627 38.8415 53.761C37.506 55.7593 35.6078 57.3167 33.3871 58.236C31.1664 59.1553 28.7229 59.3953 26.3658 58.9257C24.0086 58.456 21.8438 57.2979 20.145 55.5977C18.4461 53.8975 17.2898 51.7316 16.8221 49.374C16.3544 47.0165 16.5965 44.5732 17.5176 42.3533C18.4388 40.1333 19.9976 38.2364 21.997 36.9026C23.9964 35.5687 26.3463 34.8579 28.7498 34.8599C30.3449 34.8599 31.9243 35.1742 33.3979 35.7849C34.8714 36.3956 36.2103 37.2907 37.3377 38.4191C38.4651 39.5474 39.3591 40.8869 39.9686 42.361C40.5781 43.835 40.8911 45.4148 40.8898 47.0099Z" fill="#001A31"/>
<path opacity="0.3" d="M40.8898 102.96C40.8898 105.364 40.177 107.713 38.8415 109.711C37.506 111.71 35.6078 113.267 33.3871 114.186C31.1664 115.105 28.7229 115.345 26.3658 114.876C24.0086 114.406 21.8438 113.248 20.145 111.548C18.4461 109.848 17.2898 107.682 16.8221 105.324C16.3544 102.967 16.5965 100.524 17.5176 98.3036C18.4388 96.0836 19.9976 94.1868 21.997 92.8529C23.9964 91.5191 26.3463 90.8081 28.7498 90.8101C30.3449 90.8101 31.9243 91.1244 33.3979 91.7351C34.8714 92.3458 36.2103 93.241 37.3377 94.3694C38.4651 95.4978 39.3591 96.8372 39.9686 98.3113C40.5781 99.7853 40.8911 101.365 40.8898 102.96Z" fill="#001A31"/>
<path opacity="0.3" d="M72.5803 17.8999C72.5803 20.3029 71.8676 22.6521 70.5325 24.6501C69.1975 26.6482 67.2999 28.2055 65.0798 29.1251C62.8597 30.0447 60.4167 30.2853 58.0599 29.8165C55.703 29.3477 53.5381 28.1905 51.8389 26.4913C50.1397 24.7921 48.9825 22.6271 48.5137 20.2703C48.0449 17.9134 48.2855 15.4705 49.2051 13.2504C50.1247 11.0302 51.6819 9.13267 53.68 7.79761C55.6781 6.46255 58.0272 5.75 60.4302 5.75C62.0258 5.75 63.6057 6.06421 65.0798 6.6748C66.5539 7.2854 67.8933 8.18036 69.0215 9.30859C70.1498 10.4368 71.0447 11.7763 71.6553 13.2504C72.2659 14.7245 72.5803 16.3043 72.5803 17.8999Z" fill="#001A31"/>
<path opacity="0.3" d="M72.5803 47.0099C72.5803 49.4129 71.8676 51.762 70.5325 53.76C69.1975 55.7581 67.2999 57.3154 65.0798 58.235C62.8597 59.1546 60.4167 59.3952 58.0599 58.9264C55.703 58.4576 53.5381 57.3004 51.8389 55.6012C50.1397 53.902 48.9825 51.737 48.5137 49.3801C48.0449 47.0233 48.2855 44.5804 49.2051 42.3602C50.1247 40.1401 51.6819 38.2425 53.68 36.9075C55.6781 35.5724 58.0272 34.8599 60.4302 34.8599C62.0258 34.8599 63.6057 35.1741 65.0798 35.7847C66.5539 36.3953 67.8933 37.2902 69.0215 38.4185C70.1498 39.5467 71.0447 40.8861 71.6553 42.3602C72.2659 43.8343 72.5803 45.4143 72.5803 47.0099Z" fill="#001A31"/>
<path opacity="0.3" d="M72.5803 74.9899C72.5803 77.3929 71.8676 79.7419 70.5325 81.74C69.1975 83.7381 67.2999 85.2954 65.0798 86.215C62.8597 87.1346 60.4167 87.3752 58.0599 86.9064C55.703 86.4376 53.5381 85.2804 51.8389 83.5812C50.1397 81.882 48.9825 79.7171 48.5137 77.3602C48.0449 75.0034 48.2855 72.5603 49.2051 70.3402C50.1247 68.1201 51.6819 66.2225 53.68 64.8875C55.6781 63.5524 58.0272 62.8398 60.4302 62.8398C62.0262 62.8385 63.6067 63.1518 65.0814 63.762C66.5561 64.3721 67.896 65.267 69.0245 66.3955C70.153 67.524 71.0479 68.8639 71.658 70.3386C72.2682 71.8133 72.5816 73.3939 72.5803 74.9899Z" fill="#001A31"/>
<path opacity="0.3" d="M41.3 74.9899C41.3 77.3929 40.5873 79.7419 39.2523 81.74C37.9172 83.7381 36.0196 85.2954 33.7995 86.215C31.5794 87.1346 29.1365 87.3752 26.7796 86.9064C24.4227 86.4376 22.2579 85.2804 20.5587 83.5812C18.8595 81.882 17.7023 79.7171 17.2335 77.3602C16.7647 75.0034 17.0053 72.5603 17.9249 70.3402C18.8445 68.1201 20.4017 66.2225 22.3997 64.8875C24.3978 63.5524 26.7469 62.8398 29.15 62.8398C30.7459 62.8385 32.3264 63.1518 33.8011 63.762C35.2758 64.3721 36.6157 65.267 37.7442 66.3955C38.8727 67.524 39.7676 68.8639 40.3778 70.3386C40.9879 71.8133 41.3013 73.3939 41.3 74.9899Z" fill="#001A31"/>
<path opacity="0.3" d="M72.5803 102.96C72.5803 105.363 71.8676 107.712 70.5325 109.71C69.1975 111.708 67.2999 113.266 65.0798 114.185C62.8597 115.105 60.4167 115.345 58.0599 114.877C55.703 114.408 53.5381 113.251 51.8389 111.551C50.1397 109.852 48.9825 107.687 48.5137 105.33C48.0449 102.974 48.2855 100.531 49.2051 98.3104C50.1247 96.0903 51.6819 94.1927 53.68 92.8577C55.6781 91.5226 58.0272 90.8101 60.4302 90.8101C62.0258 90.8101 63.6057 91.1244 65.0798 91.735C66.5539 92.3456 67.8933 93.2405 69.0215 94.3688C70.1498 95.497 71.0447 96.8363 71.6553 98.3104C72.2659 99.7845 72.5803 101.365 72.5803 102.96Z" fill="#001A31"/>
<path opacity="0.3" d="M104.29 17.8999C104.29 20.3029 103.578 22.6521 102.243 24.6501C100.908 26.6482 99.01 28.2055 96.7899 29.1251C94.5697 30.0447 92.1267 30.2853 89.7698 29.8165C87.413 29.3477 85.2481 28.1905 83.5489 26.4913C81.8497 24.7921 80.6925 22.6271 80.2237 20.2703C79.7549 17.9134 79.9955 15.4705 80.9151 13.2504C81.8347 11.0302 83.392 9.13267 85.3901 7.79761C87.3881 6.46255 89.7372 5.75 92.1402 5.75C93.7358 5.75 95.3158 6.06421 96.7899 6.6748C98.264 7.2854 99.6034 8.18036 100.732 9.30859C101.86 10.4368 102.755 11.7763 103.365 13.2504C103.976 14.7245 104.29 16.3043 104.29 17.8999Z" fill="#001A31"/>
<path opacity="0.3" d="M104.29 47.0099C104.29 49.4129 103.578 51.762 102.243 53.76C100.908 55.7581 99.01 57.3154 96.7899 58.235C94.5697 59.1546 92.1267 59.3952 89.7698 58.9264C87.413 58.4576 85.2481 57.3004 83.5489 55.6012C81.8497 53.902 80.6925 51.737 80.2237 49.3801C79.7549 47.0233 79.9955 44.5804 80.9151 42.3602C81.8347 40.1401 83.392 38.2425 85.3901 36.9075C87.3881 35.5724 89.7372 34.8599 92.1402 34.8599C93.7358 34.8599 95.3158 35.1741 96.7899 35.7847C98.264 36.3953 99.6034 37.2902 100.732 38.4185C101.86 39.5467 102.755 40.8861 103.365 42.3602C103.976 43.8343 104.29 45.4143 104.29 47.0099Z" fill="#001A31"/>
<path opacity="0.3" d="M104.29 74.9899C104.29 77.3929 103.578 79.7419 102.243 81.74C100.908 83.738 99.01 85.2954 96.7899 86.215C94.5697 87.1346 92.1267 87.3752 89.7698 86.9064C87.413 86.4376 85.2481 85.2804 83.5489 83.5812C81.8497 81.882 80.6925 79.7171 80.2237 77.3602C79.7549 75.0034 79.9955 72.5603 80.9151 70.3402C81.8347 68.1201 83.392 66.2225 85.3901 64.8875C87.3881 63.5524 89.7372 62.8398 92.1402 62.8398C93.7358 62.8398 95.3158 63.1541 96.7899 63.7646C98.264 64.3752 99.6034 65.2702 100.732 66.3984C101.86 67.5267 102.755 68.8661 103.365 70.3402C103.976 71.8143 104.29 73.3943 104.29 74.9899Z" fill="#001A31"/>
<path opacity="0.3" d="M104.29 102.96C104.29 105.363 103.578 107.712 102.243 109.71C100.908 111.708 99.01 113.266 96.7899 114.185C94.5697 115.105 92.1267 115.345 89.7698 114.877C87.413 114.408 85.2481 113.251 83.5489 111.551C81.8497 109.852 80.6925 107.687 80.2237 105.33C79.7549 102.974 79.9955 100.531 80.9151 98.3104C81.8347 96.0903 83.392 94.1927 85.3901 92.8577C87.3881 91.5226 89.7372 90.8101 92.1402 90.8101C93.7358 90.8101 95.3158 91.1244 96.7899 91.735C98.264 92.3456 99.6034 93.2405 100.732 94.3688C101.86 95.497 102.755 96.8363 103.365 98.3104C103.976 99.7845 104.29 101.365 104.29 102.96Z" fill="#001A31"/>
</svg>
