<svg width="362" height="121" viewBox="0 0 362 121" fill="none" xmlns="http://www.w3.org/2000/svg">
<path opacity="0.3" d="M241.05 120.86L361.91 120.86L361.91 7.62939e-06L241.05 -2.93652e-06L241.05 120.86Z" fill="#001A31"/>
<path opacity="0.3" d="M259.17 104.86L344.77 104.86L344.77 19.26L259.17 19.26L259.17 104.86Z" fill="#092B49"/>
<path opacity="0.3" d="M337.96 29.9999H273V94.9599H337.96V29.9999Z" fill="#001A31"/>
<path opacity="0.3" d="M120.93 0.0500459L181.35 120.86L241.77 0.0500565L120.93 0.0500459Z" fill="#001A31"/>
<path opacity="0.3" d="M163.39 30.3201C163.364 33.8856 164.398 37.3784 166.36 40.3555C168.322 43.3327 171.125 45.66 174.411 47.0423C177.698 48.4246 181.321 48.7997 184.821 48.1199C188.322 47.4401 191.541 45.7361 194.071 43.224C196.602 40.712 198.329 37.505 199.034 34.0098C199.739 30.5147 199.39 26.8887 198.032 23.5921C196.673 20.2954 194.367 17.4765 191.404 15.4928C188.441 13.5092 184.956 12.4502 181.39 12.4501C179.034 12.4396 176.7 12.8936 174.519 13.7863C172.339 14.679 170.357 15.9929 168.685 17.6526C167.013 19.3124 165.685 21.2857 164.776 23.4593C163.868 25.6329 163.397 27.9643 163.39 30.3201Z" fill="#092B49"/>
<path opacity="0.3" d="M34.9999 120.86L-0.00012207 120.86C0.0876264 88.9085 12.7886 58.2845 35.3399 35.6498C57.2099 13.9298 85.9999 0.0498093 120.67 0.0498123L120.67 34.8098C71.6899 34.8098 34.9999 74.3497 34.9999 120.86Z" fill="#001A31"/>
<path opacity="0.3" d="M120.62 120.86L70.0502 120.86C70.0502 92.5497 92.0501 69.5698 120.62 69.5698L120.62 120.86Z" fill="#001A31"/>
</svg>
