<svg width="30" height="31" viewBox="0 0 30 31" fill="none" xmlns="http://www.w3.org/2000/svg">
<circle cx="15" cy="15.1699" r="14" stroke="white" stroke-width="2"/>
<mask id="path-2-outside-1" maskUnits="userSpaceOnUse" x="11" y="6.66992" width="11" height="17" fill="black">
<rect fill="white" x="11" y="6.66992" width="11" height="17"/>
<path d="M13 21.6699V8.66992L20 14.9842L13 21.6699Z"/>
</mask>
<path d="M13 8.66992L14.3396 7.18484C13.7528 6.65554 12.9094 6.52137 12.1874 6.84246C11.4653 7.16355 11 7.87969 11 8.66992H13ZM13 21.6699H11C11 22.4705 11.4774 23.1939 12.2135 23.5088C12.9495 23.8236 13.8024 23.6692 14.3814 23.1162L13 21.6699ZM20 14.9842L21.3814 16.4305C21.7836 16.0463 22.0077 15.5119 21.9998 14.9557C21.9919 14.3995 21.7527 13.8717 21.3396 13.4991L20 14.9842ZM11 8.66992V21.6699H15V8.66992H11ZM14.3814 23.1162L21.3814 16.4305L18.6186 13.5379L11.6186 20.2236L14.3814 23.1162ZM21.3396 13.4991L14.3396 7.18484L11.6604 10.155L18.6604 16.4693L21.3396 13.4991Z" fill="white" mask="url(#path-2-outside-1)"/>
</svg>
