<svg width="222" height="32" viewBox="0 0 222 32" fill="none" xmlns="http://www.w3.org/2000/svg">
<path d="M210.72 26.9096C208.141 26.9096 205.561 24.9062 205.561 20.8947C205.561 16.9293 208.14 14.9659 210.72 14.9659C213.3 14.9659 215.879 16.9281 215.879 20.8947C215.879 24.9062 213.3 26.9096 210.72 26.9096ZM183.179 32C184.243 31.9959 185.294 31.7866 186.27 31.3847C187.247 30.9828 188.128 30.3965 188.861 29.6612V31.3328H194.983V17.9684C194.939 12.4987 190.393 9.86051 185.496 9.86051C183.796 9.83559 182.109 10.1498 180.544 10.7829C178.978 11.4161 177.568 12.3544 176.403 13.5378L180.556 17.2972C181.187 16.588 181.962 16.0078 182.833 15.5914C183.705 15.1749 184.655 14.9308 185.628 14.8736C186.061 14.8405 186.497 14.8977 186.905 15.0412C187.314 15.1848 187.684 15.4115 187.992 15.7053C188.299 15.9991 188.536 16.3531 188.686 16.743C188.836 17.1329 188.896 17.5493 188.861 17.9634V18.7118C178.984 18.7954 176.139 21.8427 176.139 25.6422C176.149 26.5053 176.341 27.3577 176.704 28.1484C177.066 28.9391 177.591 29.652 178.248 30.2445C178.905 30.8371 179.68 31.2971 180.528 31.5973C181.375 31.8974 182.277 32.0314 183.179 31.9913V32ZM184.746 27.3137C183.392 27.3137 182.256 26.7287 182.256 25.3503C182.256 23.6389 183.655 22.4264 188.856 22.3852V24.1815C188.856 26.1424 186.584 27.3137 184.748 27.3137H184.746ZM166.649 31.3626H172.77V0.0437007H166.649V31.3626ZM146.93 31.7818C148.378 31.7621 149.802 31.424 151.091 30.7939C152.38 30.1637 153.499 29.2585 154.363 28.1483L151.521 24.8489C151.185 25.2727 150.757 25.6223 150.267 25.8743C149.777 26.1263 149.235 26.2747 148.68 26.3095C148.423 26.3254 148.165 26.289 147.924 26.2023C147.683 26.1156 147.464 25.9807 147.282 25.8068C147.1 25.633 146.959 25.424 146.868 25.1938C146.777 24.9637 146.739 24.7177 146.755 24.4722V15.491H152.876V10.4792H146.755V6.30294H140.636V25.7619C140.583 26.5647 140.709 27.3692 141.006 28.1218C141.304 28.8743 141.766 29.5578 142.361 30.1267C142.957 30.6955 143.672 31.1368 144.46 31.4211C145.247 31.7054 146.09 31.8262 146.93 31.7756V31.7818ZM127.915 31.7756C129.723 31.7891 131.513 31.4263 133.159 30.7124C134.805 29.9985 136.269 28.9507 137.448 27.6418L133.078 23.8423C132.534 24.6037 131.803 25.2262 130.95 25.6555C130.096 26.0847 129.145 26.3076 128.181 26.3046C125.646 26.3046 123.196 24.6343 123.196 20.876C123.196 16.9942 125.775 14.8637 128.529 14.8637C129.413 14.8796 130.282 15.0872 131.07 15.4708C131.857 15.8544 132.543 16.4039 133.076 17.0778L137.316 13.7372C135.801 12.0052 133.761 10.7635 131.478 10.1823C129.194 9.601 126.778 9.7087 124.561 10.4906C122.344 11.2725 120.435 12.6903 119.095 14.5496C117.754 16.4089 117.049 18.6187 117.076 20.876C117.076 28.3103 122.41 31.7768 127.914 31.7768L127.915 31.7756ZM101.245 20.0017V17.5779C101.245 15.617 103.519 14.4483 105.354 14.4483C106.708 14.4483 107.846 15.0333 107.846 16.4104C107.846 18.1218 106.447 19.9181 101.243 20.0029L101.245 20.0017ZM104.611 31.9027C106.311 31.9284 107.997 31.6149 109.563 30.9821C111.128 30.3493 112.538 29.4113 113.702 28.228L109.55 24.4696C108.918 25.1784 108.143 25.7583 107.272 26.1746C106.4 26.5908 105.449 26.8348 104.477 26.892C104.043 26.9254 103.607 26.8683 103.199 26.7249C102.79 26.5814 102.42 26.3548 102.112 26.061C101.804 25.7671 101.567 25.413 101.417 25.023C101.267 24.633 101.207 24.2166 101.242 23.8024V23.6775C111.122 23.5528 113.965 19.918 113.965 16.1185C113.955 15.2556 113.763 14.4033 113.401 13.6127C113.038 12.8221 112.513 12.1095 111.856 11.517C111.199 10.9246 110.424 10.4646 109.576 10.1646C108.729 9.86456 107.828 9.73059 106.925 9.77068C105.862 9.77509 104.81 9.98464 103.834 10.3867C102.857 10.7889 101.975 11.3752 101.242 12.1107V10.4393H95.1214V23.8036C95.1671 29.2733 99.7115 31.9041 104.61 31.9041L104.611 31.9027ZM85.1525 31.3203H91.273V0H85.1525V31.3203ZM74.6612 31.3203H80.7805V0H74.6612V31.3203ZM58.1956 20.0253V17.6016C58.1956 15.6408 60.4691 14.4719 62.3052 14.4719C63.6606 14.4719 64.7954 15.0569 64.7954 16.434C64.7954 18.1454 63.3969 19.9417 58.1943 20.0265L58.1956 20.0253ZM61.5608 31.9265C63.2609 31.9523 64.9479 31.6388 66.5139 31.006C68.0798 30.3732 69.4902 29.435 70.6548 28.2516L66.5009 24.4934C65.8698 25.2022 65.0954 25.7821 64.2241 26.1983C63.3528 26.6145 62.4026 26.8586 61.4302 26.9158C60.9965 26.9493 60.5603 26.8923 60.1519 26.7489C59.7435 26.6055 59.3725 26.379 59.0648 26.0852C58.757 25.7913 58.5198 25.4371 58.3695 25.047C58.2192 24.6569 58.1594 24.2403 58.1943 23.826V23.7013C68.0745 23.5766 70.9173 19.9418 70.9173 16.1423C70.9074 15.2795 70.7157 14.4274 70.3535 13.6369C69.9914 12.8464 69.4663 12.1337 68.8095 11.5412C68.1527 10.9488 67.3778 10.4888 66.5309 10.1886C65.6839 9.88853 64.7824 9.75436 63.8801 9.79428C62.8162 9.79857 61.7642 10.0081 60.7872 10.4102C59.8102 10.8123 58.9283 11.3988 58.1943 12.1345V10.4629H52.0711V23.8272C52.1155 29.2969 56.6625 31.9277 61.5582 31.9277L61.5608 31.9265ZM41.7091 31.8454C43.1299 31.8508 44.5297 31.5174 45.7816 30.8755C47.0334 30.2336 48.0979 29.3035 48.8783 28.1694L46.0355 24.8701C45.6993 25.2937 45.2717 25.6434 44.7816 25.8955C44.2916 26.1475 43.7505 26.2959 43.1952 26.3308C42.9382 26.3467 42.6807 26.3101 42.4397 26.2234C42.1987 26.1368 41.9798 26.0019 41.7976 25.828C41.6154 25.6541 41.4742 25.4451 41.3833 25.215C41.2924 24.9848 41.2539 24.7389 41.2704 24.4934V15.5124H47.3923V10.5003H41.2704V6.32411H35.1511V25.7831C35.1193 26.6044 35.2688 27.4231 35.5901 28.1856C35.9114 28.948 36.3971 29.6373 37.0158 30.2086C37.6344 30.7799 38.3721 31.2204 39.1807 31.5013C39.9893 31.7822 40.8508 31.8974 41.7091 31.8392V31.8454ZM11.9813 31.3777H18.1058V17.8063C18.2463 16.9995 18.6952 16.2712 19.3656 15.7624C20.036 15.2536 20.8802 15.0005 21.7347 15.0521C22.1553 15.0198 22.5782 15.0716 22.9766 15.2042C23.375 15.3368 23.7401 15.5472 24.0486 15.8221C24.3572 16.0969 24.6023 16.4301 24.7685 16.8005C24.9346 17.171 25.0182 17.5703 25.0138 17.9733V31.3376H31.1343V17.9733C31.1343 12.4624 27.5053 10.04 23.7014 10.04C21.6829 10.0471 19.7207 10.6768 18.1071 11.8351V10.4991H11.9865L11.9813 31.3777ZM0.0900935 24.1541H6.64553V2.14788H0.0900935V24.1541ZM3.36913 31.753C4.01408 31.7366 4.63962 31.5389 5.16751 31.1846C5.69541 30.8303 6.1022 30.3351 6.337 29.7611C6.5718 29.187 6.6242 28.5598 6.4876 27.9575C6.351 27.3552 6.03146 26.8047 5.56902 26.3749C5.10658 25.9452 4.52175 25.6551 3.88768 25.5413C3.25361 25.4274 2.59846 25.4948 2.00421 25.7348C1.40996 25.9748 0.90301 26.3767 0.546754 26.8905C0.190498 27.4043 0.000762988 28.0072 0.00130397 28.6235C-0.0113239 29.0452 0.0678814 29.4648 0.233878 29.8558C0.399875 30.2468 0.649043 30.6006 0.965634 30.8948C1.28223 31.189 1.65935 31.4172 2.07307 31.565C2.4868 31.7127 2.92813 31.7767 3.36913 31.753ZM212.206 31.8378C217.104 31.8378 222 28.2055 222 20.8947C222 13.5464 217.192 9.95522 212.337 9.95522C211.071 9.95393 209.818 10.1975 208.654 10.671C207.489 11.1446 206.437 11.8383 205.561 12.7106V0.0586228H199.441V31.3763H205.561V29.1636C206.424 30.012 207.457 30.6859 208.599 31.1452C209.741 31.6044 210.967 31.8395 212.206 31.8366" fill="#1C1C1C"/>
</svg>
