<svg width="214" height="48" viewBox="0 0 214 48" fill="none" xmlns="http://www.w3.org/2000/svg">
<path d="M81.1362 28.8725H71.2929V33.1007H74.817C77.4095 33.1007 79.4753 33.7047 80.9741 34.953C82.4729 36.2014 83.2425 37.8926 83.2425 39.9866C83.2425 42.1208 82.4729 43.8121 80.9741 45.1007C79.4753 46.3893 77.45 47.0336 74.979 47.0738H66.675V25.2081H81.0956V28.8725H81.1362ZM71.2929 36.7651V43.49H74.898C76.0727 43.49 76.9639 43.1678 77.6525 42.5235C78.3411 41.8792 78.7057 41.0336 78.7057 39.9866C78.7057 38.9799 78.3817 38.2148 77.7335 37.651C77.0854 37.0873 76.1538 36.7651 75.0195 36.7651H71.2929Z" fill="#1B3F92"/>
<path d="M104.266 38.1745H101.673V47.1141H97.1366V38.1745H94.4631L89.6832 47.1141H84.0122L90.8579 35.396L84.3363 25.2483H89.9668L94.8682 34.0671H97.1366V25.2081H101.673V34.0269H103.861L108.641 25.2081H114.271L107.871 35.3557L114.636 47.1141H108.965L104.266 38.1745Z" fill="#1B3F92"/>
<path d="M127.719 27.1812H128.003C129.745 27.1812 131.284 27.5436 132.702 28.3087C134.079 29.0738 135.173 30.1208 135.942 31.5302C136.712 32.9396 137.117 34.5101 137.117 36.2819C137.117 38.8993 136.267 41.0336 134.565 42.7248C132.864 44.3758 130.596 45.2215 127.719 45.2215V48H123.345V45.2215H123.061C121.319 45.2215 119.74 44.8591 118.362 44.094C116.945 43.3289 115.891 42.2819 115.122 40.953C114.352 39.5839 113.947 38.0537 113.947 36.3221C113.947 34.5503 114.312 33.0201 115.081 31.6107C115.851 30.2416 116.904 29.1544 118.281 28.3893C119.659 27.6242 121.198 27.2215 122.899 27.1812H123.304V24.3221H127.679V27.1812H127.719ZM123.061 30.9262C121.562 30.9262 120.388 31.4094 119.497 32.3356C118.646 33.2617 118.2 34.5906 118.2 36.3221C118.2 37.9329 118.646 39.1812 119.497 40.1074C120.347 41.0336 121.562 41.4765 123.102 41.4765H123.345V30.9262H123.061ZM127.719 30.9262V41.4765H128.003C129.502 41.4765 130.636 40.9933 131.487 40.0671C132.337 39.1409 132.783 37.8926 132.783 36.2819C132.783 34.5906 132.378 33.302 131.527 32.3356C130.677 31.3691 129.502 30.9262 127.922 30.9262H127.719Z" fill="#1B3F92"/>
<path d="M160.085 28.8725H150.282V33.1007H153.806C156.399 33.1007 158.465 33.7047 159.963 34.953C161.462 36.2014 162.232 37.8926 162.232 39.9866C162.232 42.1208 161.462 43.8121 159.963 45.1007C158.465 46.3893 156.439 47.0336 153.968 47.0738H145.664V25.2081H160.085V28.8725ZM150.282 36.7651V43.49H153.887C155.062 43.49 155.953 43.1678 156.642 42.5235C157.33 41.8792 157.695 41.0336 157.695 39.9866C157.695 38.9799 157.371 38.2148 156.723 37.651C156.075 37.0873 155.143 36.7651 154.009 36.7651H150.282Z" fill="#1B3F92"/>
<path d="M174.1 47.1141C173.898 46.7114 173.736 46.2282 173.655 45.6644C172.602 46.8322 171.224 47.4362 169.523 47.4362C167.903 47.4362 166.607 46.9933 165.553 46.0671C164.5 45.1409 163.974 43.9732 163.974 42.5638C163.974 40.8322 164.622 39.5034 165.918 38.5772C167.214 37.651 169.078 37.2081 171.508 37.1678H173.533V36.2416C173.533 35.4765 173.331 34.8725 172.966 34.4295C172.561 33.9866 171.954 33.745 171.143 33.745C170.414 33.745 169.847 33.906 169.402 34.2685C168.997 34.6309 168.794 35.1141 168.794 35.7181H164.419C164.419 34.792 164.703 33.906 165.31 33.1007C165.877 32.2953 166.728 31.651 167.781 31.2081C168.835 30.7651 170.05 30.5235 171.386 30.5235C173.412 30.5235 174.992 31.0067 176.166 32.0537C177.341 33.1007 177.949 34.4698 177.949 36.2819V43.3289C177.949 44.8591 178.192 46.0269 178.597 46.8322V47.0738H174.1V47.1141ZM170.455 44.094C171.103 44.094 171.711 43.9329 172.237 43.651C172.764 43.3691 173.169 42.9664 173.452 42.4832V39.7047H171.832C169.645 39.7047 168.47 40.4698 168.348 41.9597V42.2014C168.348 42.7248 168.551 43.2081 168.916 43.5302C169.28 43.8926 169.807 44.094 170.455 44.094Z" fill="#1B3F92"/>
<path d="M195.124 47.1141H190.749V40.8725H185.321V47.1141H180.946V30.8456H185.321V37.3691H190.749V30.8456H195.124V47.1141Z" fill="#1B3F92"/>
<path d="M204.602 41.1141H202.861V47.1141H198.486V30.8456H202.861V36.9665H204.4L207.965 30.8456H213.474L208.127 38.5772L213.96 47.1141H208.127L204.602 41.1141Z" fill="#1B3F92"/>
<path d="M33.4185 0L0 25.2081V30.7248L33.4185 5.51678L50.148 17.0738V11.557L33.4185 0Z" fill="url(#paint0_linear)"/>
<path d="M33.4185 8.25507L0 33.4631V38.9799L33.4185 13.7718L50.148 25.3289V19.8121L33.4185 8.25507Z" fill="url(#paint1_linear)"/>
<path d="M33.4185 16.5101L0 41.7181V47.2349L33.4185 22.0268L50.148 33.5839V28.0671L33.4185 16.5101Z" fill="url(#paint2_linear)"/>
<path d="M38.8869 36.4027H27.9905V47.2349H38.8869V36.4027Z" fill="#EC6608"/>
<defs>
<linearGradient id="paint0_linear" x1="50.1428" y1="15.3583" x2="-0.104348" y2="15.3583" gradientUnits="userSpaceOnUse">
<stop stop-color="#13A538"/>
<stop offset="1" stop-color="#0B4697"/>
</linearGradient>
<linearGradient id="paint1_linear" x1="50.1428" y1="23.6118" x2="-0.104348" y2="23.6118" gradientUnits="userSpaceOnUse">
<stop stop-color="#13A538"/>
<stop offset="1" stop-color="#0B4697"/>
</linearGradient>
<linearGradient id="paint2_linear" x1="50.1428" y1="31.8653" x2="-0.104348" y2="31.8653" gradientUnits="userSpaceOnUse">
<stop stop-color="#13A538"/>
<stop offset="1" stop-color="#0B4697"/>
</linearGradient>
</defs>
</svg>
