<svg width="214" height="33" viewBox="0 0 214 33" fill="none" xmlns="http://www.w3.org/2000/svg">
<g clip-path="url(#clip0)">
<path d="M54.561 21.5448C54.561 24.0483 53.879 25.7931 52.7423 27.0069C51.6056 28.1448 50.0142 28.8276 48.044 28.8276C46.3768 28.8276 44.937 28.4483 44.0277 27.3862C43.1183 26.4759 42.5879 25.0345 42.5879 23.2138V9.86206H38.7231V23.5172C38.7231 26.2483 39.4809 28.4483 41.0723 30.1172C42.6637 31.7862 44.7097 32.6207 47.2862 32.6207C50.5447 32.6207 52.8938 31.331 54.4094 28.8276V31.9379H58.3499V9.86206H54.4852L54.561 21.5448Z" fill="black"/>
<path d="M69.7168 9.86206H65.8521V31.9379H69.7168V9.86206Z" fill="black"/>
<path d="M67.7464 0.682739C67.0644 0.682739 66.4582 0.910325 65.9277 1.44136C65.3973 1.97239 65.1699 2.57929 65.1699 3.26205C65.1699 3.94481 65.3973 4.5517 65.9277 5.08274C66.4582 5.61377 66.9886 5.84136 67.7464 5.84136C68.5042 5.84136 69.0347 5.61377 69.5651 5.08274C70.0956 4.5517 70.3229 3.94481 70.3229 3.26205C70.3229 2.57929 70.0956 1.97239 69.5651 1.44136C69.1105 0.910325 68.4284 0.682739 67.7464 0.682739Z" fill="black"/>
<path d="M91.7684 27.2345C90.6318 27.9172 89.192 28.2966 87.7522 28.2966C85.5546 28.2966 83.5843 27.6138 82.1445 26.0966C80.7047 24.5793 79.9469 22.7586 79.9469 20.4828C79.9469 18.2069 80.7047 16.4621 82.1445 14.869C83.7359 13.4276 85.4788 12.669 87.7522 12.669C89.192 12.669 90.4802 12.8966 91.6169 13.731C92.7536 14.4897 93.6629 15.4 94.1934 16.6138L97.4519 14.7931C96.5425 13.1241 95.2543 11.6828 93.5871 10.6207C91.92 9.55862 89.9497 9.02759 87.7522 9.02759C84.4179 9.02759 81.6898 10.1655 79.4165 12.3655C77.3704 14.5655 76.158 17.4483 76.158 20.7103C76.158 24.0483 77.2189 26.7793 79.4165 29.0552C81.6141 31.2552 84.3421 32.3931 87.7522 32.3931C89.7982 32.3931 91.7684 31.8621 93.7387 30.4207C95.4058 29.3586 96.8456 27.9172 97.755 26.2483L94.4965 24.2759C93.8145 25.5655 92.9051 26.6276 91.7684 27.2345Z" fill="black"/>
<path d="M110.865 20.4827L121.322 9.86201H116.397L106.924 19.5724V1.06201H103.06V31.9379H106.924V21.393L117.079 31.9379H121.853L110.865 20.4827Z" fill="black"/>
<path d="M145.193 15.9311C147.39 14.338 148.527 12.138 148.451 9.40695C148.451 7.05523 147.693 5.00695 145.95 3.41385C144.283 1.74488 142.313 0.9104 139.888 0.9104H127.536V31.7863H140.949C143.45 31.7863 145.647 31.0276 147.314 29.2828C148.982 27.6138 149.891 25.4897 149.891 23.0621C149.891 21.3932 149.361 19.9518 148.603 18.6621C147.769 17.6759 146.632 16.6138 145.193 15.9311ZM131.552 4.93109H139.888C141.176 4.93109 142.237 5.3104 143.147 6.22075C144.056 7.13109 144.435 8.26902 144.435 9.55868C144.435 10.8483 144.056 12.0621 143.147 12.8966C142.237 13.807 141.176 14.338 139.888 14.338H131.552V4.93109ZM144.435 26.6276C143.526 27.538 142.389 28.069 140.949 28.069H131.704V18.0552H140.949C142.389 18.0552 143.526 18.5863 144.435 19.4966C145.344 20.407 145.875 21.5449 145.875 22.9863C145.875 24.4276 145.344 25.7173 144.435 26.6276Z" fill="#2574B7"/>
<path d="M167.623 1.06213H156.332V31.938H160.5V20.8621H167.623C170.503 20.8621 172.776 19.8001 174.747 17.9794C176.717 16.1587 177.626 13.807 177.626 11.0001C177.626 8.11731 176.717 5.84144 174.747 3.86903C172.852 1.97248 170.503 1.06213 167.623 1.06213ZM171.943 15.3242C170.806 16.4621 169.366 16.9932 167.699 16.9932L160.576 17.1449V4.9311H167.699C169.366 4.9311 170.806 5.46213 171.943 6.60007C173.079 7.738 173.61 9.17938 173.61 11.0001C173.61 12.7449 173.079 14.1104 171.943 15.3242Z" fill="#2574B7"/>
<path d="M208.468 1.06213L198.768 17.3725L188.917 1.06213H184.219V31.938H188.387V7.88972L198.465 24.6552H198.996L209.15 7.81386V31.938H213.166V1.06213H208.468Z" fill="#2574B7"/>
<path d="M19.7026 21.3931V32.5448H32.4335L19.7026 21.3931Z" fill="#FFD800"/>
<path d="M17.0503 4.39997C23.6431 4.39997 29.0992 9.86204 29.0992 16.462C29.0992 19.3448 28.0383 21.9241 26.5227 23.8965L26.3711 24.0482L29.3265 26.6276L29.4781 26.4758C31.6757 23.7448 32.9639 20.2551 32.9639 16.462C32.9639 7.66204 25.8407 0.531006 17.0503 0.531006C8.25995 0.531006 1.13672 7.51032 1.13672 16.3862C1.13672 25.262 8.25995 32.3172 17.0503 32.3172V28.5241C10.4575 28.5241 5.00145 23.062 5.00145 16.462C5.00145 9.86204 10.4575 4.39997 17.0503 4.39997Z" fill="#2574B7"/>
</g>
<defs>
<clipPath id="clip0">
<rect width="214" height="33" fill="white"/>
</clipPath>
</defs>
</svg>
