<svg width="103" height="37" viewBox="0 0 103 37" fill="none" xmlns="http://www.w3.org/2000/svg">
<path d="M19.6981 16.6103V23.1818C19.6981 24.8672 20.5153 25.6844 22.2008 25.6844H22.9328C24.6182 25.6844 25.4354 24.8672 25.4354 23.1818V19.9641H29.283V23.0456C29.283 27.2676 27.1549 29.4468 22.8817 29.4468H22.0646C17.8425 29.4468 15.6633 27.3187 15.6633 23.5563V7.41703C15.6633 2.70124 17.7914 0.522095 22.0646 0.522095H22.8817C27.1038 0.522095 29.283 2.65016 29.283 6.92332V16.5762H19.7152V16.6103H19.6981ZM19.6981 12.7457H25.3673V6.75308C25.3673 5.06765 24.5501 4.25047 22.8647 4.25047H22.2348C20.5494 4.25047 19.7322 5.06765 19.7322 6.75308V12.7457H19.6981Z" fill="black"/>
<path d="M31.9048 0.862592H35.8885V2.68422C36.8419 1.67977 38.4763 0.556152 40.7405 0.556152C44.1454 0.556152 45.8139 2.82041 45.8139 6.1402V23.8287C45.8139 27.1825 44.1284 29.4127 40.7405 29.4127C38.4252 29.4127 36.8419 28.3232 35.8885 27.3698V36.495H31.9048V0.862592ZM35.8885 24.1862C36.9781 25.1396 38.2549 25.6333 39.5658 25.6333C41.0129 25.6333 41.8812 24.9523 41.8812 23.318V6.63391C41.8812 4.99955 41.064 4.31857 39.5658 4.31857C38.2549 4.31857 36.9781 4.86336 35.8885 5.76566V24.1862Z" fill="black"/>
<path d="M48.2312 19.2831C48.2312 15.7931 49.3718 14.3801 52.4022 13.3416L57.7479 11.5199V6.75307C57.7479 5.06764 56.9307 4.16534 55.2453 4.16534H54.6154C52.93 4.16534 52.1128 5.06764 52.1128 6.75307V10.7368H48.2653V6.88926C48.2653 2.66718 50.3933 0.488037 54.6665 0.488037H55.4326C59.6547 0.488037 61.8338 2.6161 61.8338 6.88926V29.0722H57.8501V27.3017C56.7605 28.3402 55.2623 29.3957 52.9981 29.3957C49.8145 29.3957 48.3333 27.5741 48.3333 24.4075V19.2831H48.2312ZM57.7649 24.3224V15.027L54.1387 16.389C52.6916 16.9848 52.1809 17.6998 52.1809 19.3342V23.6414C52.1809 25.0034 52.8619 25.6843 54.1387 25.6843C55.3475 25.6333 56.437 25.2247 57.7649 24.3224Z" fill="black"/>
<path d="M77.8027 29.0893H73.819V6.36152C73.819 4.94848 73.138 4.31857 71.9123 4.31857C70.8227 4.31857 69.648 4.72716 68.235 5.73161V29.0893H64.2512V0.862592H68.235V2.68422C69.3756 1.59465 70.9078 0.556152 73.0869 0.556152C75.1299 0.556152 76.4918 1.37333 77.2069 2.87149C78.6199 1.64572 80.2883 0.556152 82.6037 0.556152C85.6851 0.556152 87.2684 2.4629 87.2684 5.54434V29.1233H83.2846V6.36152C83.2846 4.94848 82.6037 4.31857 81.3779 4.31857C80.2883 4.31857 79.1136 4.72716 77.7006 5.73161V29.0893H77.8027Z" fill="black"/>
<path d="M10.624 3.45032V8.65983L3.95035 15.01L10.624 21.275V26.5867L0.42627 16.9678V13.1543L10.624 3.45032Z" fill="#00B5D1"/>
<path d="M102.573 13.1543V16.9678L92.3757 26.5867V21.275L99.0493 15.01L92.3757 8.62578V3.45032L102.573 13.1543Z" fill="#00B5D1"/>
</svg>
