<svg width="157" height="27" viewBox="0 0 157 27" fill="none" xmlns="http://www.w3.org/2000/svg">
<g clip-path="url(#clip0)">
<path d="M78.8312 0H72.2031V27H78.0993V9.20454H78.4653L84.7274 19.4727H87.8584L94.1206 9.20454H94.4865V27H100.423V0H93.9172L86.4352 12.2318L78.8312 0Z" fill="#BB0133"/>
<path d="M110.929 0H104.951V27H110.929V15.4636H113.897L122.152 27H129.919L118.899 12.6L128.943 0H121.501L113.857 9.94091L110.929 10.2682V0Z" fill="#BB0133"/>
<path d="M155.698 0H134.228V27H146.427C147.973 27 149.355 26.7955 150.657 26.4273C151.957 26.0181 153.056 25.4455 153.991 24.75C154.927 23.9728 155.658 23.0727 156.227 22.0091C156.716 20.8636 157 19.6773 157 18.2455C157 16.8136 156.716 15.5455 156.227 14.4C155.658 13.3364 154.927 12.4364 154.032 11.7409C153.056 11.0046 151.957 10.4727 150.657 10.1455C149.355 9.77727 147.973 9.61363 146.427 9.61363H140.206V5.44091H150.372L155.698 0ZM140.247 21.6V14.8909H146.631C148.013 14.8909 149.071 15.1772 149.802 15.7909C150.575 16.3636 150.941 17.1409 150.941 18.2455C150.941 19.2681 150.575 20.0455 149.802 20.7C149.071 21.2728 147.932 21.6 146.468 21.6H140.247Z" fill="#BB0133"/>
<path d="M33.3844 0.0409091L19.9656 13.5L13.2968 6.75L20.0062 0H6.7094H6.58741L0 6.75L20.1282 27L37.288 9.57273H47.5757L57.0503 0.0409091H33.3844Z" fill="#BB0133"/>
<path d="M22.8933 26.7137L24.8045 24.7909L38.0606 11.4546H57.091L47.5757 20.9865H41.9642L36.3528 26.7137H22.8933Z" fill="#BB0133"/>
</g>
<defs>
<clipPath id="clip0">
<rect width="157" height="27" fill="white"/>
</clipPath>
</defs>
</svg>
