<svg width="79" height="76" viewBox="0 0 79 76" fill="none" xmlns="http://www.w3.org/2000/svg">
<path d="M52.4 75.5L26.2 60.4L0 75.5V15.1L26.2 0L52.4 15.1L78.5 0V60.4L52.4 75.5Z" fill="#E30613"/>
<path d="M49.1 48.4V21.1L40.8 35.3L40.5 36.5V22.2H36.8V49.6L45 35.5L45.4 34.3V48.4H49.1Z" fill="white"/>
<path d="M29.8 48.4H33.4999V21.3L26.0999 34.2L18.7 21.3V48.4H22.3999V34.7L22.8999 35.9L26.0999 41.5L29.3 35.9L29.8 34.7V48.4Z" fill="white"/>
<path d="M52.3999 21.7C52.3999 23.2 52.3999 48.3999 52.3999 48.3999H56.0999V43.4999C61.1999 42.5999 65.0999 38.2 65.0999 32.8C65.0999 27.9 61.2999 21.7 52.3999 21.7ZM56.0999 39.7V25.5999C59.0999 26.3999 61.3999 28.8999 61.3999 32.5999C61.3999 36.4999 59.0999 38.9 56.0999 39.7Z" fill="white"/>
<path d="M20.5999 53.1L19.5999 51.1H18.7L20.2 54L19.5999 55.1H20.4999L22.3 51.1H21.3999L20.5999 53.1Z" fill="white"/>
<path d="M24.3999 55.1H25.1999V51.8H26.6999V55.1H27.4999V51.1H24.3999V55.1Z" fill="white"/>
<path d="M29.5999 55.1H30.3998L30.7999 54.3H32.3998L32.7999 55.1H33.5999L31.5999 51L29.5999 55.1ZM32.0999 53.6H30.9998L31.4998 52.4L32.0999 53.6Z" fill="white"/>
<path d="M38.8999 51.1H37.8999L36.3999 52.8V51.1H35.7V55.1H36.3999V53.4L36.4999 53.3L37.8999 55.1H38.9999L37.2 52.9L38.8999 51.1Z" fill="white"/>
<path d="M42.9999 51C41.7999 51 40.8999 51.9 40.8999 53.1C40.8999 54.3 41.7999 55.2 42.9999 55.2C44.1999 55.2 45.0999 54.3 45.0999 53.1C45.0999 51.9 44.2999 51 42.9999 51ZM42.9999 54.4C42.1999 54.4 41.6999 53.8 41.6999 53C41.6999 52.2 42.1999 51.6 42.9999 51.6C43.7999 51.6 44.2999 52.2 44.2999 53C44.2999 53.9 43.7999 54.4 42.9999 54.4Z" fill="white"/>
<path d="M49.3 52.9C49.4 52.8 49.7 52.6 49.7 52.1C49.7 51.8 49.6 51.5 49.3 51.3C49 51.1 48.6 51.1 48.3 51.1H47.3V55.1H48.6C48.9 55.1 49.3 55 49.6 54.8C49.9 54.6 49.9 54.2 49.9 54C49.9 53.8 49.9 53.5 49.6 53.3C49.7 53.1 49.6 53 49.3 52.9ZM48.2 51.7H48.4C48.7 51.7 49 51.8 49 52.2C49 52.7 48.5 52.7 48.4 52.7H48.2V51.7ZM49.1 54.3C48.9 54.4 48.7 54.4 48.6 54.4H48.3V53.3H48.6C48.8 53.3 49 53.3 49.1 53.4C49.3 53.5 49.4 53.7 49.4 53.9C49.3 54 49.3 54.2 49.1 54.3Z" fill="white"/>
<path d="M55.7 51.1H54.7L53.2 52.8V51.1H52.5V55.1H53.2V53.4L53.3 53.3L54.7 55.1H55.8L54 52.9L55.7 51.1Z" fill="white"/>
<path d="M58.6999 53.5V51.1H57.8999V55.3L60.5999 52.8V55.1H61.3999V50.9L58.6999 53.5Z" fill="white"/>
</svg>
