<svg width="102" height="102" viewBox="0 0 102 102" fill="none" xmlns="http://www.w3.org/2000/svg">
<rect x="19.3594" y="0.908081" width="84.0355" height="84.0355" transform="rotate(12.785 19.3594 0.908081)" fill="#D3E4F2"/>
<path d="M98.2087 40.9266L53.5348 2.30266C52.5719 1.47025 51.0763 2.15095 51.0715 3.42378L50.8526 62.4811C50.8476 63.8325 52.5001 64.4914 53.4264 63.5074L66.0882 50.0541L76.0724 72.0276C76.4127 72.7765 77.2956 73.1076 78.0444 72.7675L87.7316 68.3658C88.4805 68.0256 88.8116 67.1427 88.4715 66.3939L78.3587 44.1374L97.2817 43.5418C98.6372 43.4989 99.2348 41.8137 98.2087 40.9266Z" fill="#D3E4F2"/>
<path d="M68.0967 45.556L78.2828 67.9738C78.4145 68.2635 78.7561 68.3917 79.0458 68.2601L83.6777 66.1554C83.9674 66.0237 84.0955 65.6822 83.964 65.3924L73.6407 42.6728C73.1979 41.6982 73.8892 40.5868 74.9591 40.5531L90.7875 40.055C91.0524 40.0467 91.1691 39.7174 90.9687 39.5441L55.4478 8.83407C55.171 8.59479 54.741 8.7905 54.7397 9.15635L54.5654 56.1796C54.5644 56.4436 54.8873 56.5723 55.0681 56.3801L65.6389 45.1486C66.3699 44.3716 67.6554 44.5847 68.0967 45.556Z" fill="white"/>
<path d="M98.9192 40.1036L62.3731 8.50687C61.9184 8.11374 61.2311 8.16374 60.8383 8.6183C60.4452 9.07286 60.4952 9.76013 60.9497 10.1531L97.4958 41.75C97.6761 41.9059 97.6457 42.0909 97.6115 42.1873C97.5774 42.2837 97.4844 42.4467 97.2461 42.4543L78.3231 43.0499C77.9594 43.0613 77.6255 43.2537 77.4332 43.5628C77.2411 43.8718 77.2159 44.2564 77.3665 44.5877L87.4793 66.8442C87.5392 66.9758 87.5114 67.0929 87.4897 67.1511C87.4679 67.2092 87.4116 67.3156 87.2802 67.3753L77.5931 71.777C77.3914 71.8684 77.1534 71.7791 77.0619 71.5777L69.9805 55.9929C69.732 55.4456 69.0868 55.2039 68.5397 55.4523C67.9926 55.7009 67.7506 56.346 67.9991 56.8931L75.0804 72.4778C75.5117 73.4271 76.4504 73.9891 77.4309 73.9891C77.7869 73.9891 78.1486 73.9149 78.4933 73.7583L88.1806 69.3567C89.4745 68.7687 90.0488 67.2378 89.461 65.9438L80.0236 45.1738L97.3148 44.6297C98.3839 44.596 99.3056 43.9228 99.663 42.9147C100.02 41.9064 99.7282 40.8032 98.9192 40.1036Z" fill="black"/>
<path d="M68.3267 52.3498L67.0793 49.6043C66.9293 49.2741 66.6245 49.0403 66.2666 48.9809C65.9083 48.9213 65.5448 49.0445 65.2962 49.3086L52.6343 62.7619C52.4713 62.9348 52.2882 62.8973 52.1938 62.8595C52.099 62.8218 51.9403 62.7229 51.9412 62.4855L52.1602 3.42816C52.161 3.20445 52.3078 3.10446 52.3952 3.0646C52.4825 3.02503 52.6543 2.97989 52.8236 3.12617L57.0072 6.74324C57.4619 7.13637 58.1492 7.08637 58.5421 6.63181C58.9352 6.17725 58.8852 5.48998 58.4306 5.09698L54.2469 1.47992C53.4759 0.813504 52.421 0.66165 51.4935 1.08378C50.5661 1.50592 49.9875 2.40104 49.9837 3.42016L49.7647 62.4776C49.7608 63.5432 50.3978 64.4867 51.3876 64.8813C51.7009 65.0061 52.0263 65.0669 52.348 65.0669C53.0427 65.0669 53.7199 64.7839 54.219 64.2536L65.7689 51.9819L66.3452 53.2503C66.5939 53.7975 67.239 54.0394 67.786 53.7908C68.3333 53.5421 68.5754 52.897 68.3267 52.3498Z" fill="black"/>
</svg>
