<svg width="107" height="102" viewBox="0 0 107 102" fill="none" xmlns="http://www.w3.org/2000/svg">
<rect x="19.5498" y="0.907959" width="84.0355" height="84.0355" transform="rotate(12.785 19.5498 0.907959)" fill="#D3E4F2"/>
<g clip-path="url(#clip0)">
<path d="M48.1056 44.6116C48.1056 56.6573 57.8704 66.4221 69.9161 66.4221C81.9617 66.4221 91.7266 56.6573 91.7266 44.6116C91.7266 32.566 81.9617 22.8011 69.9161 22.8011C57.8704 22.8011 48.1056 32.566 48.1056 44.6116Z" fill="#EDEDED"/>
<path d="M71.9732 80.4432C72.6375 80.4432 73.261 80.1223 73.6472 79.5816L79.9158 70.8055C80.5046 69.9811 80.8213 68.9933 80.8213 67.98C80.8213 66.9667 80.5048 65.9788 79.9158 65.1544L73.6472 56.3783C73.261 55.8377 72.6375 55.5167 71.9732 55.5167C70.8371 55.5167 69.916 56.4377 69.916 57.574V59.9874C61.4242 59.9874 54.5402 53.1034 54.5402 44.6116H38.7582C38.7582 61.8196 52.7081 75.7695 69.9161 75.7695V78.3859C69.9161 79.5221 70.8372 80.4432 71.9732 80.4432Z" fill="#F9F9F9"/>
<path d="M38.8448 46.9483C39.132 50.8192 40.1274 54.4924 41.7001 57.8409L43.7217 59.2849C44.5461 59.8738 45.534 60.1904 46.5473 60.1904C47.5606 60.1904 48.5485 59.8739 49.3729 59.2849L57.4033 53.5489C56.4821 52.2616 55.7552 50.8261 55.2641 49.2853C55.2641 49.2853 54.6003 47.7104 54.7163 46.9485C54.6001 46.1865 54.5399 45.4062 54.5399 44.6117H39.1067C38.9909 45.3816 38.903 46.1609 38.8448 46.9483Z" fill="#D3E4F2"/>
<path d="M34.0844 46.6688C34.0844 47.333 34.4053 47.9565 34.946 48.3427L43.722 54.6113C44.5464 55.2002 45.5343 55.5168 46.5476 55.5168C47.5609 55.5168 48.5488 55.2003 49.3732 54.6113L58.1493 48.3427C58.6898 47.9565 59.0108 47.333 59.0108 46.6688C59.0108 45.5326 58.0899 44.6115 56.9536 44.6115H54.5402C54.5402 36.1197 61.4242 29.2357 69.916 29.2357V13.4536C52.708 13.4536 38.7581 27.4035 38.7581 44.6115H36.1417C35.0055 44.6115 34.0844 45.5326 34.0844 46.6688Z" fill="#F9F9F9"/>
<path d="M67.5804 13.5408C63.7095 13.8277 60.0363 14.8233 56.6878 16.3961L55.2437 18.4177C54.6549 19.2421 54.3381 20.23 54.3381 21.2433C54.3381 22.2566 54.6546 23.2445 55.2437 24.0689L60.9798 32.0993C62.2671 31.1781 63.7026 30.4512 65.2434 29.9601C65.2434 29.9601 66.8182 29.2963 67.5802 29.4123C68.3422 29.2961 69.1225 29.2359 69.917 29.2359V13.8027C69.1471 13.6869 68.3678 13.599 67.5804 13.5408Z" fill="#D3E4F2"/>
<path d="M67.8591 8.78003C67.1948 8.78003 66.5713 9.10089 66.1851 9.64158L59.9165 18.4177C59.3277 19.2421 59.011 20.2299 59.011 21.2432C59.011 22.2566 59.3275 23.2444 59.9165 24.0688L66.1851 32.8449C66.5713 33.3855 67.1948 33.7065 67.8591 33.7065C68.9952 33.7065 69.9163 32.7854 69.9163 31.6492V29.2358C78.4081 29.2358 85.2921 36.1198 85.2921 44.6116H101.074C101.074 27.4036 87.1244 13.4537 69.9163 13.4537V10.8373C69.9163 9.70113 68.9954 8.78003 67.8591 8.78003Z" fill="#F9F9F9"/>
<path d="M100.725 44.6116C100.841 43.8415 100.929 43.0622 100.987 42.2748C100.7 38.404 99.7047 34.7307 98.1319 31.3822L96.1104 29.9382C95.286 29.3494 94.2981 29.0327 93.2848 29.0327C92.2715 29.0327 91.2836 29.3492 90.4592 29.9382L82.4288 35.6742C83.35 36.9616 84.0769 38.397 84.568 39.9379C84.568 39.9379 85.2922 43.8172 85.2922 44.6116H100.725Z" fill="#D3E4F2"/>
<path d="M105.747 42.5544C105.747 41.8901 105.426 41.2666 104.886 40.8804L96.1094 34.6118C95.285 34.023 94.2972 33.7063 93.2838 33.7063C92.2705 33.7063 91.2827 34.0228 90.4583 34.6118L81.6822 40.8804C81.1416 41.2666 80.8206 41.8901 80.8206 42.5544C80.8206 43.6905 81.7417 44.6116 82.8779 44.6116H85.2913C85.2913 53.1034 78.4072 59.9874 69.9155 59.9874V75.7695C87.1235 75.7695 101.073 61.8197 101.073 44.6116H103.69C104.826 44.6116 105.747 43.6905 105.747 42.5544Z" fill="#F9F9F9"/>
<path d="M69.9171 59.9874V75.4181C70.6935 75.5349 71.4794 75.6226 72.2736 75.681C76.1374 75.392 79.8037 74.397 83.1464 72.827L84.5905 70.8054C85.1793 69.981 85.4961 68.9931 85.4961 67.9798C85.4961 66.9665 85.1796 65.9786 84.5905 65.1542L78.8544 57.1238C77.5671 58.045 76.1316 58.7719 74.5908 59.263C74.5908 59.2631 70.7143 59.9874 69.9171 59.9874Z" fill="#D3E4F2"/>
<path d="M62.1273 74.7878C64.617 75.4285 67.2271 75.7695 69.9168 75.7695V78.3859C69.9168 79.5221 70.8379 80.4432 71.9741 80.4432C72.6383 80.4432 73.2618 80.1223 73.648 79.5816L79.9166 70.8055C80.5055 69.9811 80.8223 68.9933 80.8223 67.9799C80.8223 66.9666 80.5057 65.9788 79.9166 65.1544L73.648 56.3783C73.2618 55.8377 72.6385 55.5167 71.9741 55.5167C70.8379 55.5167 69.9168 56.4377 69.9168 57.574V59.9874C67.074 59.9874 64.4119 59.215 62.1273 57.8697V74.7878Z" fill="#F9F9F9"/>
<path d="M82.4623 73.1644C82.6644 73.5804 83.0808 73.8225 83.5141 73.8226C83.6855 73.8226 83.8594 73.7848 84.0239 73.7049C89.4024 71.092 93.9505 67.0421 97.1763 61.993C100.281 57.1329 102.015 51.5505 102.221 45.7798H103.691C105.469 45.78 106.916 44.3331 106.916 42.5543C106.916 41.515 106.411 40.5338 105.565 39.9296L96.7893 33.661C95.7605 32.9264 94.5486 32.5379 93.2845 32.5379C92.0203 32.5379 90.8084 32.9262 89.7798 33.661L81.0037 39.9296C80.1579 40.5339 79.6531 41.5151 79.6531 42.5543C79.6531 44.3329 81.1 45.78 82.8787 45.78H84.075C83.7333 49.8848 81.6056 53.6902 78.2375 56.1283C77.7149 56.5066 77.5978 57.2371 77.9762 57.7599C78.3546 58.2824 79.0851 58.3996 79.6078 58.0212C83.8985 54.9151 86.4604 49.902 86.4604 44.6114C86.4604 43.9661 85.9372 43.443 85.292 43.443H82.8786C82.3885 43.443 81.9899 43.0444 81.9899 42.5543C81.9899 42.268 82.129 41.9976 82.362 41.8309L91.1381 35.5625C91.7681 35.1127 92.5103 34.8748 93.2845 34.8748C94.0587 34.8748 94.801 35.1127 95.431 35.5628L104.207 41.8314C104.44 41.9977 104.579 42.2681 104.579 42.5546C104.579 43.0447 104.181 43.4433 103.691 43.4433H101.074C100.429 43.4433 99.9057 43.9665 99.9057 44.6117C99.9057 56.1958 93.4289 66.5383 83.0029 71.6031C82.4223 71.8849 82.1804 72.584 82.4623 73.1644ZM98.4686 32.0648C97.8882 32.3468 97.1891 32.1047 96.9071 31.5244C91.8423 21.0988 81.4999 14.6221 69.916 14.6221C69.2707 14.6221 68.7476 14.0989 68.7476 13.4537V10.8372C68.7476 10.3471 68.349 9.9485 67.8589 9.9485C67.5726 9.9485 67.3022 10.0877 67.1357 10.3207L60.8671 19.0967C60.4171 19.7268 60.1792 20.4691 60.1792 21.2432C60.1792 22.0174 60.4171 22.7596 60.8672 23.3896L67.1357 32.1657C67.3022 32.3988 67.5724 32.5379 67.859 32.5379C68.3491 32.5379 68.7478 32.1392 68.7478 31.6491V29.2358C68.7478 28.5904 69.271 28.0674 69.9162 28.0674C75.2066 28.0674 80.2196 30.629 83.3259 34.9199C83.7043 35.4425 83.5874 36.1731 83.0646 36.5515C82.8575 36.7014 82.618 36.7735 82.3804 36.7735C82.0183 36.7735 81.6615 36.6057 81.4328 36.29C78.9947 32.922 75.1892 30.7942 71.0845 30.4526V31.6489C71.0845 33.4275 69.6376 34.8745 67.8589 34.8745C66.8196 34.8745 65.8385 34.3697 65.2342 33.5239L58.9656 24.7478C58.2308 23.7193 57.8423 22.5074 57.8423 21.2432C57.8423 19.9791 58.2307 18.7672 58.9655 17.7384L65.2342 8.96222C65.8384 8.11642 66.8196 7.61157 67.8588 7.61157C69.6374 7.61157 71.0844 9.05847 71.0844 10.8372V12.3064C76.8548 12.5128 82.4372 14.2464 87.2972 17.3512C92.3461 20.577 96.396 25.1249 99.009 30.5034C99.2911 31.0837 99.0492 31.7828 98.4686 32.0648ZM36.1417 43.4432H37.6108C38.0566 31.0554 45.5611 19.9671 56.9851 14.9757C57.5764 14.7175 58.2653 14.9873 58.5235 15.5786C58.7819 16.17 58.5119 16.8587 57.9206 17.117C46.9896 21.893 39.9265 32.6853 39.9265 44.6116C39.9265 45.2569 39.4033 45.78 38.7581 45.78H36.1417C35.6516 45.78 35.2529 46.1786 35.2529 46.6687C35.2529 46.955 35.3921 47.2254 35.6251 47.3919L44.4012 53.6605C45.0312 54.1105 45.7734 54.3484 46.5476 54.3484C47.3217 54.3484 48.064 54.1105 48.6941 53.6604L57.4701 47.3918C57.7033 47.2254 57.8423 46.955 57.8423 46.6685C57.8423 46.1784 57.4437 45.7798 56.9536 45.7798H54.5402C53.8949 45.7798 53.3718 45.2566 53.3718 44.6114C53.3718 39.321 55.9335 34.3079 60.2243 31.2017C60.7469 30.8231 61.4776 30.9402 61.8559 31.463C62.2343 31.9858 62.1174 32.7162 61.5946 33.0946C58.2266 35.5327 56.099 39.3382 55.7572 43.4429H56.9534C58.732 43.4432 60.1791 44.8902 60.1791 46.6688C60.1791 47.7082 59.6742 48.6894 58.8284 49.2935L50.0524 55.5621C49.0236 56.2968 47.8118 56.6853 46.5476 56.6853C45.2834 56.6853 44.0715 56.2969 43.0429 55.5621L34.2667 49.2935C33.4209 48.6894 32.9162 47.708 32.9162 46.6688C32.916 44.8901 34.3631 43.4432 36.1417 43.4432ZM41.3633 57.1582C41.9439 56.8762 42.643 57.1182 42.9248 57.6986C47.9898 68.1244 58.3321 74.6011 69.916 74.6011C70.5613 74.6011 71.0844 75.1243 71.0844 75.7695V78.3859C71.0844 78.876 71.483 79.2747 71.9731 79.2747C72.2594 79.2747 72.5299 79.1355 72.6964 78.9025L78.965 70.1264C79.415 69.4964 79.6529 68.7541 79.6529 67.98C79.6529 67.2057 79.415 66.4635 78.965 65.8335L72.6965 57.0575C72.53 56.8243 72.2597 56.6853 71.9731 56.6853C71.483 56.6853 71.0844 57.0839 71.0844 57.574V59.9874C71.0844 60.6327 70.5612 61.1558 69.916 61.1558C64.6256 61.1558 59.6125 58.5941 56.5063 54.3033C56.1279 53.7806 56.2448 53.05 56.7676 52.6717C57.2903 52.2931 58.0209 52.4102 58.3992 52.933C60.8373 56.301 64.6428 58.4288 68.7475 58.7704V57.5742C68.7475 55.7956 70.1944 54.3485 71.9731 54.3485C73.0124 54.3485 73.9935 54.8533 74.5978 55.6991L80.8664 64.4752C81.6012 65.5039 81.9897 66.7158 81.9897 67.98C81.9897 69.244 81.6014 70.4559 80.8666 71.4847L74.598 80.2608C73.9938 81.1066 73.0126 81.6114 71.9733 81.6114C70.1947 81.6114 68.7476 80.1645 68.7476 78.3858V76.9166C62.9772 76.7102 57.3948 74.9766 52.5348 71.8718C47.4858 68.646 43.436 64.098 40.823 58.7196C40.5408 58.1394 40.7828 57.4402 41.3633 57.1582Z" fill="black"/>
</g>
<defs>
<clipPath id="clip0">
<rect width="74" height="74" transform="matrix(-1 0 0 1 106.916 7.61157)" fill="white"/>
</clipPath>
</defs>
</svg>
