<svg width="107" height="102" viewBox="0 0 107 102" fill="none" xmlns="http://www.w3.org/2000/svg">
<rect x="19.3594" y="0.748047" width="84.0355" height="84.0355" transform="rotate(12.785 19.3594 0.748047)" fill="#D3E4F2"/>
<path d="M54.3562 33.0415H95.4292C96.9301 33.0415 98.147 34.2584 98.147 35.7595V67.0164C98.147 68.5176 96.9301 69.7344 95.4292 69.7344H46.2035C44.7022 69.7344 43.4854 68.5175 43.4854 67.0164V35.7595C43.4854 34.2584 44.7022 33.0415 46.2035 33.0415H50.5475" fill="#F9F9F9"/>
<path d="M58.1316 49.1992C59.9663 49.1992 61.4536 47.7119 61.4536 45.8772C61.4536 44.0425 59.9663 42.5552 58.1316 42.5552C56.2969 42.5552 54.8096 44.0425 54.8096 45.8772C54.8096 47.7119 56.2969 49.1992 58.1316 49.1992Z" fill="#D3E4F2"/>
<path d="M83.5007 49.1988C85.3354 49.1988 86.8227 47.7115 86.8227 45.8768C86.8227 44.0421 85.3354 42.5548 83.5007 42.5548C81.666 42.5548 80.1787 44.0421 80.1787 45.8768C80.1787 47.7115 81.666 49.1988 83.5007 49.1988Z" fill="#D3E4F2"/>
<path d="M70.8169 22.472C73.8192 22.472 76.253 20.0382 76.253 17.0359C76.253 14.0337 73.8192 11.5999 70.8169 11.5999C67.8147 11.5999 65.3809 14.0337 65.3809 17.0359C65.3809 20.0382 67.8147 22.472 70.8169 22.472Z" fill="#D3E4F2"/>
<path d="M73.0984 76.6806H63.0414C61.5403 76.6806 60.3232 75.4636 60.3232 73.9626V72.4527C60.3232 70.9516 61.5403 69.7347 63.0414 69.7347H78.5942C80.0954 69.7347 81.3123 70.9516 81.3123 72.4527V73.9626C81.3123 75.4637 80.0956 76.6806 78.5942 76.6806H76.9075" fill="#D3E4F2"/>
<path d="M80.7826 28.2097H60.8508C59.3494 28.2097 58.1328 29.4265 58.1328 30.9277V33.0415H83.5007V30.9277C83.5006 29.4265 82.2837 28.2097 80.7826 28.2097Z" fill="#F9F9F9"/>
<path d="M43.4869 42.556C39.3757 42.5796 36.0498 46.4567 36.0498 51.2372C36.0498 56.0178 39.3757 59.8949 43.4869 59.9186V42.556Z" fill="#D3E4F2"/>
<path d="M98.1475 42.556C102.258 42.5796 105.585 46.4568 105.585 51.2374C105.585 56.0181 102.258 59.895 98.1475 59.9187V42.556Z" fill="#D3E4F2"/>
<path d="M78.3668 59.9194C78.3668 61.4205 77.15 62.6374 75.6487 62.6374H65.9847C64.4835 62.6374 63.2666 61.4205 63.2666 59.9194V57.6544C63.2666 56.1533 64.4835 54.9364 65.9847 54.9364H75.6487C77.1499 54.9364 78.3668 56.1533 78.3668 57.6544V59.9194Z" fill="#D3E4F2"/>
<g opacity="0.2">
<path opacity="0.2" d="M58.4137 45.8764C58.4137 44.7063 59.0192 43.6782 59.9337 43.0864C59.4145 42.7503 58.7962 42.5544 58.1318 42.5544C56.2969 42.5544 54.8096 44.0418 54.8096 45.8764C54.8096 47.7112 56.2969 49.1984 58.1318 49.1984C58.7962 49.1984 59.4145 49.0025 59.9337 48.6665C59.0194 48.0748 58.4137 47.0466 58.4137 45.8764Z" fill="black"/>
</g>
<g opacity="0.2">
<path opacity="0.2" d="M83.7836 45.8766C83.7836 44.7064 84.3893 43.6783 85.3038 43.0864C84.7845 42.7503 84.1662 42.5544 83.5018 42.5544C81.6669 42.5544 80.1797 44.0418 80.1797 45.8764C80.1797 47.7112 81.6669 49.1984 83.5018 49.1984C84.1662 49.1984 84.7845 49.0025 85.3038 48.6665C84.3892 48.075 83.7836 47.0468 83.7836 45.8766Z" fill="black"/>
</g>
<g opacity="0.2">
<path opacity="0.2" d="M64.4547 28.2098H60.8508C59.3494 28.2098 58.1328 29.4266 58.1328 30.9278V33.0416H61.7369V30.9278C61.7369 29.4266 62.9534 28.2098 64.4547 28.2098Z" fill="black"/>
</g>
<path d="M58.1319 41.4119C55.6701 41.4119 53.667 43.4149 53.667 45.8765C53.667 48.3382 55.67 50.3412 58.1319 50.3412C60.5936 50.3412 62.5965 48.3384 62.5965 45.8765C62.5965 43.4147 60.5938 41.4119 58.1319 41.4119ZM58.1319 48.0557C56.9301 48.0557 55.9524 47.078 55.9524 45.8765C55.9524 44.6748 56.9301 43.6974 58.1319 43.6974C59.3334 43.6974 60.311 44.6751 60.311 45.8765C60.311 47.0781 59.3334 48.0557 58.1319 48.0557Z" fill="black"/>
<path d="M83.5009 50.3412C85.9626 50.3412 87.9656 48.3384 87.9656 45.8765C87.9656 43.4147 85.9626 41.4119 83.5009 41.4119C81.0391 41.4119 79.0361 43.4149 79.0361 45.8765C79.0361 48.3382 81.0391 50.3412 83.5009 50.3412ZM83.5009 43.6974C84.7027 43.6974 85.6801 44.6751 85.6801 45.8765C85.6801 47.078 84.7025 48.0557 83.5009 48.0557C82.2992 48.0557 81.3216 47.078 81.3216 45.8765C81.3218 44.6751 82.2995 43.6974 83.5009 43.6974Z" fill="black"/>
<path d="M106.727 51.2372C106.727 46.2869 103.482 42.1684 99.29 41.5081V35.7597C99.29 33.6309 97.5583 31.899 95.4295 31.899H84.6432V30.9278C84.6432 28.7989 82.9113 27.0671 80.7824 27.0671H71.9593V23.5132C75.0437 22.9704 77.3954 20.2736 77.3954 17.0359C77.3954 13.4084 74.4442 10.4573 70.8167 10.4573C67.1892 10.4573 64.2378 13.4085 64.2378 17.0359C64.2378 20.2736 66.5895 22.9704 69.6738 23.5132V27.0671H60.8505C58.7217 27.0671 56.9899 28.7989 56.9899 30.9278V31.899H54.3565C53.7253 31.899 53.2138 32.4106 53.2138 33.0417C53.2138 33.6728 53.7253 34.1844 54.3565 34.1844H95.4295C96.2979 34.1844 97.0046 34.8911 97.0046 35.7597V42.5557V59.9184V67.0165C97.0046 67.885 96.2979 68.5918 95.4295 68.5918H46.2036C45.335 68.5918 44.6282 67.885 44.6282 67.0165V59.9271C44.6282 59.924 44.6286 59.9213 44.6286 59.9183V42.556C44.6286 42.5529 44.6282 42.5502 44.6282 42.5472V35.7598C44.6282 34.8912 45.335 34.1845 46.2036 34.1845H50.5476C51.1789 34.1845 51.6903 33.6729 51.6903 33.0418C51.6903 32.4107 51.1789 31.8992 50.5476 31.8992H46.2036C44.0746 31.8992 42.3428 33.631 42.3428 35.7598V41.5083C38.1512 42.1687 34.9062 46.287 34.9062 51.2372C34.9062 56.1874 38.1512 60.3057 42.3428 60.9661V67.0166C42.3428 69.1454 44.0746 70.8773 46.2036 70.8773H59.5164C59.3004 71.3587 59.179 71.8916 59.179 72.4525V73.9625C59.179 76.0913 60.9109 77.8231 63.0398 77.8231H73.0968C73.7281 77.8231 74.2395 77.3115 74.2395 76.6804C74.2395 76.0493 73.7281 75.5378 73.0968 75.5378H63.0398C62.1712 75.5378 61.4644 74.831 61.4644 73.9625V72.4525C61.4644 71.584 62.1712 70.8773 63.0398 70.8773H78.5925C79.4611 70.8773 80.168 71.584 80.168 72.4525V73.9625C80.168 74.831 79.4611 75.5378 78.5925 75.5378H76.9059C76.2746 75.5378 75.7632 76.0493 75.7632 76.6804C75.7632 77.3115 76.2746 77.8231 76.9059 77.8231H78.5925C80.7215 77.8231 82.4533 76.0913 82.4533 73.9625V72.4525C82.4533 71.8916 82.332 71.3585 82.116 70.8773H95.4293C97.5581 70.8773 99.2898 69.1454 99.2898 67.0166V60.9661C103.482 60.306 106.727 56.1876 106.727 51.2372ZM66.5234 17.0359C66.5234 14.6685 68.4494 12.7426 70.8168 12.7426C73.1842 12.7426 75.1102 14.6686 75.1102 17.0359C75.1102 19.4032 73.1842 21.3292 70.8168 21.3292C68.4492 21.3292 66.5234 19.4033 66.5234 17.0359ZM59.2754 30.9278C59.2754 30.0592 59.9821 29.3525 60.8507 29.3525H70.8137C70.8148 29.3525 70.8157 29.3526 70.8167 29.3526C70.8176 29.3526 70.8186 29.3525 70.8196 29.3525H80.7825C81.6511 29.3525 82.3579 30.0592 82.3579 30.9278V31.899H59.2754V30.9278ZM37.1916 51.2372C37.1916 47.5677 39.4154 44.4922 42.3428 43.8303V58.644C39.4154 57.9822 37.1916 54.9068 37.1916 51.2372ZM99.29 58.6443V43.8303C102.218 44.4919 104.442 47.5675 104.442 51.2372C104.442 54.9068 102.218 57.9825 99.29 58.6443Z" fill="black"/>
<path d="M75.6478 53.7939H65.9838C63.8549 53.7939 62.123 55.5258 62.123 57.6546V59.9196C62.123 62.0484 63.8549 63.7803 65.9838 63.7803H75.6478C77.7768 63.7803 79.5086 62.0484 79.5086 59.9196V57.6546C79.5086 55.5258 77.7768 53.7939 75.6478 53.7939ZM77.2232 59.9196C77.2232 60.7882 76.5164 61.4949 75.6478 61.4949H65.9838C65.1153 61.4949 64.4084 60.7882 64.4084 59.9196V57.6546C64.4084 56.786 65.1153 56.0793 65.9838 56.0793H75.6478C76.5164 56.0793 77.2232 56.786 77.2232 57.6546V59.9196Z" fill="black"/>
</svg>
