<svg width="107" height="102" viewBox="0 0 107 102" fill="none" xmlns="http://www.w3.org/2000/svg">
<rect x="19.5498" y="0.748047" width="84.0355" height="84.0355" transform="rotate(12.785 19.5498 0.748047)" fill="#D3E4F2"/>
<rect x="91.1357" y="34.2295" width="13.9379" height="8.03699" fill="#F9F9F9"/>
<rect x="67.3818" y="34.2295" width="13.9379" height="8.03699" fill="#F9F9F9"/>
<rect x="43.6279" y="34.2295" width="13.9379" height="8.03699" fill="#F9F9F9"/>
<rect x="64.0771" y="6.04932" width="20.8533" height="9.86819" fill="#F9F9F9"/>
<path d="M103.66 32.8163H99.3177V25.2178C99.3177 24.6183 98.8317 24.1323 98.2322 24.1323H87.5519L75.4367 20.0942V17.6193H83.0352C84.8337 17.6193 86.2917 16.1613 86.2917 14.3628V7.84976C86.2917 6.05123 84.8337 4.59326 83.0352 4.59326H65.6672C63.8686 4.59326 62.4107 6.05123 62.4107 7.84976V14.3628C62.4107 16.1613 63.8686 17.6193 65.6672 17.6193H73.2657V20.0942L60.9821 24.1887C60.4127 24.376 60.1026 24.9894 60.2899 25.5589C60.3976 25.8866 60.6544 26.1434 60.9821 26.2512L73.2657 30.3413V32.8163H68.9237C67.1251 32.8163 65.6672 34.2742 65.6672 36.0728V37.1583H59.1541V36.0728C59.1541 34.2742 57.6962 32.8163 55.8976 32.8163H45.0426C43.2441 32.8163 41.7861 34.2742 41.7861 36.0728V40.4148C41.7861 42.2133 43.2441 43.6713 45.0426 43.6713H49.3846V54.6131C45.2303 55.2069 42.3439 59.056 42.9377 63.2103C43.5315 67.3647 47.3805 70.251 51.5349 69.6572C54.8777 69.1795 57.5041 66.553 57.9818 63.2103V61.0393C57.4979 57.7112 54.8838 55.097 51.5556 54.6131V43.6713H55.8976C57.6962 43.6713 59.1541 42.2133 59.1541 40.4148V39.3293H65.6672V40.4148C65.6672 42.2133 67.1251 43.6713 68.9237 43.6713H79.7787C81.5772 43.6713 83.0352 42.2133 83.0352 40.4148V39.3293H89.5482V40.4148C89.5482 42.2133 91.0061 43.6713 92.8047 43.6713H97.1467V54.6131C92.9931 55.2126 90.1121 59.0657 90.7116 63.2193C91.311 67.3728 95.1641 70.2539 99.3177 69.6544C103.471 69.0549 106.352 65.2018 105.753 61.0483C105.272 57.7139 102.652 55.0944 99.3177 54.6131V43.6713H103.66C105.458 43.6713 106.916 42.2133 106.916 40.4148V36.0728C106.916 34.2742 105.458 32.8163 103.66 32.8163ZM55.8976 62.1248C55.8976 65.1223 53.4676 67.5523 50.4701 67.5523C47.4727 67.5523 45.0426 65.1223 45.0426 62.1248C45.0426 59.1273 47.4727 56.6973 50.4701 56.6973C53.4661 56.7008 55.894 59.1288 55.8976 62.1248ZM56.9831 40.4148C56.9831 41.0143 56.4971 41.5003 55.8976 41.5003H45.0426C44.4432 41.5003 43.9571 41.0143 43.9571 40.4148V36.0728C43.9571 35.4733 44.4432 34.9873 45.0426 34.9873H55.8976C56.4971 34.9873 56.9831 35.4733 56.9831 36.0728V40.4148ZM65.6672 15.4483C65.0677 15.4483 64.5817 14.9622 64.5817 14.3628V7.84976C64.5817 7.2503 65.0677 6.76426 65.6672 6.76426H83.0352C83.6346 6.76426 84.1207 7.2503 84.1207 7.84976V14.3628C84.1207 14.9622 83.6346 15.4483 83.0352 15.4483H65.6672ZM64.7575 25.2178L74.3512 22.0199L83.9448 25.2178L74.3512 28.4157L64.7575 25.2178ZM80.8642 40.4148C80.8642 41.0143 80.3781 41.5003 79.7787 41.5003H68.9237C68.3242 41.5003 67.8382 41.0143 67.8382 40.4148V36.0728C67.8382 35.4733 68.3242 34.9873 68.9237 34.9873H79.7787C80.3781 34.9873 80.8642 35.4733 80.8642 36.0728V40.4148ZM89.5482 36.0728V37.1583H83.0352V36.0728C83.0352 34.2742 81.5772 32.8163 79.7787 32.8163H75.4367V30.3413L87.5519 26.3033H97.1467V32.8163H92.8047C91.0061 32.8163 89.5482 34.2742 89.5482 36.0728ZM103.66 62.1248C103.66 65.1223 101.23 67.5523 98.2322 67.5523C95.2347 67.5523 92.8047 65.1223 92.8047 62.1248C92.8047 59.1273 95.2347 56.6973 98.2322 56.6973C101.228 56.7008 103.656 59.1288 103.66 62.1248ZM104.745 40.4148C104.745 41.0143 104.259 41.5003 103.66 41.5003H92.8047C92.2052 41.5003 91.7192 41.0143 91.7192 40.4148V36.0728C91.7192 35.4733 92.2052 34.9873 92.8047 34.9873H103.66C104.259 34.9873 104.745 35.4733 104.745 36.0728V40.4148Z" fill="black"/>
</svg>
