<svg width="106" height="102" viewBox="0 0 106 102" fill="none" xmlns="http://www.w3.org/2000/svg">
<rect x="19.3594" y="0.558838" width="84.0355" height="84.0355" transform="rotate(12.785 19.3594 0.558838)" fill="#D3E4F2"/>
<path d="M100.825 31.2859L97.0448 31.0168C96.4292 28.8309 95.5572 26.7525 94.4646 24.8144L96.9451 21.952C98.2736 20.4189 98.1905 18.1221 96.7543 16.6889L91.7114 11.656C90.2742 10.2216 87.9705 10.1397 86.4345 11.4684L83.5685 13.9479C81.6258 12.8588 79.5425 11.99 77.3517 11.3774L77.0779 7.64086C76.931 5.6193 75.2449 4.08875 73.2139 4.08875H66.0821C64.0494 4.08875 62.3624 5.62181 62.2178 7.64517L61.9482 11.4C59.7655 12.0123 57.6898 12.8701 55.7535 13.9553L52.8851 11.4711C51.3491 10.1431 49.046 10.2232 47.6092 11.6573L42.5662 16.6891C41.1297 18.1226 41.0468 20.4196 42.3763 21.9526L44.8565 24.8123C43.7635 26.7504 42.8912 28.8286 42.2755 31.0145L38.4937 31.2848C36.4667 31.4298 34.8965 33.1131 34.8965 35.1413V42.2587C34.8965 44.2861 36.4657 45.9692 38.4918 46.115L42.2687 46.3868C42.8825 48.5733 43.7527 50.6524 44.8438 52.5914L42.3589 55.4542C41.0283 56.987 41.1108 59.2855 42.5478 60.7196L47.5907 65.7525C49.0271 67.1861 51.3292 67.2689 52.8652 65.9422L55.7308 63.4669C57.6729 64.5576 59.7553 65.4282 61.9457 66.0427L62.2167 69.8516C62.362 71.8745 64.0487 73.4763 66.081 73.4763H73.2128C75.2442 73.4763 76.9306 71.8754 77.0768 69.8533L77.3492 66.0666C79.5476 65.452 81.6379 64.571 83.5864 63.4767L86.4545 65.948C87.9907 67.2739 90.2921 67.1886 91.7281 65.7554L96.7712 60.7215C98.2084 59.2871 98.2905 56.9874 96.959 55.4546L94.4746 52.594C95.5659 50.6552 96.4363 48.5759 97.0503 46.3896L100.829 46.1162C102.855 45.9698 104.423 44.2868 104.423 42.26V35.1425C104.423 33.1138 102.852 31.4302 100.825 31.2859ZM69.6598 51.9766C62.3199 51.9766 56.3697 46.0383 56.3697 38.713C56.3697 31.3877 62.3197 25.4494 69.6598 25.4494C76.9997 25.4494 82.95 31.3877 82.95 38.713C82.95 46.0382 76.9997 51.9766 69.6598 51.9766Z" fill="white"/>
<path d="M69.6591 18.5931C58.525 18.5931 49.499 27.601 49.499 38.7129C49.499 49.8248 58.525 58.8327 69.6591 58.8327C80.7932 58.8327 89.8192 49.8248 89.8192 38.7129C89.8192 27.601 80.7932 18.5931 69.6591 18.5931ZM69.6591 51.9765C62.3192 51.9765 56.369 46.0381 56.369 38.7129C56.369 31.3876 62.3192 25.4493 69.6591 25.4493C76.999 25.4493 82.9493 31.3876 82.9493 38.7129C82.9493 46.0381 76.999 51.9765 69.6591 51.9765Z" fill="#D3E4F2"/>
<path d="M71.6488 51.8286C71 51.9258 70.336 51.9765 69.6601 51.9765C62.3202 51.9765 56.3699 46.0382 56.3699 38.7129C56.3699 31.3876 62.3202 25.4493 69.6601 25.4493C76.9309 25.4493 82.8369 31.2765 82.9476 38.5065C84.6158 34.9094 85.6491 30.9597 85.9065 26.8002C82.2365 21.8233 76.3266 18.5931 69.6601 18.5931C58.526 18.5931 49.5 27.601 49.5 38.7129C49.5 46.5704 54.0138 53.3748 60.5942 56.6871C64.612 55.7533 68.347 54.0836 71.6488 51.8286Z" fill="#D3E4F2"/>
<path d="M82.9479 38.7122C83.009 38.6805 82.9464 38.5751 82.9453 38.5067C82.9464 38.5751 82.9479 38.6435 82.9479 38.7122Z" fill="#D3E4F2"/>
<path d="M73.1838 74.3105H66.1087C63.5226 74.3105 61.3518 72.2898 61.167 69.7101L60.9532 66.726C59.2416 66.1943 57.5767 65.5028 55.9859 64.663L53.7256 66.6192C51.7708 68.3109 48.8078 68.204 46.9801 66.3761C46.5463 65.9423 46.5463 65.2387 46.9803 64.8048C47.414 64.3711 48.1176 64.371 48.5516 64.805C49.5594 65.8127 51.1933 65.8718 52.2713 64.9389L55.1141 62.4785C55.4684 62.1716 55.977 62.1204 56.3863 62.3503C58.2579 63.4037 60.2501 64.231 62.3071 64.8094C62.7582 64.9361 63.0814 65.3323 63.1148 65.7996L63.3836 69.5499C63.4856 70.9726 64.6826 72.0855 66.1087 72.0855H73.1838C74.6093 72.0855 75.8062 70.9731 75.9088 69.5513L76.179 65.8052C76.2126 65.3376 76.5362 64.942 76.9874 64.8154C79.0528 64.2368 81.0521 63.4078 82.93 62.3513C83.3388 62.1214 83.8475 62.1727 84.2018 62.4792L87.0471 64.94C88.1248 65.8722 89.7584 65.8133 90.7661 64.8055L95.7691 59.8028C96.7776 58.7941 96.8359 57.1594 95.9015 56.0815L93.4369 53.2381C93.1297 52.8839 93.0781 52.375 93.3077 51.9662C94.3594 50.0937 95.1851 48.1009 95.7617 46.0434C95.8881 45.5921 96.284 45.2687 96.7513 45.2349L100.499 44.9633C101.92 44.8603 103.032 43.6633 103.032 42.2383V35.1633C103.032 33.7367 101.919 32.5396 100.496 32.4382L96.7468 32.1708C96.2791 32.1375 95.8832 31.8143 95.7563 31.3631C95.1781 29.3059 94.3511 27.3137 93.2981 25.4418C93.0682 25.0334 93.1196 24.5244 93.426 24.17L95.8869 21.3247C96.8191 20.2469 96.76 18.6133 95.7524 17.6057L90.7494 12.6034C89.7407 11.5944 88.1058 11.5364 87.028 12.4707L84.1847 14.9353C83.8307 15.2425 83.3216 15.2941 82.9128 15.0645C81.041 14.013 79.0482 13.1874 76.9898 12.6105C76.5387 12.4841 76.2153 12.0882 76.1815 11.6208L75.9098 7.8735C75.8069 6.4521 74.61 5.34009 73.1849 5.34009H66.1098C64.6832 5.34009 63.4862 6.45349 63.3848 7.87642L63.1173 11.6256C63.0839 12.0932 62.7607 12.4891 62.3095 12.6161C60.2592 13.1921 58.2735 14.0155 56.4078 15.0635C55.9993 15.2931 55.4902 15.2414 55.1362 14.9345L52.2904 12.4694C51.2125 11.5356 49.5783 11.5939 48.5697 12.6024L43.5669 17.6051C42.5588 18.613 42.5001 20.247 43.433 21.3248L45.8934 24.1676C46.2003 24.5221 46.2515 25.031 46.0216 25.4398C44.968 27.3119 44.1407 29.3041 43.5623 31.3609C43.4357 31.8119 43.0395 32.135 42.5721 32.1685L38.8217 32.4373C37.3994 32.5392 36.2864 33.7362 36.2864 35.1624V42.2375C36.2864 43.663 37.3988 44.8599 38.8206 44.9625L42.5669 45.2328C43.0344 45.2665 43.43 45.5899 43.5565 46.0413C44.1332 48.0995 44.9586 50.0923 46.0098 51.9642C46.2394 52.3729 46.1877 52.8817 45.8808 53.2359L43.4156 56.0815C42.4818 57.1594 42.5402 58.7937 43.5487 59.8023L45.9666 62.2201C46.4006 62.654 46.4006 63.3576 45.9667 63.7914C45.5327 64.2254 44.8291 64.2253 44.3954 63.7916L41.9774 61.3737C40.1487 59.545 40.0426 56.5812 41.7359 54.6264L43.6968 52.3628C42.8587 50.7719 42.1686 49.106 41.6383 47.3937L38.6593 47.1789C36.0813 46.993 34.0615 44.8223 34.0615 42.2373V35.1623C34.0615 32.576 36.0822 30.4054 38.662 30.2208L41.6459 30.0069C42.1775 28.2954 42.8692 26.6304 43.709 25.0395L41.7528 22.7792C40.0611 20.8244 40.1678 17.8614 41.9958 16.0337L46.9983 11.031C48.8269 9.20271 51.7908 9.09633 53.7456 10.7897L56.0091 12.7505C57.5934 11.9159 59.2513 11.2282 60.9554 10.6989L61.168 7.71693C61.3521 5.13665 63.5228 3.11523 66.1098 3.11523H73.1849C75.769 3.11523 77.9397 5.13429 78.1263 7.71164L78.3422 10.6928C80.0547 11.2232 81.7205 11.9134 83.3113 12.7516L85.5724 10.7917C87.5271 9.09703 90.4913 9.20285 92.3208 11.032L97.3236 16.0347C99.1507 17.862 99.2579 20.8244 97.5674 22.7789L95.6103 25.0417C96.45 26.6326 97.1414 28.2978 97.673 30.0093L100.655 30.2217C103.235 30.4058 105.257 32.5765 105.257 35.1635V42.2386C105.257 44.8227 103.238 46.9932 100.66 47.1801L97.6793 47.3961C97.149 49.1081 96.4589 50.7737 95.6204 52.365L97.5804 54.6261C99.2749 56.5808 99.1693 59.5452 97.3402 61.3744L92.3374 66.3773C90.5099 68.2046 87.5474 68.3115 85.5932 66.6212L83.3303 64.664C81.7326 65.5073 80.0599 66.2011 78.3399 66.7337L78.1252 69.7125C77.9394 72.2908 75.7688 74.3105 73.1838 74.3105ZM69.6592 53.0083C61.7768 53.0083 55.3638 46.5954 55.3638 38.7127C55.3638 30.8304 61.7767 24.4174 69.6592 24.4174C71.0955 24.4174 72.5134 24.6298 73.8736 25.0491C74.46 25.2299 74.789 25.8516 74.6081 26.4381C74.4276 27.0246 73.8053 27.3536 73.2191 27.1726C72.0712 26.819 70.8735 26.6396 69.6592 26.6396C63.002 26.6396 57.5861 32.0556 57.5861 38.7126C57.5861 45.3696 63.0021 50.7858 69.6592 50.7858C76.3162 50.7858 81.7323 45.3696 81.7323 38.7126C81.7323 34.9023 79.9887 31.3941 76.9489 29.0878C76.46 28.7169 76.3645 28.0198 76.7353 27.531C77.1059 27.0423 77.803 26.9465 78.292 27.3175C81.8906 30.0475 83.9545 34.201 83.9545 38.7126C83.9547 46.5954 77.5417 53.0083 69.6592 53.0083Z" fill="black"/>
</svg>
