<svg width="54" height="55" viewBox="0 0 54 55" fill="none" xmlns="http://www.w3.org/2000/svg">
<path d="M50.6916 21.9366L47.8701 21.7358C47.4106 20.104 46.7596 18.5526 45.944 17.1058L47.7956 14.9691C48.7873 13.8248 48.7253 12.1103 47.6532 11.0405L43.8889 7.2836C42.816 6.21281 41.0964 6.15168 39.9498 7.14357L37.8104 8.9944C36.3603 8.18145 34.8052 7.53292 33.1698 7.07558L32.9655 4.28642C32.8558 2.7774 31.5972 1.63489 30.0811 1.63489H24.7575C23.2402 1.63489 21.9809 2.77927 21.8729 4.28964L21.6717 7.0925C20.0423 7.54953 18.4929 8.18986 17.0475 8.9999L14.9064 7.14555C13.7598 6.15427 12.0406 6.21406 10.9681 7.28453L7.20372 11.0406C6.13138 12.1106 6.06952 13.8253 7.06194 14.9697L8.91328 17.1043C8.09743 18.551 7.4463 20.1023 6.98668 21.734L4.16368 21.9358C2.65061 22.044 1.47852 23.3005 1.47852 24.8145V30.1274C1.47852 31.6408 2.64988 32.8972 4.16233 33.006L6.9816 33.2089C7.43976 34.841 8.08933 36.393 8.90384 37.8404L7.04896 39.9774C6.05571 41.1216 6.11727 42.8374 7.18992 43.9078L10.9543 47.6647C12.0265 48.7349 13.745 48.7966 14.8916 47.8063L17.0306 45.9586C18.4803 46.7728 20.0348 47.4226 21.6698 47.8813L21.8721 50.7246C21.9806 52.2345 23.2396 53.4303 24.7567 53.4303H30.0803C31.5967 53.4303 32.8555 52.2353 32.9646 50.7258L33.168 47.8992C34.809 47.4404 36.3693 46.7827 37.8238 45.9659L39.9648 47.8106C41.1114 48.8004 42.8294 48.7367 43.9013 47.6669L47.6658 43.9093C48.7387 42.8385 48.7999 41.1219 47.806 39.9777L45.9515 37.8424C46.7661 36.3951 47.4159 34.843 47.8741 33.211L50.6948 33.0069C52.207 32.8976 53.3777 31.6413 53.3777 30.1284V24.8155C53.3777 23.301 52.2051 22.0444 50.6916 21.9366ZM27.4281 37.3815C21.9491 37.3815 17.5075 32.9488 17.5075 27.4807C17.5075 22.0126 21.949 17.5799 27.4281 17.5799C32.9071 17.5799 37.3488 22.0126 37.3488 27.4807C37.3488 32.9487 32.9071 37.3815 27.4281 37.3815Z" fill="white"/>
<path d="M27.4277 12.4619C19.1165 12.4619 12.3789 19.186 12.3789 27.4806C12.3789 35.7752 19.1165 42.4993 27.4277 42.4993C35.7389 42.4993 42.4765 35.7752 42.4765 27.4806C42.4765 19.186 35.7389 12.4619 27.4277 12.4619ZM27.4277 37.3814C21.9487 37.3814 17.5071 32.9486 17.5071 27.4806C17.5071 22.0125 21.9487 17.5798 27.4277 17.5798C32.9067 17.5798 37.3483 22.0125 37.3483 27.4806C37.3483 32.9486 32.9067 37.3814 27.4277 37.3814Z" fill="#D3E4F2"/>
<path d="M28.9132 37.271C28.4289 37.3435 27.9332 37.3814 27.4287 37.3814C21.9497 37.3814 17.508 32.9487 17.508 27.4806C17.508 22.0125 21.9497 17.5798 27.4287 17.5798C32.8561 17.5798 37.2647 21.9296 37.3473 27.3266C38.5926 24.6414 39.3639 21.6931 39.5561 18.5882C36.8165 14.8732 32.405 12.4619 27.4287 12.4619C19.1174 12.4619 12.3799 19.186 12.3799 27.4806C12.3799 33.3459 15.7493 38.4252 20.6613 40.8977C23.6605 40.2007 26.4485 38.9543 28.9132 37.271Z" fill="#D3E4F2"/>
<path d="M37.3477 27.4801C37.3933 27.4564 37.3465 27.3777 37.3457 27.3267C37.3465 27.3777 37.3477 27.4288 37.3477 27.4801Z" fill="#D3E4F2"/>
<path d="M30.0588 54.053H24.7776C22.8471 54.053 21.2267 52.5446 21.0888 50.6189L20.9291 48.3914C19.6515 47.9945 18.4087 47.4783 17.2213 46.8515L15.534 48.3117C14.0748 49.5745 11.8631 49.4947 10.4988 48.1303C10.1749 47.8064 10.1749 47.2812 10.4989 46.9573C10.8226 46.6336 11.3478 46.6335 11.6718 46.9574C12.4241 47.7097 13.6437 47.7538 14.4484 47.0574L16.5704 45.2208C16.8349 44.9917 17.2146 44.9535 17.5201 45.1251C18.9172 45.9115 20.4043 46.529 21.9398 46.9608C22.2766 47.0553 22.5178 47.351 22.5427 47.6999L22.7433 50.4993C22.8195 51.5613 23.713 52.3921 24.7776 52.3921H30.0588C31.123 52.3921 32.0164 51.5617 32.093 50.5004L32.2947 47.7041C32.3198 47.355 32.5613 47.0597 32.8981 46.9652C34.4399 46.5333 35.9323 45.9145 37.3341 45.1258C37.6392 44.9542 38.0189 44.9925 38.2834 45.2213L40.4073 47.0582C41.2118 47.7541 42.4312 47.7101 43.1834 46.9578L46.918 43.2235C47.6708 42.4705 47.7143 41.2503 47.0168 40.4456L45.1771 38.3232C44.9478 38.0588 44.9093 37.6789 45.0807 37.3737C45.8657 35.976 46.482 34.4884 46.9125 32.9525C47.0068 32.6157 47.3024 32.3743 47.6512 32.3491L50.4485 32.1463C51.5094 32.0694 52.3397 31.1759 52.3397 30.1122V24.8309C52.3397 23.7661 51.5086 22.8725 50.4462 22.7968L47.6478 22.5972C47.2987 22.5723 47.0032 22.3311 46.9084 21.9942C46.4768 20.4586 45.8596 18.9715 45.0735 17.5742C44.9019 17.2693 44.9402 16.8894 45.169 16.6248L47.0059 14.5009C47.7018 13.6964 47.6577 12.477 46.9055 11.7248L43.171 7.99078C42.418 7.23762 41.1977 7.19434 40.3931 7.89176L38.2706 9.73148C38.0064 9.96077 37.6264 9.99928 37.3212 9.82791C35.924 9.04299 34.4364 8.42674 32.8999 7.99608C32.5632 7.90173 32.3217 7.60621 32.2965 7.25734L32.0937 4.46008C32.0169 3.39905 31.1235 2.56898 30.0597 2.56898H24.7784C23.7134 2.56898 22.8199 3.40009 22.7443 4.46226L22.5446 7.26087C22.5196 7.60995 22.2784 7.90546 21.9416 8.00023C20.4111 8.43027 18.9288 9.04486 17.5362 9.82719C17.2312 9.99856 16.8512 9.95994 16.5869 9.73086L14.4627 7.89072C13.6581 7.19372 12.4382 7.23721 11.6853 7.99006L7.95092 11.7244C7.19838 12.4767 7.15458 13.6965 7.85096 14.501L9.68757 16.6231C9.91665 16.8877 9.95485 17.2676 9.78327 17.5727C8.99679 18.9702 8.37919 20.4573 7.94749 21.9926C7.85293 22.3293 7.55721 22.5704 7.20835 22.5954L4.4088 22.7961C3.34705 22.8722 2.51624 23.7657 2.51624 24.8303V30.1116C2.51624 31.1757 3.34663 32.0691 4.40797 32.1457L7.2044 32.3475C7.55337 32.3726 7.84868 32.614 7.94314 32.951C8.37359 34.4874 8.98974 35.9749 9.77445 37.3723C9.94582 37.6773 9.90721 38.0571 9.67813 38.3215L7.83799 40.4456C7.14088 41.2503 7.18447 42.4702 7.93732 43.2231L9.74217 45.0279C10.0661 45.3518 10.0661 45.877 9.74227 46.2008C9.41832 46.5248 8.8931 46.5247 8.56935 46.201L6.7644 44.3961C5.39935 43.0311 5.32015 40.8187 6.5841 39.3595L8.04787 37.6698C7.42228 36.4822 6.90712 35.2387 6.51124 33.9605L4.28756 33.8002C2.36314 33.6614 0.855469 32.0411 0.855469 30.1115V24.8302C0.855469 22.8997 2.36387 21.2794 4.28954 21.1415L6.51695 20.9819C6.91377 19.7043 7.43006 18.4614 8.057 17.2739L6.59677 15.5866C5.33395 14.1274 5.41357 11.9157 6.7781 10.5514L10.5124 6.81703C11.8773 5.45229 14.0898 5.37288 15.549 6.63694L17.2386 8.1006C18.4212 7.4776 19.6588 6.96422 20.9308 6.56916L21.0895 4.3432C21.2269 2.41712 22.8472 0.908203 24.7784 0.908203H30.0597C31.9887 0.908203 33.609 2.41536 33.7482 4.33926L33.9095 6.56459C35.1877 6.96048 36.4312 7.47574 37.6187 8.10143L39.3066 6.63839C40.7656 5.3734 42.9783 5.45239 44.344 6.81776L48.0784 10.5521C49.4423 11.9161 49.5223 14.1274 48.2604 15.5864L46.7994 17.2756C47.4263 18.4631 47.9424 19.7061 48.3392 20.9836L50.5649 21.1423C52.4913 21.2797 54.0003 22.9 54.0003 24.8311V30.1124C54.0003 32.0414 52.4931 33.6616 50.5692 33.8011L48.3439 33.9623C47.9481 35.2403 47.4329 36.4836 46.807 37.6714L48.2701 39.3593C49.535 40.8184 49.4562 43.0312 48.0908 44.3966L44.3563 48.1311C42.9922 49.4951 40.7808 49.5749 39.322 48.3131L37.6329 46.8522C36.4403 47.4817 35.1917 47.9996 33.9077 48.3971L33.7474 50.6207C33.6087 52.5453 31.9885 54.053 30.0588 54.053ZM27.4279 38.1516C21.5439 38.1516 16.7569 33.3646 16.7569 27.4805C16.7569 21.5966 21.5438 16.8095 27.4279 16.8095C28.5 16.8095 29.5584 16.9681 30.5738 17.2811C31.0115 17.416 31.2571 17.8801 31.122 18.3179C30.9873 18.7557 30.5228 19.0013 30.0852 18.8662C29.2284 18.6022 28.3343 18.4683 27.4279 18.4683C22.4585 18.4683 18.4158 22.5111 18.4158 27.4804C18.4158 32.4496 22.4586 36.4926 27.4279 36.4926C32.3971 36.4926 36.4401 32.4496 36.4401 27.4804C36.4401 24.6361 35.1385 22.0174 32.8694 20.2958C32.5044 20.0189 32.4331 19.4986 32.71 19.1338C32.9866 18.7689 33.5069 18.6974 33.872 18.9743C36.5582 21.0122 38.0989 24.1126 38.0989 27.4804C38.099 33.3646 33.3119 38.1516 27.4279 38.1516Z" fill="black"/>
</svg>
