<svg width="38" height="56" viewBox="0 0 38 56" fill="none" xmlns="http://www.w3.org/2000/svg">
<path d="M36.7403 30.9071L3.39282 2.07571C2.6741 1.45435 1.55762 1.96246 1.55411 2.91259L1.39063 46.9968C1.3869 48.0056 2.62046 48.4974 3.31189 47.7629L12.7635 37.7205L20.2164 54.1229C20.4704 54.6819 21.1294 54.9291 21.6884 54.6752L28.9196 51.3896C29.4785 51.1355 29.7257 50.4765 29.4718 49.9176L21.923 33.3038L36.0484 32.8593C37.0602 32.8273 37.5063 31.5693 36.7403 30.9071Z" fill="#D3E4F2"/>
<path d="M14.2627 34.3627L21.8663 51.0969C21.9646 51.3131 22.2196 51.4088 22.4358 51.3105L25.8934 49.7395C26.1096 49.6412 26.2053 49.3862 26.1071 49.1699L18.4012 32.2105C18.0706 31.4831 18.5866 30.6534 19.3853 30.6283L31.2006 30.2564C31.3983 30.2502 31.4855 30.0044 31.3358 29.8751L4.8208 6.95111C4.61414 6.77249 4.29317 6.91858 4.29221 7.19168L4.16211 42.2929C4.16136 42.49 4.40236 42.5861 4.53736 42.4425L12.4281 34.0586C12.9737 33.4786 13.9333 33.6377 14.2627 34.3627Z" fill="white"/>
<path d="M37.2704 30.2928L9.99003 6.70688C9.65061 6.41342 9.13758 6.45075 8.84434 6.79006C8.55087 7.12937 8.5882 7.6424 8.92751 7.93575L36.2079 31.5217C36.3425 31.6381 36.3197 31.7762 36.2943 31.8481C36.2688 31.9201 36.1994 32.0418 36.0215 32.0474L21.8961 32.492C21.6246 32.5005 21.3754 32.6442 21.2319 32.8749C21.0884 33.1056 21.0697 33.3926 21.1821 33.6399L28.7309 50.2537C28.7756 50.3519 28.7549 50.4393 28.7387 50.4827C28.7224 50.5261 28.6804 50.6055 28.5823 50.6501L21.3512 53.9358C21.2006 54.004 21.023 53.9374 20.9547 53.787L15.6687 42.1535C15.4831 41.745 15.0016 41.5646 14.5932 41.75C14.1848 41.9355 14.0041 42.4171 14.1897 42.8255L19.4756 54.4589C19.7975 55.1675 20.4982 55.587 21.2302 55.587C21.4959 55.587 21.7659 55.5317 22.0232 55.4148L29.2544 52.1292C30.2203 51.6902 30.649 50.5474 30.2102 49.5815L23.1655 34.0775L36.0728 33.6713C36.8708 33.6461 37.5588 33.1437 37.8256 32.3911C38.0922 31.6385 37.8743 30.8149 37.2704 30.2928Z" fill="black"/>
<path d="M14.434 39.4341L13.5029 37.3847C13.3909 37.1382 13.1634 36.9637 12.8963 36.9193C12.6288 36.8749 12.3574 36.9668 12.1719 37.164L2.72023 47.2064C2.59856 47.3354 2.46186 47.3075 2.39137 47.2792C2.32067 47.2511 2.2022 47.1773 2.20284 47L2.36631 2.91582C2.36695 2.74883 2.47646 2.67418 2.54173 2.64443C2.60688 2.6149 2.73516 2.5812 2.86153 2.69039L5.98446 5.39041C6.32388 5.68387 6.8369 5.64654 7.13015 5.30723C7.42361 4.96792 7.38629 4.45489 7.04697 4.16154L3.92394 1.46153C3.34842 0.96407 2.56103 0.850717 1.86864 1.16582C1.17636 1.48093 0.744489 2.14911 0.74161 2.90985L0.578138 46.9942C0.575259 47.7896 1.05075 48.4939 1.78962 48.7884C2.02348 48.8816 2.26639 48.9269 2.50654 48.9269C3.0251 48.9269 3.53056 48.7157 3.90314 48.3199L12.5247 39.1594L12.9549 40.1063C13.1406 40.5148 13.6221 40.6953 14.0304 40.5098C14.439 40.3241 14.6197 39.8425 14.434 39.4341Z" fill="black"/>
</svg>
