<svg width="55" height="51" viewBox="0 0 55 51" fill="none" xmlns="http://www.w3.org/2000/svg">
<path d="M15.0405 17.106H45.7C46.8204 17.106 47.7288 18.0143 47.7288 19.1348V42.467C47.7288 43.5876 46.8204 44.4959 45.7 44.4959H8.95475C7.83414 44.4959 6.92578 43.5875 6.92578 42.467V19.1348C6.92578 18.0143 7.83414 17.106 8.95475 17.106H12.1974" fill="#F9F9F9"/>
<path d="M17.8587 29.1671C19.2282 29.1671 20.3384 28.0569 20.3384 26.6874C20.3384 25.3179 19.2282 24.2076 17.8587 24.2076C16.4891 24.2076 15.3789 25.3179 15.3789 26.6874C15.3789 28.0569 16.4891 29.1671 17.8587 29.1671Z" fill="#D3E4F2"/>
<path d="M36.7952 29.1668C38.1647 29.1668 39.2749 28.0566 39.2749 26.687C39.2749 25.3175 38.1647 24.2073 36.7952 24.2073C35.4257 24.2073 34.3154 25.3175 34.3154 26.687C34.3154 28.0566 35.4257 29.1668 36.7952 29.1668Z" fill="#D3E4F2"/>
<path d="M27.3274 9.21615C29.5685 9.21615 31.3852 7.39939 31.3852 5.15831C31.3852 2.91722 29.5685 1.10046 27.3274 1.10046C25.0863 1.10046 23.2695 2.91722 23.2695 5.15831C23.2695 7.39939 25.0863 9.21615 27.3274 9.21615Z" fill="#D3E4F2"/>
<path d="M29.0303 49.6809H21.5231C20.4026 49.6809 19.4941 48.7725 19.4941 47.6521V46.525C19.4941 45.4045 20.4026 44.4961 21.5231 44.4961H33.1328C34.2534 44.4961 35.1617 45.4045 35.1617 46.525V47.6521C35.1617 48.7726 34.2535 49.6809 33.1328 49.6809H31.8737" fill="#D3E4F2"/>
<path d="M34.7666 13.4991H19.8882C18.7675 13.4991 17.8594 14.4074 17.8594 15.528V17.1059H36.7956V15.528C36.7955 14.4074 35.8872 13.4991 34.7666 13.4991Z" fill="#F9F9F9"/>
<path d="M6.92654 24.2081C3.85768 24.2257 1.375 27.1198 1.375 30.6883C1.375 34.2569 3.85768 37.151 6.92654 37.1687V24.2081Z" fill="#D3E4F2"/>
<path d="M47.7295 24.2081C50.798 24.2257 53.281 27.1199 53.281 30.6884C53.281 34.2571 50.798 37.1511 47.7295 37.1688V24.2081Z" fill="#D3E4F2"/>
<path d="M32.9632 37.1693C32.9632 38.2898 32.0549 39.1982 30.9342 39.1982H23.7204C22.5998 39.1982 21.6914 38.2898 21.6914 37.1693V35.4786C21.6914 34.3581 22.5998 33.4497 23.7204 33.4497H30.9342C32.0548 33.4497 32.9632 34.3581 32.9632 35.4786V37.1693Z" fill="#D3E4F2"/>
<g opacity="0.2">
<path opacity="0.2" d="M18.0692 26.6868C18.0692 25.8133 18.5213 25.0459 19.2039 24.6041C18.8163 24.3532 18.3548 24.207 17.8589 24.207C16.4891 24.207 15.3789 25.3173 15.3789 26.6868C15.3789 28.0564 16.4891 29.1665 17.8589 29.1665C18.3548 29.1665 18.8163 29.0203 19.2039 28.7695C18.5214 28.3278 18.0692 27.5603 18.0692 26.6868Z" fill="black"/>
</g>
<g opacity="0.2">
<path opacity="0.2" d="M37.0066 26.6869C37.0066 25.8134 37.4588 25.046 38.1414 24.6041C37.7537 24.3532 37.2922 24.207 36.7963 24.207C35.4265 24.207 34.3164 25.3173 34.3164 26.6868C34.3164 28.0564 35.4265 29.1665 36.7963 29.1665C37.2922 29.1665 37.7537 29.0203 38.1414 28.7695C37.4587 28.3279 37.0066 27.5604 37.0066 26.6869Z" fill="black"/>
</g>
<g opacity="0.2">
<path opacity="0.2" d="M22.5785 13.4993H19.8882C18.7675 13.4993 17.8594 14.4075 17.8594 15.5281V17.106H20.5497V15.5281C20.5497 14.4075 21.4577 13.4993 22.5785 13.4993Z" fill="black"/>
</g>
<path d="M17.8593 23.3541C16.0216 23.3541 14.5264 24.8493 14.5264 26.6868C14.5264 28.5244 16.0215 30.0196 17.8593 30.0196C19.6969 30.0196 21.1919 28.5245 21.1919 26.6868C21.1919 24.8492 19.697 23.3541 17.8593 23.3541ZM17.8593 28.3135C16.9621 28.3135 16.2323 27.5837 16.2323 26.6868C16.2323 25.7898 16.9621 25.0602 17.8593 25.0602C18.7561 25.0602 19.4859 25.79 19.4859 26.6868C19.4859 27.5838 18.7561 28.3135 17.8593 28.3135Z" fill="black"/>
<path d="M36.7957 30.0196C38.6333 30.0196 40.1284 28.5245 40.1284 26.6868C40.1284 24.8492 38.6333 23.3541 36.7957 23.3541C34.958 23.3541 33.4629 24.8493 33.4629 26.6868C33.4629 28.5244 34.958 30.0196 36.7957 30.0196ZM36.7957 25.0602C37.6928 25.0602 38.4224 25.79 38.4224 26.6868C38.4224 27.5837 37.6927 28.3135 36.7957 28.3135C35.8987 28.3135 35.1689 27.5837 35.1689 26.6868C35.169 25.79 35.8989 25.0602 36.7957 25.0602Z" fill="black"/>
<path d="M54.1332 30.6883C54.1332 26.9931 51.7108 23.9188 48.5817 23.4259V19.1349C48.5817 17.5458 47.289 16.2531 45.6999 16.2531H37.6483V15.5281C37.6483 13.939 36.3556 12.6462 34.7664 12.6462H28.1803V9.99337C30.4827 9.58815 32.2382 7.57509 32.2382 5.15827C32.2382 2.45046 30.0352 0.247559 27.3273 0.247559C24.6195 0.247559 22.4164 2.45056 22.4164 5.15827C22.4164 7.57509 24.1719 9.58815 26.4743 9.99337V12.6462H19.888C18.2989 12.6462 17.0061 13.939 17.0061 15.5281V16.2531H15.0404C14.5692 16.2531 14.1874 16.6349 14.1874 17.106C14.1874 17.5771 14.5692 17.959 15.0404 17.959H45.6999C46.3482 17.959 46.8757 18.4865 46.8757 19.1349V24.2079V37.1685V42.467C46.8757 43.1154 46.3482 43.6429 45.6999 43.6429H8.95455C8.30618 43.6429 7.77854 43.1154 7.77854 42.467V37.175C7.77854 37.1727 7.77886 37.1707 7.77886 37.1684V24.2081C7.77886 24.2058 7.77854 24.2038 7.77854 24.2015V19.135C7.77854 18.4866 8.30618 17.9591 8.95455 17.9591H12.1972C12.6684 17.9591 13.0502 17.5772 13.0502 17.1061C13.0502 16.635 12.6684 16.2532 12.1972 16.2532H8.95455C7.36536 16.2532 6.0726 17.5459 6.0726 19.135V23.426C2.94375 23.919 0.521484 26.9932 0.521484 30.6883C0.521484 34.3835 2.94375 37.4577 6.0726 37.9506V42.4671C6.0726 44.0562 7.36536 45.3489 8.95455 45.3489H18.8921C18.7308 45.7083 18.6403 46.1061 18.6403 46.5248V47.6519C18.6403 49.241 19.933 50.5338 21.5222 50.5338H29.0294C29.5006 50.5338 29.8824 50.1519 29.8824 49.6808C29.8824 49.2097 29.5006 48.8278 29.0294 48.8278H21.5222C20.8738 48.8278 20.3462 48.3003 20.3462 47.6519V46.5248C20.3462 45.8765 20.8738 45.3489 21.5222 45.3489H33.1318C33.7801 45.3489 34.3078 45.8765 34.3078 46.5248V47.6519C34.3078 48.3003 33.7801 48.8278 33.1318 48.8278H31.8727C31.4015 48.8278 31.0197 49.2097 31.0197 49.6808C31.0197 50.1519 31.4015 50.5338 31.8727 50.5338H33.1318C34.7209 50.5338 36.0137 49.241 36.0137 47.6519V46.5248C36.0137 46.1061 35.9231 45.7082 35.7619 45.3489H45.6998C47.2889 45.3489 48.5816 44.0562 48.5816 42.4671V37.9506C51.7107 37.4579 54.1332 34.3837 54.1332 30.6883ZM24.1226 5.15827C24.1226 3.39107 25.5603 1.9535 27.3274 1.9535C29.0946 1.9535 30.5323 3.39117 30.5323 5.15827C30.5323 6.92536 29.0946 8.36303 27.3274 8.36303C25.5601 8.36303 24.1226 6.92546 24.1226 5.15827ZM18.7122 15.5281C18.7122 14.8797 19.2397 14.3522 19.8881 14.3522H27.3251C27.326 14.3522 27.3266 14.3523 27.3273 14.3523C27.3281 14.3523 27.3288 14.3522 27.3295 14.3522H34.7665C35.4149 14.3522 35.9425 14.8797 35.9425 15.5281V16.2531H18.7122V15.5281ZM2.22743 30.6883C2.22743 27.9492 3.8874 25.6534 6.0726 25.1593V36.2173C3.8874 35.7232 2.22743 33.4276 2.22743 30.6883ZM48.5817 36.2175V25.1593C50.7671 25.6532 52.4272 27.949 52.4272 30.6883C52.4273 33.4276 50.7671 35.7234 48.5817 36.2175Z" fill="black"/>
<path d="M30.9336 32.5969H23.7198C22.1306 32.5969 20.8379 33.8897 20.8379 35.4788V37.1695C20.8379 38.7586 22.1306 40.0514 23.7198 40.0514H30.9336C32.5228 40.0514 33.8156 38.7586 33.8156 37.1695V35.4788C33.8156 33.8897 32.5228 32.5969 30.9336 32.5969ZM32.1096 37.1695C32.1096 37.8179 31.582 38.3454 30.9336 38.3454H23.7198C23.0715 38.3454 22.5438 37.8179 22.5438 37.1695V35.4788C22.5438 34.8304 23.0715 34.3029 23.7198 34.3029H30.9336C31.582 34.3029 32.1096 34.8304 32.1096 35.4788V37.1695Z" fill="black"/>
</svg>
