<svg width="120" height="720" viewBox="0 0 120 720" fill="none" xmlns="http://www.w3.org/2000/svg">
<path d="M60 513.13L30 543.13L60 573.13L90 543.13L60 513.13Z" fill="#0C0A0D"/>
<path d="M120 0H0V120H120V0Z" fill="#552790"/>
<path d="M20.9201 15.33C20.9221 16.4364 20.5956 17.5186 19.9821 18.4394C19.3686 19.3601 18.4957 20.0781 17.4739 20.5024C16.4521 20.9268 15.3273 21.0383 14.2421 20.8229C13.1568 20.6076 12.1598 20.075 11.3775 19.2926C10.5951 18.5102 10.0625 17.5133 9.84717 16.428C9.6318 15.3428 9.74331 14.218 10.1676 13.1962C10.5919 12.1743 11.3099 11.3014 12.2307 10.6879C13.1515 10.0745 14.2337 9.74805 15.3401 9.75001C16.8192 9.75263 18.237 10.3414 19.2829 11.3873C20.3288 12.4331 20.9175 13.8509 20.9201 15.33Z" fill="#0C0A0D"/>
<path d="M43.2596 15.33C43.2596 16.4336 42.9323 17.5125 42.3192 18.4301C41.7061 19.3477 40.8345 20.0629 39.8149 20.4853C38.7953 20.9076 37.6734 21.0181 36.591 20.8028C35.5085 20.5875 34.5143 20.056 33.7339 19.2757C32.9535 18.4953 32.4222 17.501 32.2069 16.4186C31.9916 15.3362 32.1019 14.2142 32.5243 13.1946C32.9466 12.175 33.6619 11.3035 34.5795 10.6904C35.4971 10.0773 36.576 9.75 37.6796 9.75C39.1595 9.75 40.5787 10.3379 41.6252 11.3843C42.6716 12.4308 43.2596 13.8501 43.2596 15.33Z" fill="#0C0A0D"/>
<path d="M65.5896 15.33C65.5915 16.436 65.2654 17.5177 64.6523 18.4383C64.0393 19.3589 63.167 20.0769 62.1457 20.5015C61.1245 20.9261 60.0002 21.0382 58.9152 20.8237C57.8302 20.6091 56.8333 20.0775 56.0505 19.2961C55.2678 18.5147 54.7343 17.5187 54.5178 16.4341C54.3013 15.3495 54.4115 14.2251 54.8343 13.2031C55.2571 12.1811 55.9735 11.3074 56.893 10.6928C57.8125 10.0781 58.8936 9.75 59.9996 9.75C61.4805 9.75 62.9008 10.3376 63.9489 11.3837C64.9969 12.4299 65.5869 13.8492 65.5896 15.33Z" fill="#0C0A0D"/>
<path d="M87.9397 15.33C87.9416 16.436 87.6154 17.5177 87.0024 18.4383C86.3894 19.3589 85.5171 20.0769 84.4958 20.5015C83.4746 20.9261 82.3503 21.0382 81.2653 20.8237C80.1803 20.6091 79.1834 20.0775 78.4006 19.2961C77.6179 18.5147 77.0844 17.5187 76.8679 16.4341C76.6514 15.3495 76.7616 14.2251 77.1844 13.2031C77.6071 12.1811 78.3236 11.3074 79.2431 10.6928C80.1626 10.0781 81.2437 9.75 82.3497 9.75C83.8306 9.75 85.2509 10.3376 86.299 11.3837C87.347 12.4299 87.937 13.8492 87.9397 15.33Z" fill="#0C0A0D"/>
<path d="M110.25 15.33C110.25 16.4336 109.923 17.5125 109.309 18.4301C108.696 19.3477 107.825 20.0629 106.805 20.4853C105.786 20.9076 104.664 21.0181 103.581 20.8028C102.499 20.5875 101.505 20.056 100.724 19.2757C99.9438 18.4953 99.4124 17.501 99.1971 16.4186C98.9818 15.3362 99.0923 14.2142 99.5146 13.1946C99.9369 12.175 100.652 11.3035 101.57 10.6904C102.487 10.0773 103.566 9.75 104.67 9.75C106.149 9.75262 107.567 10.3414 108.613 11.3873C109.658 12.4331 110.247 13.8509 110.25 15.33Z" fill="#0C0A0D"/>
<path d="M20.9201 37.6698C20.9201 38.7758 20.5919 39.857 19.9773 40.7764C19.3626 41.6959 18.4891 42.4124 17.4671 42.8352C16.445 43.258 15.3206 43.3681 14.2359 43.1516C13.1513 42.9351 12.1553 42.4017 11.3739 41.6189C10.5926 40.8362 10.061 39.8392 9.84644 38.7542C9.63187 37.6692 9.74398 36.545 10.1686 35.5237C10.5932 34.5025 11.3112 33.6301 12.2317 33.0171C13.1523 32.4041 14.2341 32.0779 15.3401 32.0798C16.0737 32.0798 16.8001 32.2245 17.4778 32.5055C18.1554 32.7866 18.7709 33.1985 19.2892 33.7177C19.8075 34.2369 20.2183 34.8532 20.4982 35.5314C20.778 36.2095 20.9214 36.9362 20.9201 37.6698Z" fill="#0C0A0D"/>
<path d="M43.2596 37.6698C43.2576 38.773 42.9287 39.8508 42.3143 40.7671C41.7 41.6835 40.8279 42.3971 39.8081 42.8179C38.7884 43.2388 37.6667 43.3479 36.5849 43.1314C35.5031 42.915 34.5099 42.3828 33.7305 41.602C32.9511 40.8212 32.4206 39.827 32.2061 38.7448C31.9916 37.6627 32.1026 36.5412 32.5253 35.5222C32.9479 34.5031 33.6632 33.6322 34.5806 33.0195C35.498 32.4068 36.5764 32.0798 37.6796 32.0798C38.4132 32.0798 39.1396 32.2245 39.8172 32.5055C40.4949 32.7866 41.1104 33.1985 41.6287 33.7177C42.147 34.2369 42.5579 34.8532 42.8377 35.5314C43.1175 36.2095 43.2609 36.9362 43.2596 37.6698Z" fill="#0C0A0D"/>
<path d="M65.5896 37.6698C65.5896 38.7754 65.2617 39.8561 64.6475 40.7754C64.0332 41.6947 63.1603 42.4111 62.1388 42.8342C61.1174 43.2573 59.9934 43.368 58.909 43.1523C57.8247 42.9366 56.8288 42.4042 56.047 41.6225C55.2652 40.8407 54.7328 39.8447 54.5171 38.7603C54.3014 37.676 54.4121 36.552 54.8352 35.5306C55.2583 34.5092 55.9748 33.6361 56.8941 33.0219C57.8133 32.4077 58.894 32.0798 59.9996 32.0798C60.7337 32.0798 61.4606 32.2244 62.1388 32.5053C62.817 32.7863 63.4333 33.198 63.9524 33.7171C64.4714 34.2362 64.8831 34.8524 65.164 35.5306C65.4449 36.2088 65.5896 36.9357 65.5896 37.6698Z" fill="#0C0A0D"/>
<path d="M87.9397 37.6698C87.9397 38.7754 87.6118 39.8561 86.9976 40.7754C86.3833 41.6947 85.5104 42.4111 84.4889 42.8342C83.4675 43.2573 82.3435 43.368 81.2591 43.1523C80.1748 42.9366 79.1789 42.4042 78.3971 41.6225C77.6153 40.8407 77.0829 39.8447 76.8672 38.7603C76.6515 37.676 76.7622 36.552 77.1853 35.5306C77.6084 34.5092 78.3249 33.6361 79.2442 33.0219C80.1634 32.4077 81.2441 32.0798 82.3497 32.0798C83.0838 32.0798 83.8107 32.2244 84.4889 32.5053C85.1671 32.7863 85.7833 33.198 86.3023 33.7171C86.8214 34.2362 87.2332 34.8524 87.5141 35.5306C87.795 36.2088 87.9397 36.9357 87.9397 37.6698Z" fill="#0C0A0D"/>
<path d="M110.25 37.6698C110.248 38.773 109.919 39.8508 109.305 40.7671C108.69 41.6835 107.818 42.3971 106.798 42.8179C105.779 43.2388 104.657 43.3479 103.575 43.1314C102.493 42.915 101.5 42.3828 100.721 41.602C99.9413 40.8212 99.4108 39.827 99.1963 38.7448C98.9818 37.6627 99.0929 36.5412 99.5156 35.5222C99.9382 34.5031 100.653 33.6322 101.571 33.0195C102.488 32.4068 103.567 32.0798 104.67 32.0798C105.403 32.0798 106.13 32.2245 106.808 32.5055C107.485 32.7866 108.101 33.1985 108.619 33.7177C109.137 34.2369 109.548 34.8532 109.828 35.5314C110.108 36.2095 110.251 36.9362 110.25 37.6698Z" fill="#0C0A0D"/>
<path d="M20.9201 59.9999C20.9201 61.1059 20.5919 62.187 19.9773 63.1065C19.3626 64.026 18.4891 64.7424 17.4671 65.1652C16.445 65.588 15.3206 65.6982 14.2359 65.4817C13.1513 65.2652 12.1553 64.7318 11.3739 63.949C10.5926 63.1663 10.061 62.1693 9.84644 61.0843C9.63187 59.9993 9.74398 58.8751 10.1686 57.8538C10.5932 56.8326 11.3112 55.9602 12.2317 55.3472C13.1523 54.7341 14.2341 54.408 15.3401 54.4099C16.0737 54.4099 16.8001 54.5546 17.4778 54.8356C18.1554 55.1167 18.7709 55.5286 19.2892 56.0478C19.8075 56.567 20.2183 57.1833 20.4982 57.8614C20.778 58.5396 20.9214 59.2663 20.9201 59.9999Z" fill="#0C0A0D"/>
<path d="M43.2596 59.9999C43.2576 61.1031 42.9287 62.1809 42.3143 63.0972C41.7 64.0135 40.8279 64.7272 39.8081 65.1481C38.7884 65.5689 37.6667 65.6779 36.5849 65.4615C35.5031 65.2451 34.5099 64.7129 33.7305 63.9321C32.9511 63.1513 32.4206 62.157 32.2061 61.0749C31.9916 59.9927 32.1026 58.8713 32.5253 57.8523C32.9479 56.8332 33.6632 55.9624 34.5806 55.3496C35.498 54.7369 36.5764 54.4099 37.6796 54.4099C38.4132 54.4099 39.1396 54.5546 39.8172 54.8356C40.4949 55.1167 41.1104 55.5286 41.6287 56.0478C42.147 56.567 42.5579 57.1833 42.8377 57.8614C43.1175 58.5396 43.2609 59.2662 43.2596 59.9999Z" fill="#0C0A0D"/>
<path d="M65.5896 59.9999C65.5896 61.1054 65.2617 62.1862 64.6475 63.1055C64.0332 64.0247 63.1603 64.7412 62.1388 65.1643C61.1174 65.5874 59.9934 65.6981 58.909 65.4824C57.8247 65.2667 56.8288 64.7343 56.047 63.9525C55.2652 63.1708 54.7328 62.1747 54.5171 61.0904C54.3014 60.0061 54.4121 58.8821 54.8352 57.8607C55.2583 56.8392 55.9748 55.9662 56.8941 55.352C57.8133 54.7378 58.894 54.4099 59.9996 54.4099C60.7337 54.4099 61.4606 54.5545 62.1388 54.8354C62.817 55.1163 63.4333 55.5281 63.9524 56.0472C64.4714 56.5662 64.8831 57.1825 65.164 57.8607C65.4449 58.5389 65.5896 59.2658 65.5896 59.9999Z" fill="#0C0A0D"/>
<path d="M87.9397 59.9999C87.9397 61.1054 87.6118 62.1862 86.9976 63.1055C86.3833 64.0247 85.5104 64.7412 84.4889 65.1643C83.4675 65.5874 82.3435 65.6981 81.2591 65.4824C80.1748 65.2667 79.1789 64.7343 78.3971 63.9525C77.6153 63.1708 77.0829 62.1747 76.8672 61.0904C76.6515 60.0061 76.7622 58.8821 77.1853 57.8607C77.6084 56.8392 78.3249 55.9662 79.2442 55.352C80.1634 54.7378 81.2441 54.4099 82.3497 54.4099C83.0838 54.4099 83.8107 54.5545 84.4889 54.8354C85.1671 55.1163 85.7833 55.5281 86.3023 56.0472C86.8214 56.5662 87.2332 57.1825 87.5141 57.8607C87.795 58.5389 87.9397 59.2658 87.9397 59.9999Z" fill="#0C0A0D"/>
<path d="M110.25 59.9999C110.248 61.1031 109.919 62.1809 109.305 63.0972C108.69 64.0135 107.818 64.7272 106.798 65.1481C105.779 65.5689 104.657 65.6779 103.575 65.4615C102.493 65.2451 101.5 64.7129 100.721 63.9321C99.9413 63.1513 99.4108 62.157 99.1963 61.0749C98.9818 59.9927 99.0929 58.8713 99.5156 57.8523C99.9382 56.8332 100.653 55.9624 101.571 55.3496C102.488 54.7369 103.567 54.4099 104.67 54.4099C105.403 54.4099 106.13 54.5546 106.808 54.8356C107.485 55.1167 108.101 55.5286 108.619 56.0478C109.137 56.567 109.548 57.1833 109.828 57.8614C110.108 58.5396 110.251 59.2662 110.25 59.9999Z" fill="#0C0A0D"/>
<path d="M20.9201 82.3298C20.9221 83.4362 20.5956 84.5183 19.9821 85.4391C19.3686 86.3599 18.4957 87.0779 17.4739 87.5022C16.4521 87.9266 15.3273 88.0381 14.2421 87.8227C13.1568 87.6074 12.1598 87.0748 11.3775 86.2924C10.5951 85.51 10.0625 84.5131 9.84717 83.4278C9.6318 82.3426 9.74331 81.2178 10.1676 80.196C10.5919 79.1741 11.3099 78.3012 12.2307 77.6877C13.1515 77.0742 14.2337 76.7478 15.3401 76.7498C16.82 76.7498 18.2392 77.3377 19.2857 78.3841C20.3321 79.4306 20.9201 80.8499 20.9201 82.3298Z" fill="#0C0A0D"/>
<path d="M43.2596 82.3298C43.2596 83.4334 42.9323 84.5122 42.3192 85.4299C41.7061 86.3475 40.8345 87.0627 39.8149 87.4851C38.7953 87.9074 37.6734 88.0179 36.591 87.8026C35.5085 87.5873 34.5143 87.0558 33.7339 86.2755C32.9535 85.4951 32.4222 84.5008 32.2069 83.4184C31.9916 82.336 32.1019 81.214 32.5243 80.1944C32.9466 79.1748 33.6619 78.3033 34.5795 77.6902C35.4971 77.077 36.576 76.7498 37.6796 76.7498C38.4127 76.7485 39.1389 76.8919 39.8165 77.1719C40.4941 77.4518 41.1098 77.8628 41.6282 78.3812C42.1466 78.8996 42.5575 79.5153 42.8375 80.1929C43.1174 80.8705 43.2609 81.5967 43.2596 82.3298Z" fill="#0C0A0D"/>
<path d="M65.5896 82.3298C65.5915 83.4358 65.2654 84.5175 64.6523 85.4381C64.0393 86.3586 63.167 87.0767 62.1457 87.5013C61.1245 87.9259 60.0002 88.038 58.9152 87.8235C57.8302 87.6089 56.8333 87.0773 56.0505 86.2959C55.2678 85.5145 54.7343 84.5185 54.5178 83.4339C54.3013 82.3493 54.4115 81.2248 54.8343 80.2028C55.2571 79.1808 55.9735 78.3072 56.893 77.6925C57.8125 77.0779 58.8936 76.7498 59.9996 76.7498C60.7332 76.7485 61.46 76.8918 62.1381 77.1717C62.8163 77.4515 63.4326 77.8623 63.9518 78.3806C64.471 78.8989 64.8829 79.5145 65.1639 80.1921C65.445 80.8698 65.5896 81.5962 65.5896 82.3298Z" fill="#0C0A0D"/>
<path d="M87.9397 82.3298C87.9416 83.4358 87.6154 84.5175 87.0024 85.4381C86.3894 86.3586 85.5171 87.0767 84.4958 87.5013C83.4746 87.9259 82.3503 88.038 81.2653 87.8235C80.1803 87.6089 79.1834 87.0773 78.4006 86.2959C77.6179 85.5145 77.0844 84.5185 76.8679 83.4339C76.6514 82.3493 76.7616 81.2248 77.1844 80.2028C77.6071 79.1808 78.3236 78.3072 79.2431 77.6925C80.1626 77.0779 81.2437 76.7498 82.3497 76.7498C83.0833 76.7485 83.8101 76.8918 84.4882 77.1717C85.1664 77.4515 85.7827 77.8623 86.3019 78.3806C86.8211 78.8989 87.233 79.5145 87.514 80.1921C87.795 80.8698 87.9397 81.5962 87.9397 82.3298Z" fill="#0C0A0D"/>
<path d="M110.25 82.3298C110.25 83.4334 109.923 84.5122 109.309 85.4299C108.696 86.3475 107.825 87.0627 106.805 87.485C105.786 87.9074 104.664 88.0179 103.581 87.8026C102.499 87.5873 101.505 87.0558 100.724 86.2755C99.9438 85.4951 99.4124 84.5008 99.1971 83.4184C98.9818 82.336 99.0923 81.214 99.5146 80.1944C99.9369 79.1748 100.652 78.3033 101.57 77.6902C102.487 77.077 103.566 76.7498 104.67 76.7498C106.15 76.7498 107.569 77.3376 108.616 78.3841C109.662 79.4306 110.25 80.8499 110.25 82.3298Z" fill="#0C0A0D"/>
<path d="M20.9201 104.66C20.9221 105.766 20.5956 106.848 19.9821 107.769C19.3686 108.69 18.4957 109.408 17.4739 109.832C16.4521 110.257 15.3273 110.368 14.2421 110.153C13.1568 109.937 12.1598 109.405 11.3775 108.622C10.5951 107.84 10.0625 106.843 9.84717 105.758C9.6318 104.673 9.74331 103.548 10.1676 102.526C10.5919 101.504 11.3099 100.631 12.2307 100.018C13.1515 99.4043 14.2337 99.0779 15.3401 99.0798C16.8192 99.0825 18.237 99.6712 19.2829 100.717C20.3288 101.763 20.9175 103.181 20.9201 104.66Z" fill="#0C0A0D"/>
<path d="M43.2596 104.66C43.2596 105.763 42.9323 106.842 42.3192 107.76C41.7061 108.678 40.8345 109.393 39.8149 109.815C38.7953 110.237 37.6734 110.348 36.591 110.133C35.5085 109.917 34.5143 109.386 33.7339 108.606C32.9535 107.825 32.4222 106.831 32.2069 105.748C31.9916 104.666 32.1019 103.544 32.5243 102.524C32.9466 101.505 33.6619 100.633 34.5795 100.02C35.4971 99.4071 36.576 99.0798 37.6796 99.0798C39.1595 99.0798 40.5787 99.6677 41.6252 100.714C42.6716 101.761 43.2596 103.18 43.2596 104.66Z" fill="#0C0A0D"/>
<path d="M65.5896 104.66C65.5915 105.766 65.2654 106.848 64.6523 107.768C64.0393 108.689 63.167 109.407 62.1457 109.831C61.1245 110.256 60.0002 110.368 58.9152 110.153C57.8302 109.939 56.8333 109.407 56.0505 108.626C55.2678 107.845 54.7343 106.849 54.5178 105.764C54.3013 104.679 54.4115 103.555 54.8343 102.533C55.2571 101.511 55.9735 100.637 56.893 100.023C57.8125 99.4079 58.8936 99.0798 59.9996 99.0798C61.4805 99.0798 62.9008 99.6674 63.9489 100.714C64.9969 101.76 65.5869 103.179 65.5896 104.66Z" fill="#0C0A0D"/>
<path d="M87.9397 104.66C87.9416 105.766 87.6154 106.848 87.0024 107.768C86.3894 108.689 85.5171 109.407 84.4958 109.831C83.4746 110.256 82.3503 110.368 81.2653 110.153C80.1803 109.939 79.1834 109.407 78.4006 108.626C77.6179 107.845 77.0844 106.849 76.8679 105.764C76.6514 104.679 76.7616 103.555 77.1844 102.533C77.6071 101.511 78.3236 100.637 79.2431 100.023C80.1626 99.4079 81.2437 99.0798 82.3497 99.0798C83.8306 99.0798 85.2509 99.6674 86.299 100.714C87.347 101.76 87.937 103.179 87.9397 104.66Z" fill="#0C0A0D"/>
<path d="M110.25 104.66C110.25 105.763 109.923 106.842 109.309 107.76C108.696 108.678 107.825 109.393 106.805 109.815C105.786 110.237 104.664 110.348 103.581 110.133C102.499 109.917 101.505 109.386 100.724 108.606C99.9438 107.825 99.4124 106.831 99.1971 105.748C98.9818 104.666 99.0923 103.544 99.5146 102.524C99.9369 101.505 100.652 100.633 101.57 100.02C102.487 99.4071 103.566 99.0798 104.67 99.0798C106.149 99.0825 107.567 99.6712 108.613 100.717C109.658 101.763 110.247 103.181 110.25 104.66Z" fill="#0C0A0D"/>
<path d="M120 0H0V120H120V0Z" fill="#552790"/>
<path d="M20.9201 15.33C20.9221 16.4364 20.5956 17.5186 19.9821 18.4394C19.3686 19.3601 18.4957 20.0781 17.4739 20.5024C16.4521 20.9268 15.3273 21.0383 14.2421 20.8229C13.1568 20.6076 12.1598 20.075 11.3775 19.2926C10.5951 18.5102 10.0625 17.5133 9.84717 16.428C9.6318 15.3428 9.74331 14.218 10.1676 13.1962C10.5919 12.1743 11.3099 11.3014 12.2307 10.6879C13.1515 10.0745 14.2337 9.74805 15.3401 9.75001C16.8192 9.75263 18.237 10.3414 19.2829 11.3873C20.3288 12.4331 20.9175 13.8509 20.9201 15.33Z" fill="#0C0A0D"/>
<path d="M43.2596 15.33C43.2596 16.4336 42.9323 17.5125 42.3192 18.4301C41.7061 19.3477 40.8345 20.0629 39.8149 20.4853C38.7953 20.9076 37.6734 21.0181 36.591 20.8028C35.5085 20.5875 34.5143 20.056 33.7339 19.2757C32.9535 18.4953 32.4222 17.501 32.2069 16.4186C31.9916 15.3362 32.1019 14.2142 32.5243 13.1946C32.9466 12.175 33.6619 11.3035 34.5795 10.6904C35.4971 10.0773 36.576 9.75 37.6796 9.75C39.1595 9.75 40.5787 10.3379 41.6252 11.3843C42.6716 12.4308 43.2596 13.8501 43.2596 15.33Z" fill="#0C0A0D"/>
<path d="M65.5896 15.33C65.5915 16.436 65.2654 17.5177 64.6523 18.4383C64.0393 19.3589 63.167 20.0769 62.1457 20.5015C61.1245 20.9261 60.0002 21.0382 58.9152 20.8237C57.8302 20.6091 56.8333 20.0775 56.0505 19.2961C55.2678 18.5147 54.7343 17.5187 54.5178 16.4341C54.3013 15.3495 54.4115 14.2251 54.8343 13.2031C55.2571 12.1811 55.9735 11.3074 56.893 10.6928C57.8125 10.0781 58.8936 9.75 59.9996 9.75C61.4805 9.75 62.9008 10.3376 63.9489 11.3837C64.9969 12.4299 65.5869 13.8492 65.5896 15.33Z" fill="#0C0A0D"/>
<path d="M87.9397 15.33C87.9416 16.436 87.6154 17.5177 87.0024 18.4383C86.3894 19.3589 85.5171 20.0769 84.4958 20.5015C83.4746 20.9261 82.3503 21.0382 81.2653 20.8237C80.1803 20.6091 79.1834 20.0775 78.4006 19.2961C77.6179 18.5147 77.0844 17.5187 76.8679 16.4341C76.6514 15.3495 76.7616 14.2251 77.1844 13.2031C77.6071 12.1811 78.3236 11.3074 79.2431 10.6928C80.1626 10.0781 81.2437 9.75 82.3497 9.75C83.8306 9.75 85.2509 10.3376 86.299 11.3837C87.347 12.4299 87.937 13.8492 87.9397 15.33Z" fill="#0C0A0D"/>
<path d="M110.25 15.33C110.25 16.4336 109.923 17.5125 109.309 18.4301C108.696 19.3477 107.825 20.0629 106.805 20.4853C105.786 20.9076 104.664 21.0181 103.581 20.8028C102.499 20.5875 101.505 20.056 100.724 19.2757C99.9438 18.4953 99.4124 17.501 99.1971 16.4186C98.9818 15.3362 99.0923 14.2142 99.5146 13.1946C99.9369 12.175 100.652 11.3035 101.57 10.6904C102.487 10.0773 103.566 9.75 104.67 9.75C106.149 9.75262 107.567 10.3414 108.613 11.3873C109.658 12.4331 110.247 13.8509 110.25 15.33Z" fill="#0C0A0D"/>
<path d="M20.9201 37.6698C20.9201 38.7758 20.5919 39.857 19.9773 40.7764C19.3626 41.6959 18.4891 42.4124 17.4671 42.8352C16.445 43.258 15.3206 43.3681 14.2359 43.1516C13.1513 42.9351 12.1553 42.4017 11.3739 41.6189C10.5926 40.8362 10.061 39.8392 9.84644 38.7542C9.63187 37.6692 9.74398 36.545 10.1686 35.5237C10.5932 34.5025 11.3112 33.6301 12.2317 33.0171C13.1523 32.4041 14.2341 32.0779 15.3401 32.0798C16.0737 32.0798 16.8001 32.2245 17.4778 32.5055C18.1554 32.7866 18.7709 33.1985 19.2892 33.7177C19.8075 34.2369 20.2183 34.8532 20.4982 35.5314C20.778 36.2095 20.9214 36.9362 20.9201 37.6698Z" fill="#0C0A0D"/>
<path d="M43.2596 37.6698C43.2576 38.773 42.9287 39.8508 42.3143 40.7671C41.7 41.6835 40.8279 42.3971 39.8081 42.8179C38.7884 43.2388 37.6667 43.3479 36.5849 43.1314C35.5031 42.915 34.5099 42.3828 33.7305 41.602C32.9511 40.8212 32.4206 39.827 32.2061 38.7448C31.9916 37.6627 32.1026 36.5412 32.5253 35.5222C32.9479 34.5031 33.6632 33.6322 34.5806 33.0195C35.498 32.4068 36.5764 32.0798 37.6796 32.0798C38.4132 32.0798 39.1396 32.2245 39.8172 32.5055C40.4949 32.7866 41.1104 33.1985 41.6287 33.7177C42.147 34.2369 42.5579 34.8532 42.8377 35.5314C43.1175 36.2095 43.2609 36.9362 43.2596 37.6698Z" fill="#0C0A0D"/>
<path d="M65.5896 37.6698C65.5896 38.7754 65.2617 39.8561 64.6475 40.7754C64.0332 41.6947 63.1603 42.4111 62.1388 42.8342C61.1174 43.2573 59.9934 43.368 58.909 43.1523C57.8247 42.9366 56.8288 42.4042 56.047 41.6225C55.2652 40.8407 54.7328 39.8447 54.5171 38.7603C54.3014 37.676 54.4121 36.552 54.8352 35.5306C55.2583 34.5092 55.9748 33.6361 56.8941 33.0219C57.8133 32.4077 58.894 32.0798 59.9996 32.0798C60.7337 32.0798 61.4606 32.2244 62.1388 32.5053C62.817 32.7863 63.4333 33.198 63.9524 33.7171C64.4714 34.2362 64.8831 34.8524 65.164 35.5306C65.4449 36.2088 65.5896 36.9357 65.5896 37.6698Z" fill="#0C0A0D"/>
<path d="M87.9397 37.6698C87.9397 38.7754 87.6118 39.8561 86.9976 40.7754C86.3833 41.6947 85.5104 42.4111 84.4889 42.8342C83.4675 43.2573 82.3435 43.368 81.2591 43.1523C80.1748 42.9366 79.1789 42.4042 78.3971 41.6225C77.6153 40.8407 77.0829 39.8447 76.8672 38.7603C76.6515 37.676 76.7622 36.552 77.1853 35.5306C77.6084 34.5092 78.3249 33.6361 79.2442 33.0219C80.1634 32.4077 81.2441 32.0798 82.3497 32.0798C83.0838 32.0798 83.8107 32.2244 84.4889 32.5053C85.1671 32.7863 85.7833 33.198 86.3023 33.7171C86.8214 34.2362 87.2332 34.8524 87.5141 35.5306C87.795 36.2088 87.9397 36.9357 87.9397 37.6698Z" fill="#0C0A0D"/>
<path d="M110.25 37.6698C110.248 38.773 109.919 39.8508 109.305 40.7671C108.69 41.6835 107.818 42.3971 106.798 42.8179C105.779 43.2388 104.657 43.3479 103.575 43.1314C102.493 42.915 101.5 42.3828 100.721 41.602C99.9413 40.8212 99.4108 39.827 99.1963 38.7448C98.9818 37.6627 99.0929 36.5412 99.5156 35.5222C99.9382 34.5031 100.653 33.6322 101.571 33.0195C102.488 32.4068 103.567 32.0798 104.67 32.0798C105.403 32.0798 106.13 32.2245 106.808 32.5055C107.485 32.7866 108.101 33.1985 108.619 33.7177C109.137 34.2369 109.548 34.8532 109.828 35.5314C110.108 36.2095 110.251 36.9362 110.25 37.6698Z" fill="#0C0A0D"/>
<path d="M20.9201 59.9999C20.9201 61.1059 20.5919 62.187 19.9773 63.1065C19.3626 64.026 18.4891 64.7424 17.4671 65.1652C16.445 65.588 15.3206 65.6982 14.2359 65.4817C13.1513 65.2652 12.1553 64.7318 11.3739 63.949C10.5926 63.1663 10.061 62.1693 9.84644 61.0843C9.63187 59.9993 9.74398 58.8751 10.1686 57.8538C10.5932 56.8326 11.3112 55.9602 12.2317 55.3472C13.1523 54.7341 14.2341 54.408 15.3401 54.4099C16.0737 54.4099 16.8001 54.5546 17.4778 54.8356C18.1554 55.1167 18.7709 55.5286 19.2892 56.0478C19.8075 56.567 20.2183 57.1833 20.4982 57.8614C20.778 58.5396 20.9214 59.2663 20.9201 59.9999Z" fill="#0C0A0D"/>
<path d="M43.2596 59.9999C43.2576 61.1031 42.9287 62.1809 42.3143 63.0972C41.7 64.0135 40.8279 64.7272 39.8081 65.1481C38.7884 65.5689 37.6667 65.6779 36.5849 65.4615C35.5031 65.2451 34.5099 64.7129 33.7305 63.9321C32.9511 63.1513 32.4206 62.157 32.2061 61.0749C31.9916 59.9927 32.1026 58.8713 32.5253 57.8523C32.9479 56.8332 33.6632 55.9624 34.5806 55.3496C35.498 54.7369 36.5764 54.4099 37.6796 54.4099C38.4132 54.4099 39.1396 54.5546 39.8172 54.8356C40.4949 55.1167 41.1104 55.5286 41.6287 56.0478C42.147 56.567 42.5579 57.1833 42.8377 57.8614C43.1175 58.5396 43.2609 59.2662 43.2596 59.9999Z" fill="#0C0A0D"/>
<path d="M65.5896 59.9999C65.5896 61.1054 65.2617 62.1862 64.6475 63.1055C64.0332 64.0247 63.1603 64.7412 62.1388 65.1643C61.1174 65.5874 59.9934 65.6981 58.909 65.4824C57.8247 65.2667 56.8288 64.7343 56.047 63.9525C55.2652 63.1708 54.7328 62.1747 54.5171 61.0904C54.3014 60.0061 54.4121 58.8821 54.8352 57.8607C55.2583 56.8392 55.9748 55.9662 56.8941 55.352C57.8133 54.7378 58.894 54.4099 59.9996 54.4099C60.7337 54.4099 61.4606 54.5545 62.1388 54.8354C62.817 55.1163 63.4333 55.5281 63.9524 56.0472C64.4714 56.5662 64.8831 57.1825 65.164 57.8607C65.4449 58.5389 65.5896 59.2658 65.5896 59.9999Z" fill="#0C0A0D"/>
<path d="M87.9397 59.9999C87.9397 61.1054 87.6118 62.1862 86.9976 63.1055C86.3833 64.0247 85.5104 64.7412 84.4889 65.1643C83.4675 65.5874 82.3435 65.6981 81.2591 65.4824C80.1748 65.2667 79.1789 64.7343 78.3971 63.9525C77.6153 63.1708 77.0829 62.1747 76.8672 61.0904C76.6515 60.0061 76.7622 58.8821 77.1853 57.8607C77.6084 56.8392 78.3249 55.9662 79.2442 55.352C80.1634 54.7378 81.2441 54.4099 82.3497 54.4099C83.0838 54.4099 83.8107 54.5545 84.4889 54.8354C85.1671 55.1163 85.7833 55.5281 86.3023 56.0472C86.8214 56.5662 87.2332 57.1825 87.5141 57.8607C87.795 58.5389 87.9397 59.2658 87.9397 59.9999Z" fill="#0C0A0D"/>
<path d="M110.25 59.9999C110.248 61.1031 109.919 62.1809 109.305 63.0972C108.69 64.0135 107.818 64.7272 106.798 65.1481C105.779 65.5689 104.657 65.6779 103.575 65.4615C102.493 65.2451 101.5 64.7129 100.721 63.9321C99.9413 63.1513 99.4108 62.157 99.1963 61.0749C98.9818 59.9927 99.0929 58.8713 99.5156 57.8523C99.9382 56.8332 100.653 55.9624 101.571 55.3496C102.488 54.7369 103.567 54.4099 104.67 54.4099C105.403 54.4099 106.13 54.5546 106.808 54.8356C107.485 55.1167 108.101 55.5286 108.619 56.0478C109.137 56.567 109.548 57.1833 109.828 57.8614C110.108 58.5396 110.251 59.2662 110.25 59.9999Z" fill="#0C0A0D"/>
<path d="M20.9201 82.3298C20.9221 83.4362 20.5956 84.5183 19.9821 85.4391C19.3686 86.3599 18.4957 87.0779 17.4739 87.5022C16.4521 87.9266 15.3273 88.0381 14.2421 87.8227C13.1568 87.6074 12.1598 87.0748 11.3775 86.2924C10.5951 85.51 10.0625 84.5131 9.84717 83.4278C9.6318 82.3426 9.74331 81.2178 10.1676 80.196C10.5919 79.1741 11.3099 78.3012 12.2307 77.6877C13.1515 77.0742 14.2337 76.7478 15.3401 76.7498C16.82 76.7498 18.2392 77.3377 19.2857 78.3841C20.3321 79.4306 20.9201 80.8499 20.9201 82.3298Z" fill="#0C0A0D"/>
<path d="M43.2596 82.3298C43.2596 83.4334 42.9323 84.5122 42.3192 85.4299C41.7061 86.3475 40.8345 87.0627 39.8149 87.4851C38.7953 87.9074 37.6734 88.0179 36.591 87.8026C35.5085 87.5873 34.5143 87.0558 33.7339 86.2755C32.9535 85.4951 32.4222 84.5008 32.2069 83.4184C31.9916 82.336 32.1019 81.214 32.5243 80.1944C32.9466 79.1748 33.6619 78.3033 34.5795 77.6902C35.4971 77.077 36.576 76.7498 37.6796 76.7498C38.4127 76.7485 39.1389 76.8919 39.8165 77.1719C40.4941 77.4518 41.1098 77.8628 41.6282 78.3812C42.1466 78.8996 42.5575 79.5153 42.8375 80.1929C43.1174 80.8705 43.2609 81.5967 43.2596 82.3298Z" fill="#0C0A0D"/>
<path d="M65.5896 82.3298C65.5915 83.4358 65.2654 84.5175 64.6523 85.4381C64.0393 86.3586 63.167 87.0767 62.1457 87.5013C61.1245 87.9259 60.0002 88.038 58.9152 87.8235C57.8302 87.6089 56.8333 87.0773 56.0505 86.2959C55.2678 85.5145 54.7343 84.5185 54.5178 83.4339C54.3013 82.3493 54.4115 81.2248 54.8343 80.2028C55.2571 79.1808 55.9735 78.3072 56.893 77.6925C57.8125 77.0779 58.8936 76.7498 59.9996 76.7498C60.7332 76.7485 61.46 76.8918 62.1381 77.1717C62.8163 77.4515 63.4326 77.8623 63.9518 78.3806C64.471 78.8989 64.8829 79.5145 65.1639 80.1921C65.445 80.8698 65.5896 81.5962 65.5896 82.3298Z" fill="#0C0A0D"/>
<path d="M87.9397 82.3298C87.9416 83.4358 87.6154 84.5175 87.0024 85.4381C86.3894 86.3586 85.5171 87.0767 84.4958 87.5013C83.4746 87.9259 82.3503 88.038 81.2653 87.8235C80.1803 87.6089 79.1834 87.0773 78.4006 86.2959C77.6179 85.5145 77.0844 84.5185 76.8679 83.4339C76.6514 82.3493 76.7616 81.2248 77.1844 80.2028C77.6071 79.1808 78.3236 78.3072 79.2431 77.6925C80.1626 77.0779 81.2437 76.7498 82.3497 76.7498C83.0833 76.7485 83.8101 76.8918 84.4882 77.1717C85.1664 77.4515 85.7827 77.8623 86.3019 78.3806C86.8211 78.8989 87.233 79.5145 87.514 80.1921C87.795 80.8698 87.9397 81.5962 87.9397 82.3298Z" fill="#0C0A0D"/>
<path d="M110.25 82.3298C110.25 83.4334 109.923 84.5122 109.309 85.4299C108.696 86.3475 107.825 87.0627 106.805 87.485C105.786 87.9074 104.664 88.0179 103.581 87.8026C102.499 87.5873 101.505 87.0558 100.724 86.2755C99.9438 85.4951 99.4124 84.5008 99.1971 83.4184C98.9818 82.336 99.0923 81.214 99.5146 80.1944C99.9369 79.1748 100.652 78.3033 101.57 77.6902C102.487 77.077 103.566 76.7498 104.67 76.7498C106.15 76.7498 107.569 77.3376 108.616 78.3841C109.662 79.4306 110.25 80.8499 110.25 82.3298Z" fill="#0C0A0D"/>
<path d="M20.9201 104.66C20.9221 105.766 20.5956 106.848 19.9821 107.769C19.3686 108.69 18.4957 109.408 17.4739 109.832C16.4521 110.257 15.3273 110.368 14.2421 110.153C13.1568 109.937 12.1598 109.405 11.3775 108.622C10.5951 107.84 10.0625 106.843 9.84717 105.758C9.6318 104.673 9.74331 103.548 10.1676 102.526C10.5919 101.504 11.3099 100.631 12.2307 100.018C13.1515 99.4043 14.2337 99.0779 15.3401 99.0798C16.8192 99.0825 18.237 99.6712 19.2829 100.717C20.3288 101.763 20.9175 103.181 20.9201 104.66Z" fill="#0C0A0D"/>
<path d="M43.2596 104.66C43.2596 105.763 42.9323 106.842 42.3192 107.76C41.7061 108.678 40.8345 109.393 39.8149 109.815C38.7953 110.237 37.6734 110.348 36.591 110.133C35.5085 109.917 34.5143 109.386 33.7339 108.606C32.9535 107.825 32.4222 106.831 32.2069 105.748C31.9916 104.666 32.1019 103.544 32.5243 102.524C32.9466 101.505 33.6619 100.633 34.5795 100.02C35.4971 99.4071 36.576 99.0798 37.6796 99.0798C39.1595 99.0798 40.5787 99.6677 41.6252 100.714C42.6716 101.761 43.2596 103.18 43.2596 104.66Z" fill="#0C0A0D"/>
<path d="M65.5896 104.66C65.5915 105.766 65.2654 106.848 64.6523 107.768C64.0393 108.689 63.167 109.407 62.1457 109.831C61.1245 110.256 60.0002 110.368 58.9152 110.153C57.8302 109.939 56.8333 109.407 56.0505 108.626C55.2678 107.845 54.7343 106.849 54.5178 105.764C54.3013 104.679 54.4115 103.555 54.8343 102.533C55.2571 101.511 55.9735 100.637 56.893 100.023C57.8125 99.4079 58.8936 99.0798 59.9996 99.0798C61.4805 99.0798 62.9008 99.6674 63.9489 100.714C64.9969 101.76 65.5869 103.179 65.5896 104.66Z" fill="#0C0A0D"/>
<path d="M87.9397 104.66C87.9416 105.766 87.6154 106.848 87.0024 107.768C86.3894 108.689 85.5171 109.407 84.4958 109.831C83.4746 110.256 82.3503 110.368 81.2653 110.153C80.1803 109.939 79.1834 109.407 78.4006 108.626C77.6179 107.845 77.0844 106.849 76.8679 105.764C76.6514 104.679 76.7616 103.555 77.1844 102.533C77.6071 101.511 78.3236 100.637 79.2431 100.023C80.1626 99.4079 81.2437 99.0798 82.3497 99.0798C83.8306 99.0798 85.2509 99.6674 86.299 100.714C87.347 101.76 87.937 103.179 87.9397 104.66Z" fill="#0C0A0D"/>
<path d="M110.25 104.66C110.25 105.763 109.923 106.842 109.309 107.76C108.696 108.678 107.825 109.393 106.805 109.815C105.786 110.237 104.664 110.348 103.581 110.133C102.499 109.917 101.505 109.386 100.724 108.606C99.9438 107.825 99.4124 106.831 99.1971 105.748C98.9818 104.666 99.0923 103.544 99.5146 102.524C99.9369 101.505 100.652 100.633 101.57 100.02C102.487 99.4071 103.566 99.0798 104.67 99.0798C106.149 99.0825 107.567 99.6712 108.613 100.717C109.658 101.763 110.247 103.181 110.25 104.66Z" fill="#0C0A0D"/>
<path d="M120 480H0V600H120V480Z" fill="#552790"/>
<path d="M60.0597 488.936L8.93604 540.06L60.0597 591.203L111.193 540.06L60.0597 488.936ZM34.5028 540.06L60.0597 514.552L85.6264 540.109L60.0597 565.626L34.5028 540.06Z" fill="#13A5FE"/>
<path d="M60.1293 509.916L30.3428 539.702L60.1293 569.489L89.9158 539.702L60.1293 509.916Z" fill="#0C0A0D"/>
<path d="M120 360H0.128906V479.941H120V360Z" fill="#0C0A0D"/>
<path d="M119.871 360.06H0V480H119.871V360.06Z" fill="#0C0A0D"/>
<path d="M0 400.837H39.9405V360.149C17.8527 360.198 0 378.399 0 400.837Z" fill="#092B49"/>
<path d="M0 440.036H39.9405V400.886C17.8527 400.886 0 418.402 0 440.036Z" fill="#092B49"/>
<path d="M0 479.95H39.9405V440.036C29.3554 440.034 19.2024 444.237 11.7129 451.721C4.22348 459.206 0.0105164 469.359 0 479.95H0Z" fill="#092B49"/>
<path d="M39.9897 400.837H79.9303V360.149C57.8722 360.149 39.9897 378.349 39.9897 400.837Z" fill="#092B49"/>
<path d="M39.9897 440.036H79.9303V400.886C57.8722 400.886 39.9897 418.402 39.9897 440.007V440.036Z" fill="#092B49"/>
<path d="M39.9897 479.95H79.9303V440.036C74.6865 440.035 69.4938 441.067 64.6487 443.074C59.8036 445.081 55.401 448.022 51.6922 451.732C47.9833 455.441 45.041 459.844 43.0331 464.691C41.0252 469.538 39.991 474.733 39.9897 479.98V479.95Z" fill="#092B49"/>
<path d="M79.9307 400.837H119.871V360.149C97.8032 360.149 79.9307 378.349 79.9307 400.837Z" fill="#092B49"/>
<path d="M79.9307 440.036H119.871V400.886C97.8032 400.886 79.9307 418.402 79.9307 440.007V440.036Z" fill="#092B49"/>
<path d="M79.9307 479.95H119.871V440.036C114.627 440.034 109.434 441.065 104.588 443.071C99.7424 445.077 95.3393 448.019 91.6302 451.729C87.9211 455.438 84.9788 459.842 82.9713 464.69C80.9639 469.537 79.9307 474.733 79.9307 479.98V479.95Z" fill="#092B49"/>
<path d="M120 360H0.128906V479.941H120V360Z" fill="#0C0A0D"/>
<path d="M119.871 360.06H0V480H119.871V360.06Z" fill="#0C0A0D"/>
<path d="M0 400.837H39.9405V360.149C17.8527 360.198 0 378.399 0 400.837Z" fill="#092B49"/>
<path d="M0 440.036H39.9405V400.886C17.8527 400.886 0 418.402 0 440.036Z" fill="#092B49"/>
<path d="M0 479.95H39.9405V440.036C29.3554 440.034 19.2024 444.237 11.7129 451.721C4.22348 459.206 0.0105164 469.359 0 479.95H0Z" fill="#092B49"/>
<path d="M39.9897 400.837H79.9303V360.149C57.8722 360.149 39.9897 378.349 39.9897 400.837Z" fill="#092B49"/>
<path d="M39.9897 440.036H79.9303V400.886C57.8722 400.886 39.9897 418.402 39.9897 440.007V440.036Z" fill="#092B49"/>
<path d="M39.9897 479.95H79.9303V440.036C74.6865 440.035 69.4938 441.067 64.6487 443.074C59.8036 445.081 55.401 448.022 51.6922 451.732C47.9833 455.441 45.041 459.844 43.0331 464.691C41.0252 469.538 39.991 474.733 39.9897 479.98V479.95Z" fill="#092B49"/>
<path d="M79.9307 400.837H119.871V360.149C97.8032 360.149 79.9307 378.349 79.9307 400.837Z" fill="#092B49"/>
<path d="M79.9307 440.036H119.871V400.886C97.8032 400.886 79.9307 418.402 79.9307 440.007V440.036Z" fill="#092B49"/>
<path d="M79.9307 479.95H119.871V440.036C114.627 440.034 109.434 441.065 104.588 443.071C99.7424 445.077 95.3393 448.019 91.6302 451.729C87.9211 455.438 84.9788 459.842 82.9713 464.69C80.9639 469.537 79.9307 474.733 79.9307 479.98V479.95Z" fill="#092B49"/>
<path d="M120 600H0V720H120V600Z" fill="#0C0A0D"/>
<path d="M0 719.9V600.198L119.901 660.049L0 719.9Z" fill="#092B49"/>
<path d="M19.6528 686.848V633.25L72.8538 660.049L19.6528 686.848Z" fill="#8EFCFF"/>
<path d="M120 120H0V240H120V120Z" fill="#8EFCFF"/>
<path d="M102.432 137.469H17.4692V222.432H102.432V137.469Z" fill="#092B49"/>
<path d="M92.2085 147.692H27.6924V212.209H92.2085V147.692Z" fill="#0C0A0D"/>
<path d="M76.1292 163.772H43.8711V196.03H76.1292V163.772Z" fill="#13A5FE"/>
<path d="M120 240H0V360H120V240Z" fill="#552790"/>
<path d="M0 274.938V240.198C32.1588 240.198 63.0274 253.499 84.5658 275.236C106.104 296.973 119.901 325.558 119.901 359.901H85.3598C85.4591 311.365 46.2531 274.938 0 274.938Z" fill="#8EFCFF"/>
<path d="M0 359.901V309.677C28.0893 309.677 50.9182 331.514 50.9182 359.901H0Z" fill="#0C0A0D"/>
</svg>
