<svg width="480" height="720" viewBox="0 0 480 720" fill="none" xmlns="http://www.w3.org/2000/svg">
<path d="M240 0H120V120H240V0Z" fill="#092B49"/>
<path d="M129.035 0L120 9.03528V22.0917L142.088 0H129.035Z" fill="#001A31"/>
<path d="M155.15 0L120 35.1481V48.2045L168.202 0H155.15Z" fill="#001A31"/>
<path d="M181.255 0L120 61.2609V74.3074L194.317 0H181.255Z" fill="#001A31"/>
<path d="M207.369 0L120 87.3638V100.41L220.421 0H207.369Z" fill="#001A31"/>
<path d="M240 0H233.464L120 113.467V120H126.526L240 6.52325V0Z" fill="#001A31"/>
<path d="M240 19.5798L139.578 120H152.63L240 32.6362V19.5798Z" fill="#001A31"/>
<path d="M240 45.6926L165.683 120H178.735L240 58.7391V45.6926Z" fill="#001A31"/>
<path d="M240 71.7954L191.797 120H204.85L240 84.8519V71.7954Z" fill="#001A31"/>
<path d="M240 97.9084L217.902 120H230.955L240 110.955V97.9084Z" fill="#001A31"/>
<path d="M480 360.01H360V480H480V360.01Z" fill="#8EFCFF"/>
<path d="M479.99 419.995V360.01H420.03C420.027 367.886 421.576 375.685 424.588 382.962C427.6 390.238 432.016 396.851 437.584 402.421C443.152 407.991 449.763 412.41 457.039 415.426C464.315 418.441 472.114 419.994 479.99 419.995Z" fill="#0C0A0D"/>
<path d="M419.99 480C427.871 480.003 435.675 478.452 442.956 475.438C450.238 472.423 456.854 468.003 462.426 462.43C467.998 456.858 472.417 450.242 475.431 442.96C478.445 435.679 479.994 427.875 479.99 419.995H420.03L419.99 480Z" fill="#0C0A0D"/>
<path d="M360.03 419.995H419.99C419.993 404.089 413.678 388.834 402.434 377.583C391.19 366.333 375.937 360.008 360.03 360V419.995Z" fill="#092B49"/>
<path d="M408.612 450.176C408.584 453.658 407.527 457.054 405.572 459.935C403.617 462.816 400.853 465.055 397.628 466.368C394.403 467.681 390.862 468.009 387.45 467.313C384.038 466.616 380.909 464.925 378.458 462.452C376.006 459.98 374.341 456.837 373.673 453.42C373.005 450.003 373.363 446.465 374.704 443.251C376.044 440.037 378.305 437.293 381.203 435.362C384.101 433.432 387.506 432.403 390.988 432.405C393.313 432.414 395.612 432.881 397.756 433.779C399.9 434.677 401.846 435.989 403.482 437.639C405.119 439.29 406.414 441.246 407.295 443.397C408.175 445.549 408.622 447.852 408.612 450.176Z" fill="#552790"/>
<path d="M480 240H360V360H480V240Z" fill="#13A5FE"/>
<path d="M471.481 300.01C471.481 310.192 468.462 320.145 462.805 328.611C457.148 337.077 449.108 343.676 439.701 347.572C430.294 351.469 419.943 352.488 409.957 350.502C399.97 348.515 390.797 343.612 383.597 336.412C376.398 329.213 371.495 320.04 369.508 310.053C367.522 300.067 368.541 289.716 372.438 280.309C376.334 270.902 382.933 262.862 391.399 257.205C399.865 251.548 409.818 248.529 420 248.529C426.761 248.528 433.456 249.858 439.703 252.445C445.949 255.032 451.625 258.824 456.406 263.604C461.186 268.385 464.978 274.061 467.565 280.307C470.152 286.554 471.483 293.249 471.481 300.01Z" fill="#0C0A0D"/>
<path d="M120 240H0V360H120V240Z" fill="#552790"/>
<path d="M20.9201 255.33C20.9221 256.436 20.5956 257.519 19.9821 258.439C19.3686 259.36 18.4957 260.078 17.4739 260.502C16.4521 260.927 15.3273 261.038 14.2421 260.823C13.1568 260.608 12.1598 260.075 11.3775 259.293C10.5951 258.51 10.0625 257.513 9.84717 256.428C9.6318 255.343 9.74331 254.218 10.1676 253.196C10.5919 252.174 11.3099 251.301 12.2307 250.688C13.1515 250.074 14.2337 249.748 15.3401 249.75C16.8192 249.753 18.237 250.341 19.2829 251.387C20.3288 252.433 20.9175 253.851 20.9201 255.33Z" fill="#0C0A0D"/>
<path d="M43.2596 255.33C43.2596 256.434 42.9323 257.512 42.3192 258.43C41.7061 259.348 40.8345 260.063 39.8149 260.485C38.7953 260.908 37.6734 261.018 36.591 260.803C35.5085 260.587 34.5143 260.056 33.7339 259.276C32.9535 258.495 32.4222 257.501 32.2069 256.419C31.9916 255.336 32.1019 254.214 32.5243 253.195C32.9466 252.175 33.6619 251.304 34.5795 250.69C35.4971 250.077 36.576 249.75 37.6796 249.75C39.1595 249.75 40.5787 250.338 41.6252 251.384C42.6716 252.431 43.2596 253.85 43.2596 255.33Z" fill="#0C0A0D"/>
<path d="M65.5898 255.33C65.5918 256.436 65.2656 257.518 64.6526 258.438C64.0395 259.359 63.1672 260.077 62.146 260.501C61.1247 260.926 60.0005 261.038 58.9155 260.824C57.8305 260.609 56.8335 260.077 56.0508 259.296C55.268 258.515 54.7345 257.519 54.518 256.434C54.3015 255.35 54.4117 254.225 54.8345 253.203C55.2573 252.181 55.9738 251.307 56.8932 250.693C57.8127 250.078 58.8939 249.75 59.9999 249.75C61.4807 249.75 62.9011 250.338 63.9491 251.384C64.9971 252.43 65.5872 253.849 65.5898 255.33Z" fill="#0C0A0D"/>
<path d="M87.9399 255.33C87.9419 256.436 87.6157 257.518 87.0027 258.438C86.3896 259.359 85.5173 260.077 84.4961 260.501C83.4748 260.926 82.3506 261.038 81.2656 260.824C80.1806 260.609 79.1836 260.077 78.4009 259.296C77.6181 258.515 77.0846 257.519 76.8681 256.434C76.6516 255.35 76.7618 254.225 77.1846 253.203C77.6074 252.181 78.3239 251.307 79.2433 250.693C80.1628 250.078 81.244 249.75 82.35 249.75C83.8308 249.75 85.2512 250.338 86.2992 251.384C87.3472 252.43 87.9373 253.849 87.9399 255.33Z" fill="#0C0A0D"/>
<path d="M110.25 255.33C110.25 256.434 109.922 257.512 109.309 258.43C108.696 259.348 107.825 260.063 106.805 260.485C105.785 260.908 104.663 261.018 103.581 260.803C102.499 260.587 101.504 260.056 100.724 259.276C99.9436 258.495 99.4121 257.501 99.1968 256.419C98.9815 255.336 99.092 254.214 99.5144 253.195C99.9367 252.175 100.652 251.304 101.569 250.69C102.487 250.077 103.566 249.75 104.67 249.75C106.149 249.753 107.566 250.341 108.612 251.387C109.658 252.433 110.247 253.851 110.25 255.33Z" fill="#0C0A0D"/>
<path d="M20.9201 277.67C20.9201 278.776 20.5919 279.857 19.9773 280.776C19.3626 281.696 18.4891 282.412 17.4671 282.835C16.445 283.258 15.3206 283.368 14.2359 283.152C13.1513 282.935 12.1553 282.402 11.3739 281.619C10.5926 280.836 10.061 279.839 9.84644 278.754C9.63187 277.669 9.74398 276.545 10.1686 275.524C10.5932 274.502 11.3112 273.63 12.2317 273.017C13.1523 272.404 14.2341 272.078 15.3401 272.08C16.0737 272.08 16.8001 272.224 17.4778 272.506C18.1554 272.787 18.7709 273.198 19.2892 273.718C19.8075 274.237 20.2183 274.853 20.4982 275.531C20.778 276.21 20.9214 276.936 20.9201 277.67Z" fill="#0C0A0D"/>
<path d="M43.2596 277.67C43.2576 278.773 42.9287 279.851 42.3143 280.767C41.7 281.683 40.8279 282.397 39.8081 282.818C38.7884 283.239 37.6667 283.348 36.5849 283.131C35.5031 282.915 34.5099 282.383 33.7305 281.602C32.9511 280.821 32.4206 279.827 32.2061 278.745C31.9916 277.663 32.1026 276.541 32.5253 275.522C32.9479 274.503 33.6632 273.632 34.5806 273.02C35.498 272.407 36.5764 272.08 37.6796 272.08C38.4132 272.08 39.1396 272.224 39.8172 272.506C40.4949 272.787 41.1104 273.198 41.6287 273.718C42.147 274.237 42.5579 274.853 42.8377 275.531C43.1175 276.209 43.2609 276.936 43.2596 277.67Z" fill="#0C0A0D"/>
<path d="M65.5898 277.67C65.5898 278.775 65.2619 279.856 64.6477 280.775C64.0335 281.695 63.1605 282.411 62.1391 282.834C61.1176 283.257 59.9936 283.368 58.9093 283.152C57.825 282.937 56.829 282.404 56.0472 281.622C55.2655 280.841 54.733 279.845 54.5173 278.76C54.3016 277.676 54.4124 276.552 54.8355 275.531C55.2586 274.509 55.9751 273.636 56.8943 273.022C57.8136 272.408 58.8943 272.08 59.9999 272.08C60.7339 272.08 61.4609 272.224 62.1391 272.505C62.8173 272.786 63.4335 273.198 63.9526 273.717C64.4717 274.236 64.8833 274.852 65.1643 275.531C65.4452 276.209 65.5898 276.936 65.5898 277.67Z" fill="#0C0A0D"/>
<path d="M87.9399 277.67C87.9399 278.775 87.612 279.856 86.9978 280.775C86.3836 281.695 85.5106 282.411 84.4892 282.834C83.4677 283.257 82.3437 283.368 81.2594 283.152C80.1751 282.937 79.1791 282.404 78.3973 281.622C77.6156 280.841 77.0831 279.845 76.8674 278.76C76.6517 277.676 76.7625 276.552 77.1856 275.531C77.6087 274.509 78.3252 273.636 79.2444 273.022C80.1637 272.408 81.2444 272.08 82.35 272.08C83.084 272.08 83.811 272.224 84.4892 272.505C85.1674 272.786 85.7835 273.198 86.3026 273.717C86.8217 274.236 87.2334 274.852 87.5144 275.531C87.7953 276.209 87.9399 276.936 87.9399 277.67Z" fill="#0C0A0D"/>
<path d="M110.25 277.67C110.248 278.773 109.919 279.851 109.304 280.767C108.69 281.683 107.818 282.397 106.798 282.818C105.778 283.239 104.657 283.348 103.575 283.131C102.493 282.915 101.5 282.383 100.72 281.602C99.9411 280.821 99.4106 279.827 99.1961 278.745C98.9816 277.663 99.0927 276.541 99.5153 275.522C99.938 274.503 100.653 273.632 101.571 273.02C102.488 272.407 103.566 272.08 104.67 272.08C105.403 272.08 106.13 272.224 106.807 272.506C107.485 272.787 108.101 273.198 108.619 273.718C109.137 274.237 109.548 274.853 109.828 275.531C110.107 276.209 110.251 276.936 110.25 277.67Z" fill="#0C0A0D"/>
<path d="M20.9201 300C20.9201 301.106 20.5919 302.187 19.9773 303.107C19.3626 304.026 18.4891 304.742 17.4671 305.165C16.445 305.588 15.3206 305.698 14.2359 305.482C13.1513 305.265 12.1553 304.732 11.3739 303.949C10.5926 303.166 10.061 302.169 9.84644 301.084C9.63187 299.999 9.74398 298.875 10.1686 297.854C10.5932 296.833 11.3112 295.96 12.2317 295.347C13.1523 294.734 14.2341 294.408 15.3401 294.41C16.0737 294.41 16.8001 294.555 17.4778 294.836C18.1554 295.117 18.7709 295.529 19.2892 296.048C19.8075 296.567 20.2183 297.183 20.4982 297.861C20.778 298.54 20.9214 299.266 20.9201 300Z" fill="#0C0A0D"/>
<path d="M43.2596 300C43.2576 301.103 42.9287 302.181 42.3143 303.097C41.7 304.014 40.8279 304.727 39.8081 305.148C38.7884 305.569 37.6667 305.678 36.5849 305.462C35.5031 305.245 34.5099 304.713 33.7305 303.932C32.9511 303.151 32.4206 302.157 32.2061 301.075C31.9916 299.993 32.1026 298.871 32.5253 297.852C32.9479 296.833 33.6632 295.962 34.5806 295.35C35.498 294.737 36.5764 294.41 37.6796 294.41C38.4132 294.41 39.1396 294.555 39.8172 294.836C40.4949 295.117 41.1104 295.529 41.6287 296.048C42.147 296.567 42.5579 297.183 42.8377 297.861C43.1175 298.54 43.2609 299.266 43.2596 300Z" fill="#0C0A0D"/>
<path d="M65.5898 300C65.5898 301.105 65.2619 302.186 64.6477 303.105C64.0335 304.025 63.1605 304.741 62.1391 305.164C61.1176 305.587 59.9936 305.698 58.9093 305.482C57.825 305.267 56.829 304.734 56.0472 303.953C55.2655 303.171 54.733 302.175 54.5173 301.09C54.3016 300.006 54.4124 298.882 54.8355 297.861C55.2586 296.839 55.9751 295.966 56.8943 295.352C57.8136 294.738 58.8943 294.41 59.9999 294.41C60.7339 294.41 61.4609 294.555 62.1391 294.835C62.8173 295.116 63.4335 295.528 63.9526 296.047C64.4717 296.566 64.8833 297.182 65.1643 297.861C65.4452 298.539 65.5898 299.266 65.5898 300Z" fill="#0C0A0D"/>
<path d="M87.9399 300C87.9399 301.105 87.612 302.186 86.9978 303.105C86.3836 304.025 85.5106 304.741 84.4892 305.164C83.4677 305.587 82.3437 305.698 81.2594 305.482C80.1751 305.267 79.1791 304.734 78.3973 303.953C77.6156 303.171 77.0831 302.175 76.8674 301.09C76.6517 300.006 76.7625 298.882 77.1856 297.861C77.6087 296.839 78.3252 295.966 79.2444 295.352C80.1637 294.738 81.2444 294.41 82.35 294.41C83.084 294.41 83.811 294.555 84.4892 294.835C85.1674 295.116 85.7835 295.528 86.3026 296.047C86.8217 296.566 87.2334 297.182 87.5144 297.861C87.7953 298.539 87.9399 299.266 87.9399 300Z" fill="#0C0A0D"/>
<path d="M110.25 300C110.248 301.103 109.919 302.181 109.304 303.097C108.69 304.014 107.818 304.727 106.798 305.148C105.778 305.569 104.657 305.678 103.575 305.462C102.493 305.245 101.5 304.713 100.72 303.932C99.9411 303.151 99.4106 302.157 99.1961 301.075C98.9816 299.993 99.0927 298.871 99.5153 297.852C99.938 296.833 100.653 295.962 101.571 295.35C102.488 294.737 103.566 294.41 104.67 294.41C105.403 294.41 106.13 294.555 106.807 294.836C107.485 295.117 108.101 295.529 108.619 296.048C109.137 296.567 109.548 297.183 109.828 297.861C110.107 298.54 110.251 299.266 110.25 300Z" fill="#0C0A0D"/>
<path d="M20.9201 322.33C20.9221 323.436 20.5956 324.518 19.9821 325.439C19.3686 326.36 18.4957 327.078 17.4739 327.502C16.4521 327.927 15.3273 328.038 14.2421 327.823C13.1568 327.607 12.1598 327.075 11.3775 326.292C10.5951 325.51 10.0625 324.513 9.84717 323.428C9.6318 322.343 9.74331 321.218 10.1676 320.196C10.5919 319.174 11.3099 318.301 12.2307 317.688C13.1515 317.074 14.2337 316.748 15.3401 316.75C16.82 316.75 18.2392 317.338 19.2857 318.384C20.3321 319.431 20.9201 320.85 20.9201 322.33Z" fill="#0C0A0D"/>
<path d="M43.2596 322.33C43.2596 323.433 42.9323 324.512 42.3192 325.43C41.7061 326.347 40.8345 327.063 39.8149 327.485C38.7953 327.907 37.6734 328.018 36.591 327.803C35.5085 327.587 34.5143 327.056 33.7339 326.275C32.9535 325.495 32.4222 324.501 32.2069 323.418C31.9916 322.336 32.1019 321.214 32.5243 320.194C32.9466 319.175 33.6619 318.303 34.5795 317.69C35.4971 317.077 36.576 316.75 37.6796 316.75C38.4127 316.748 39.1389 316.892 39.8165 317.172C40.4941 317.452 41.1098 317.863 41.6282 318.381C42.1466 318.9 42.5575 319.515 42.8375 320.193C43.1174 320.87 43.2609 321.597 43.2596 322.33Z" fill="#0C0A0D"/>
<path d="M65.5898 322.33C65.5918 323.436 65.2656 324.518 64.6526 325.438C64.0395 326.359 63.1672 327.077 62.146 327.501C61.1247 327.926 60.0005 328.038 58.9155 327.823C57.8305 327.609 56.8335 327.077 56.0508 326.296C55.268 325.515 54.7345 324.519 54.518 323.434C54.3015 322.349 54.4117 321.225 54.8345 320.203C55.2573 319.181 55.9738 318.307 56.8932 317.693C57.8127 317.078 58.8939 316.75 59.9999 316.75C60.7335 316.748 61.4602 316.892 62.1384 317.172C62.8165 317.452 63.4328 317.862 63.952 318.381C64.4712 318.899 64.8831 319.514 65.1642 320.192C65.4452 320.87 65.5898 321.596 65.5898 322.33Z" fill="#0C0A0D"/>
<path d="M87.9399 322.33C87.9419 323.436 87.6157 324.518 87.0027 325.438C86.3896 326.359 85.5173 327.077 84.4961 327.501C83.4748 327.926 82.3506 328.038 81.2656 327.823C80.1806 327.609 79.1836 327.077 78.4009 326.296C77.6181 325.515 77.0846 324.519 76.8681 323.434C76.6516 322.349 76.7618 321.225 77.1846 320.203C77.6074 319.181 78.3239 318.307 79.2433 317.693C80.1628 317.078 81.244 316.75 82.35 316.75C83.0836 316.748 83.8103 316.892 84.4885 317.172C85.1666 317.452 85.7829 317.862 86.3021 318.381C86.8213 318.899 87.2332 319.514 87.5143 320.192C87.7953 320.87 87.9399 321.596 87.9399 322.33Z" fill="#0C0A0D"/>
<path d="M110.25 322.33C110.25 323.433 109.922 324.512 109.309 325.43C108.696 326.347 107.825 327.063 106.805 327.485C105.785 327.907 104.663 328.018 103.581 327.803C102.499 327.587 101.504 327.056 100.724 326.275C99.9436 325.495 99.4121 324.501 99.1968 323.418C98.9815 322.336 99.092 321.214 99.5144 320.194C99.9367 319.175 100.652 318.303 101.569 317.69C102.487 317.077 103.566 316.75 104.67 316.75C106.149 316.75 107.569 317.338 108.615 318.384C109.662 319.431 110.25 320.85 110.25 322.33Z" fill="#0C0A0D"/>
<path d="M20.9201 344.66C20.9221 345.766 20.5956 346.848 19.9821 347.769C19.3686 348.69 18.4957 349.408 17.4739 349.832C16.4521 350.256 15.3273 350.368 14.2421 350.153C13.1568 349.937 12.1598 349.405 11.3775 348.622C10.5951 347.84 10.0625 346.843 9.84717 345.758C9.6318 344.672 9.74331 343.548 10.1676 342.526C10.5919 341.504 11.3099 340.631 12.2307 340.018C13.1515 339.404 14.2337 339.078 15.3401 339.08C16.8192 339.082 18.237 339.671 19.2829 340.717C20.3288 341.763 20.9175 343.18 20.9201 344.66Z" fill="#0C0A0D"/>
<path d="M43.2596 344.66C43.2596 345.763 42.9323 346.842 42.3192 347.76C41.7061 348.677 40.8345 349.393 39.8149 349.815C38.7953 350.237 37.6734 350.348 36.591 350.132C35.5085 349.917 34.5143 349.386 33.7339 348.605C32.9535 347.825 32.4222 346.831 32.2069 345.748C31.9916 344.666 32.1019 343.544 32.5243 342.524C32.9466 341.505 33.6619 340.633 34.5795 340.02C35.4971 339.407 36.576 339.08 37.6796 339.08C39.1595 339.08 40.5787 339.667 41.6252 340.714C42.6716 341.76 43.2596 343.18 43.2596 344.66Z" fill="#0C0A0D"/>
<path d="M65.5898 344.66C65.5918 345.766 65.2656 346.847 64.6526 347.768C64.0395 348.688 63.1672 349.406 62.146 349.831C61.1247 350.256 60.0005 350.368 58.9155 350.153C57.8305 349.939 56.8335 349.407 56.0508 348.626C55.268 347.844 54.7345 346.848 54.518 345.764C54.3015 344.679 54.4117 343.555 54.8345 342.533C55.2573 341.511 55.9738 340.637 56.8932 340.022C57.8127 339.408 58.8939 339.08 59.9999 339.08C61.4807 339.08 62.9011 339.667 63.9491 340.713C64.9971 341.759 65.5872 343.179 65.5898 344.66Z" fill="#0C0A0D"/>
<path d="M87.9399 344.66C87.9419 345.766 87.6157 346.847 87.0027 347.768C86.3896 348.688 85.5173 349.406 84.4961 349.831C83.4748 350.256 82.3506 350.368 81.2656 350.153C80.1806 349.939 79.1836 349.407 78.4009 348.626C77.6181 347.844 77.0846 346.848 76.8681 345.764C76.6516 344.679 76.7618 343.555 77.1846 342.533C77.6074 341.511 78.3239 340.637 79.2433 340.022C80.1628 339.408 81.244 339.08 82.35 339.08C83.8308 339.08 85.2512 339.667 86.2992 340.713C87.3472 341.759 87.9373 343.179 87.9399 344.66Z" fill="#0C0A0D"/>
<path d="M110.25 344.66C110.25 345.763 109.922 346.842 109.309 347.76C108.696 348.677 107.825 349.393 106.805 349.815C105.785 350.237 104.663 350.348 103.581 350.132C102.499 349.917 101.504 349.386 100.724 348.605C99.9436 347.825 99.4121 346.831 99.1968 345.748C98.9815 344.666 99.092 343.544 99.5144 342.524C99.9367 341.505 100.652 340.633 101.569 340.02C102.487 339.407 103.566 339.08 104.67 339.08C106.149 339.082 107.566 339.671 108.612 340.717C109.658 341.763 110.247 343.18 110.25 344.66Z" fill="#0C0A0D"/>
<path d="M480 120H360V240H480V120Z" fill="#0C0A0D"/>
<path d="M360 160.818H399.983V120.11C377.902 120.11 360 138.309 360 160.818Z" fill="#092B49"/>
<path d="M360 199.987H399.983V160.817C377.902 160.817 360 178.342 360 199.957V199.987Z" fill="#092B49"/>
<path d="M360 239.95H399.983V199.987C394.734 199.986 389.536 201.018 384.686 203.026C379.835 205.033 375.428 207.977 371.715 211.688C368.002 215.399 365.057 219.805 363.047 224.654C361.036 229.503 360.001 234.701 360 239.95Z" fill="#092B49"/>
<path d="M400.033 160.817H440.016V120.109C417.945 120.109 400.033 138.309 400.033 160.817Z" fill="#092B49"/>
<path d="M400.033 199.987H440.016V160.817C417.945 160.817 400.033 178.342 400.033 199.957V199.987Z" fill="#092B49"/>
<path d="M400.033 239.95H440.016V199.987C429.416 199.987 419.249 204.197 411.751 211.691C404.253 219.185 400.038 229.35 400.033 239.95Z" fill="#092B49"/>
<path d="M440.017 160.817H479.99V120.109C457.908 120.109 440.007 138.309 440.007 160.817H440.017Z" fill="#092B49"/>
<path d="M440.017 199.987H479.99V160.817C457.908 160.817 440.007 178.342 440.007 199.957L440.017 199.987Z" fill="#092B49"/>
<path d="M440.017 239.95H479.99V199.987C474.741 199.986 469.542 201.018 464.692 203.026C459.842 205.033 455.434 207.977 451.722 211.688C448.009 215.399 445.063 219.805 443.053 224.654C441.043 229.503 440.008 234.701 440.007 239.95H440.017Z" fill="#092B49"/>
<path d="M360 120H240V240H360V120Z" fill="#552790"/>
<path d="M300 128.866L248.866 180L300 231.134L351.133 180L300 128.866ZM274.463 180L300.03 154.433L325.596 180L300 205.527L274.463 180Z" fill="#13A5FE"/>
<path d="M300 150.253L270.213 180.04L300 209.826L329.786 180.04L300 150.253Z" fill="#0C0A0D"/>
<path d="M120 600L240 600L240 480L120 480L120 600Z" fill="#0C0A0D"/>
<path d="M240 559.183L200.017 559.183L200.017 599.891C222.098 599.891 240 581.692 240 559.183Z" fill="#092B49"/>
<path d="M240 520.013L200.017 520.013L200.017 559.183C222.098 559.183 240 541.658 240 520.043L240 520.013Z" fill="#092B49"/>
<path d="M240 480.05L200.017 480.05L200.017 520.013C205.266 520.014 210.464 518.982 215.314 516.974C220.165 514.967 224.572 512.023 228.285 508.312C231.998 504.601 234.943 500.195 236.953 495.346C238.964 490.497 239.999 485.299 240 480.05Z" fill="#092B49"/>
<path d="M199.967 559.183L159.984 559.183L159.984 599.891C182.055 599.891 199.967 581.692 199.967 559.183Z" fill="#092B49"/>
<path d="M199.967 520.013L159.984 520.013L159.984 559.183C182.055 559.183 199.967 541.658 199.967 520.043L199.967 520.013Z" fill="#092B49"/>
<path d="M199.967 480.05L159.984 480.05L159.984 520.013C170.584 520.013 180.751 515.803 188.249 508.309C195.747 500.815 199.962 490.65 199.967 480.05Z" fill="#092B49"/>
<path d="M159.983 559.183L120.01 559.183L120.01 599.891C142.091 599.891 159.993 581.692 159.993 559.183L159.983 559.183Z" fill="#092B49"/>
<path d="M159.983 520.013L120.01 520.013L120.01 559.183C142.091 559.183 159.993 541.658 159.993 520.043L159.983 520.013Z" fill="#092B49"/>
<path d="M159.983 480.05L120.01 480.05L120.01 520.013C125.259 520.014 130.457 518.982 135.308 516.974C140.158 514.967 144.565 512.023 148.278 508.312C151.991 504.601 154.936 500.195 156.947 495.346C158.957 490.497 159.992 485.299 159.993 480.05L159.983 480.05Z" fill="#092B49"/>
<path d="M120 480H0V600H120V480Z" fill="#552790"/>
<path d="M21.5384 528.734H0.0991211C0.0991211 567.146 31.4639 600 70.7691 600V578.362C42.9775 578.362 21.5384 555.533 21.5384 528.734Z" fill="#0C0A0D"/>
<path d="M100.05 528.734H119.901C119.901 555.533 97.2704 577.866 70.6699 577.866V557.816C86.9478 557.916 100.05 543.92 100.05 528.734Z" fill="#8EFCFF"/>
<path d="M64.3177 543.921C76.3775 543.921 86.1539 534.144 86.1539 522.084C86.1539 510.024 76.3775 500.248 64.3177 500.248C52.2579 500.248 42.4814 510.024 42.4814 522.084C42.4814 534.144 52.2579 543.921 64.3177 543.921Z" fill="#8EFCFF"/>
<path d="M480 480H360V600H480V480Z" fill="#092B49"/>
<path d="M460.348 498.958H399.405V559.405H460.348V498.958Z" fill="#13A5FE"/>
<path d="M409.231 588.784L371.315 550.869L427.891 532.208L409.231 588.784Z" fill="#8EFCFF"/>
<path d="M360 360H240V480H360V360Z" fill="#552790"/>
<path d="M299.963 364.093L244.167 419.889L299.963 475.685L355.759 419.889L299.963 364.093Z" fill="#8EFCFF"/>
<path d="M299.963 397.079L277.154 419.889L299.963 442.698L322.773 419.889L299.963 397.079Z" fill="#13A5FE"/>
<path d="M299.95 452.903C318.15 452.903 332.903 438.15 332.903 419.95C332.903 401.751 318.15 386.998 299.95 386.998C281.751 386.998 266.998 401.751 266.998 419.95C266.998 438.15 281.751 452.903 299.95 452.903Z" fill="#092B49"/>
<path d="M316.129 403.771H283.772V436.129H316.129V403.771Z" fill="#13A5FE"/>
<path d="M240 120H120V240H240V120Z" fill="#8EFCFF"/>
<path d="M239.801 240L180.05 179.95L120.198 240H239.801Z" fill="#552790"/>
<path d="M239.801 120L180.05 179.95L120.198 120H239.801Z" fill="#13A5FE"/>
<path d="M360 240H240V360H360V240Z" fill="#092B49"/>
<path d="M280.596 257.767C280.596 264.417 275.236 269.777 268.586 269.777C261.935 269.777 256.576 264.417 256.576 257.767C256.576 251.117 261.935 245.757 268.586 245.757C275.136 245.757 280.596 251.117 280.596 257.767Z" fill="#0C0A0D"/>
<path d="M280.596 286.75C280.596 293.4 275.236 298.759 268.586 298.759C261.935 298.759 256.576 293.4 256.576 286.75C256.576 280.099 261.935 274.74 268.586 274.74C275.136 274.64 280.596 280 280.596 286.75Z" fill="#552790"/>
<path d="M280.596 314.442C280.596 321.092 275.236 326.452 268.586 326.452C261.935 326.452 256.576 321.092 256.576 314.442C256.576 307.792 261.935 302.333 268.586 302.333C275.136 302.432 280.596 307.792 280.596 314.442Z" fill="#552790"/>
<path d="M280.596 342.233C280.596 348.883 275.236 354.243 268.586 354.243C261.935 354.243 256.576 348.883 256.576 342.233C256.576 335.583 261.935 330.223 268.586 330.223C275.136 330.124 280.596 335.583 280.596 342.233Z" fill="#552790"/>
<path d="M311.96 257.767C311.96 264.417 306.601 269.777 299.851 269.777C293.201 269.777 287.841 264.417 287.841 257.767C287.841 251.117 293.201 245.757 299.851 245.757C306.601 245.757 311.96 251.117 311.96 257.767Z" fill="#552790"/>
<path d="M311.96 286.75C311.96 293.4 306.601 298.759 299.851 298.759C293.201 298.759 287.841 293.4 287.841 286.75C287.841 280.099 293.201 274.74 299.851 274.74C306.601 274.64 311.96 280 311.96 286.75Z" fill="#13A5FE"/>
<path d="M311.96 314.442C311.96 321.092 306.601 326.452 299.851 326.452C293.201 326.452 287.841 321.092 287.841 314.442C287.841 307.792 293.201 302.333 299.851 302.333C306.601 302.432 311.96 307.792 311.96 314.442Z" fill="#0C0A0D"/>
<path d="M311.96 342.233C311.96 348.883 306.601 354.243 299.851 354.243C293.201 354.243 287.841 348.883 287.841 342.233C287.841 335.583 293.201 330.223 299.851 330.223C306.601 330.124 311.96 335.583 311.96 342.233Z" fill="#8EFCFF"/>
<path d="M343.424 257.767C343.424 264.417 338.065 269.777 331.414 269.777C324.764 269.777 319.405 264.417 319.405 257.767C319.405 251.117 324.764 245.757 331.414 245.757C338.065 245.757 343.424 251.117 343.424 257.767Z" fill="#552790"/>
<path d="M343.424 286.75C343.424 293.4 338.065 298.759 331.414 298.759C324.764 298.759 319.405 293.4 319.405 286.75C319.405 280.099 324.764 274.74 331.414 274.74C338.065 274.64 343.424 280 343.424 286.75Z" fill="#8EFCFF"/>
<path d="M343.424 314.442C343.424 321.092 338.065 326.452 331.414 326.452C324.764 326.452 319.405 321.092 319.405 314.442C319.405 307.792 324.764 302.333 331.414 302.333C338.065 302.432 343.424 307.792 343.424 314.442Z" fill="#552790"/>
<path d="M343.424 342.233C343.424 348.883 338.065 354.243 331.414 354.243C324.764 354.243 319.405 348.883 319.405 342.233C319.405 335.583 324.764 330.223 331.414 330.223C338.065 330.124 343.424 335.583 343.424 342.233Z" fill="#552790"/>
<path d="M481 0H361V120H481V0Z" fill="#8EFCFF"/>
<path d="M385.198 43.8347H373.297V76.0661H385.198V43.8347Z" fill="#092B49"/>
<path d="M468.504 43.8347H456.603V76.0661H468.504V43.8347Z" fill="#092B49"/>
<path d="M426.851 14.0825H414.95V46.3139H426.851V14.0825Z" fill="#092B49"/>
<path d="M426.851 73.5867H414.95V105.818H426.851V73.5867Z" fill="#092B49"/>
<path d="M456.901 30.5454H385V89.3553H456.901V30.5454Z" fill="#13A5FE"/>
<path d="M437.066 66.8431C433.595 66.8431 430.719 63.9671 430.719 60.496C430.719 57.025 433.595 54.1489 437.066 54.1489C440.537 54.1489 443.413 57.025 443.413 60.496C443.413 63.9671 440.537 66.8431 437.066 66.8431Z" fill="#092B49"/>
<path d="M404.736 66.8431C401.264 66.8431 398.388 63.9671 398.388 60.496C398.388 57.025 401.264 54.1489 404.736 54.1489C408.207 54.1489 411.083 57.025 411.083 60.496C411.083 63.9671 408.306 66.8431 404.736 66.8431Z" fill="#092B49"/>
<path d="M360 720H480V600H360V720Z" fill="#0C0A0D"/>
<path d="M480 600.05H440.017V640.013C445.266 640.014 450.464 638.982 455.315 636.974C460.165 634.967 464.572 632.023 468.285 628.312C471.998 624.601 474.943 620.195 476.953 615.346C478.963 610.497 479.999 605.299 480 600.05Z" fill="#8EFCFF"/>
<path d="M439.967 640.013H399.984V679.153C422.055 679.153 439.967 661.628 439.967 640.013Z" fill="#8EFCFF"/>
<path d="M439.967 600.05H399.984V640.013C410.584 640.013 420.751 635.803 428.249 628.309C435.747 620.815 439.962 610.65 439.967 600.05Z" fill="#8EFCFF"/>
<path d="M399.983 679.192H360V719.9C382.082 719.9 399.983 701.69 399.983 679.192Z" fill="#8EFCFF"/>
<path d="M399.983 640.013H360V679.153C382.082 679.153 399.983 661.628 399.983 640.013Z" fill="#8EFCFF"/>
<path d="M399.983 600.05H360V640.013C365.249 640.014 370.448 638.982 375.298 636.974C380.148 634.967 384.556 632.023 388.268 628.312C391.981 624.601 394.927 620.195 396.937 615.346C398.947 610.497 399.982 605.299 399.983 600.05Z" fill="#8EFCFF"/>
</svg>
