<svg width="53" height="53" viewBox="0 0 53 53" fill="none" xmlns="http://www.w3.org/2000/svg">
<path d="M53 0H0V53H53V0Z" fill="#0C0A0D"/>
<path d="M48.76 26.5043C48.7591 30.9067 47.4529 35.21 45.0064 38.8701C42.5599 42.5302 39.0831 45.3826 35.0156 47.0668C30.948 48.7509 26.4724 49.1911 22.1547 48.3317C17.8369 47.4724 13.871 45.3519 10.7583 42.2387C7.6456 39.1254 5.52596 35.159 4.6674 30.8411C3.80885 26.5232 4.24992 22.0477 5.93485 17.9805C7.61979 13.9132 10.4729 10.437 14.1335 7.99119C17.794 5.54542 22.0976 4.23999 26.5 4.23999C29.4236 4.23999 32.3185 4.81592 35.0195 5.93486C37.7205 7.0538 40.1746 8.69383 42.2417 10.7613C44.3088 12.8288 45.9484 15.2832 47.0668 17.9844C48.1852 20.6856 48.7606 23.5807 48.76 26.5043Z" fill="#13A5FE"/>
</svg>
