<svg width="40" height="40" viewBox="0 0 40 40" fill="none" xmlns="http://www.w3.org/2000/svg">
<path d="M40 0H0V40H40V0Z" fill="#552790"/>
<path d="M37.1429 20.0033C37.1422 23.3937 36.1363 26.7078 34.2522 29.5265C32.3681 32.3452 29.6905 34.5419 26.558 35.8389C23.4255 37.1359 19.9788 37.4749 16.6536 36.8131C13.3284 36.1513 10.2742 34.5183 7.87704 32.1207C5.4799 29.7231 3.84753 26.6685 3.18634 23.3432C2.52515 20.0179 2.86483 16.5712 4.16243 13.439C5.46002 10.3067 7.65727 7.62959 10.4763 5.74605C13.2954 3.86252 16.6096 2.85718 20 2.85718C22.2515 2.85718 24.481 3.30071 26.5611 4.16243C28.6412 5.02414 30.5311 6.28716 32.123 7.87937C33.7149 9.47159 34.9776 11.3618 35.8389 13.442C36.7002 15.5223 37.1433 17.7518 37.1429 20.0033Z" fill="#0C0A0D"/>
</svg>
