<svg width="327" height="230" viewBox="0 0 327 230" fill="none" xmlns="http://www.w3.org/2000/svg">
<path d="M326.84 92.9537L163.5 188.308L0.160156 92.9537L163.5 0.197876L326.84 92.9537Z" fill="#E5F0FA"/>
<path d="M163.5 229.802L326.84 134.268V92.9536L163.5 188.488V229.802Z" fill="#D3E4F2"/>
<path d="M163.5 229.802L0.160156 134.268V92.9536L163.5 188.488V229.802Z" fill="#BBCFE0"/>
<path d="M44.8208 147.98V152.371L30.5006 144.126L30.4111 120.377L44.3733 128.443V132.834L34.6177 127.188V132.386L43.2098 137.315V141.617L34.6177 136.688V142.155L44.8208 147.98Z" fill="#57758C"/>
<path d="M48.1328 130.594L52.4289 133.103L52.5184 152.371L61.8265 157.748V162.229L48.2223 154.432L48.1328 130.594Z" fill="#57758C"/>
<path d="M81.0691 173.252L80.9796 159.003L75.6095 167.606L73.6405 166.531L68.1809 151.923L68.2704 165.904L64.2428 163.574L64.1533 139.824L67.7334 141.886L74.7145 160.616L81.5166 149.772L85.0071 151.833L85.1861 175.582L81.0691 173.252Z" fill="#57758C"/>
<path d="M101.654 179.974L93.062 175.045L91.451 179.167L87.0654 176.658L95.21 157.659L99.4166 160.078L107.83 188.577L103.355 185.978L101.654 179.974ZM100.312 175.045L97.3581 164.291L94.494 171.729L100.312 175.045Z" fill="#57758C"/>
<path d="M125.193 193.596L122.15 191.893V196.912L117.943 194.492V189.473L108.009 183.738V180.063L116.69 170.026L121.165 172.625L113.11 182.214L118.122 185.082V180.601L122.15 182.931V187.412L125.193 189.115V193.596Z" fill="#57758C"/>
<path d="M218.096 183.559L218.186 187.323L203.776 195.747L203.418 175.672L217.47 167.427L217.559 171.191L207.804 176.927L207.893 181.318L216.485 176.299L216.575 179.884L207.983 184.903L208.072 189.563L218.096 183.559Z" fill="#557288"/>
<path d="M221.229 165.187L225.525 162.677L225.793 178.988L235.101 173.521L235.191 177.285L221.587 185.261L221.229 165.187Z" fill="#557288"/>
<path d="M254.523 165.993L254.255 153.984L248.974 167.069L247.005 168.234L241.367 161.781L241.546 173.521L237.518 175.851L237.16 155.777L240.74 153.715L247.9 162.14L254.523 145.65L258.014 143.589L258.372 163.574L254.523 165.993Z" fill="#557288"/>
<path d="M275.108 149.593L266.516 154.612L264.905 159.899L260.52 162.498L268.485 137.584L272.692 135.075L281.373 150.31L276.898 152.909L275.108 149.593ZM273.676 146.904L270.633 140.99L267.859 150.4L273.676 146.904Z" fill="#557288"/>
<path d="M298.647 135.881L295.604 137.674L295.694 141.886L291.487 144.305L291.398 140.093L281.374 145.919L281.284 142.782L289.787 124.948L294.262 122.349L286.386 139.197L291.398 136.24L291.308 132.476L295.336 130.056L295.425 133.82L298.468 132.028L298.647 135.881Z" fill="#557288"/>
</svg>
