<svg width="455" height="358" viewBox="0 0 455 358" fill="none" xmlns="http://www.w3.org/2000/svg">
<g filter="url(#filter0_d)">
<path d="M386.84 156.954L223.5 252.308L60.1602 156.954L223.5 64.1979L386.84 156.954Z" fill="#E5F0FA"/>
<path d="M223.5 293.802L386.84 198.268V156.954L223.5 252.488V293.802Z" fill="#D3E4F2"/>
<path d="M223.5 293.802L60.1602 198.268V156.954L223.5 252.488V293.802Z" fill="#BBCFE0"/>
<path d="M104.821 211.98V216.371L90.5006 208.126L90.4111 184.377L104.373 192.443V196.834L94.6177 191.188V196.386L103.21 201.315V205.617L94.6177 200.688V206.155L104.821 211.98Z" fill="#57758C"/>
<path d="M108.133 194.594L112.429 197.103L112.518 216.371L121.827 221.748V226.229L108.222 218.432L108.133 194.594Z" fill="#57758C"/>
<path d="M141.069 237.252L140.98 223.003L135.609 231.606L133.64 230.531L128.181 215.923L128.27 229.904L124.243 227.574L124.153 203.824L127.733 205.886L134.714 224.616L141.517 213.772L145.007 215.833L145.186 239.582L141.069 237.252Z" fill="#57758C"/>
<path d="M161.654 243.974L153.062 239.045L151.451 243.167L147.065 240.658L155.21 221.659L159.417 224.078L167.83 252.577L163.355 249.978L161.654 243.974ZM160.312 239.045L157.358 228.291L154.494 235.729L160.312 239.045Z" fill="#57758C"/>
<path d="M185.193 257.596L182.15 255.893V260.912L177.943 258.492V253.473L168.009 247.738V244.063L176.69 234.026L181.165 236.625L173.11 246.214L178.122 249.082V244.601L182.15 246.931V251.412L185.193 253.115V257.596Z" fill="#57758C"/>
<path d="M278.096 247.559L278.186 251.323L263.776 259.747L263.418 239.672L277.47 231.427L277.559 235.191L267.804 240.927L267.893 245.318L276.485 240.299L276.575 243.884L267.983 248.903L268.072 253.563L278.096 247.559Z" fill="#557288"/>
<path d="M281.229 229.187L285.525 226.677L285.793 242.988L295.101 237.521L295.191 241.285L281.587 249.261L281.229 229.187Z" fill="#557288"/>
<path d="M314.523 229.993L314.255 217.984L308.974 231.069L307.005 232.234L301.367 225.781L301.546 237.521L297.518 239.851L297.16 219.777L300.74 217.715L307.9 226.14L314.523 209.65L318.014 207.589L318.372 227.574L314.523 229.993Z" fill="#557288"/>
<path d="M335.108 213.593L326.516 218.612L324.905 223.899L320.52 226.498L328.485 201.584L332.692 199.075L341.373 214.31L336.898 216.909L335.108 213.593ZM333.676 210.904L330.633 204.99L327.859 214.4L333.676 210.904Z" fill="#557288"/>
<path d="M358.647 199.881L355.604 201.674L355.694 205.886L351.487 208.305L351.398 204.093L341.374 209.919L341.284 206.782L349.787 188.948L354.262 186.349L346.386 203.197L351.398 200.24L351.308 196.476L355.336 194.056L355.425 197.82L358.468 196.028L358.647 199.881Z" fill="#557288"/>
</g>
<defs>
<filter id="filter0_d" x="-7" y="-5" width="469" height="368" filterUnits="userSpaceOnUse" color-interpolation-filters="sRGB">
<feFlood flood-opacity="0" result="BackgroundImageFix"/>
<feColorMatrix in="SourceAlpha" type="matrix" values="0 0 0 0 0 0 0 0 0 0 0 0 0 0 0 0 0 0 127 0"/>
<feOffset dx="4"/>
<feGaussianBlur stdDeviation="32"/>
<feColorMatrix type="matrix" values="0 0 0 0 0 0 0 0 0 0 0 0 0 0 0 0 0 0 0.25 0"/>
<feBlend mode="normal" in2="BackgroundImageFix" result="effect1_dropShadow"/>
<feBlend mode="normal" in="SourceGraphic" in2="effect1_dropShadow" result="shape"/>
</filter>
</defs>
</svg>
