<svg width="453" height="216" viewBox="0 0 453 216" fill="none" xmlns="http://www.w3.org/2000/svg">
<g filter="url(#filter0_d)">
<path d="M432.999 103.767L281.03 16.0356L129.061 103.767L281.03 191.499L432.999 103.767Z" fill="#092B49"/>
<path d="M388.69 78.1875L432.699 103.594C392.407 126.722 337.926 139.729 281.107 139.787C226.31 139.685 172.644 128.855 129.063 103.695L172.77 78.4633C234.332 114.003 330.209 111.949 388.69 78.1875Z" fill="#552790"/>
<path d="M281.03 16.0356L344.617 52.7442C309.02 73.2943 252.462 74.0057 216.538 53.2668L281.03 16.0356Z" fill="black"/>
</g>
<path d="M1.17 82H6.552V81.077H2.301V72.705H1.17V82ZM10.7431 82.117C12.6801 82.117 14.0971 80.7 14.0971 78.646V78.542C14.0971 76.501 12.6801 75.084 10.7561 75.084C8.83208 75.084 7.41508 76.514 7.41508 78.555V78.659C7.41508 80.648 8.80608 82.117 10.7431 82.117ZM10.7561 81.22C9.37808 81.22 8.53308 80.206 8.53308 78.659V78.555C8.53308 76.995 9.39108 75.981 10.7561 75.981C12.1081 75.981 12.9791 76.995 12.9791 78.568V78.659C12.9791 80.193 12.1211 81.22 10.7561 81.22ZM17.0058 82H18.1888L19.7748 76.904L21.1918 82H22.3878L24.5068 75.201H23.4018L21.8028 80.674L20.2558 75.201H19.3198L17.6688 80.674L16.0828 75.201H14.9128L17.0058 82ZM25.3962 78.932H28.1782V77.918H25.3962V78.932ZM32.871 82.117C34.509 82.117 35.692 81.025 35.835 79.556H34.834C34.717 80.661 33.846 81.22 32.884 81.22C31.571 81.22 30.661 80.336 30.661 78.672V78.568C30.661 76.969 31.61 75.981 32.845 75.981C33.781 75.981 34.561 76.384 34.73 77.463H35.796C35.588 75.734 34.262 75.084 32.845 75.084C31.025 75.084 29.543 76.488 29.543 78.568V78.672C29.543 80.778 30.973 82.117 32.871 82.117ZM40.2851 82.117C42.2221 82.117 43.6391 80.7 43.6391 78.646V78.542C43.6391 76.501 42.2221 75.084 40.2981 75.084C38.3741 75.084 36.9571 76.514 36.9571 78.555V78.659C36.9571 80.648 38.3481 82.117 40.2851 82.117ZM40.2981 81.22C38.9201 81.22 38.0751 80.206 38.0751 78.659V78.555C38.0751 76.995 38.9331 75.981 40.2981 75.981C41.6501 75.981 42.5211 76.995 42.5211 78.568V78.659C42.5211 80.193 41.6631 81.22 40.2981 81.22ZM47.9878 81.22C46.8438 81.22 45.9208 80.401 45.9208 78.685V78.581C45.9208 76.93 46.7268 75.981 48.0788 75.981C49.4048 75.981 50.2368 76.8 50.2368 78.542V78.646C50.2368 80.388 49.2488 81.22 47.9878 81.22ZM47.8708 82.117C48.8588 82.117 49.8078 81.493 50.1978 80.83V82H51.2768V71.951H50.1978V76.293C49.8078 75.63 49.1058 75.084 47.9748 75.084C46.1028 75.084 44.8028 76.553 44.8028 78.633V78.737C44.8028 80.856 46.0898 82.117 47.8708 82.117ZM56.2422 82.117C57.7762 82.117 58.9072 81.402 59.1412 80.037H58.0622C57.9192 80.83 57.3082 81.22 56.2552 81.22C54.8642 81.22 54.1232 80.362 54.0712 78.815H59.1932V78.464C59.1932 76.033 57.7112 75.084 56.1382 75.084C54.2662 75.084 52.9532 76.514 52.9532 78.568V78.672C52.9532 80.765 54.3182 82.117 56.2422 82.117ZM54.1102 77.944C54.2922 76.735 55.0332 75.981 56.1382 75.981C57.2562 75.981 57.9842 76.54 58.0882 77.944H54.1102ZM5.382 97H6.461V90.201H1.092V97H2.171V91.111H5.382V97ZM9.94571 94.374C10.0367 93.373 10.0887 92.008 10.1147 91.111H12.5587V97H13.6377V90.201H9.15271C9.15271 90.201 9.11371 92.723 8.95771 94.309C8.86671 95.258 8.73671 96.025 8.17771 96.025C7.93071 96.025 7.81371 95.973 7.81371 95.973V97C7.81371 97 7.93071 97.065 8.26871 97.065C9.37371 97.065 9.78971 96.168 9.94571 94.374ZM17.6256 96.259C16.6766 96.259 16.3386 95.817 16.3386 95.115C16.3386 94.114 17.3396 93.776 18.7046 93.776H19.6406V94.621C19.6406 95.674 18.7696 96.259 17.6256 96.259ZM17.5216 97.117C18.5226 97.117 19.1336 96.779 19.6406 96.142V97H20.7196V92.515C20.7196 90.617 19.5366 90.084 18.2366 90.084C16.9236 90.084 15.6886 90.656 15.5456 92.203H16.6246C16.7286 91.371 17.2486 90.981 18.1846 90.981C19.2246 90.981 19.6406 91.436 19.6406 92.515V93.009H18.6656C16.9236 93.009 15.2596 93.542 15.2596 95.115C15.2596 96.506 16.2606 97.117 17.5216 97.117ZM27.4196 90.201H21.9466V91.111H24.1436V97H25.2226V91.111H27.4196V90.201ZM32.6965 90.097V86.951H31.6305V90.097C29.6935 90.188 28.1465 91.371 28.1465 93.555V93.659C28.1465 95.83 29.7065 97.013 31.6305 97.104V99.366H32.6965V97.104C34.6335 97.013 36.1805 95.83 36.1805 93.646V93.542C36.1805 91.371 34.6205 90.188 32.6965 90.097ZM31.6305 96.272C30.2785 96.22 29.2515 95.336 29.2515 93.633V93.542C29.2515 91.878 30.2655 90.968 31.6305 90.916V96.272ZM32.6965 90.929C34.0485 90.981 35.0755 91.865 35.0755 93.568V93.659C35.0755 95.323 34.0615 96.233 32.6965 96.285V90.929ZM40.6786 97.117C42.6156 97.117 44.0326 95.7 44.0326 93.646V93.542C44.0326 91.501 42.6156 90.084 40.6916 90.084C38.7676 90.084 37.3506 91.514 37.3506 93.555V93.659C37.3506 95.648 38.7416 97.117 40.6786 97.117ZM40.6916 96.22C39.3136 96.22 38.4686 95.206 38.4686 93.659V93.555C38.4686 91.995 39.3266 90.981 40.6916 90.981C42.0436 90.981 42.9146 91.995 42.9146 93.568V93.659C42.9146 95.193 42.0566 96.22 40.6916 96.22ZM48.9793 96.22C47.6533 96.22 46.7433 95.401 46.7433 93.659V93.555C46.7433 91.813 47.7053 90.981 48.9663 90.981C50.1103 90.981 51.0593 91.839 51.0593 93.555V93.659C51.0593 95.31 50.3313 96.22 48.9793 96.22ZM45.7033 99.366H46.7823V95.882C47.1723 96.558 47.9653 97.117 49.0833 97.117C50.9553 97.117 52.1773 95.687 52.1773 93.607V93.503C52.1773 91.384 50.8643 90.084 49.0833 90.084C48.0953 90.084 47.1723 90.682 46.7823 91.345V90.201H45.7033V99.366ZM57.0127 97H57.5067L59.7557 91.267V97H60.8217V90.201H59.3137L57.3377 95.284L55.4137 90.201H53.8667V97H54.7897V91.267L57.0127 97ZM64.8267 96.259C63.8777 96.259 63.5397 95.817 63.5397 95.115C63.5397 94.114 64.5407 93.776 65.9057 93.776H66.8417V94.621C66.8417 95.674 65.9707 96.259 64.8267 96.259ZM64.7227 97.117C65.7237 97.117 66.3347 96.779 66.8417 96.142V97H67.9207V92.515C67.9207 90.617 66.7377 90.084 65.4377 90.084C64.1247 90.084 62.8897 90.656 62.7467 92.203H63.8257C63.9297 91.371 64.4497 90.981 65.3857 90.981C66.4257 90.981 66.8417 91.436 66.8417 92.515V93.009H65.8667C64.1247 93.009 62.4607 93.542 62.4607 95.115C62.4607 96.506 63.4617 97.117 64.7227 97.117Z" fill="black"/>
<circle cx="132" cy="105" r="5" fill="#1476CA"/>
<line x1="130" y1="105.5" x2="-4.37114e-08" y2="105.5" stroke="#1571C0" stroke-dasharray="4 4"/>
<defs>
<filter id="filter0_d" x="109.062" y="0.0356445" width="343.938" height="215.463" filterUnits="userSpaceOnUse" color-interpolation-filters="sRGB">
<feFlood flood-opacity="0" result="BackgroundImageFix"/>
<feColorMatrix in="SourceAlpha" type="matrix" values="0 0 0 0 0 0 0 0 0 0 0 0 0 0 0 0 0 0 127 0"/>
<feOffset dy="4"/>
<feGaussianBlur stdDeviation="10"/>
<feColorMatrix type="matrix" values="0 0 0 0 0 0 0 0 0 0 0 0 0 0 0 0 0 0 0.3 0"/>
<feBlend mode="normal" in2="BackgroundImageFix" result="effect1_dropShadow"/>
<feBlend mode="normal" in="SourceGraphic" in2="effect1_dropShadow" result="shape"/>
</filter>
</defs>
</svg>
