<svg width="467" height="263" viewBox="0 0 467 263" fill="none" xmlns="http://www.w3.org/2000/svg">
<g filter="url(#filter0_d)">
<path d="M346.981 88.3987L195.589 0.999935C194.632 0.447686 193.081 0.447684 192.124 0.999933L40.7321 88.3987C39.7755 88.9509 39.7755 89.8463 40.7321 90.3985L192.124 177.797C193.081 178.349 194.632 178.349 195.589 177.797L346.981 90.3985C347.937 89.8463 347.937 88.9509 346.981 88.3987Z" fill="#8EFCFF"/>
<path fill-rule="evenodd" clip-rule="evenodd" d="M193.856 3.41399C193.856 2.15415 196.495 1.52321 198.038 2.41406L346.981 88.3987C347.937 88.9509 347.937 89.8463 346.981 90.3985L198.038 176.383C196.495 177.274 193.856 176.643 193.856 175.383V3.41399Z" fill="#13A5FE"/>
</g>
<path d="M373.17 63H374.301V59.217H375.809C377.577 59.217 379.059 58.45 379.059 56.474V56.422C379.059 54.485 377.59 53.705 375.809 53.705H373.17V63ZM374.301 58.32V54.615H375.887C377.148 54.615 377.928 55.109 377.928 56.422V56.474C377.928 57.67 377.213 58.32 375.887 58.32H374.301ZM383.276 63.117C385.213 63.117 386.63 61.7 386.63 59.646V59.542C386.63 57.501 385.213 56.084 383.289 56.084C381.365 56.084 379.948 57.514 379.948 59.555V59.659C379.948 61.648 381.339 63.117 383.276 63.117ZM383.289 62.22C381.911 62.22 381.066 61.206 381.066 59.659V59.555C381.066 57.995 381.924 56.981 383.289 56.981C384.641 56.981 385.512 57.995 385.512 59.568V59.659C385.512 61.193 384.654 62.22 383.289 62.22ZM391.226 63.117C393.15 63.117 394.58 61.778 394.58 59.555V59.503C394.58 57.514 393.358 56.084 391.46 56.084C390.212 56.084 389.263 56.76 388.795 57.774H388.743C388.899 55.512 389.575 54.108 391.772 53.965L391.967 53.952C393.02 53.887 393.579 53.822 394.034 53.64V52.704C393.54 52.886 392.877 52.925 391.954 52.977L391.694 52.99C388.444 53.159 387.898 55.915 387.898 58.58V59.126C387.898 61.778 389.289 63.117 391.226 63.117ZM391.239 62.22C389.861 62.22 389.016 61.193 389.016 59.659V59.633C389.016 57.982 389.926 56.981 391.356 56.981C392.734 56.981 393.462 57.93 393.462 59.542V59.568C393.462 61.258 392.604 62.22 391.239 62.22ZM399.082 63.117C401.019 63.117 402.436 61.7 402.436 59.646V59.542C402.436 57.501 401.019 56.084 399.095 56.084C397.171 56.084 395.754 57.514 395.754 59.555V59.659C395.754 61.648 397.145 63.117 399.082 63.117ZM399.095 62.22C397.717 62.22 396.872 61.206 396.872 59.659V59.555C396.872 57.995 397.73 56.981 399.095 56.981C400.447 56.981 401.318 57.995 401.318 59.568V59.659C401.318 61.193 400.46 62.22 399.095 62.22ZM408.624 56.201H403.151V57.111H405.348V63H406.427V57.111H408.624V56.201ZM411.191 63L414.662 57.761V63H415.741V56.201H414.662L411.191 61.44V56.201H410.112V63H411.191ZM422.173 57.93C422.173 56.721 421.159 56.084 419.937 56.084C418.715 56.084 417.662 56.578 417.48 58.047H418.52C418.676 57.306 419.131 56.981 419.872 56.981C420.704 56.981 421.042 57.397 421.042 57.982V58.021C421.042 58.762 420.678 59.074 419.781 59.074H418.936V59.932H419.963C420.899 59.932 421.367 60.257 421.367 61.024V61.063C421.367 61.791 420.912 62.22 419.911 62.22C418.793 62.22 418.364 61.713 418.286 60.907H417.233C417.298 62.298 418.273 63.117 419.911 63.117C421.549 63.117 422.498 62.233 422.498 60.998V60.959C422.498 60.075 421.9 59.568 421.055 59.425C421.809 59.282 422.173 58.58 422.173 57.969V57.93ZM426.087 62.259C425.138 62.259 424.8 61.817 424.8 61.115C424.8 60.114 425.801 59.776 427.166 59.776H428.102V60.621C428.102 61.674 427.231 62.259 426.087 62.259ZM425.983 63.117C426.984 63.117 427.595 62.779 428.102 62.142V63H429.181V58.515C429.181 56.617 427.998 56.084 426.698 56.084C425.385 56.084 424.15 56.656 424.007 58.203H425.086C425.19 57.371 425.71 56.981 426.646 56.981C427.686 56.981 428.102 57.436 428.102 58.515V59.009H427.127C425.385 59.009 423.721 59.542 423.721 61.115C423.721 62.506 424.722 63.117 425.983 63.117ZM437.709 64.651V62.09H436.669V56.201H435.59V62.09H432.379V56.201H431.3V63H436.76L436.838 64.651H437.709ZM440.136 63L443.607 57.761V63H444.686V56.201H443.607L440.136 61.44V56.201H439.057V63H440.136ZM450.274 57.059V59.516H449C447.934 59.516 447.544 59.074 447.544 58.333V58.294C447.544 57.501 447.986 57.059 449 57.059H450.274ZM449.104 60.335H450.274V63H451.353V56.201H449.065C447.635 56.201 446.465 56.799 446.465 58.294V58.333C446.465 59.477 447.193 59.984 448.038 60.153L445.971 63H447.206L449.104 60.335ZM377.382 78H378.461V71.201H373.092V78H374.171V72.111H377.382V78ZM383.922 77.22C382.596 77.22 381.686 76.401 381.686 74.659V74.555C381.686 72.813 382.648 71.981 383.909 71.981C385.053 71.981 386.002 72.839 386.002 74.555V74.659C386.002 76.31 385.274 77.22 383.922 77.22ZM380.646 80.366H381.725V76.882C382.115 77.558 382.908 78.117 384.026 78.117C385.898 78.117 387.12 76.687 387.12 74.607V74.503C387.12 72.384 385.807 71.084 384.026 71.084C383.038 71.084 382.115 71.682 381.725 72.345V71.201H380.646V80.366ZM391.617 78.117C393.554 78.117 394.971 76.7 394.971 74.646V74.542C394.971 72.501 393.554 71.084 391.63 71.084C389.706 71.084 388.289 72.514 388.289 74.555V74.659C388.289 76.648 389.68 78.117 391.617 78.117ZM391.63 77.22C390.252 77.22 389.407 76.206 389.407 74.659V74.555C389.407 72.995 390.265 71.981 391.63 71.981C392.982 71.981 393.853 72.995 393.853 74.568V74.659C393.853 76.193 392.995 77.22 391.63 77.22ZM403.051 79.651V77.09H402.011V71.201H400.932V77.09H397.721V71.201H396.642V78H402.102L402.18 79.651H403.051ZM407.117 78.117C408.651 78.117 409.782 77.402 410.016 76.037H408.937C408.794 76.83 408.183 77.22 407.13 77.22C405.739 77.22 404.998 76.362 404.946 74.815H410.068V74.464C410.068 72.033 408.586 71.084 407.013 71.084C405.141 71.084 403.828 72.514 403.828 74.568V74.672C403.828 76.765 405.193 78.117 407.117 78.117ZM404.985 73.944C405.167 72.735 405.908 71.981 407.013 71.981C408.131 71.981 408.859 72.54 408.963 73.944H404.985ZM414.545 78.117C416.183 78.117 417.366 77.025 417.509 75.556H416.508C416.391 76.661 415.52 77.22 414.558 77.22C413.245 77.22 412.335 76.336 412.335 74.672V74.568C412.335 72.969 413.284 71.981 414.519 71.981C415.455 71.981 416.235 72.384 416.404 73.463H417.47C417.262 71.734 415.936 71.084 414.519 71.084C412.699 71.084 411.217 72.488 411.217 74.568V74.672C411.217 76.778 412.647 78.117 414.545 78.117ZM421.959 78.117C423.597 78.117 424.78 77.025 424.923 75.556H423.922C423.805 76.661 422.934 77.22 421.972 77.22C420.659 77.22 419.749 76.336 419.749 74.672V74.568C419.749 72.969 420.698 71.981 421.933 71.981C422.869 71.981 423.649 72.384 423.818 73.463H424.884C424.676 71.734 423.35 71.084 421.933 71.084C420.113 71.084 418.631 72.488 418.631 74.568V74.672C418.631 76.778 420.061 78.117 421.959 78.117ZM429.373 78.117C431.31 78.117 432.727 76.7 432.727 74.646V74.542C432.727 72.501 431.31 71.084 429.386 71.084C427.462 71.084 426.045 72.514 426.045 74.555V74.659C426.045 76.648 427.436 78.117 429.373 78.117ZM429.386 77.22C428.008 77.22 427.163 76.206 427.163 74.659V74.555C427.163 72.995 428.021 71.981 429.386 71.981C430.738 71.981 431.609 72.995 431.609 74.568V74.659C431.609 76.193 430.751 77.22 429.386 77.22ZM434.398 78H437.063C438.545 78 439.494 77.35 439.494 75.998V75.959C439.494 75.075 438.935 74.607 438.077 74.425C438.844 74.23 439.169 73.58 439.169 72.969V72.93C439.169 71.591 438.051 71.201 436.777 71.201H434.398V78ZM436.764 72.059C437.583 72.059 438.038 72.267 438.038 72.982V73.021C438.038 73.762 437.674 74.074 436.777 74.074H435.477V72.059H436.764ZM436.959 74.932C437.895 74.932 438.363 75.257 438.363 76.024V76.063C438.363 76.817 437.908 77.142 436.959 77.142H435.477V74.932H436.959Z" fill="black"/>
<circle cx="345" cy="90" r="5" transform="rotate(180 345 90)" fill="#1471C1"/>
<path d="M354 89L467 89" stroke="#1468B0" stroke-dasharray="4 4"/>
<defs>
<filter id="filter0_d" x="0.0146484" y="0.585693" width="387.684" height="261.626" filterUnits="userSpaceOnUse" color-interpolation-filters="sRGB">
<feFlood flood-opacity="0" result="BackgroundImageFix"/>
<feColorMatrix in="SourceAlpha" type="matrix" values="0 0 0 0 0 0 0 0 0 0 0 0 0 0 0 0 0 0 127 0"/>
<feOffset dy="44"/>
<feGaussianBlur stdDeviation="20"/>
<feColorMatrix type="matrix" values="0 0 0 0 0 0 0 0 0 0 0 0 0 0 0 0 0 0 0.15 0"/>
<feBlend mode="normal" in2="BackgroundImageFix" result="effect1_dropShadow"/>
<feBlend mode="normal" in="SourceGraphic" in2="effect1_dropShadow" result="shape"/>
</filter>
</defs>
</svg>
