<svg width="478" height="261" viewBox="0 0 478 261" fill="none" xmlns="http://www.w3.org/2000/svg">
<g filter="url(#filter0_d)">
<path d="M436.403 105.675L282.799 16.9999C281.843 16.4477 280.292 16.4477 279.335 16.9999L125.732 105.675C124.775 106.227 124.775 107.123 125.732 107.675L279.335 196.35C280.292 196.903 281.843 196.903 282.799 196.35L436.403 107.675C437.36 107.123 437.36 106.227 436.403 105.675Z" fill="#552790"/>
<path d="M348.172 69.3422C348.172 68.5613 347.075 67.9283 345.723 67.9283L216.419 67.9246C215.066 67.9246 213.97 68.5576 213.969 69.3386L213.951 144C213.95 144.781 215.047 145.414 216.4 145.414L345.741 145.411C347.094 145.411 348.191 144.777 348.191 143.996L348.172 69.3422ZM247.528 88.7133C247.528 87.9318 248.626 87.2986 249.98 87.2994L312.105 87.336C313.456 87.3368 314.551 87.9695 314.552 88.7498L314.567 124.659C314.567 125.441 313.469 126.074 312.115 126.073L249.966 126.037C248.614 126.036 247.519 125.403 247.519 124.622L247.528 88.7133Z" fill="#13A5FE"/>
<path d="M319.62 85.8326C319.62 85.0516 318.524 84.4185 317.171 84.4185L244.964 84.4185C243.611 84.4185 242.514 85.0516 242.514 85.8326L242.514 127.518C242.514 128.299 243.611 128.932 244.964 128.932H317.171C318.524 128.932 319.62 128.299 319.62 127.518L319.62 85.8326Z" fill="black"/>
</g>
<path d="M1.17 99H6.825V98.077H2.301V94.71H5.759V93.787H2.301V90.628H6.591V89.705H1.17V99ZM8.53328 99H13.9153V98.077H9.66428V89.705H8.53328V99ZM15.4903 99H16.5303V91.174L19.7153 99H20.0663L23.1473 91.174V99H24.2783V89.705H22.7183L19.9363 96.946L17.0633 89.705H15.4903V99ZM29.8091 90.641L31.4211 95.425H28.1971L29.8091 90.641ZM25.9221 99H26.9881L27.8851 96.322H31.7201L32.6301 99H33.7481L30.6021 89.705H29.1201L25.9221 99ZM36.1738 99.065C36.6288 99.065 37.0058 98.701 37.0058 98.233C37.0058 97.765 36.6288 97.401 36.1738 97.401C35.7188 97.401 35.3418 97.765 35.3418 98.233C35.3418 98.701 35.7188 99.065 36.1738 99.065ZM39.2448 99H40.3758V89.705H39.2448V99ZM45.9702 90.641L47.5822 95.425H44.3582L45.9702 90.641ZM42.0832 99H43.1492L44.0462 96.322H47.8812L48.7912 99H49.9092L46.7632 89.705H45.2812L42.0832 99Z" fill="black"/>
<circle cx="128" cy="107" r="5" fill="#1566AC"/>
<line x1="126" y1="107.5" x2="-4.37114e-08" y2="107.5" stroke="#1469B2" stroke-dasharray="4 4"/>
<defs>
<filter id="filter0_d" x="85.0146" y="0.585693" width="392.106" height="260.179" filterUnits="userSpaceOnUse" color-interpolation-filters="sRGB">
<feFlood flood-opacity="0" result="BackgroundImageFix"/>
<feColorMatrix in="SourceAlpha" type="matrix" values="0 0 0 0 0 0 0 0 0 0 0 0 0 0 0 0 0 0 127 0"/>
<feOffset dy="24"/>
<feGaussianBlur stdDeviation="20"/>
<feColorMatrix type="matrix" values="0 0 0 0 0 0 0 0 0 0 0 0 0 0 0 0 0 0 0.25 0"/>
<feBlend mode="normal" in2="BackgroundImageFix" result="effect1_dropShadow"/>
<feBlend mode="normal" in="SourceGraphic" in2="effect1_dropShadow" result="shape"/>
</filter>
</defs>
</svg>
