<svg width="467" height="259" viewBox="0 0 467 259" fill="none" xmlns="http://www.w3.org/2000/svg">
<g filter="url(#filter0_d)">
<path d="M349.265 94.5648L196.74 6.99605C195.782 6.44608 194.229 6.44608 193.271 6.99605L40.747 94.5648C39.7891 95.1148 39.7891 96.0065 40.747 96.5565L193.271 184.125C194.229 184.675 195.782 184.675 196.74 184.125L349.265 96.5565C350.223 96.0065 350.223 95.1148 349.265 94.5648Z" fill="#8EFCFF"/>
<path d="M257.807 74.3304C258.79 74.8655 260.344 74.8691 261.302 74.3191L285.777 60.2675C286.735 59.7175 286.732 58.8221 285.756 58.2826C236.215 30.8979 155.421 29.8305 104.725 57.8517C103.75 58.3911 103.744 59.2877 104.702 59.8377L129.332 73.9782C130.29 74.5282 131.846 74.5234 132.829 73.9882C168.417 54.6144 223.416 55.6112 257.807 74.3304Z" fill="black"/>
<path d="M229.116 92.7985C230.068 92.2517 230.078 91.3634 229.088 90.8392C224.853 88.5974 219.97 86.7901 214.652 85.5002C208.586 84.0289 202.074 83.2598 195.489 83.2371C188.904 83.2144 182.376 83.9385 176.28 85.3678C170.944 86.6187 166.032 88.3883 161.755 90.5955C160.744 91.1169 160.745 92.0144 161.706 92.566L193.879 111.038C194.837 111.587 196.39 111.587 197.348 111.038L229.116 92.7985Z" fill="#552790"/>
<path d="M155.77 132.917C156.678 133.494 156.683 134.384 155.725 134.934L133.38 147.763C132.423 148.313 130.863 148.312 129.932 147.747C97.3832 127.978 97.6893 95.9524 130.023 76.3126C130.953 75.7474 132.513 75.7466 133.471 76.2966L156.022 89.2441C156.98 89.794 156.974 90.6843 156.063 91.2597C137.303 103.103 138.241 121.776 155.77 132.917Z" fill="#092B49"/>
</g>
<path d="M373.17 69.0249H374.301V64.4879L378.448 69.0249H379.813L375.471 64.2409L379.605 59.7169H378.344L374.301 64.2019V59.7299H373.17V69.0249ZM383.53 69.1419C385.467 69.1419 386.884 67.7249 386.884 65.6709V65.5669C386.884 63.5259 385.467 62.1089 383.543 62.1089C381.619 62.1089 380.202 63.5389 380.202 65.5799V65.6839C380.202 67.6729 381.593 69.1419 383.53 69.1419ZM383.543 68.2449C382.165 68.2449 381.32 67.2309 381.32 65.6839V65.5799C381.32 64.0199 382.178 63.0059 383.543 63.0059C384.895 63.0059 385.766 64.0199 385.766 65.5929V65.6839C385.766 67.2179 384.908 68.2449 383.543 68.2449ZM392.975 69.0249H394.054V62.2259H392.975V65.0859H389.634V62.2259H388.555V69.0249H389.634V65.9959H392.975V69.0249ZM399.057 69.1419C400.695 69.1419 401.878 68.0499 402.021 66.5809H401.02C400.903 67.6859 400.032 68.2449 399.07 68.2449C397.757 68.2449 396.847 67.3609 396.847 65.6969V65.5929C396.847 63.9939 397.796 63.0059 399.031 63.0059C399.967 63.0059 400.747 63.4089 400.916 64.4879H401.982C401.774 62.7589 400.448 62.1089 399.031 62.1089C397.211 62.1089 395.729 63.5129 395.729 65.5929V65.6969C395.729 67.8029 397.159 69.1419 399.057 69.1419ZM408.421 62.2259H402.948V63.1359H405.145V69.0249H406.224V63.1359H408.421V62.2259ZM413.184 68.2449C411.858 68.2449 410.948 67.4259 410.948 65.6839V65.5799C410.948 63.8379 411.91 63.0059 413.171 63.0059C414.315 63.0059 415.264 63.8639 415.264 65.5799V65.6839C415.264 67.3349 414.536 68.2449 413.184 68.2449ZM409.908 71.3909H410.987V67.9069C411.377 68.5829 412.17 69.1419 413.288 69.1419C415.16 69.1419 416.382 67.7119 416.382 65.6319V65.5279C416.382 63.4089 415.069 62.1089 413.288 62.1089C412.3 62.1089 411.377 62.7069 410.987 63.3699V62.2259H409.908V71.3909ZM418.543 71.3909H419.635L423.392 62.2259H422.287L420.402 67.1009L418.322 62.2259H417.165L419.83 68.3229L418.543 71.3909ZM428.908 69.0249H430.221L427.062 65.4239L429.974 62.2259H428.713L425.892 65.3979V62.2259H424.813V69.0249H425.892V65.5539L428.908 69.0249ZM436.287 62.2259H430.814V63.1359H433.011V69.0249H434.09V63.1359H436.287V62.2259ZM440.342 69.1419C442.279 69.1419 443.696 67.7249 443.696 65.6709V65.5669C443.696 63.5259 442.279 62.1089 440.355 62.1089C438.431 62.1089 437.014 63.5389 437.014 65.5799V65.6839C437.014 67.6729 438.405 69.1419 440.342 69.1419ZM440.355 68.2449C438.977 68.2449 438.132 67.2309 438.132 65.6839V65.5799C438.132 64.0199 438.99 63.0059 440.355 63.0059C441.707 63.0059 442.578 64.0199 442.578 65.5929V65.6839C442.578 67.2179 441.72 68.2449 440.355 68.2449ZM448.642 68.2449C447.316 68.2449 446.406 67.4259 446.406 65.6839V65.5799C446.406 63.8379 447.368 63.0059 448.629 63.0059C449.773 63.0059 450.722 63.8639 450.722 65.5799V65.6839C450.722 67.3349 449.994 68.2449 448.642 68.2449ZM445.366 71.3909H446.445V67.9069C446.835 68.5829 447.628 69.1419 448.746 69.1419C450.618 69.1419 451.84 67.7119 451.84 65.6319V65.5279C451.84 63.4089 450.527 62.1089 448.746 62.1089C447.758 62.1089 446.835 62.7069 446.445 63.3699V62.2259H445.366V71.3909ZM374.171 84.0249L377.642 78.7859V84.0249H378.721V77.2259H377.642L374.171 82.4649V77.2259H373.092V84.0249H374.171ZM385.193 84.0249H386.272V77.2259H385.193V80.0859H381.852V77.2259H380.773V84.0249H381.852V80.9959H385.193V84.0249ZM393.224 77.2259H387.751V78.1359H389.948V84.0249H391.027V78.1359H393.224V77.2259ZM397.24 84.1419C398.774 84.1419 399.905 83.4269 400.139 82.0619H399.06C398.917 82.8549 398.306 83.2449 397.253 83.2449C395.862 83.2449 395.121 82.3869 395.069 80.8399H400.191V80.4889C400.191 78.0579 398.709 77.1089 397.136 77.1089C395.264 77.1089 393.951 78.5389 393.951 80.5929V80.6969C393.951 82.7899 395.316 84.1419 397.24 84.1419ZM395.108 79.9689C395.29 78.7599 396.031 78.0059 397.136 78.0059C398.254 78.0059 398.982 78.5649 399.086 79.9689H395.108ZM405.123 83.2449C403.797 83.2449 402.887 82.4259 402.887 80.6839V80.5799C402.887 78.8379 403.849 78.0059 405.11 78.0059C406.254 78.0059 407.203 78.8639 407.203 80.5799V80.6839C407.203 82.3349 406.475 83.2449 405.123 83.2449ZM401.847 86.3909H402.926V82.9069C403.316 83.5829 404.109 84.1419 405.227 84.1419C407.099 84.1419 408.321 82.7119 408.321 80.6319V80.5279C408.321 78.4089 407.008 77.1089 405.227 77.1089C404.239 77.1089 403.316 77.7069 402.926 78.3699V77.2259H401.847V86.3909ZM414.04 77.1219V73.9759H412.974V77.1219C411.037 77.2129 409.49 78.3959 409.49 80.5799V80.6839C409.49 82.8549 411.05 84.0379 412.974 84.1289V86.3909H414.04V84.1289C415.977 84.0379 417.524 82.8549 417.524 80.6709V80.5669C417.524 78.3959 415.964 77.2129 414.04 77.1219ZM412.974 83.2969C411.622 83.2449 410.595 82.3609 410.595 80.6579V80.5669C410.595 78.9029 411.609 77.9929 412.974 77.9409V83.2969ZM414.04 77.9539C415.392 78.0059 416.419 78.8899 416.419 80.5929V80.6839C416.419 82.3479 415.405 83.2579 414.04 83.3099V77.9539ZM421.983 84.1419C423.517 84.1419 424.648 83.4269 424.882 82.0619H423.803C423.66 82.8549 423.049 83.2449 421.996 83.2449C420.605 83.2449 419.864 82.3869 419.812 80.8399H424.934V80.4889C424.934 78.0579 423.452 77.1089 421.879 77.1089C420.007 77.1089 418.694 78.5389 418.694 80.5929V80.6969C418.694 82.7899 420.059 84.1419 421.983 84.1419ZM419.851 79.9689C420.033 78.7599 420.774 78.0059 421.879 78.0059C422.997 78.0059 423.725 78.5649 423.829 79.9689H419.851ZM429.385 75.9779C430.321 75.9779 431.101 75.2499 431.153 74.2619H430.243C430.191 74.7819 429.931 75.2239 429.385 75.2239C428.865 75.2239 428.644 74.7689 428.605 74.2619H427.669C427.721 75.2499 428.449 75.9779 429.385 75.9779ZM427.669 84.0249L431.14 78.7859V84.0249H432.219V77.2259H431.14L427.669 82.4649V77.2259H426.59V84.0249H427.669ZM437.092 84.1419C438.73 84.1419 439.913 83.0499 440.056 81.5809H439.055C438.938 82.6859 438.067 83.2449 437.105 83.2449C435.792 83.2449 434.882 82.3609 434.882 80.6969V80.5929C434.882 78.9939 435.831 78.0059 437.066 78.0059C438.002 78.0059 438.782 78.4089 438.951 79.4879H440.017C439.809 77.7589 438.483 77.1089 437.066 77.1089C435.246 77.1089 433.764 78.5129 433.764 80.5929V80.6969C433.764 82.8029 435.194 84.1419 437.092 84.1419ZM444.506 84.1419C446.443 84.1419 447.86 82.7249 447.86 80.6709V80.5669C447.86 78.5259 446.443 77.1089 444.519 77.1089C442.595 77.1089 441.178 78.5389 441.178 80.5799V80.6839C441.178 82.6729 442.569 84.1419 444.506 84.1419ZM444.519 83.2449C443.141 83.2449 442.296 82.2309 442.296 80.6839V80.5799C442.296 79.0199 443.154 78.0059 444.519 78.0059C445.871 78.0059 446.742 79.0199 446.742 80.5929V80.6839C446.742 82.2179 445.884 83.2449 444.519 83.2449ZM449.53 84.0249H452.195C453.677 84.0249 454.626 83.3749 454.626 82.0229V81.9839C454.626 81.0999 454.067 80.6319 453.209 80.4499C453.976 80.2549 454.301 79.6049 454.301 78.9939V78.9549C454.301 77.6159 453.183 77.2259 451.909 77.2259H449.53V84.0249ZM451.896 78.0839C452.715 78.0839 453.17 78.2919 453.17 79.0069V79.0459C453.17 79.7869 452.806 80.0989 451.909 80.0989H450.609V78.0839H451.896ZM452.091 80.9569C453.027 80.9569 453.495 81.2819 453.495 82.0489V82.0879C453.495 82.8419 453.04 83.1669 452.091 83.1669H450.609V80.9569H452.091Z" fill="black"/>
<circle cx="346" cy="96.0249" r="5" transform="rotate(180 346 96.0249)" fill="#1466AE"/>
<path d="M349 96H467" stroke="#145FA1" stroke-dasharray="4 4"/>
<defs>
<filter id="filter0_d" x="0.0283203" y="0.583618" width="389.955" height="257.954" filterUnits="userSpaceOnUse" color-interpolation-filters="sRGB">
<feFlood flood-opacity="0" result="BackgroundImageFix"/>
<feColorMatrix in="SourceAlpha" type="matrix" values="0 0 0 0 0 0 0 0 0 0 0 0 0 0 0 0 0 0 127 0"/>
<feOffset dy="34"/>
<feGaussianBlur stdDeviation="20"/>
<feColorMatrix type="matrix" values="0 0 0 0 0 0 0 0 0 0 0 0 0 0 0 0 0 0 0.25 0"/>
<feBlend mode="normal" in2="BackgroundImageFix" result="effect1_dropShadow"/>
<feBlend mode="normal" in="SourceGraphic" in2="effect1_dropShadow" result="shape"/>
</filter>
</defs>
</svg>
