<svg width="502" height="309" viewBox="0 0 502 309" fill="none" xmlns="http://www.w3.org/2000/svg">
<g filter="url(#filter0_d)">
<path d="M436.403 129.675L282.799 40.9999C281.843 40.4477 280.292 40.4477 279.335 40.9999L125.732 129.675C124.775 130.227 124.775 131.123 125.732 131.675L279.335 220.35C280.292 220.903 281.843 220.903 282.799 220.35L436.403 131.675C437.36 131.123 437.36 130.227 436.403 129.675Z" fill="#552790"/>
<path d="M348.172 93.3422C348.172 92.5613 347.075 91.9283 345.723 91.9283L216.419 91.9246C215.066 91.9246 213.97 92.5576 213.969 93.3386L213.951 168C213.95 168.781 215.047 169.414 216.4 169.414L345.741 169.411C347.094 169.411 348.191 168.777 348.191 167.996L348.172 93.3422ZM247.528 112.713C247.528 111.932 248.626 111.299 249.98 111.299L312.105 111.336C313.456 111.337 314.551 111.969 314.552 112.75L314.567 148.659C314.567 149.441 313.469 150.074 312.115 150.073L249.966 150.037C248.614 150.036 247.519 149.403 247.519 148.622L247.528 112.713Z" fill="#13A5FE"/>
<path d="M319.62 109.833C319.62 109.052 318.524 108.418 317.171 108.418L244.964 108.418C243.611 108.418 242.514 109.052 242.514 109.833L242.514 151.518C242.514 152.299 243.611 152.932 244.964 152.932H317.171C318.524 152.932 319.62 152.299 319.62 151.518L319.62 109.833Z" fill="black"/>
</g>
<path d="M7.059 106H8.19V96.705H1.17V106H2.301V97.654H7.059V106ZM13.2694 106.117C15.2064 106.117 16.6234 104.7 16.6234 102.646V102.542C16.6234 100.501 15.2064 99.084 13.2824 99.084C11.3584 99.084 9.94145 100.514 9.94145 102.555V102.659C9.94145 104.648 11.3324 106.117 13.2694 106.117ZM13.2824 105.22C11.9044 105.22 11.0594 104.206 11.0594 102.659V102.555C11.0594 100.995 11.9174 99.981 13.2824 99.981C14.6344 99.981 15.5054 100.995 15.5054 102.568V102.659C15.5054 104.193 14.6474 105.22 13.2824 105.22ZM21.5701 105.22C20.2441 105.22 19.3341 104.401 19.3341 102.659V102.555C19.3341 100.813 20.2961 99.981 21.5571 99.981C22.7011 99.981 23.6501 100.839 23.6501 102.555V102.659C23.6501 104.31 22.9221 105.22 21.5701 105.22ZM18.2941 108.366H19.3731V104.882C19.7631 105.558 20.5561 106.117 21.6741 106.117C23.5461 106.117 24.7681 104.687 24.7681 102.607V102.503C24.7681 100.384 23.4551 99.084 21.6741 99.084C20.6861 99.084 19.7631 99.682 19.3731 100.345V99.201H18.2941V108.366ZM31.0886 99.201H25.6156V100.111H27.8126V106H28.8916V100.111H31.0886V99.201ZM34.3199 105.259C33.3709 105.259 33.0329 104.817 33.0329 104.115C33.0329 103.114 34.0339 102.776 35.3989 102.776H36.3349V103.621C36.3349 104.674 35.4639 105.259 34.3199 105.259ZM34.2159 106.117C35.2169 106.117 35.8279 105.779 36.3349 105.142V106H37.4139V101.515C37.4139 99.617 36.2309 99.084 34.9309 99.084C33.6179 99.084 32.3829 99.656 32.2399 101.203H33.3189C33.4229 100.371 33.9429 99.981 34.8789 99.981C35.9189 99.981 36.3349 100.436 36.3349 101.515V102.009H35.3599C33.6179 102.009 31.9539 102.542 31.9539 104.115C31.9539 105.506 32.9549 106.117 34.2159 106.117ZM40.8334 103.374C40.9244 102.373 40.9764 101.008 41.0024 100.111H43.4464V106H44.5254V99.201H40.0404C40.0404 99.201 40.0014 101.723 39.8454 103.309C39.7544 104.258 39.6244 105.025 39.0654 105.025C38.8184 105.025 38.7014 104.973 38.7014 104.973V106C38.7014 106 38.8184 106.065 39.1564 106.065C40.2614 106.065 40.6774 105.168 40.8334 103.374ZM3.913 122.117C5.551 122.117 6.734 121.025 6.877 119.556H5.876C5.759 120.661 4.888 121.22 3.926 121.22C2.613 121.22 1.703 120.336 1.703 118.672V118.568C1.703 116.969 2.652 115.981 3.887 115.981C4.823 115.981 5.603 116.384 5.772 117.463H6.838C6.63 115.734 5.304 115.084 3.887 115.084C2.067 115.084 0.585 116.488 0.585 118.568V118.672C0.585 120.778 2.015 122.117 3.913 122.117ZM10.3131 121.259C9.36406 121.259 9.02606 120.817 9.02606 120.115C9.02606 119.114 10.0271 118.776 11.3921 118.776H12.3281V119.621C12.3281 120.674 11.4571 121.259 10.3131 121.259ZM10.2091 122.117C11.2101 122.117 11.8211 121.779 12.3281 121.142V122H13.4071V117.515C13.4071 115.617 12.2241 115.084 10.9241 115.084C9.61106 115.084 8.37606 115.656 8.23306 117.203H9.31206C9.41606 116.371 9.93606 115.981 10.8721 115.981C11.9121 115.981 12.3281 116.436 12.3281 117.515V118.009H11.3531C9.61106 118.009 7.94706 118.542 7.94706 120.115C7.94706 121.506 8.94806 122.117 10.2091 122.117ZM18.6856 122H19.1796L21.4286 116.267V122H22.4946V115.201H20.9866L19.0106 120.284L17.0866 115.201H15.5396V122H16.4626V116.267L18.6856 122ZM27.5136 122.117C29.4506 122.117 30.8676 120.7 30.8676 118.646V118.542C30.8676 116.501 29.4506 115.084 27.5266 115.084C25.6026 115.084 24.1856 116.514 24.1856 118.555V118.659C24.1856 120.648 25.5766 122.117 27.5136 122.117ZM27.5266 121.22C26.1486 121.22 25.3036 120.206 25.3036 118.659V118.555C25.3036 116.995 26.1616 115.981 27.5266 115.981C28.8786 115.981 29.7496 116.995 29.7496 118.568V118.659C29.7496 120.193 28.8916 121.22 27.5266 121.22ZM35.3593 122.117C37.2963 122.117 38.7133 120.7 38.7133 118.646V118.542C38.7133 116.501 37.2963 115.084 35.3723 115.084C33.4483 115.084 32.0313 116.514 32.0313 118.555V118.659C32.0313 120.648 33.4223 122.117 35.3593 122.117ZM35.3723 121.22C33.9943 121.22 33.1493 120.206 33.1493 118.659V118.555C33.1493 116.995 34.0073 115.981 35.3723 115.981C36.7243 115.981 37.5953 116.995 37.5953 118.568V118.659C37.5953 120.193 36.7373 121.22 35.3723 121.22ZM43.309 122.117C45.233 122.117 46.663 120.778 46.663 118.555V118.503C46.663 116.514 45.441 115.084 43.543 115.084C42.295 115.084 41.346 115.76 40.878 116.774H40.826C40.982 114.512 41.658 113.108 43.855 112.965L44.05 112.952C45.103 112.887 45.662 112.822 46.117 112.64V111.704C45.623 111.886 44.96 111.925 44.037 111.977L43.777 111.99C40.527 112.159 39.981 114.915 39.981 117.58V118.126C39.981 120.778 41.372 122.117 43.309 122.117ZM43.322 121.22C41.944 121.22 41.099 120.193 41.099 118.659V118.633C41.099 116.982 42.009 115.981 43.439 115.981C44.817 115.981 45.545 116.93 45.545 118.542V118.568C45.545 120.258 44.687 121.22 43.322 121.22ZM51.165 122.117C52.803 122.117 53.986 121.025 54.129 119.556H53.128C53.011 120.661 52.14 121.22 51.178 121.22C49.865 121.22 48.955 120.336 48.955 118.672V118.568C48.955 116.969 49.904 115.981 51.139 115.981C52.075 115.981 52.855 116.384 53.024 117.463H54.09C53.882 115.734 52.556 115.084 51.139 115.084C49.319 115.084 47.837 116.488 47.837 118.568V118.672C47.837 120.778 49.267 122.117 51.165 122.117ZM57.058 119.374C57.149 118.373 57.201 117.008 57.227 116.111H59.671V122H60.75V115.201H56.265C56.265 115.201 56.226 117.723 56.07 119.309C55.979 120.258 55.849 121.025 55.29 121.025C55.043 121.025 54.926 120.973 54.926 120.973V122C54.926 122 55.043 122.065 55.381 122.065C56.486 122.065 56.902 121.168 57.058 119.374ZM63.5419 124.366H64.6339L68.3909 115.201H67.2859L65.4009 120.076L63.3209 115.201H62.1639L64.8289 121.298L63.5419 124.366ZM72.8017 122H73.8547V118.503L76.4807 122H77.7027L74.9337 118.386L77.4557 115.201H76.2857L73.8547 118.399V115.201H72.8017V118.399L70.3707 115.201H69.2137L71.7357 118.386L68.9667 122H70.1757L72.8017 118.503V122ZM80.1075 122L83.5785 116.761V122H84.6575V115.201H83.5785L80.1075 120.44V115.201H79.0285V122H80.1075ZM86.7092 122H89.3742C90.8562 122 91.8052 121.35 91.8052 119.998V119.959C91.8052 119.075 91.2462 118.607 90.3882 118.425C91.1552 118.23 91.4802 117.58 91.4802 116.969V116.93C91.4802 115.591 90.3622 115.201 89.0882 115.201H86.7092V122ZM89.0752 116.059C89.8942 116.059 90.3492 116.267 90.3492 116.982V117.021C90.3492 117.762 89.9852 118.074 89.0882 118.074H87.7882V116.059H89.0752ZM89.2702 118.932C90.2062 118.932 90.6742 119.257 90.6742 120.024V120.063C90.6742 120.817 90.2192 121.142 89.2702 121.142H87.7882V118.932H89.2702ZM95.397 121.259C94.448 121.259 94.11 120.817 94.11 120.115C94.11 119.114 95.111 118.776 96.476 118.776H97.412V119.621C97.412 120.674 96.541 121.259 95.397 121.259ZM95.293 122.117C96.294 122.117 96.905 121.779 97.412 121.142V122H98.491V117.515C98.491 115.617 97.308 115.084 96.008 115.084C94.695 115.084 93.46 115.656 93.317 117.203H94.396C94.5 116.371 95.02 115.981 95.956 115.981C96.996 115.981 97.412 116.436 97.412 117.515V118.009H96.437C94.695 118.009 93.031 118.542 93.031 120.115C93.031 121.506 94.032 122.117 95.293 122.117ZM105.031 122H106.11V115.201H105.031V118.061H101.69V115.201H100.611V122H101.69V118.971H105.031V122ZM109.37 122L112.841 116.761V122H113.92V115.201H112.841L109.37 120.44V115.201H108.291V122H109.37ZM119.508 116.059V118.516H118.234C117.168 118.516 116.778 118.074 116.778 117.333V117.294C116.778 116.501 117.22 116.059 118.234 116.059H119.508ZM118.338 119.335H119.508V122H120.587V115.201H118.299C116.869 115.201 115.699 115.799 115.699 117.294V117.333C115.699 118.477 116.427 118.984 117.272 119.153L115.205 122H116.44L118.338 119.335Z" fill="black"/>
<circle cx="129" cy="130" r="5" fill="#1569B2"/>
<line x1="127" y1="130.5" x2="-4.37114e-08" y2="130.5" stroke="#1564A8" stroke-dasharray="4 4"/>
<defs>
<filter id="filter0_d" x="61.0146" y="0.585693" width="440.106" height="308.179" filterUnits="userSpaceOnUse" color-interpolation-filters="sRGB">
<feFlood flood-opacity="0" result="BackgroundImageFix"/>
<feColorMatrix in="SourceAlpha" type="matrix" values="0 0 0 0 0 0 0 0 0 0 0 0 0 0 0 0 0 0 127 0"/>
<feOffset dy="24"/>
<feGaussianBlur stdDeviation="32"/>
<feColorMatrix type="matrix" values="0 0 0 0 0 0 0 0 0 0 0 0 0 0 0 0 0 0 0.25 0"/>
<feBlend mode="normal" in2="BackgroundImageFix" result="effect1_dropShadow"/>
<feBlend mode="normal" in="SourceGraphic" in2="effect1_dropShadow" result="shape"/>
</filter>
</defs>
</svg>
