<svg width="490" height="307" viewBox="0 0 490 307" fill="none" xmlns="http://www.w3.org/2000/svg">
<g filter="url(#filter0_d)">
<path d="M370.981 108.399L219.589 20.9999C218.632 20.4477 217.081 20.4477 216.124 20.9999L64.7321 108.399C63.7755 108.951 63.7755 109.846 64.7321 110.399L216.124 197.797C217.081 198.349 218.632 198.349 219.589 197.797L370.981 110.399C371.937 109.846 371.937 108.951 370.981 108.399Z" fill="#8EFCFF"/>
<path fill-rule="evenodd" clip-rule="evenodd" d="M217.856 23.414C217.856 22.1541 220.495 21.5232 222.038 22.4141L370.981 108.399C371.937 108.951 371.937 109.846 370.981 110.399L222.038 196.383C220.495 197.274 217.856 196.643 217.856 195.383V23.414Z" fill="#13A5FE"/>
</g>
<path d="M392.17 82H393.301V77.463L397.448 82H398.813L394.471 77.216L398.605 72.692H397.344L393.301 77.177V72.705H392.17V82ZM402.53 82.117C404.467 82.117 405.884 80.7 405.884 78.646V78.542C405.884 76.501 404.467 75.084 402.543 75.084C400.619 75.084 399.202 76.514 399.202 78.555V78.659C399.202 80.648 400.593 82.117 402.53 82.117ZM402.543 81.22C401.165 81.22 400.32 80.206 400.32 78.659V78.555C400.32 76.995 401.178 75.981 402.543 75.981C403.895 75.981 404.766 76.995 404.766 78.568V78.659C404.766 80.193 403.908 81.22 402.543 81.22ZM410.831 81.22C409.505 81.22 408.595 80.401 408.595 78.659V78.555C408.595 76.813 409.557 75.981 410.818 75.981C411.962 75.981 412.911 76.839 412.911 78.555V78.659C412.911 80.31 412.183 81.22 410.831 81.22ZM407.555 84.366H408.634V80.882C409.024 81.558 409.817 82.117 410.935 82.117C412.807 82.117 414.029 80.687 414.029 78.607V78.503C414.029 76.384 412.716 75.084 410.935 75.084C409.947 75.084 409.024 75.682 408.634 76.345V75.201H407.555V84.366ZM419.995 82H421.074V75.201H415.705V82H416.784V76.111H419.995V82ZM426.08 82.117C428.017 82.117 429.434 80.7 429.434 78.646V78.542C429.434 76.501 428.017 75.084 426.093 75.084C424.169 75.084 422.752 76.514 422.752 78.555V78.659C422.752 80.648 424.143 82.117 426.08 82.117ZM426.093 81.22C424.715 81.22 423.87 80.206 423.87 78.659V78.555C423.87 76.995 424.728 75.981 426.093 75.981C427.445 75.981 428.316 76.995 428.316 78.568V78.659C428.316 80.193 427.458 81.22 426.093 81.22ZM434.381 81.22C433.055 81.22 432.145 80.401 432.145 78.659V78.555C432.145 76.813 433.107 75.981 434.368 75.981C435.512 75.981 436.461 76.839 436.461 78.555V78.659C436.461 80.31 435.733 81.22 434.381 81.22ZM431.105 84.366H432.184V80.882C432.574 81.558 433.367 82.117 434.485 82.117C436.357 82.117 437.579 80.687 437.579 78.607V78.503C437.579 76.384 436.266 75.084 434.485 75.084C433.497 75.084 432.574 75.682 432.184 76.345V75.201H431.105V84.366ZM441.062 81.259C440.113 81.259 439.775 80.817 439.775 80.115C439.775 79.114 440.776 78.776 442.141 78.776H443.077V79.621C443.077 80.674 442.206 81.259 441.062 81.259ZM440.958 82.117C441.959 82.117 442.57 81.779 443.077 81.142V82H444.156V77.515C444.156 75.617 442.973 75.084 441.673 75.084C440.36 75.084 439.125 75.656 438.982 77.203H440.061C440.165 76.371 440.685 75.981 441.621 75.981C442.661 75.981 443.077 76.436 443.077 77.515V78.009H442.102C440.36 78.009 438.696 78.542 438.696 80.115C438.696 81.506 439.697 82.117 440.958 82.117ZM450.856 75.201H445.383V76.111H447.58V82H448.659V76.111H450.856V75.201ZM453.423 82L456.894 76.761V82H457.973V75.201H456.894L453.423 80.44V75.201H452.344V82H453.423ZM460.025 82H462.69C464.172 82 465.121 81.35 465.121 79.998V79.959C465.121 79.075 464.562 78.607 463.704 78.425C464.471 78.23 464.796 77.58 464.796 76.969V76.93C464.796 75.591 463.678 75.201 462.404 75.201H460.025V82ZM462.391 76.059C463.21 76.059 463.665 76.267 463.665 76.982V77.021C463.665 77.762 463.301 78.074 462.404 78.074H461.104V76.059H462.391ZM462.586 78.932C463.522 78.932 463.99 79.257 463.99 80.024V80.063C463.99 80.817 463.535 81.142 462.586 81.142H461.104V78.932H462.586ZM471.262 82H472.341V75.201H471.262V78.061H467.921V75.201H466.842V82H467.921V78.971H471.262V82ZM480.373 82H481.452V75.201H480.373V82ZM474.523 82H476.811C478.241 82 479.411 81.337 479.411 79.777V79.738C479.411 78.152 478.228 77.58 476.811 77.58H475.602V75.201H474.523V82ZM475.602 81.142V78.425H476.876C477.942 78.425 478.332 78.906 478.332 79.738V79.777C478.332 80.7 477.89 81.142 476.876 81.142H475.602ZM486.42 82.117C487.954 82.117 489.085 81.402 489.319 80.037H488.24C488.097 80.83 487.486 81.22 486.433 81.22C485.042 81.22 484.301 80.362 484.249 78.815H489.371V78.464C489.371 76.033 487.889 75.084 486.316 75.084C484.444 75.084 483.131 76.514 483.131 78.568V78.672C483.131 80.765 484.496 82.117 486.42 82.117ZM484.288 77.944C484.47 76.735 485.211 75.981 486.316 75.981C487.434 75.981 488.162 76.54 488.266 77.944H484.288ZM396.187 97H397.5L394.341 93.399L397.253 90.201H395.992L393.171 93.373V90.201H392.092V97H393.171V93.529L396.187 97ZM401.362 97.117C403.299 97.117 404.716 95.7 404.716 93.646V93.542C404.716 91.501 403.299 90.084 401.375 90.084C399.451 90.084 398.034 91.514 398.034 93.555V93.659C398.034 95.648 399.425 97.117 401.362 97.117ZM401.375 96.22C399.997 96.22 399.152 95.206 399.152 93.659V93.555C399.152 91.995 400.01 90.981 401.375 90.981C402.727 90.981 403.598 91.995 403.598 93.568V93.659C403.598 95.193 402.74 96.22 401.375 96.22ZM409.546 97H410.04L412.289 91.267V97H413.355V90.201H411.847L409.871 95.284L407.947 90.201H406.4V97H407.323V91.267L409.546 97ZM418.712 97H419.206L421.455 91.267V97H422.521V90.201H421.013L419.037 95.284L417.113 90.201H415.566V97H416.489V91.267L418.712 97ZM425.33 99.366H426.422L430.179 90.201H429.074L427.189 95.076L425.109 90.201H423.952L426.617 96.298L425.33 99.366ZM436.02 97H437.099V90.201H436.02V93.061H432.679V90.201H431.6V97H432.679V93.971H436.02V97ZM440.359 97L443.83 91.761V97H444.909V90.201H443.83L440.359 95.44V90.201H439.28V97H440.359ZM451.056 97H452.369L449.21 93.399L452.122 90.201H450.861L448.04 93.373V90.201H446.961V97H448.04V93.529L451.056 97ZM455.408 96.259C454.459 96.259 454.121 95.817 454.121 95.115C454.121 94.114 455.122 93.776 456.487 93.776H457.423V94.621C457.423 95.674 456.552 96.259 455.408 96.259ZM455.304 97.117C456.305 97.117 456.916 96.779 457.423 96.142V97H458.502V92.515C458.502 90.617 457.319 90.084 456.019 90.084C454.706 90.084 453.471 90.656 453.328 92.203H454.407C454.511 91.371 455.031 90.981 455.967 90.981C457.007 90.981 457.423 91.436 457.423 92.515V93.009H456.448C454.706 93.009 453.042 93.542 453.042 95.115C453.042 96.506 454.043 97.117 455.304 97.117ZM467.03 98.651V96.09H465.99V90.201H464.911V96.09H461.7V90.201H460.621V97H466.081L466.159 98.651H467.03ZM469.457 97L472.928 91.761V97H474.007V90.201H472.928L469.457 95.44V90.201H468.378V97H469.457ZM477.138 97L480.609 91.761V97H481.688V90.201H480.609L477.138 95.44V90.201H476.059V97H477.138Z" fill="black"/>
<circle cx="370" cy="109" r="5" transform="rotate(180 370 109)" fill="#1460A3"/>
<line x1="373" y1="109.5" x2="486" y2="109.5" stroke="#1460A3" stroke-dasharray="4 4"/>
<defs>
<filter id="filter0_d" x="0.0146484" y="0.585693" width="435.684" height="305.626" filterUnits="userSpaceOnUse" color-interpolation-filters="sRGB">
<feFlood flood-opacity="0" result="BackgroundImageFix"/>
<feColorMatrix in="SourceAlpha" type="matrix" values="0 0 0 0 0 0 0 0 0 0 0 0 0 0 0 0 0 0 127 0"/>
<feOffset dy="44"/>
<feGaussianBlur stdDeviation="32"/>
<feColorMatrix type="matrix" values="0 0 0 0 0 0 0 0 0 0 0 0 0 0 0 0 0 0 0.15 0"/>
<feBlend mode="normal" in2="BackgroundImageFix" result="effect1_dropShadow"/>
<feBlend mode="normal" in="SourceGraphic" in2="effect1_dropShadow" result="shape"/>
</filter>
</defs>
</svg>
