<svg width="478" height="261" viewBox="0 0 478 261" fill="none" xmlns="http://www.w3.org/2000/svg">
<g filter="url(#filter0_d)">
<path d="M436.403 105.675L282.799 16.9999C281.843 16.4477 280.292 16.4477 279.335 16.9999L125.732 105.675C124.775 106.227 124.775 107.123 125.732 107.675L279.335 196.35C280.292 196.903 281.843 196.903 282.799 196.35L436.403 107.675C437.36 107.123 437.36 106.227 436.403 105.675Z" fill="#552790"/>
<path d="M348.172 69.3422C348.172 68.5613 347.075 67.9283 345.723 67.9283L216.419 67.9246C215.066 67.9246 213.97 68.5576 213.969 69.3386L213.951 144C213.95 144.781 215.047 145.414 216.4 145.414L345.741 145.411C347.094 145.411 348.191 144.777 348.191 143.996L348.172 69.3422ZM247.528 88.7133C247.528 87.9318 248.626 87.2986 249.98 87.2994L312.105 87.336C313.456 87.3368 314.551 87.9695 314.552 88.7498L314.567 124.659C314.567 125.441 313.469 126.074 312.115 126.073L249.966 126.037C248.614 126.036 247.519 125.403 247.519 124.622L247.528 88.7133Z" fill="#13A5FE"/>
<path d="M319.62 85.8326C319.62 85.0516 318.524 84.4185 317.171 84.4185L244.964 84.4185C243.611 84.4185 242.514 85.0516 242.514 85.8326L242.514 127.518C242.514 128.299 243.611 128.932 244.964 128.932L317.171 128.932C318.524 128.932 319.62 128.299 319.62 127.518L319.62 85.8326Z" fill="#0C0A0D"/>
</g>
<path d="M5.057 82.117C7.137 82.117 8.619 81.064 8.944 78.919H7.891C7.657 80.427 6.604 81.194 5.083 81.194C3.081 81.194 1.885 79.764 1.885 77.398V77.294C1.885 74.954 3.172 73.459 5.096 73.459C6.682 73.459 7.501 74.187 7.735 75.604H8.853C8.658 73.589 7.02 72.562 5.083 72.562C2.561 72.562 0.715 74.551 0.715 77.307V77.411C0.715 80.271 2.366 82.117 5.057 82.117ZM13.4091 82.117C15.3461 82.117 16.7631 80.7 16.7631 78.646V78.542C16.7631 76.501 15.3461 75.084 13.4221 75.084C11.4981 75.084 10.0811 76.514 10.0811 78.555V78.659C10.0811 80.648 11.4721 82.117 13.4091 82.117ZM13.4221 81.22C12.0441 81.22 11.1991 80.206 11.1991 78.659V78.555C11.1991 76.995 12.0571 75.981 13.4221 75.981C14.7741 75.981 15.6451 76.995 15.6451 78.568V78.659C15.6451 80.193 14.7871 81.22 13.4221 81.22ZM22.8148 76.93C22.8148 75.721 21.8008 75.084 20.5788 75.084C19.3568 75.084 18.3038 75.578 18.1218 77.047H19.1618C19.3178 76.306 19.7728 75.981 20.5138 75.981C21.3458 75.981 21.6838 76.397 21.6838 76.982V77.021C21.6838 77.762 21.3198 78.074 20.4228 78.074H19.5778V78.932H20.6048C21.5408 78.932 22.0088 79.257 22.0088 80.024V80.063C22.0088 80.791 21.5538 81.22 20.5528 81.22C19.4348 81.22 19.0058 80.713 18.9278 79.907H17.8748C17.9398 81.298 18.9148 82.117 20.5528 82.117C22.1908 82.117 23.1398 81.233 23.1398 79.998V79.959C23.1398 79.075 22.5418 78.568 21.6968 78.425C22.4508 78.282 22.8148 77.58 22.8148 76.969V76.93ZM26.1836 79.374C26.3006 78.36 26.3916 76.982 26.4306 76.085H28.9266V81.09H25.7416C25.9626 80.713 26.0926 80.167 26.1836 79.374ZM24.9096 82H30.0706L30.1486 83.651H31.0196V81.09H29.9796V75.201H25.4946C25.4946 75.201 25.3906 77.723 25.1956 79.309C25.0786 80.18 24.9876 80.947 24.4416 81.09H23.9606V83.651H24.8316L24.9096 82ZM34.1803 81.259C33.2313 81.259 32.8933 80.817 32.8933 80.115C32.8933 79.114 33.8943 78.776 35.2593 78.776H36.1953V79.621C36.1953 80.674 35.3243 81.259 34.1803 81.259ZM34.0763 82.117C35.0773 82.117 35.6883 81.779 36.1953 81.142V82H37.2743V77.515C37.2743 75.617 36.0913 75.084 34.7913 75.084C33.4783 75.084 32.2433 75.656 32.1003 77.203H33.1793C33.2833 76.371 33.8033 75.981 34.7393 75.981C35.7793 75.981 36.1953 76.436 36.1953 77.515V78.009H35.2203C33.4783 78.009 31.8143 78.542 31.8143 80.115C31.8143 81.506 32.8153 82.117 34.0763 82.117ZM43.8138 82H44.8928V75.201H43.8138V78.061H40.4728V75.201H39.3938V82H40.4728V78.971H43.8138V82ZM48.1534 82L51.6244 76.761V82H52.7034V75.201H51.6244L48.1534 80.44V75.201H47.0744V82H48.1534ZM57.5371 82.117C59.0711 82.117 60.2021 81.402 60.4361 80.037H59.3571C59.2141 80.83 58.6031 81.22 57.5501 81.22C56.1591 81.22 55.4181 80.362 55.3661 78.815H60.4881V78.464C60.4881 76.033 59.0061 75.084 57.4331 75.084C55.5611 75.084 54.2481 76.514 54.2481 78.568V78.672C54.2481 80.765 55.6131 82.117 57.5371 82.117ZM55.4051 77.944C55.5871 76.735 56.3281 75.981 57.4331 75.981C58.5511 75.981 59.2791 76.54 59.3831 77.944H55.4051ZM4.017 98.117C5.941 98.117 7.371 96.778 7.371 94.555V94.503C7.371 92.514 6.149 91.084 4.251 91.084C3.003 91.084 2.054 91.76 1.586 92.774H1.534C1.69 90.512 2.366 89.108 4.563 88.965L4.758 88.952C5.811 88.887 6.37 88.822 6.825 88.64V87.704C6.331 87.886 5.668 87.925 4.745 87.977L4.485 87.99C1.235 88.159 0.689 90.915 0.689 93.58V94.126C0.689 96.778 2.08 98.117 4.017 98.117ZM4.03 97.22C2.652 97.22 1.807 96.193 1.807 94.659V94.633C1.807 92.982 2.717 91.981 4.147 91.981C5.525 91.981 6.253 92.93 6.253 94.542V94.568C6.253 96.258 5.395 97.22 4.03 97.22ZM10.131 98L13.602 92.761V98H14.681V91.201H13.602L10.131 96.44V91.201H9.05196V98H10.131ZM21.1136 92.93C21.1136 91.721 20.0996 91.084 18.8776 91.084C17.6556 91.084 16.6026 91.578 16.4206 93.047H17.4606C17.6166 92.306 18.0716 91.981 18.8126 91.981C19.6446 91.981 19.9826 92.397 19.9826 92.982V93.021C19.9826 93.762 19.6186 94.074 18.7216 94.074H17.8766V94.932H18.9036C19.8396 94.932 20.3076 95.257 20.3076 96.024V96.063C20.3076 96.791 19.8526 97.22 18.8516 97.22C17.7336 97.22 17.3046 96.713 17.2266 95.907H16.1736C16.2386 97.298 17.2136 98.117 18.8516 98.117C20.4896 98.117 21.4386 97.233 21.4386 95.998V95.959C21.4386 95.075 20.8406 94.568 19.9956 94.425C20.7496 94.282 21.1136 93.58 21.1136 92.969V92.93ZM27.5765 98H28.6555V91.201H27.5765V94.061H24.2355V91.201H23.1565V98H24.2355V94.971H27.5765V98ZM33.6191 98.117C35.1531 98.117 36.2841 97.402 36.5181 96.037H35.4391C35.2961 96.83 34.6851 97.22 33.6321 97.22C32.2411 97.22 31.5001 96.362 31.4481 94.815H36.5701V94.464C36.5701 92.033 35.0881 91.084 33.5151 91.084C31.6431 91.084 30.3301 92.514 30.3301 94.568V94.672C30.3301 96.765 31.6951 98.117 33.6191 98.117ZM31.4871 93.944C31.6691 92.735 32.4101 91.981 33.5151 91.981C34.6331 91.981 35.3611 92.54 35.4651 93.944H31.4871ZM41.0468 98.117C42.6848 98.117 43.8678 97.025 44.0108 95.556H43.0098C42.8928 96.661 42.0218 97.22 41.0598 97.22C39.7468 97.22 38.8368 96.336 38.8368 94.672V94.568C38.8368 92.969 39.7858 91.981 41.0208 91.981C41.9568 91.981 42.7368 92.384 42.9058 93.463H43.9718C43.7638 91.734 42.4378 91.084 41.0208 91.084C39.2008 91.084 37.7188 92.488 37.7188 94.568V94.672C37.7188 96.778 39.1488 98.117 41.0468 98.117ZM45.3279 94.932H48.1099V93.918H45.3279V94.932ZM54.2716 98H55.3506V91.201H49.9816V98H51.0606V92.111H54.2716V98ZM60.8114 97.22C59.4854 97.22 58.5754 96.401 58.5754 94.659V94.555C58.5754 92.813 59.5374 91.981 60.7984 91.981C61.9424 91.981 62.8914 92.839 62.8914 94.555V94.659C62.8914 96.31 62.1634 97.22 60.8114 97.22ZM57.5354 100.366H58.6144V96.882C59.0044 97.558 59.7974 98.117 60.9154 98.117C62.7874 98.117 64.0094 96.687 64.0094 94.607V94.503C64.0094 92.384 62.6964 91.084 60.9154 91.084C59.9274 91.084 59.0044 91.682 58.6144 92.345V91.201H57.5354V100.366ZM66.7648 98L70.2358 92.761V98H71.3148V91.201H70.2358L66.7648 96.44V91.201H65.6858V98H66.7648ZM74.6664 95.374C74.7574 94.373 74.8094 93.008 74.8354 92.111H77.2794V98H78.3584V91.201H73.8734C73.8734 91.201 73.8344 93.723 73.6784 95.309C73.5874 96.258 73.4574 97.025 72.8984 97.025C72.6514 97.025 72.5344 96.973 72.5344 96.973V98C72.5344 98 72.6514 98.065 72.9894 98.065C74.0944 98.065 74.5104 97.168 74.6664 95.374ZM83.3603 98.117C85.2973 98.117 86.7143 96.7 86.7143 94.646V94.542C86.7143 92.501 85.2973 91.084 83.3733 91.084C81.4493 91.084 80.0323 92.514 80.0323 94.555V94.659C80.0323 96.648 81.4233 98.117 83.3603 98.117ZM83.3733 97.22C81.9953 97.22 81.1503 96.206 81.1503 94.659V94.555C81.1503 92.995 82.0083 91.981 83.3733 91.981C84.7253 91.981 85.5963 92.995 85.5963 94.568V94.659C85.5963 96.193 84.7383 97.22 83.3733 97.22ZM91.1211 98H92.1741V94.503L94.8001 98H96.0221L93.2531 94.386L95.7751 91.201H94.6051L92.1741 94.399V91.201H91.1211V94.399L88.6901 91.201H87.5331L90.0551 94.386L87.2861 98H88.4951L91.1211 94.503V98ZM99.876 98.117C101.41 98.117 102.541 97.402 102.775 96.037H101.696C101.553 96.83 100.942 97.22 99.889 97.22C98.498 97.22 97.757 96.362 97.705 94.815H102.827V94.464C102.827 92.033 101.345 91.084 99.772 91.084C97.9 91.084 96.587 92.514 96.587 94.568V94.672C96.587 96.765 97.952 98.117 99.876 98.117ZM97.744 93.944C97.926 92.735 98.667 91.981 99.772 91.981C100.89 91.981 101.618 92.54 101.722 93.944H97.744ZM108.903 98H109.982V91.201H108.903V94.061H105.562V91.201H104.483V98H105.562V94.971H108.903V98ZM113.242 98L116.713 92.761V98H117.792V91.201H116.713L113.242 96.44V91.201H112.163V98H113.242ZM122.639 89.953C123.575 89.953 124.355 89.225 124.407 88.237H123.497C123.445 88.757 123.185 89.199 122.639 89.199C122.119 89.199 121.898 88.744 121.859 88.237H120.923C120.975 89.225 121.703 89.953 122.639 89.953ZM120.923 98L124.394 92.761V98H125.473V91.201H124.394L120.923 96.44V91.201H119.844V98H120.923Z" fill="black"/>
<circle cx="129" cy="106" r="5" fill="#156AB2"/>
<line x1="127" y1="106.5" x2="-4.37114e-08" y2="106.5" stroke="#156CB7" stroke-dasharray="4 4"/>
<defs>
<filter id="filter0_d" x="85.0146" y="0.585693" width="392.106" height="260.179" filterUnits="userSpaceOnUse" color-interpolation-filters="sRGB">
<feFlood flood-opacity="0" result="BackgroundImageFix"/>
<feColorMatrix in="SourceAlpha" type="matrix" values="0 0 0 0 0 0 0 0 0 0 0 0 0 0 0 0 0 0 127 0"/>
<feOffset dy="24"/>
<feGaussianBlur stdDeviation="20"/>
<feColorMatrix type="matrix" values="0 0 0 0 0 0 0 0 0 0 0 0 0 0 0 0 0 0 0.25 0"/>
<feBlend mode="normal" in2="BackgroundImageFix" result="effect1_dropShadow"/>
<feBlend mode="normal" in="SourceGraphic" in2="effect1_dropShadow" result="shape"/>
</filter>
</defs>
</svg>
