<svg width="145" height="39" viewBox="0 0 145 39" fill="none" xmlns="http://www.w3.org/2000/svg">
<path fill-rule="evenodd" clip-rule="evenodd" d="M104.492 10.8312C106.459 10.8312 107.899 12.265 107.899 14.2382V26.5548H81.6307C81.2421 26.569 80.8546 26.503 80.4926 26.3608C80.1306 26.2187 79.8018 26.0034 79.5267 25.7285C79.2516 25.4536 79.0361 25.1249 78.8937 24.763C78.7512 24.4011 78.6849 24.0137 78.6989 23.6251V4.32846H71.9575V23.6126C71.9575 29.3393 76.1447 33.2817 81.6286 33.2817H114.64V13.7464C114.64 8.07158 110.076 4.08777 104.492 4.08777C102.089 4.08777 99.174 5.21236 97.761 6.72497C96.2007 5.27254 93.1485 4.07324 90.7582 4.07324C84.8323 4.07324 80.5435 8.32264 80.5435 14.3025V23.6064H87.2848V14.3627C87.2848 12.2712 88.7373 10.8354 90.8122 10.8354C92.9389 10.8354 94.3395 12.3023 94.3395 14.3627V23.6064H101.081V14.2382C101.085 12.2525 102.519 10.8312 104.492 10.8312Z" fill="white"/>
<path fill-rule="evenodd" clip-rule="evenodd" d="M63.2408 14.0776C63.2408 15.9326 62.0934 16.9825 60.3359 16.9825H51.5798V23.6989H60.3318C66.1208 23.6989 69.9904 19.3603 69.9925 13.9905C69.9925 8.41106 66.1457 4.42102 60.448 4.41064H51.5798C45.9423 4.41064 41.9668 8.47123 41.9668 14.0237V23.7052C41.9668 29.3074 46.1394 33.3638 51.6255 33.3638H74.0344L74.2087 32.9675C72.2417 31.4798 70.7291 28.9775 70.1979 26.6474H51.6649C49.7975 26.6474 48.7082 25.4834 48.7082 23.6886V14.0797C48.6961 13.6949 48.7629 13.3118 48.9046 12.9539C49.0463 12.596 49.2599 12.2709 49.5321 11.9987C49.8043 11.7265 50.1293 11.513 50.4872 11.3713C50.8451 11.2296 51.2283 11.1627 51.613 11.1748H60.3276C62.1494 11.1645 63.2408 12.2413 63.2408 14.0776Z" fill="white"/>
<path fill-rule="evenodd" clip-rule="evenodd" d="M134.712 4.41992H126.046C120.499 4.41992 116.401 8.60085 116.401 14.0744V23.7207C116.401 29.186 120.595 33.3731 126.054 33.3731H135.283V26.6567H125.998C125.238 26.6567 124.51 26.355 123.973 25.818C123.436 25.281 123.134 24.5527 123.134 23.7933V14.0288C123.122 13.6495 123.188 13.2718 123.328 12.9189C123.467 12.566 123.678 12.2455 123.946 11.9772C124.214 11.7088 124.535 11.4983 124.888 11.3587C125.241 11.2191 125.618 11.1533 125.998 11.1654H134.76C136.441 11.1654 137.626 12.3481 137.626 14.0288V33.3731H144.367V14.0765C144.367 8.5469 140.244 4.41992 134.712 4.41992Z" fill="white"/>
<path d="M13.8106 32.9228C13.686 32.7658 13.6182 32.5713 13.6182 32.3709C13.6182 32.1705 13.686 31.976 13.8106 31.819L16.039 28.9867C16.0531 28.9684 16.0626 28.947 16.0666 28.9243C16.0707 28.9016 16.0692 28.8783 16.0622 28.8563C16.0553 28.8343 16.0431 28.8142 16.0268 28.7979C16.0105 28.7816 15.9905 28.7695 15.9685 28.7626C13.9014 28.108 12.0964 26.8126 10.8146 25.0638C9.5329 23.315 8.84099 21.2037 8.83909 19.0355H11.2543L11.4493 18.6371L5.89273 14.2611C5.8381 14.2179 5.77047 14.1943 5.7008 14.1943C5.63112 14.1943 5.56349 14.2179 5.50887 14.2611L0 18.6475L0.145243 19.0355H2.56043C2.56043 27.1276 7.96971 33.51 15.3543 35.116C15.3724 35.1201 15.3913 35.1185 15.4085 35.1114C15.4256 35.1043 15.4401 35.092 15.4499 35.0762C15.4598 35.0604 15.4644 35.042 15.4633 35.0235C15.4621 35.0049 15.4552 34.9872 15.4435 34.9728L13.8106 32.9228Z" fill="white"/>
<path d="M5.14989 13.8106C5.3069 13.686 5.50141 13.6182 5.70182 13.6182C5.90223 13.6182 6.09674 13.686 6.25374 13.8106L9.08599 16.039C9.1037 16.0532 9.12455 16.0631 9.14681 16.0676C9.16907 16.0722 9.1921 16.0714 9.214 16.0654C9.23589 16.0593 9.25603 16.0481 9.27274 16.0327C9.28944 16.0173 9.30224 15.9981 9.31007 15.9768C9.96351 13.9084 11.2584 12.1017 13.0073 10.8184C14.7561 9.53511 16.8681 8.84187 19.0372 8.83909V11.2543L19.4356 11.4493L23.8116 5.89273C23.8555 5.83842 23.8795 5.77067 23.8795 5.7008C23.8795 5.63093 23.8555 5.56317 23.8116 5.50887L19.4252 0L19.0393 0.145243V2.56043C10.9472 2.56043 4.56477 7.9697 2.9588 15.3543C2.95465 15.3724 2.95625 15.3913 2.96338 15.4085C2.97051 15.4256 2.98282 15.4401 2.99858 15.4499C3.01433 15.4598 3.03277 15.4644 3.0513 15.4633C3.06983 15.4621 3.08754 15.4552 3.10196 15.4435L5.14989 13.8106Z" fill="white"/>
<path d="M24.26 5.14782C24.3846 5.30482 24.4524 5.49934 24.4524 5.69974C24.4524 5.90015 24.3846 6.09467 24.26 6.25167L22.0337 9.08391C22.0195 9.10204 22.01 9.1233 22.0058 9.1459C22.0016 9.1685 22.003 9.19177 22.0097 9.21375C22.0164 9.23573 22.0283 9.25576 22.0444 9.27217C22.0605 9.28858 22.0803 9.30087 22.1021 9.308C24.169 9.96289 25.9738 11.2584 27.2555 13.0071C28.5372 14.7559 29.2293 16.867 29.2315 19.0352H26.8163L26.6213 19.4335L32.1779 23.8095C32.2326 23.8533 32.3007 23.8771 32.3708 23.8771C32.441 23.8771 32.509 23.8533 32.5638 23.8095L38.0706 19.4252L37.9253 19.0393H35.5102C35.5102 10.9472 30.1009 4.56477 22.7163 2.9588C22.6982 2.95465 22.6793 2.95625 22.6621 2.96338C22.645 2.97051 22.6305 2.98282 22.6207 2.99858C22.6108 3.01433 22.6062 3.03277 22.6073 3.0513C22.6085 3.06983 22.6154 3.08754 22.6271 3.10196L24.26 5.14782Z" fill="white"/>
<path d="M32.9231 24.26C32.7661 24.3846 32.5715 24.4524 32.3711 24.4524C32.1707 24.4524 31.9762 24.3846 31.8192 24.26L28.987 22.0337C28.9688 22.0195 28.9476 22.01 28.925 22.0058C28.9024 22.0016 28.8791 22.003 28.8571 22.0097C28.8352 22.0164 28.8151 22.0283 28.7987 22.0444C28.7823 22.0605 28.77 22.0803 28.7629 22.1021C28.1083 24.1691 26.8128 25.9742 25.064 27.2559C23.3153 28.5377 21.2039 29.2296 19.0357 29.2315V26.8163L18.6373 26.6213L14.2614 32.1779C14.218 32.2328 14.1943 32.3008 14.1943 32.3708C14.1943 32.4409 14.218 32.5088 14.2614 32.5638L18.6456 38.0706L19.0337 37.9253V35.5102C27.1258 35.5102 33.5082 30.1009 35.1142 22.7163C35.1183 22.6982 35.1167 22.6793 35.1096 22.6621C35.1024 22.645 35.0901 22.6305 35.0744 22.6207C35.0586 22.6108 35.0402 22.6062 35.0217 22.6073C35.0031 22.6085 34.9854 22.6154 34.971 22.6271L32.9231 24.26Z" fill="white"/>
</svg>
