<svg width="229" height="229" viewBox="0 0 229 229" fill="none" xmlns="http://www.w3.org/2000/svg">
<circle opacity="0.6" cx="114.391" cy="114.356" r="114.111" fill="#4A2875"/>
<circle cx="114.391" cy="114.356" r="84.6128" fill="#472276"/>
<path d="M187.293 116.997C187.293 156.685 145.497 190.522 112.831 187.237C73.5724 183.289 43.5693 156.685 43.5693 116.997C43.5693 77.3089 75.743 45.1353 115.431 45.1353C155.119 45.1353 187.293 77.3089 187.293 116.997Z" fill="black"/>
<path d="M184.001 129.588L183.933 129.451C183.951 129.182 184.013 128.918 184.118 128.669C184.153 128.477 184.198 128.286 184.253 128.098C184.399 127.63 184.512 127.152 184.592 126.668C184.702 125.99 184.821 125.274 184.905 124.579C185.036 123.199 185.095 121.812 185.083 120.425C185.124 120.254 185.175 120.035 185.159 119.85L185.119 119.719C185.119 119.719 185.158 119.557 185.155 119.567C185.166 119.472 185.172 119.376 185.173 119.279C185.225 119.06 185.202 118.904 185.218 118.706C185.207 118.505 185.184 118.305 185.149 118.106C185.9 116.581 186.356 114.927 186.494 113.233C186.532 112.405 186.478 111.576 186.334 110.76C186.174 109.962 185.857 109.203 185.404 108.527C185.372 108.251 185.323 107.977 185.256 107.707C185.2 107.349 185.123 106.995 185.024 106.646C184.956 106.338 184.939 105.982 184.843 105.667C184.813 105.54 184.783 105.412 184.759 105.255C184.736 105.099 184.74 105.039 184.725 104.975C184.71 104.911 184.62 104.951 184.6 104.865C184.58 104.78 184.675 104.762 184.636 104.713C184.597 104.664 184.503 104.681 184.499 104.61C184.496 104.539 184.577 104.538 184.54 104.439C184.503 104.339 184.569 104.315 184.516 104.242C184.463 104.169 184.377 104.149 184.365 104.115C184.353 104.082 184.392 104.001 184.401 103.963C184.41 103.925 184.31 103.881 184.302 103.869L184.394 103.78L184.27 103.751L184.369 103.674C184.387 103.597 184.247 103.594 184.227 103.509C184.223 103.416 184.215 103.324 184.202 103.232C184.224 103.136 184.211 102.982 184.19 102.856L184.037 102.82L184.129 102.731C184.147 102.655 184.005 102.702 183.996 102.569C183.988 102.436 184.119 102.477 184.035 102.407C184.035 102.384 184.041 102.361 184.05 102.34C184.391 101.392 184.567 100.392 184.569 99.3842C184.48 98.4128 184.311 97.4505 184.063 96.5072C183.717 94.5794 183.195 92.6874 182.502 90.8552C181.761 89.0066 180.907 87.205 179.945 85.4604C179.481 84.5756 178.995 83.6959 178.497 82.8233C177.999 81.9508 177.36 81.1656 176.85 80.3004C176.218 79.1446 175.35 78.1342 174.594 77.0797C173.837 76.0252 172.874 74.8213 171.935 73.7738C170.995 72.7264 170.215 71.5154 169.205 70.5116C168.479 69.7964 167.84 69.0111 167.116 68.2863C165.492 66.6442 163.764 65.0581 162.096 63.4355C161.449 62.8095 160.71 62.2725 160.045 61.6824C159.38 61.0922 158.565 60.3258 157.823 59.6773C156.098 58.1882 154.29 56.7964 152.41 55.5083C149.831 53.6502 147.056 51.6449 143.845 51.0963C142.541 50.2146 141.076 49.6008 139.533 49.2909C137.525 48.6749 135.455 48.3257 133.475 47.6357C132.196 47.2592 130.893 46.9677 129.576 46.7632C128.243 46.5282 126.898 46.1295 125.566 45.9752C123.436 45.793 121.334 45.4062 119.204 45.2643C118.054 45.1933 116.886 45.1082 115.732 45.0966C112.952 45.0645 110.172 45.1859 107.405 45.4602C101.145 46.0643 94.9986 47.5282 89.1386 49.8106C87.6711 50.3991 86.1936 50.9449 84.707 51.5289C83.2367 52.1809 81.8015 52.9093 80.4072 53.711C78.9775 54.4795 77.6134 55.3541 76.2492 56.2286C74.8851 57.1032 73.5109 57.9351 72.1977 58.8921C70.8844 59.8491 69.7169 60.8708 68.4708 61.884C67.8905 62.3806 67.3101 62.8771 66.7078 63.3383C66.1288 63.8442 65.5834 64.3874 65.0752 64.9644C63.9664 66.1207 62.7971 67.1923 61.7437 68.4121C60.6902 69.6319 59.5791 70.7978 58.5789 72.0905C57.5786 73.3832 56.724 74.7406 55.7283 76.0143C54.8183 77.2974 54.0019 78.6443 53.2852 80.0446C52.8997 80.7382 52.5024 81.4391 52.0546 82.0978C51.6719 82.7561 51.3499 83.4478 51.0926 84.1643C50.4269 85.6167 49.6558 87.004 49.064 88.4839C48.4722 89.9639 47.8692 91.4915 47.3754 93.0249C46.8152 94.5616 46.3776 96.1404 46.0668 97.7463C45.8253 99.3192 45.4224 100.894 45.0738 102.452C44.8945 103.189 44.7871 103.942 44.753 104.7C44.7183 105.527 44.4571 106.291 44.3461 107.099C44.2352 107.908 44.3672 108.584 44.2507 109.331C44.13 110.097 44.058 110.869 44.0352 111.644C43.991 113.234 44.156 114.833 44.0121 116.419C43.9804 117.199 44.014 117.982 44.1127 118.757C44.1778 119.587 44.1789 120.433 44.2749 121.26C44.3708 122.088 44.486 122.749 44.6117 123.493C44.7374 124.238 44.7564 125.178 44.9095 126.019C45.1945 127.536 45.4566 129.107 45.8364 130.606C46.2163 132.104 46.72 133.632 47.1121 135.164C47.5866 136.669 48.1476 138.146 48.7923 139.586C49.3341 141.109 49.9585 142.6 50.663 144.054C51.0159 144.731 51.2976 145.412 51.5843 146.114C51.871 146.815 52.493 147.546 52.885 148.313C53.5717 149.663 54.3332 150.91 55.1377 152.187C56.8983 154.855 58.8371 157.402 60.9408 159.809C61.9163 161.044 62.9887 162.2 64.1478 163.265C64.3447 164.333 64.7974 165.338 65.4672 166.193C66.2672 167.115 67.1372 167.973 68.0693 168.761C68.9338 169.525 69.8733 170.199 70.8734 170.773C71.4241 171.125 72.0051 171.434 72.5766 171.74C73.0267 172.073 73.5819 172.233 74.1403 172.19C74.8548 172.907 75.6914 173.49 76.6106 173.912C77.651 174.49 78.6561 175.091 79.7105 175.652C81.1426 176.404 82.5534 177.16 84.0299 177.852C84.9376 178.268 85.804 178.604 86.6831 179.013C88.8217 179.928 91.0054 180.734 93.2259 181.427C94.4398 181.825 95.7223 182.018 96.9435 182.427C98.3088 182.836 99.7017 183.146 101.112 183.354C101.818 183.471 102.503 183.683 103.202 183.788C103.902 183.893 104.625 183.944 105.331 184.061C106.731 184.315 108.146 184.471 109.567 184.53C110.972 184.591 112.363 184.708 113.774 184.74C114.455 184.751 115.109 184.755 115.794 184.706C116.505 184.734 117.217 184.721 117.927 184.667C118.637 184.598 119.351 184.579 120.064 184.609C120.776 184.576 121.485 184.513 122.197 184.44C123.627 184.305 125.001 183.987 126.424 183.84C126.746 183.812 127.065 183.749 127.374 183.653C127.764 183.534 128.157 183.617 128.528 183.493C129.181 183.286 129.824 183.247 130.501 183.065C131.844 182.708 133.244 182.486 134.583 182.018C135.921 181.55 137.306 181.184 138.664 180.76C139.014 180.642 139.268 180.42 139.599 180.297C139.93 180.174 140.309 180.144 140.676 179.999C141.312 179.68 141.967 179.398 142.636 179.155C143.32 178.944 143.918 178.543 144.595 178.32C144.884 178.229 145.161 178.102 145.419 177.942C145.782 177.751 146.158 177.584 146.543 177.443C147.782 176.841 148.93 176.116 150.135 175.446C150.687 175.064 151.274 174.734 151.887 174.462C152.073 174.466 152.258 174.433 152.431 174.365C152.605 174.297 152.763 174.196 152.897 174.067C154.573 173.292 156.208 172.429 157.795 171.483C158.613 171.043 159.286 170.497 160.047 170.003C160.788 169.543 161.501 169.04 162.184 168.497C163.608 167.284 164.924 165.935 166.34 164.711C166.971 164.117 167.559 163.48 168.1 162.803C168.714 162.123 169.411 161.514 169.965 160.789C171.142 159.347 172.083 157.668 173.139 156.137C174.116 154.675 174.969 153.133 175.689 151.528C176.466 149.82 177.371 148.203 178.095 146.463C178.819 144.722 179.332 143.194 179.96 141.561C180.344 140.575 180.59 139.577 181.011 138.61C181.394 137.665 181.708 136.693 181.95 135.703C182.49 133.677 183.373 131.733 183.81 129.673C183.896 129.693 183.972 129.711 183.981 129.714C183.991 129.716 184.023 129.623 184.001 129.588Z" fill="black"/>
<path d="M183.81 120.959C184.134 120.311 184.15 120.244 184.405 119.721C184.507 119.926 184.378 120.218 184.376 120.439C184.374 120.66 184.401 120.928 184.407 121.201C184.406 121.714 184.295 122.181 184.306 122.686C184.268 123.674 184.163 124.657 183.992 125.631C183.941 125.91 183.876 126.187 183.796 126.46C183.757 126.622 183.712 126.812 183.676 126.965C183.648 127.169 183.601 127.37 183.534 127.565C183.377 127.294 183.149 127.071 182.874 126.921C182.599 126.771 182.288 126.699 181.975 126.713C181.446 126.739 180.961 127.087 180.44 127.074C179.3 127.046 178.697 125.343 178.37 124.471C178.003 123.385 177.729 122.27 177.549 121.137C177.432 120.526 177.249 119.939 177.12 119.335C176.986 118.878 176.925 118.401 176.941 117.924L176.97 117.801C176.97 117.801 176.988 117.724 176.991 117.715C177.216 117.695 177.442 117.724 177.654 117.801C178.252 118.084 178.563 119.023 178.807 119.564C179.083 120.222 179.436 120.845 179.856 121.422C180.094 121.75 180.416 122.009 180.787 122.172C181.158 122.335 181.566 122.396 181.969 122.348C182.371 122.301 182.754 122.148 183.078 121.903C183.401 121.659 183.654 121.333 183.81 120.959Z" fill="#0181BF"/>
<path d="M183.555 104.306C183.58 104.413 183.569 104.541 183.599 104.629C183.618 104.69 183.63 104.754 183.635 104.818C183.621 104.875 183.644 105.032 183.657 105.065L183.762 105.09C183.792 105.218 183.743 105.468 183.768 105.614L183.878 106.043L183.973 106.066C183.958 106.132 183.937 106.218 183.993 106.322L184.058 106.559L184.038 106.644C184.038 106.644 184.162 106.925 184.144 106.961C183.292 106.307 182.144 106.055 181.457 105.218C181.098 104.781 181.422 104.475 181.816 104.297C182.372 104.093 182.895 103.807 183.366 103.446C183.352 103.504 183.496 103.618 183.504 103.67L183.56 103.985C183.55 104.114 183.529 104.2 183.555 104.306Z" fill="#0181BF"/>
<path d="M73.329 170.73C72.4937 170.22 71.62 169.873 70.8195 169.301C70.0191 168.729 69.3222 168.272 68.6143 167.692C68.2329 167.391 67.7291 167.181 67.4043 166.852C67.0796 166.524 66.8789 166.054 66.5531 165.645C66.2354 165.389 65.9681 165.077 65.7649 164.724C65.5838 164.298 65.5396 163.805 65.3843 163.356C65.0729 162.498 64.8616 161.607 64.7548 160.701C64.6719 159.776 64.7174 158.861 64.6463 157.928C64.5046 156.104 64.4151 154.271 64.2924 152.451C64.2168 151.58 64.0386 150.72 63.7615 149.891C63.5086 149.046 63.3505 148.183 63.074 147.353C62.9328 146.947 62.7361 146.561 62.4896 146.209C62.2645 145.823 62.1021 145.404 62.0085 144.968C61.6619 144.061 61.2152 143.196 60.6769 142.389C60.2222 141.546 59.9733 140.642 59.5966 139.768C59.1242 138.901 58.7365 137.991 58.439 137.049C58.376 136.625 58.2761 136.208 58.1407 135.801C57.9346 135.359 57.802 134.885 57.7478 134.4C57.7008 133.493 57.5258 132.617 57.5478 131.716C57.5595 129.649 58.0218 127.609 58.9024 125.738C59.3735 124.858 59.7842 123.946 60.1316 123.01C60.3647 122.281 60.5452 120.583 59.6497 120.2C60.3645 119.433 59.5548 117.752 59.1723 116.987C58.5502 115.984 58.0119 114.931 57.5628 113.839C57.4143 113.361 57.2142 112.932 57.023 112.464C56.8612 111.885 56.759 111.291 56.7181 110.691C56.4989 109.602 56.3666 108.498 56.3227 107.388C56.2811 106.823 56.274 106.257 56.3014 105.692C56.3804 105.109 56.3953 104.518 56.3457 103.932C56.1623 102.751 56.5344 101.561 56.2938 100.367C56.0531 99.1735 55.8326 98.0647 55.6804 96.9219C55.5283 95.779 55.2606 94.6993 55.1398 93.5941C54.8654 92.4754 54.7384 91.3256 54.7619 90.174C54.883 89.0674 55.0626 87.9679 55.3 86.8802C55.5504 85.898 55.9978 84.9768 56.615 84.1727C56.9446 83.6645 57.3142 83.1833 57.7203 82.7338C58.1312 82.3581 58.5712 82.0296 58.9866 81.6349C60.6354 80.1436 62.1576 78.5181 63.5378 76.7753C64.7674 74.8421 65.7498 72.7624 66.462 70.5848C67.2038 68.4608 68.5571 66.6035 70.3517 65.2467C71.2169 64.6136 72.1202 64.0343 73.0565 63.5121C74.0782 62.9791 75.1568 62.6307 76.1348 62.027C76.6679 61.7897 77.214 61.583 77.7706 61.4079C78.3136 61.1541 78.8993 60.8902 79.3943 60.5847C80.3919 60.0259 81.4677 59.6466 82.4749 59.0901C83.482 58.5335 84.4847 57.996 85.5091 57.4939C86.0236 57.2333 86.4413 56.829 86.958 56.5589C87.508 56.2941 88.0376 55.9889 88.5425 55.646C89.4652 54.9788 90.5446 54.4998 91.5108 53.9034C91.9718 53.6092 92.4564 53.3537 92.9595 53.1394C93.5149 52.9186 93.9661 52.5424 94.5092 52.2886C95.4798 51.8441 96.593 51.6045 97.5927 51.2072C98.67 50.8987 99.7941 50.7865 100.911 50.8757C101.638 50.8666 103.396 50.9205 103.647 51.8151C103.723 52.314 103.675 52.824 103.508 53.3002C103.341 53.7765 103.06 54.2044 102.689 54.5465C101.906 55.2806 101.375 56.2432 101.172 57.2969C101.144 57.8185 101.183 58.3416 101.287 58.8535C101.491 59.5569 101.874 60.1953 102.398 60.7063C102.869 61.2883 103.391 61.8263 103.96 62.3136C104.353 62.6483 105.013 63.1363 104.635 63.7111C104.258 64.2859 103.255 64.4813 102.603 64.5584C101.867 64.6325 101.125 64.6123 100.394 64.4983C98.8681 64.2295 97.2997 64.3422 95.8283 64.8265C95.18 65.1072 94.558 65.4448 93.9694 65.8355C93.4499 66.2353 93.0092 66.7281 92.6695 67.2888C91.9696 68.2903 91.4619 69.8405 92.3469 70.9053C93.2319 71.97 94.8115 71.4182 95.9107 70.8129C97.2135 70.161 98.6035 69.7003 100.038 69.4453C101.231 69.1642 103.079 68.9676 102.757 70.7126C102.555 71.3051 102.522 71.9422 102.663 72.5521C102.751 72.8735 102.942 73.1569 103.208 73.3581C103.473 73.5593 103.798 73.6669 104.131 73.6641C103.875 74.5595 103.715 75.4795 103.652 76.4086C103.603 76.8296 103.532 77.2556 103.445 77.6676C103.358 78.0796 103.486 78.6836 103.417 79.2307C103.335 80.1336 103.332 81.0421 103.409 81.9455C103.421 82.361 103.452 82.7809 103.443 83.2014C103.382 83.6288 103.283 84.0498 103.146 84.4592C103.149 84.6337 103.096 84.8047 102.995 84.9473C102.895 85.0899 102.751 85.1967 102.586 85.2524C102.142 85.4087 101.714 85.6074 101.308 85.8456C100.939 86.0883 100.633 86.4163 100.418 86.8021C100.228 87.1797 100.192 87.7549 99.7507 87.9623C98.7773 88.376 98.3401 87.0348 98.1986 86.3573C98.0209 85.4499 98.2199 84.6518 97.5806 83.8666C97.3181 83.4712 96.9151 83.1905 96.4534 83.0812C95.9916 82.9719 95.5055 83.0422 95.0937 83.2779C94.2934 83.8533 94.4497 84.7657 94.2844 85.5919C94.119 86.4181 93.0529 87.0111 92.3755 87.1526C91.5262 87.3302 90.6516 87.3516 89.7946 87.2159C88.067 86.9479 86.2229 86.4913 84.6853 87.5462C83.9434 88.0448 83.281 88.6326 82.5001 89.0414C82.1414 89.315 81.7149 89.4854 81.2665 89.5343C80.7978 89.5052 80.3318 89.442 79.8723 89.3452C78.9184 89.1965 77.9427 89.2796 77.0277 89.5876C76.5677 89.6991 76.1551 89.9538 75.8493 90.315C75.5034 90.7563 75.0443 91.0803 74.7224 91.5475C74.1444 92.4169 73.7187 93.3224 73.1788 94.2009C72.9422 94.628 72.6709 95.035 72.3675 95.4176C72.0704 95.7009 71.753 95.962 71.4179 96.1991C71.4021 96.2658 71.2749 96.1652 71.2559 96.1607C71.0576 95.5331 71.0759 94.857 71.3077 94.241C71.4482 93.5262 71.5257 92.8004 71.5393 92.0721C71.4916 91.4563 71.259 90.8694 70.8719 90.3881C70.4849 89.9069 69.9614 89.5538 69.3703 89.3752C68.7434 89.1776 68.0922 89.0675 67.4352 89.048C66.7202 88.9908 66.0007 89.0553 65.3072 89.2387C64.6917 89.4296 64.1035 89.6997 63.5574 90.042C63.2406 90.1942 62.9363 90.3712 62.6473 90.5713C62.3442 90.8316 62.087 91.1531 61.7984 91.4369C60.8032 92.4221 60.0395 93.6161 59.5623 94.9326C59.2538 95.7725 59.2911 96.7005 59.666 97.513C60.2283 98.4108 61.1513 98.3375 62.0673 98.4637C62.9833 98.5899 62.818 99.7985 62.2903 100.328C61.5735 100.913 60.9188 101.571 60.3365 102.29C60.122 102.71 60.0184 103.177 60.0356 103.648C60.0527 104.119 60.1901 104.577 60.4345 104.98C60.915 105.798 61.6498 106.435 61.8734 107.403C61.9303 107.905 61.8863 108.414 61.7439 108.898C61.6015 109.383 61.3637 109.834 61.0443 110.226C60.3891 111.064 59.9983 112.079 59.922 113.14C59.907 114.174 60.1295 115.197 60.5723 116.131C60.727 116.591 60.9677 117.017 61.2816 117.386C61.4427 117.575 61.6458 117.723 61.8747 117.82C62.1037 117.916 62.3519 117.957 62.5996 117.939C63.4266 118.236 64.3326 118.226 65.1524 117.91C65.5215 117.775 65.9248 117.767 66.2991 117.886C66.6733 118.006 66.9972 118.246 67.2199 118.57C67.7565 119.264 68.4026 119.865 69.1328 120.351C69.9625 120.608 70.8187 120.77 71.6849 120.834C72.5711 121.044 72.8914 121.774 73.302 122.505C73.6293 123.341 73.8656 124.21 74.0067 125.097C74.1867 125.983 74.4768 126.842 74.8702 127.656C75.3614 128.447 76.0648 129.084 76.9002 129.495C77.8012 129.939 78.6991 130.142 79.5665 130.558C80.3848 130.958 81.0777 131.574 81.5697 132.341C82.2777 133.659 82.7188 135.104 82.8677 136.592C83.0482 138.027 83.4313 139.429 84.0054 140.756C84.7466 142.096 85.8345 143.211 87.155 143.986C91.1334 146.649 98.828 147.172 98.9809 153.286C98.9989 153.918 98.8555 154.544 98.5642 155.106C98.2729 155.667 97.8433 156.145 97.316 156.494C96.2171 157.311 94.9592 157.949 93.8761 158.698C91.8278 160.126 90.2518 163.043 87.5205 163.232C86.2342 163.31 85.003 162.857 83.712 163.125C82.4695 163.521 81.3619 164.256 80.5133 165.246C80.0299 165.802 79.7323 166.495 79.6619 167.228C79.657 167.525 79.5877 167.818 79.4589 168.085C79.2977 168.299 78.9063 168.337 78.6579 168.409C77.3987 168.755 76.0061 168.687 74.8513 169.4C74.2546 169.745 73.7982 170.289 73.5619 170.936L73.329 170.73Z" fill="#01567F"/>
<path d="M149.169 175.146C148.024 175.731 146.961 176.395 145.824 176.951C145.267 177.221 144.708 177.411 144.18 177.729C143.652 178.047 142.953 178.113 142.391 178.443C141.291 179.027 140.129 179.487 138.927 179.816C138.339 180.083 137.736 180.317 137.121 180.516C136.524 180.621 135.935 180.768 135.357 180.954C130.57 182.476 125.617 183.419 120.606 183.761C118.102 183.974 115.587 184.018 113.078 183.892C112.455 183.845 111.833 183.838 111.206 183.811C110.887 183.796 110.59 183.735 110.226 183.699C109.862 183.664 109.573 183.736 109.226 183.674C108.005 183.476 106.699 183.549 105.503 183.246C104.307 182.943 103.029 182.942 101.824 182.637C100.618 182.331 99.3457 182.181 98.1839 181.775C97.5876 181.574 96.9357 181.48 96.2782 181.324C95.6207 181.168 95.0681 181.038 94.4859 180.819C93.2293 180.431 92.0061 179.86 90.7624 179.546C89.9498 179.307 89.1561 179.008 88.388 178.652C87.6287 178.331 86.8172 178.018 86.0714 177.64C84.9408 177.061 83.7482 176.658 82.6569 175.997C81.7739 175.476 80.8617 175.079 79.9742 174.577C78.6705 173.836 77.3888 172.959 76.1227 172.187C75.7436 171.857 75.3215 171.581 74.8679 171.366C75.2816 170.086 77.2066 169.988 78.2474 169.842C78.8891 169.803 79.5066 169.583 80.0278 169.207C80.5272 168.73 80.8364 168.088 80.8981 167.4C81.0367 166.773 81.3933 166.216 81.9043 165.827C82.3955 165.41 82.781 164.716 83.4417 164.561C84.7021 164.37 85.9842 164.372 87.2442 164.565C88.5909 164.611 89.9043 164.141 90.9161 163.251C91.4263 162.838 91.8883 162.374 92.3985 161.962C92.9087 161.549 93.3161 160.891 93.8757 160.44C94.4352 159.988 94.9437 159.626 95.4925 159.263C96.0414 158.9 96.7145 158.606 97.2987 158.221C98.4536 157.541 99.3884 156.543 99.9915 155.347C100.422 154.149 100.495 152.851 100.201 151.613C99.7651 150.349 99.0693 149.19 98.1585 148.211C97.2414 147.178 96.0755 146.397 94.7716 145.941C94.1299 145.718 93.586 145.338 92.9606 145.089C92.3352 144.841 91.6732 144.704 91.0355 144.422C89.7599 143.897 88.5289 143.269 87.3544 142.545C86.7372 142.081 86.1896 141.531 85.7283 140.912C85.2234 140.159 84.873 139.314 84.6971 138.424C84.4286 137.491 84.2129 136.543 84.0511 135.585C83.9671 134.587 83.7188 133.611 83.3164 132.694C82.9568 131.857 82.459 131.086 81.8437 130.414C81.1129 129.803 80.2761 129.332 79.3752 129.024C78.4828 128.765 77.6364 128.368 76.8666 127.847C76.2262 127.292 75.756 126.566 75.5103 125.755C75.0063 124.016 75.1612 122.171 73.8393 120.741C73.232 120.042 72.3965 119.58 71.4811 119.438C70.6472 119.411 69.8451 119.112 69.1975 118.586C68.5779 117.937 67.924 117.322 67.2387 116.744C66.8673 116.51 66.4415 116.377 66.0031 116.358C65.5648 116.339 65.129 116.434 64.7387 116.635C64.0036 116.892 63.1982 116.86 62.4861 116.545C61.915 116.004 61.4802 115.335 61.217 114.594C60.9548 113.777 60.9789 112.896 61.2853 112.095C61.6688 111.241 62.0976 110.409 62.5697 109.601C62.983 108.827 63.0887 107.925 62.8657 107.075C62.5205 105.685 60.2977 104.193 61.2904 102.678C61.7517 101.962 62.6239 101.635 63.1211 100.937C63.419 100.618 63.6214 100.222 63.705 99.7933C63.7886 99.3647 63.7502 98.9213 63.5941 98.5136C63.182 97.6614 62.3686 97.5695 61.5311 97.4518C60.6936 97.3341 60.3063 96.7594 60.4567 95.8693C60.6936 94.6372 61.267 93.4947 62.1133 92.5685C63.7035 90.7815 66.4552 89.5712 68.787 90.4753C69.1288 90.5607 69.4491 90.7167 69.7271 90.9333C70.0051 91.1498 70.2347 91.4222 70.4012 91.7328C70.5303 92.3932 70.4765 93.0763 70.2455 93.7084C70.0544 94.412 69.9801 95.1423 70.0257 95.87C70.0479 96.2044 70.1385 96.5307 70.2919 96.8286C70.411 97.048 70.7993 97.7033 71.0801 97.7497C71.9841 97.3732 72.7913 96.7972 73.4411 96.0646C74.0164 95.2128 74.5444 94.33 75.0229 93.4203C75.4288 92.6328 75.9398 91.9042 76.5418 91.2541C76.8752 90.9598 77.2635 90.7343 77.6844 90.5904C78.1052 90.4466 78.5503 90.3872 78.9941 90.4158C79.4533 90.4741 79.8786 90.6754 80.3472 90.736C80.783 90.8035 81.2264 90.8067 81.6631 90.7456C82.5521 90.5552 83.376 90.1364 84.0537 89.5304C84.6958 89.0283 85.4128 88.2521 86.2304 88.1136C86.7064 88.0392 87.1898 88.0252 87.6692 88.0718C88.1401 88.1228 88.624 88.0764 89.0809 88.1443C89.5195 88.2812 89.9739 88.3617 90.4329 88.3838C90.9862 88.425 91.5414 88.4354 92.0959 88.4151C92.9393 88.2373 93.7238 87.8482 94.3759 87.2844C94.7322 86.9971 95.0232 86.6372 95.2295 86.2287C95.3531 85.7772 95.4387 85.3161 95.4853 84.8503C95.5643 84.5168 95.7974 84.1695 96.2117 84.2474C96.6259 84.3253 96.8331 84.9379 96.9683 85.3019C97.1994 86.1113 97.1248 86.9791 97.3889 87.7762C97.4723 87.9914 97.5986 88.1873 97.7604 88.3519C97.9222 88.5165 98.1159 88.6463 98.3296 88.7333C98.7477 89.0895 99.2766 89.2894 99.8259 89.2988C100.073 89.2445 100.305 89.1331 100.501 88.9735C100.698 88.8139 100.855 88.6106 100.959 88.3796C101.132 87.9879 101.098 87.4968 101.397 87.1652C101.697 86.8337 102.187 86.8489 102.519 86.6761C102.954 86.4967 103.344 86.2252 103.664 85.8803C104.065 85.4805 104.343 84.9731 104.462 84.4191C104.463 84.2052 104.453 83.9913 104.433 83.7783C104.45 83.4501 104.493 83.1239 104.563 82.8028C104.616 82.282 104.526 81.7274 104.538 81.2071C104.551 80.6868 104.591 80.1329 104.566 79.6036C104.479 78.5486 104.517 77.487 104.68 76.441C104.77 75.9349 104.908 75.4385 105.091 74.9586C105.246 74.5624 105.575 73.7246 105.344 73.338C105.706 73.4237 105.2 72.841 105.112 72.7899C105.023 72.7387 104.188 72.4405 104.195 72.4119C103.889 71.1119 104.735 69.6619 103.648 68.5593C102.56 67.4567 100.764 67.7359 99.4276 68.0234C97.8893 68.4658 96.391 69.0368 94.9484 69.7304C94.4615 69.917 93.6748 70.4352 93.3419 69.8432C93.231 69.5443 93.211 69.2192 93.2844 68.9089C93.3578 68.5986 93.5215 68.317 93.7546 68.0995C94.2334 67.4528 94.8427 66.9141 95.5431 66.5182C96.2436 66.1223 97.0194 65.8782 97.8203 65.8016C99.3819 65.7083 100.94 66.0972 102.502 66.004C103.828 65.9255 105.615 65.2214 106.037 63.822C106.531 62.2886 104.874 61.2525 103.95 60.3094C103.026 59.3662 102.133 58.2493 102.616 56.975C103.094 56.0416 103.679 55.167 104.36 54.369C104.713 53.9318 104.945 53.4094 105.032 52.8542C105.119 52.2991 105.059 51.7307 104.857 51.2063C104.583 50.7222 104.193 50.3132 103.723 50.0158C103.253 49.7185 102.716 49.5418 102.161 49.5017C99.9792 49.2757 97.7744 49.5487 95.7134 50.3C93.6105 51.1386 91.5767 52.141 89.6307 53.2978C89.0668 53.5971 88.6143 54.0635 88.074 54.3482C87.5337 54.6329 87.0809 54.8879 86.5978 55.1862C85.5467 55.843 84.4561 56.3697 83.3614 56.9559C81.3326 58.0454 79.2737 59.0071 77.2112 60.0685C76.1566 60.6458 75.0601 61.1431 73.931 61.5562C73.3965 61.8009 72.8879 62.0985 72.4126 62.4445C71.8914 62.7337 71.3802 63.0655 70.8371 63.3194C69.0093 64.2468 67.484 65.6766 66.4405 67.4407C65.1768 69.5063 64.7459 71.8796 63.6257 74.0194C63.3705 74.5023 63.1905 74.9226 62.9694 75.474C62.7484 76.0255 62.2103 76.3006 61.8586 76.8513C61.6067 77.3408 61.2544 77.7717 60.8248 78.1159C60.3315 78.5083 59.8722 78.9415 59.4516 79.411C58.6747 80.235 57.8519 81.0144 56.9872 81.7458C56.1937 82.4587 55.5202 83.2948 54.9924 84.2219C54.4918 85.1897 54.1077 86.2134 53.848 87.2716C53.5383 88.2838 53.437 89.3484 53.5501 90.4009C53.6546 91.5325 53.4214 92.8156 53.8506 93.8932C54.0502 94.421 54.153 94.9805 54.154 95.5448C54.2195 96.1648 54.3441 96.7772 54.5261 97.3736C54.6797 97.9147 54.8016 98.4644 54.8912 99.0197C54.961 99.6601 54.9282 100.266 54.9599 100.897C55.0877 102.026 55.1147 103.164 55.0407 104.298C54.9608 104.933 55.182 105.528 55.152 106.165C55.0986 106.739 55.0797 107.316 55.0954 107.893C55.1153 109.086 55.2344 110.275 55.4512 111.448C55.7284 112.452 56.0969 113.429 56.5519 114.365C57.0473 115.418 57.7272 116.414 58.1328 117.507C58.3122 117.982 58.4752 118.483 58.6215 118.971C58.7678 119.458 58.7323 120.416 59.2992 120.359C59.2083 121.014 59.1595 121.675 59.1531 122.337C58.9925 123.016 58.7843 123.682 58.5298 124.332C58.0594 125.64 57.1895 126.722 56.9292 128.119C56.7623 128.824 56.4951 129.486 56.433 130.215C56.3767 130.852 56.3665 131.492 56.4025 132.13C56.5004 133.501 56.6817 134.864 56.9455 136.213C57.0707 136.917 57.5128 137.515 57.6807 138.208C57.8281 138.816 58.0238 139.411 58.2659 139.987C58.5426 140.646 58.9752 141.242 59.2659 141.884C59.5566 142.526 59.895 143.18 60.193 143.834C60.8062 145.197 61.3298 146.599 61.9313 147.969C62.2552 148.632 62.4984 149.331 62.6557 150.052C62.7591 150.72 62.8176 151.408 62.9098 152.125C63.1586 153.762 63.2952 155.415 63.3187 157.071C63.3294 157.919 63.5178 158.739 63.4691 159.582C63.4548 160.356 63.5355 161.129 63.7094 161.883C62.6669 160.761 61.575 159.677 60.6077 158.492C59.6404 157.308 58.9023 156.217 58.0095 155.1C57.1167 153.983 56.3101 152.545 55.4511 151.285C54.5921 150.025 53.9393 148.915 53.2916 147.655C51.8834 145.014 50.618 142.299 49.5009 139.523C48.9303 138.15 48.5374 136.749 48.0778 135.332C47.6182 133.915 47.2803 132.537 46.8543 131.148C46.4611 129.656 46.1472 128.144 45.9138 126.619C45.6326 125.214 45.4483 123.782 45.2522 122.357C45.0562 120.932 45.0414 119.379 44.8589 117.897C44.6764 116.415 44.897 114.887 44.8374 113.354C44.7777 111.82 44.9668 110.426 45.041 108.964C45.1153 107.503 45.3616 106.122 45.5479 104.697C45.7342 103.272 46.1063 101.7 46.4368 100.219C46.7673 98.7371 47.0886 97.4648 47.4156 96.0831C47.7426 94.7015 48.4292 93.2037 48.8813 91.7611C49.3334 90.3185 50.05 88.9486 50.6165 87.5331C51.183 86.1176 51.7502 84.9538 52.3776 83.6634C52.7273 82.9512 53.2209 82.3536 53.5779 81.6533C53.8495 80.9833 54.1868 80.3418 54.5846 79.7382C55.5028 78.5367 56.1982 77.1718 57.0711 75.9496C57.944 74.7273 58.8234 73.6475 59.7018 72.487C60.5803 71.3264 61.7092 70.2553 62.642 69.0774C63.1282 68.5121 63.6567 67.9846 64.2229 67.4995C64.7933 66.9603 65.2724 66.3392 65.85 65.8118C66.9087 64.8247 68.001 63.8657 69.0861 62.8949C69.6637 62.3675 70.3096 61.977 70.9399 61.4822C71.4822 60.9669 72.0647 60.4957 72.6821 60.0732C73.9557 59.3685 75.1065 58.3327 76.3029 57.5292C77.4993 56.7256 78.8311 56.1151 80.0762 55.4035C80.7434 55.008 81.4547 54.7236 82.1432 54.323C82.7543 53.9243 83.3983 53.5785 84.0682 53.2894C84.7249 53.0511 85.3601 52.7571 85.9667 52.4105C86.6862 52.0528 87.4309 51.7482 88.1949 51.499C91.2011 50.3207 94.2919 49.3704 97.4408 48.6562L100.901 47.8954C101.885 47.6645 102.881 47.4871 103.885 47.3639C105.054 47.228 106.232 47.0137 107.404 46.9087C108.575 46.8037 109.709 46.8204 110.859 46.7204C111.419 46.692 111.972 46.6114 112.53 46.5925C113.088 46.5736 113.711 46.6608 114.307 46.6509C114.903 46.641 115.434 46.5655 115.99 46.5965C116.546 46.6275 117.204 46.7831 117.819 46.7777C118.434 46.7724 119.139 46.7683 119.821 46.8191C121.364 46.9327 122.872 47.2795 124.397 47.5097C125.923 47.7398 127.326 47.8908 128.76 48.2101C130.193 48.5293 131.596 48.9819 132.951 49.333C133.561 49.4773 134.162 49.6194 134.771 49.7637C135.896 50.0298 136.97 50.4652 138.106 50.7241C138.611 50.8436 139.116 50.9631 139.599 51.1779C140.081 51.3927 140.506 51.594 140.9 51.7173C140.666 51.9722 140.485 52.2718 140.369 52.598C140.227 52.8083 140.127 53.0443 140.074 53.2929C139.963 53.5484 140.194 54.106 140.249 54.3404C140.304 54.5749 140.379 55.0252 140.471 55.3993C140.678 56.1847 140.994 56.9371 141.411 57.6342C142.284 59.0483 143.853 59.7316 145.091 60.7491C146.33 61.7667 147.739 62.5731 149.003 63.5666C150.194 64.4964 151.232 65.6078 152.077 66.8601C152.935 68.1956 153.381 69.7532 153.361 71.3399C152.761 70.8683 152.047 70.5638 151.291 70.4574C150.535 70.3509 149.765 70.4463 149.057 70.7338C148.278 71.0434 147.571 71.5112 146.981 72.1077C146.391 72.7041 145.932 73.4163 145.631 74.1993C145.038 75.7182 144.769 77.3446 144.843 78.9736C144.779 79.796 144.931 80.6209 145.284 81.3664C145.637 82.1118 146.179 82.752 146.856 83.2233C147.24 83.4582 147.68 83.5869 148.131 83.5962C148.581 83.6056 149.026 83.4953 149.419 83.2766C149.992 82.9393 150.711 81.7712 151.469 81.9707C152.227 82.1702 152.235 83.4098 152.3 84.0289C152.459 84.8046 152.535 85.595 152.527 86.3868C152.506 86.7919 152.391 87.1865 152.19 87.539C151.99 87.8916 151.71 88.1925 151.372 88.4178C150.729 88.747 150.045 88.9911 149.339 89.144C148.557 89.3386 147.854 89.7696 147.326 90.3782C146.894 91.0114 146.557 91.7046 146.326 92.4357C146.105 93.2465 145.673 93.9844 145.075 94.5747C144.334 95.154 143.332 95.3495 142.718 96.0294C142.405 96.4023 142.188 96.8474 142.089 97.3246C141.991 97.8018 142.012 98.2961 142.152 98.763C142.465 99.6158 142.629 100.516 142.639 101.424C142.382 102.168 141.499 101.989 140.947 101.899C140.252 101.735 139.526 101.761 138.846 101.975C138.205 102.251 137.645 102.685 137.22 103.238C136.795 103.791 136.519 104.444 136.418 105.134C136.275 105.772 136.322 106.438 136.552 107.051C136.782 107.663 137.187 108.195 137.715 108.58C138.943 109.265 140.355 109.546 141.751 109.385C142.42 109.376 143.087 109.316 143.746 109.203C144.399 109.038 144.965 108.633 145.333 108.069C146.121 106.909 146.69 105.615 147.011 104.25C147.493 102.972 148.383 101.888 149.542 101.166C150.568 100.403 151.958 99.4639 152.884 100.951C153.611 102.129 153.402 103.609 153.911 104.857C154.071 105.263 154.32 105.629 154.639 105.928C154.959 106.226 155.34 106.449 155.757 106.582C156.211 106.738 156.703 106.745 157.161 106.602C157.293 106.553 157.99 106.245 157.895 106.051C157.723 104.27 156.666 102.742 156.456 100.951C157.27 100.843 158.096 101.041 158.772 101.508C159.448 101.975 159.927 102.677 160.114 103.477C160.401 104.39 160.657 105.437 161.637 105.8C162.118 105.931 162.626 105.928 163.105 105.791C163.584 105.655 164.017 105.39 164.356 105.025C165.661 103.764 165.362 101.711 165.529 100.07C165.619 98.3324 166.333 96.6861 167.542 95.4346C167.884 95.0591 168.328 94.7903 168.819 94.6603C169.31 94.5303 169.828 94.5446 170.311 94.7015C170.725 94.9162 171.038 95.2842 171.183 95.7267C171.328 96.1692 171.295 96.6511 171.089 97.0691C170.196 98.7595 168.016 100.276 168.494 102.422C168.717 103.481 169.56 104.042 170.231 104.775C170.78 105.408 171.161 106.17 171.338 106.989C171.529 107.824 171.435 108.699 171.069 109.474C170.703 110.249 170.087 110.878 169.32 111.261C168.541 111.679 167.663 111.878 166.779 111.837C165.871 111.673 164.934 111.804 164.105 112.21C163.287 112.691 162.691 113.294 161.702 113.392C160.809 113.453 159.919 113.242 159.148 112.788C157.556 111.948 156.231 110.658 154.692 109.721C153.94 109.241 153.06 109.001 152.168 109.033C151.217 109.099 150.455 109.724 149.555 109.954C149.082 110.083 148.685 109.889 148.213 109.928C147.746 109.988 147.295 110.141 146.889 110.379C146.105 110.799 145.366 111.299 144.685 111.87C143.282 113.046 141.998 114.357 140.851 115.782C139.176 117.774 137.796 119.996 136.753 122.379C135.78 124.811 135.269 127.403 135.246 130.022C135.226 131.671 135.44 133.314 135.883 134.902C136.475 137.231 137.8 139.309 139.662 140.828C140.144 141.213 140.659 141.554 141.202 141.846C142.214 142.287 143.26 142.646 144.329 142.919C145.606 143.424 146.916 143.841 148.25 144.168C149.461 144.405 150.761 144.441 151.946 144.792C152.186 144.841 152.413 144.942 152.611 145.087C152.809 145.232 152.974 145.418 153.093 145.633C153.212 145.847 153.284 146.085 153.303 146.33C153.321 146.575 153.287 146.821 153.202 147.051C152.9 148.328 151.938 149.247 151.33 150.371C151.003 150.89 150.798 151.476 150.729 152.085C150.659 152.694 150.728 153.31 150.93 153.889C151.352 154.995 152.22 155.835 152.671 156.907C153.683 159.26 152.148 162.006 151.22 164.141C150.731 165.358 150.316 166.604 149.975 167.871C149.517 168.996 149.236 170.186 149.141 171.397C149.111 171.951 149.24 172.503 149.512 172.988C149.784 173.473 150.187 173.87 150.676 174.135C150.485 174.261 150.385 174.388 150.412 174.485C149.955 174.799 149.551 174.935 149.169 175.146Z" fill="#0181BF"/>
<path d="M140.17 84.3069C137.946 84.2636 134.659 82.8919 135.358 86.3981C136.058 89.9044 135.704 93.4429 137.441 94.2666C139.178 95.0902 140.973 91.8424 140.973 91.8424L140.17 84.3069Z" fill="#0181BF"/>
<path d="M130.9 75.1399C127.069 74.9577 124.772 76.2857 125.376 78.2399C125.98 80.1941 131.279 81.3577 132.484 78.7751C133.689 76.1925 130.9 75.1399 130.9 75.1399Z" fill="#0181BF"/>
<path d="M106.104 63.8375C105.667 65.2134 103.881 65.9175 102.569 66.0195C101.007 66.1128 99.4489 65.7239 97.8873 65.8171C97.0864 65.8937 96.3106 66.1379 95.6101 66.5338C94.9097 66.9296 94.3003 67.4684 93.8216 68.1151C93.5885 68.3325 93.4248 68.6142 93.3514 68.9245C93.278 69.2348 93.298 69.5598 93.4089 69.8588C93.7395 70.4603 94.5285 69.9326 95.0154 69.746C96.458 69.0524 97.9564 68.4814 99.4947 68.039C100.831 67.7514 102.642 67.4959 103.715 68.5749C104.788 69.6539 103.956 71.1274 104.262 72.4275C104.262 72.4275 104.906 72.6806 105.183 72.7864C106.454 72.8155 107.978 72.2002 109.673 70.2266C114.486 64.6441 112.075 60.0787 112.075 60.0787C108.207 59.9683 109.248 60.4159 107.693 62.1408C107.249 62.6536 106.755 63.1198 106.216 63.5321C106.191 63.6381 106.154 63.7407 106.104 63.8375Z" fill="#0181BF"/>
<path d="M128.531 60.23C128.531 60.23 121.939 55.8122 116.954 57.49C111.968 59.1677 117.346 61.316 116.12 64.7087C114.895 68.1014 109.716 71.9571 111.092 74.8587C112.468 77.7604 113.913 81.2216 116.437 77.0597C118.962 72.8977 119.398 71.8639 121.04 71.5582C122.682 71.2525 127.38 69.5974 127.38 69.5974L128.531 60.23Z" fill="#0181BF"/>
<path d="M63.8162 161.858C63.6424 161.104 63.5617 160.331 63.5759 159.557C63.6247 158.713 63.4362 157.894 63.4256 157.046C63.402 155.39 63.2654 153.737 63.0166 152.099C62.9132 151.431 62.8547 150.743 62.7625 150.027C62.6053 149.306 62.362 148.606 62.0381 147.943C61.4366 146.573 60.9131 145.172 60.2998 143.809C60.0018 143.155 59.692 142.508 59.3728 141.859C59.0535 141.21 58.659 140.623 58.3728 139.962C58.1307 139.385 57.935 138.791 57.7875 138.183C57.6196 137.489 57.1775 136.892 57.0523 136.188C56.7885 134.839 56.6072 133.476 56.5093 132.105C56.4733 131.467 56.4835 130.827 56.5398 130.19C56.6114 129.463 56.8691 128.799 57.036 128.094C57.2963 126.697 58.1662 125.614 58.6366 124.307C58.8911 123.657 59.0994 122.99 59.2599 122.311C59.2664 121.65 59.3152 120.989 59.4061 120.333C58.8201 120.386 58.8304 119.322 58.7283 118.945C58.6262 118.569 58.419 117.956 58.2396 117.481C57.8363 116.38 57.1541 115.393 56.6587 114.34C56.2037 113.403 55.8352 112.427 55.558 111.423C55.3412 110.25 55.2221 109.06 55.2022 107.867C55.1865 107.291 55.2054 106.714 55.2589 106.14C55.2889 105.503 55.0676 104.907 55.1475 104.272C55.2215 103.139 55.1945 102.001 55.0667 100.872C55.035 100.241 55.0678 99.6348 54.998 98.9944C54.9085 98.4391 54.7866 97.8895 54.6329 97.3483C54.4509 96.752 54.3263 96.1396 54.2608 95.5195C54.2598 94.9552 54.157 94.3957 53.9574 93.8679C53.5349 92.7617 53.7614 91.5072 53.6569 90.3756C53.5438 89.3231 53.6451 88.2586 53.9548 87.2463C54.2145 86.1881 54.5986 85.1644 55.0993 84.1966C55.627 83.2695 56.3005 82.4335 57.094 81.7205C57.9588 80.9892 58.7815 80.2097 59.5585 79.3857C59.979 78.9163 60.4383 78.4831 60.9316 78.0907C61.3612 77.7465 61.7135 77.3155 61.9654 76.826C62.3059 76.323 62.8294 76.0243 63.0763 75.4488C63.3232 74.8733 63.4773 74.4771 63.7325 73.9941C64.8527 71.8544 65.2836 69.481 66.5473 67.4155C67.5909 65.6513 69.1161 64.2216 70.9439 63.2941C71.487 63.0403 71.9982 62.7085 72.5195 62.4193C72.9947 62.0733 73.5033 61.7757 74.0378 61.5309C75.1669 61.1178 76.2634 60.6205 77.318 60.0433C79.3737 59.0104 81.4439 58.0011 83.4683 56.9306C84.5629 56.3445 85.6535 55.8177 86.7046 55.1609C87.1877 54.8627 87.6927 54.5998 88.1808 54.3229C88.669 54.046 89.1781 53.5527 89.7375 53.2726C91.4386 52.3014 93.1889 51.4192 94.9816 50.6297L91.1748 50.4733C90.1769 50.8208 89.1863 51.18 88.2125 51.5532C87.4485 51.8024 86.7038 52.1071 85.9843 52.4648C85.3777 52.8113 84.7425 53.1054 84.0858 53.3437C83.4158 53.6328 82.7718 53.9786 82.1608 54.3773C81.4768 54.7588 80.7632 55.0527 80.0938 55.4578C78.8487 56.1693 77.5369 56.8651 76.3205 57.5834C75.104 58.3017 73.956 59.3683 72.6996 60.1275C72.0823 60.55 71.4997 61.0211 70.9575 61.5364C70.3557 62.038 69.6813 62.4217 69.1037 62.9491L68.1618 63.7827C65.4944 67.3575 61.5809 72.4988 58.7919 75.6523C54.2144 80.8779 47.8219 95.1326 46.6064 108.771C46.1621 115.839 46.1648 122.927 46.6144 129.994C46.6994 130.359 46.8022 130.719 46.9225 131.074C47.3485 132.462 47.6892 133.871 48.146 135.257C48.6029 136.643 48.9985 138.075 49.5691 139.448C50.6863 142.224 51.9516 144.939 53.3598 147.58C54.0691 148.834 54.7874 150.051 55.5193 151.21C56.2511 152.37 57.1317 153.836 58.0777 155.026C59.0237 156.216 59.7713 157.308 60.6759 158.418C61.5805 159.527 62.7737 160.736 63.8162 161.858Z" fill="#0181BF"/>
<path d="M182.763 129.677C182.401 130.527 182.343 131.449 182.008 132.316C181.664 133.129 181.375 133.965 181.144 134.818C180.898 135.645 180.704 136.465 180.41 137.28C180.116 138.096 179.71 139.006 179.419 139.894C178.884 141.558 178.269 143.224 177.65 144.858C177.335 145.679 176.906 146.473 176.555 147.276C176.204 148.078 175.898 149.032 175.445 149.84C174.978 150.613 174.551 151.408 174.166 152.224C174.004 152.568 173.926 152.942 173.764 153.286C173.541 153.688 173.288 154.072 173.009 154.436C171.957 155.948 171.302 157.695 170.046 159.088C168.791 160.481 167.948 161.831 166.664 163.006C165.983 163.63 165.496 164.411 164.763 165.002C164.029 165.593 163.467 166.224 162.766 166.803C159.807 169.448 156.453 171.615 152.824 173.225C152.539 173.157 152.279 173.317 152.034 173.46C149.599 172.441 150.888 169.164 151.482 167.292C152.249 164.857 153.424 162.529 154.01 160.052C154.309 158.912 154.219 157.704 153.756 156.621C153.286 155.503 152.378 154.705 151.908 153.628C151.723 153.145 151.669 152.622 151.751 152.111C151.833 151.6 152.048 151.12 152.375 150.72C153.156 149.742 153.759 148.635 154.156 147.448C154.343 146.929 154.37 146.365 154.233 145.83C154.096 145.295 153.801 144.814 153.386 144.449C152.449 143.734 151.1 143.777 149.982 143.572C147.844 143.095 145.734 142.498 143.663 141.785C141.825 141.313 140.168 140.304 138.905 138.888C138.241 138.075 137.703 137.168 137.308 136.196C136.302 133.749 135.925 131.089 136.211 128.46C136.393 126.133 137.023 123.863 138.065 121.774C139.265 119.586 140.677 117.52 142.281 115.608C143.38 114.291 144.62 113.1 145.98 112.056C146.603 111.468 147.364 111.046 148.192 110.829C148.451 110.843 148.709 110.877 148.963 110.931C149.413 110.926 149.857 110.83 150.268 110.646C151.088 110.327 151.745 109.889 152.646 110.082C153.49 110.292 154.287 110.662 154.994 111.171C156.482 112.197 157.762 113.506 159.475 114.173C160.297 114.512 161.193 114.627 162.073 114.506C163.123 114.322 163.748 113.595 164.649 113.104C165.388 112.819 166.193 112.751 166.969 112.908C167.84 112.993 168.718 112.854 169.52 112.506C170.279 112.148 170.942 111.614 171.453 110.948C171.964 110.282 172.309 109.503 172.458 108.677C172.607 107.851 172.557 107.001 172.311 106.198C172.065 105.396 171.631 104.663 171.045 104.062C170.489 103.478 169.694 102.927 169.597 102.059C169.297 101.203 170.629 99.8279 171.048 99.2028C171.817 98.2874 172.308 97.1712 172.464 95.9858C172.389 95.5236 172.21 95.0845 171.941 94.7017C171.671 94.3189 171.318 94.0026 170.908 93.7765C170.498 93.5505 170.042 93.4208 169.574 93.3973C169.107 93.3737 168.64 93.4569 168.209 93.6405C166.33 94.3529 165.258 96.2023 164.695 98.031C164.404 98.9896 164.237 99.9814 164.197 100.982C164.235 101.887 164.12 102.792 163.856 103.659C163.567 104.325 162.55 105.221 161.853 104.553C161.564 104.157 161.373 103.698 161.295 103.213C161.141 102.719 160.912 102.251 160.617 101.825C159.975 100.952 159.075 100.302 158.045 99.9665C157.015 99.6307 155.905 99.6257 154.872 99.9525C155.327 101.785 155.91 103.584 156.616 105.336C156.621 105.699 155.844 105.495 155.698 105.39C155.379 105.142 155.137 104.81 154.999 104.43C154.784 103.848 154.636 103.242 154.561 102.626C154.308 101.228 153.789 99.5956 152.293 99.0705C150.798 98.5454 149.695 99.4618 148.675 100.287C147.438 101.117 146.464 102.283 145.867 103.647C145.566 105.037 145.01 106.358 144.23 107.546C143.465 108.482 141.847 108.26 140.743 108.25C139.441 108.224 137.522 107.911 137.275 106.363C137.216 105.697 137.34 105.028 137.633 104.427C137.926 103.827 138.377 103.317 138.937 102.953C139.63 102.664 140.387 103.035 141.091 103.121C141.457 103.187 141.834 103.164 142.19 103.054C142.545 102.944 142.869 102.749 143.133 102.487C144.237 101.309 143.19 99.6529 143.029 98.3368C142.956 98.0296 142.966 97.7085 143.059 97.4067C143.151 97.1049 143.323 96.8334 143.556 96.6201C144.118 96.1998 144.842 95.9888 145.436 95.6061C146.628 94.8216 147.035 93.5695 147.525 92.307C147.705 91.6691 148.068 91.0976 148.568 90.6622C149.18 90.3177 149.839 90.0668 150.525 89.918C151.271 89.7641 151.956 89.3961 152.496 88.8591C153.036 88.322 153.407 87.6393 153.565 86.8943C153.895 85.1611 153.153 79.2399 150.218 81.1816C149.646 81.5593 149.198 82.2181 148.514 82.3882C148.179 82.4691 147.829 82.4603 147.499 82.3627C147.169 82.2651 146.87 82.0822 146.633 81.8324C145.851 80.8827 145.748 79.1075 145.75 77.9104C145.749 75.0224 146.855 72.1347 149.931 71.3835C150.661 71.2194 151.421 71.2368 152.143 71.434C152.773 71.7546 153.353 72.1631 153.868 72.6473L153.882 72.5902L154.074 72.5854C154.194 72.5031 154.209 72.0137 154.241 71.8803C154.28 71.4902 154.299 71.0983 154.297 70.7063C154.27 69.8157 154.059 68.9403 153.678 68.1348C153.052 66.5548 152.136 65.1059 150.976 63.8628C149.875 62.681 148.674 61.5957 147.387 60.6185C146.09 59.6373 144.601 58.8723 143.362 57.8143C142.052 56.6496 141.141 55.1036 140.756 53.3939C140.804 53.2113 140.895 53.043 141.023 52.9037C142.786 51.8317 144.762 52.5811 146.491 53.3526C148.415 54.3076 150.259 55.417 152.005 56.6701C152.902 57.2451 153.76 57.8786 154.575 58.5663C155.412 59.2778 156.346 59.8812 157.163 60.6381C157.98 61.3949 158.843 62.042 159.67 62.8011C160.064 63.1761 160.503 63.5316 160.871 63.8904C164.476 67.019 167.812 70.444 170.845 74.1296C172.524 76.2175 174.054 78.381 175.602 80.5584C176.51 81.7796 177.356 83.0967 178.137 84.4287C178.919 85.7608 179.511 87.1285 180.122 88.5007C181.459 91.2202 182.434 94.1032 183.023 97.0761C183.369 98.527 183.387 100.037 183.073 101.495C183.001 101.826 182.857 102.136 182.651 102.404C182.445 102.671 182.182 102.89 181.882 103.045C181.096 103.432 180.217 103.657 180.045 104.683C179.754 106.506 181.949 106.884 183.021 107.712C184.155 108.564 184.911 109.826 185.127 111.229C185.314 112.712 185.191 114.218 184.764 115.651C184.268 117.081 183.663 118.472 182.955 119.811C182.682 120.41 182.388 121.397 181.605 121.262C180.748 120.929 180.223 119.788 179.814 119.007C179.347 117.967 178.628 117.061 177.722 116.369C177.346 116.165 176.916 116.081 176.491 116.128C176.23 116.165 175.98 116.261 175.761 116.408L175.601 116.571C175.894 119.226 176.429 121.848 177.198 124.405C177.515 125.544 178.109 126.586 178.925 127.44C179.334 127.871 179.896 128.123 180.49 128.143C181.1 128.156 181.729 127.711 182.319 127.811C182.909 127.91 182.986 128.693 182.911 129.179C182.887 129.204 182.858 129.225 182.826 129.239C182.826 129.239 182.815 129.287 182.887 129.324C182.856 129.445 182.814 129.563 182.763 129.677Z" fill="#01567F"/>
<path d="M114.414 64.6071C114.464 64.3444 114.49 64.0778 114.492 63.8104C114.468 63.5732 114.389 63.3937 114.351 63.1733C114.391 63.1112 114.408 63.0372 114.401 62.9637C114.386 62.8938 114.347 62.8312 114.291 62.7869C114.253 62.6519 114.225 62.5141 114.208 62.3747C114.18 62.1157 114.125 61.8602 114.046 61.612C113.994 61.3009 113.873 61.0053 113.692 60.7467C113.512 60.4881 113.276 60.273 113.001 60.117C112.664 60.0069 112.304 59.9844 111.956 60.0515C111.607 60.1186 111.281 60.2732 111.009 60.5007C110.741 60.6645 110.504 60.8741 110.309 61.1199C110.22 61.2397 110.077 61.3769 109.986 61.5063C109.895 61.6357 109.936 61.7159 109.912 61.8207C109.887 61.9256 109.785 61.9316 109.731 61.9893C109.612 62.1926 109.62 62.4562 109.442 62.6555C109.241 62.9286 109.082 63.23 108.969 63.5498C108.94 63.8202 108.877 64.0859 108.782 64.3406C108.662 64.5191 108.569 64.7138 108.504 64.9189C108.321 65.4628 108.309 66.0496 108.468 66.6009C108.323 66.8134 108.146 67.0022 107.943 67.1608C107.748 67.3194 107.568 67.4958 107.406 67.6877C107.188 67.928 107.016 68.018 106.937 68.3515C106.864 68.634 106.836 68.926 106.853 69.2171C106.942 69.7519 107.17 70.2537 107.515 70.6718C107.91 71.0566 108.427 71.2926 108.977 71.3398C111.083 71.8382 112.88 69.7279 113.545 68.0238C113.985 66.9284 114.277 65.7795 114.414 64.6071Z" fill="#001647"/>
<path d="M112.918 65.5311C112.709 66.759 112.227 67.9243 111.507 68.9404C111.349 69.1956 111.161 69.4315 110.948 69.6433C110.864 69.7037 110.777 69.6027 110.683 69.7012C110.589 69.7998 110.629 69.9299 110.447 70.0177C110.007 70.1924 109.529 70.2491 109.06 70.1824C108.858 70.1882 108.658 70.161 108.465 70.102C108.332 70.0704 108.267 69.8741 108.167 69.7899L107.889 69.6034C107.889 69.6034 107.871 69.3376 107.866 69.3163C107.861 69.295 107.772 69.2035 107.767 69.1418C107.792 69.0541 107.814 68.965 107.83 68.875C107.864 68.7321 107.758 68.6669 107.835 68.5139C108.008 68.3192 108.207 68.1496 108.427 68.0101C108.652 67.822 108.875 67.6031 109.082 67.4105C109.288 67.2179 109.907 66.1366 109.727 65.8325C109.75 65.7372 109.772 65.6419 109.795 65.5466C109.832 65.5043 109.858 65.4535 109.871 65.3987C109.884 65.3439 109.884 65.2866 109.869 65.2322C110.014 64.8978 110.126 64.5504 110.205 64.1948C110.357 63.7847 110.542 63.3876 110.758 63.0074C110.937 62.7178 111.097 62.3833 111.298 62.129C111.505 61.8492 111.769 61.6167 112.073 61.4471C112.773 61.1699 112.975 62.5663 113.005 63.0362C113.035 63.5061 113.125 63.8493 113.156 64.2693C113.147 64.7001 113.066 65.1264 112.918 65.5311Z" fill="#01567F"/>
<path d="M129.661 71.4858C130.882 70.5386 131.836 69.2909 132.43 67.8647C132.969 66.4021 133.029 64.8064 132.603 63.3072C132.316 62.294 131.762 61.3765 131 60.6507C130.237 59.925 129.293 59.4176 128.267 59.1816C126.573 58.8091 124.834 58.6925 123.106 58.8356C122.198 58.9326 121.341 58.9813 120.445 59.1517C119.91 59.2463 117.571 59.4776 117.682 60.3692C117.186 60.6344 117.707 61.6229 117.835 62.0156C117.97 62.5629 118.054 63.1216 118.084 63.6845C118.121 64.2376 118.104 64.793 118.034 65.3429C117.969 65.8926 117.842 66.4329 117.653 66.9532C117.598 67.2068 117.5 67.4491 117.363 67.6694C117.188 67.94 117.059 68.2314 116.912 68.5087C116.595 68.986 116.19 69.3988 115.719 69.7255C114.746 70.4865 113.976 71.476 113.477 72.6061C112.845 74.469 113.66 78.8074 116.431 78.0244C117.749 77.6421 118.026 76.3893 118.795 75.4344C119.201 74.9933 119.703 74.6513 120.262 74.4347C120.821 74.2181 121.422 74.1326 122.019 74.185C122.365 74.1663 122.661 74.0652 123.051 74.077C123.404 74.0589 123.754 74.0035 124.096 73.9118C124.757 73.7997 125.411 73.6487 126.055 73.4597C126.721 73.2336 127.371 72.9603 127.999 72.642C128.588 72.3096 129.145 71.9225 129.661 71.4858Z" fill="#001647"/>
<path d="M129.104 70.7805C127.407 72.0313 125.411 72.8119 123.316 73.0431C122.829 73.17 122.33 73.2408 121.827 73.2542C121.232 73.2918 120.642 73.3811 120.063 73.5211C119.468 73.6728 118.916 73.9626 118.453 74.367C117.991 74.7714 117.629 75.279 117.399 75.8488C117.228 76.3365 116.907 76.7572 116.481 77.0503C116.264 77.1965 116.021 77.2995 115.765 77.3538C115.472 77.2763 115.206 77.1193 114.997 76.9003C114.619 76.467 114.338 75.958 114.173 75.4073C114.068 74.7179 114.055 74.0178 114.133 73.3249C114.241 72.7544 114.476 72.2152 114.818 71.7464C114.963 71.5593 115.189 71.4116 115.351 71.2385C115.535 70.9892 115.732 70.7504 115.943 70.5233C116.881 69.8442 117.632 68.9384 118.126 67.8904C118.669 66.743 118.946 65.4875 118.935 64.2179C118.898 63.6056 118.757 62.9685 118.659 62.3617C118.582 61.7408 118.414 61.1346 118.159 60.563C119.008 60.5578 119.848 60.395 120.638 60.083C121.473 59.881 122.327 59.7629 123.186 59.7303C124.64 59.6902 126.094 59.7752 127.534 59.9844C128.389 60.1026 129.199 60.4411 129.884 60.9666C130.57 61.4922 131.107 62.1868 131.443 62.9824C132.066 64.3595 132.119 65.9279 131.588 67.3435C131.091 68.6958 130.232 69.885 129.104 70.7805Z" fill="#01567F"/>
<path d="M133.982 77.5902C134.066 77.106 133.965 76.6079 133.699 76.1949C133.389 75.8031 132.973 75.509 132.5 75.3478C131.983 75.1857 131.441 75.1153 130.899 75.1399C130.472 75.1595 129.535 75.2093 129.218 75.5672C129.025 75.3202 128.776 75.7342 128.661 75.7974C128.563 75.7532 128.453 75.7486 128.352 75.7847C128.352 75.7847 128.352 75.7847 128.334 75.8609C128.316 75.9372 128.334 75.8609 128.334 75.8609C128.334 75.8609 128.298 76.0134 128.282 76.0801C128.266 76.1468 128.114 76.1511 128.051 76.2469C127.982 76.431 127.937 76.6231 127.916 76.8186C127.866 76.8988 127.823 76.9827 127.786 77.0696C127.786 77.0696 127.854 77.1661 127.854 77.2065C127.855 77.2469 127.763 77.2955 127.761 77.3454C127.762 77.5972 127.858 77.6601 127.951 77.9035C127.992 78.0656 128.053 78.2219 128.133 78.3691C128.234 78.5341 128.371 78.6369 128.477 78.7828C128.584 78.9287 128.59 79.0308 128.781 79.1566C128.973 79.2825 129.099 79.3023 129.24 79.386C129.801 79.7211 130.438 79.9069 131.09 79.9257C131.743 79.9446 132.389 79.7957 132.968 79.4935C133.275 79.2785 133.527 78.994 133.703 78.6633C133.879 78.3326 133.975 77.9649 133.982 77.5902Z" fill="#001647"/>
<path d="M133.22 77.792C133.111 78.2148 132.844 78.5801 132.475 78.8131C132.389 78.8915 132.298 78.964 132.202 79.0303C132.202 79.0303 132.088 79.0032 132.05 78.9942C132.012 78.9852 132.018 79.1276 131.907 79.1314C131.795 79.1352 131.426 79.0781 131.196 79.1142C130.965 79.1513 130.728 79.1331 130.504 79.0612L130.401 79.1171L130.335 79.011C130.288 78.9998 130.203 79.0602 130.167 79.0417C130.131 79.0231 130.116 78.9188 130.022 78.8867C129.929 78.8546 129.861 78.9291 129.818 78.8988C129.722 78.8199 129.631 78.7346 129.547 78.6433C129.442 78.6185 129.299 78.5847 129.231 78.4882L129.002 78.2227C129.002 78.2227 129.027 78.1178 128.977 78.0757C128.926 78.0336 128.777 78.0284 128.767 78.0261C128.758 78.0238 128.805 77.8641 128.748 77.8102C128.69 77.7563 128.668 77.721 128.639 77.6335C128.609 77.546 128.682 77.4524 128.682 77.4524C128.682 77.4524 128.704 77.3571 128.777 77.304L128.683 77.1912C128.683 77.1912 128.861 77.0322 128.894 76.9795C128.927 76.9268 128.948 76.7508 128.969 76.6651C129.129 76.788 129.304 76.8903 129.49 76.9696C129.501 76.922 129.424 76.7828 129.432 76.7043C129.435 76.675 129.442 76.6462 129.452 76.6186C129.454 76.5893 129.464 76.561 129.48 76.5366C129.497 76.5122 129.519 76.4925 129.546 76.4797C129.952 76.2065 130.42 76.0392 130.907 75.9928C131.394 75.9465 131.885 76.0226 132.335 76.2142C132.66 76.3092 132.934 76.5277 133.1 76.8226C133.265 77.1176 133.308 77.4656 133.22 77.792Z" fill="#01567F"/>
<path d="M139.215 95.0999C139.79 95.3167 140.42 95.338 141.007 95.1606C141.595 94.9832 142.108 94.6169 142.466 94.1185C143.026 93.0848 143.263 91.9071 143.146 90.7374C143.009 90.1763 142.799 89.6358 142.52 89.1303C142.374 88.6428 142.247 88.2003 142.122 87.7079C142.079 87.5065 141.98 87.332 141.944 87.1425C141.902 86.8459 141.875 86.5474 141.864 86.2481C141.833 85.9449 141.75 85.6493 141.618 85.3748C141.46 85.0997 141.211 84.8879 140.914 84.7756C140.687 84.5887 140.437 84.4315 140.17 84.3076C139.836 84.2287 139.428 84.0818 139.074 84.0483C138.678 84.0157 138.282 84.1044 137.937 84.3024C137.635 84.4725 137.14 84.5666 137.193 85.0219C137.199 85.0855 137.221 85.1466 137.255 85.2003C137.29 85.2539 137.337 85.2986 137.392 85.3306C137.111 85.7362 136.993 86.2331 137.063 86.7217C137.071 87.1563 137.28 87.5479 137.328 87.9819C137.355 88.2096 137.3 88.4383 137.308 88.6614C137.315 88.8846 137.418 89.0899 137.423 89.3226C137.422 89.5311 137.406 89.7392 137.376 89.9455C137.331 90.136 137.394 90.4226 137.349 90.6132C137.254 91.0134 137.153 91.4422 137.051 91.8709C136.889 92.3413 136.825 92.8403 136.866 93.3363C137.088 94.3952 138.291 94.8408 139.215 95.0999Z" fill="#001647"/>
<path d="M138.814 94.0785C138.596 93.9767 138.442 93.9905 138.229 93.8697C138.099 93.7831 137.973 93.6895 137.853 93.5894C137.742 93.4747 137.662 93.3346 137.618 93.1815C137.584 93.0446 137.563 92.905 137.555 92.7643C137.612 92.5544 137.687 92.35 137.78 92.1535C137.841 91.9602 137.888 91.7628 137.92 91.5627C138.059 91.1234 138.166 90.6743 138.238 90.2192C138.256 90.1429 138.144 90.1064 138.145 90.0161C138.147 89.9258 138.197 89.7969 138.231 89.654C138.203 89.4367 138.188 89.2181 138.185 88.9991C138.213 88.5522 138.188 88.1036 138.109 87.6629C138.051 87.267 137.878 86.8535 137.828 86.4694C137.778 86.0853 138.178 85.838 138.053 85.5165C138.358 85.5887 138.39 85.4957 138.647 85.3452C138.885 85.2312 139.155 85.1994 139.413 85.2548C139.888 85.3431 140.33 85.5555 140.696 85.8704C140.819 86.0304 140.781 86.1924 140.807 86.3797C140.833 86.567 140.938 86.9338 141.003 87.2108C141.075 87.6463 141.174 88.0766 141.302 88.4991C141.501 89.0191 141.696 89.5986 141.934 90.0777C142.164 90.464 142.282 90.9065 142.276 91.3559C142.23 91.8481 142.184 92.3403 142.092 92.8118C142.016 93.2583 141.799 93.6688 141.473 93.9833C140.643 94.6421 139.709 94.4211 138.814 94.0785Z" fill="#01567F"/>
<path opacity="0.49" d="M125.197 60.7999C121.701 61.2001 120.19 61.3355 120.166 64.5397C120.143 67.7439 118.641 68.3043 117.344 70.8548C116.046 73.4053 119.626 71.6265 122.732 71.2146C125.838 70.8026 129.812 70.2539 130.176 66.6773C130.539 63.1006 128.475 60.4689 125.197 60.7999Z" fill="#001647"/>
<path opacity="0.49" d="M169.304 123.412C165.696 122.497 157.352 118.641 151.143 122.213C144.935 125.784 138.121 132.211 143.475 136.669C148.83 141.126 154.972 138.474 157.511 141.138C160.05 143.801 156.99 146.74 156.918 151.422C156.847 156.104 158.003 157.978 156.578 163.487C155.154 168.996 161.679 166.636 165.173 162.502C168.667 158.368 172.406 157.452 174.126 149.035C175.847 140.617 174.779 144.49 172.308 137.375C169.836 130.259 176.645 125.3 169.304 123.412Z" fill="#001647"/>
<path opacity="0.49" d="M178.568 130.434C175.86 128.868 173.047 134.843 174.823 139.157C176.6 143.472 182.647 132.758 178.568 130.434Z" fill="#001647"/>
<path opacity="0.49" d="M182.013 108.78C177.981 107.705 177.604 109.679 179.242 113.387C180.88 117.095 180.973 120.106 182.534 117.376C184.096 114.647 184.617 109.467 182.013 108.78Z" fill="#001647"/>
<path opacity="0.49" d="M176.941 84.8894C174.885 80.8207 163.994 66.933 156.214 61.0767C148.433 55.2203 147.399 56.6963 151.339 60.8387C155.279 64.9811 159.962 65.0932 161.194 71.4927C162.427 77.8922 168.481 80.7136 171.646 82.6C174.812 84.4863 174.833 87.6306 176.1 92.4384C177.367 97.2461 179.46 98.0938 180.608 96.6449C181.756 95.1959 178.32 87.6509 176.941 84.8894Z" fill="#001647"/>
<path opacity="0.49" d="M94.8285 54.3367C92.3814 55.0253 81.9887 60.1626 79.6312 61.7479C77.2737 63.3332 81.5605 63.8849 85.4624 61.5986C87.2685 60.6078 89.2881 60.0702 91.3478 60.0319C93.4075 59.9936 95.4456 60.4557 97.2874 61.3786C100.87 62.9913 99.6511 61.0425 99.511 58.4032C99.3709 55.7639 102.681 52.1502 94.8285 54.3367Z" fill="#001647"/>
<path opacity="0.49" d="M72.1809 66.1022C69.802 66.5454 69.2224 74.0958 65.7713 77.6661C62.3201 81.2365 58.5901 82.839 58.5218 85.7208C58.4535 88.6026 64.5918 82.6495 67.8741 81.7058C71.1564 80.762 79.5908 80.625 80.3441 77.4425C81.0973 74.26 74.1507 77.1237 75.0767 72.5734C76.0028 68.023 75.7108 65.388 72.1809 66.1022Z" fill="#001647"/>
<path opacity="0.49" d="M87.6819 145.842C83.0732 144.057 80.168 142.685 78.1242 146.176C76.0804 149.667 76.8669 155.357 80.1111 157.805C83.3554 160.253 83.8493 163.268 87.734 159.609C91.6186 155.95 95.5858 157.342 95.7673 154.024C95.9489 150.706 91.8685 147.497 87.6819 145.842Z" fill="#001647"/>
<path opacity="0.1" d="M132.065 90.1971C127.698 85.3095 116.491 83.7238 109.176 87.1242C101.861 90.5247 100.803 95.5469 94.7052 92.9968C88.6072 90.4467 86.0009 91.5103 81.1662 94.0387C76.3316 96.5672 71.5878 109.34 78.419 119.208C85.2502 129.076 85.5241 133.106 89.2207 137.341C92.9173 141.577 96.6388 143.072 100.931 145.768C105.224 148.464 105.062 156.375 101.626 162.133C98.1907 167.89 111.003 174.595 121.771 166.297C132.54 157.999 137.044 154.315 134.902 145.255C132.76 136.195 128.706 133.555 132.993 125.685C137.281 117.815 140.48 114.799 134.651 111.88C128.821 108.96 132.396 103.085 134.545 100.082C136.695 97.0787 136.577 95.2396 132.065 90.1971Z" fill="#001647"/>
<path d="M149.06 171.488C149.155 170.277 149.437 169.087 149.894 167.962C150.235 166.695 150.65 165.449 151.139 164.232C152.067 162.097 153.602 159.351 152.59 156.998C152.148 155.888 151.273 155.077 150.849 153.98C150.647 153.401 150.578 152.785 150.648 152.176C150.717 151.567 150.922 150.981 151.249 150.462C151.857 149.338 152.809 148.417 153.121 147.142C153.206 146.912 153.241 146.666 153.222 146.421C153.203 146.176 153.131 145.939 153.012 145.724C152.893 145.509 152.728 145.323 152.53 145.178C152.332 145.033 152.105 144.932 151.865 144.883C150.68 144.532 149.381 144.496 148.169 144.26C146.835 143.932 145.525 143.515 144.248 143.01C143.179 142.737 142.133 142.378 141.121 141.937C140.578 141.645 140.063 141.304 139.581 140.919C137.719 139.4 136.394 137.323 135.802 134.993C135.359 133.405 135.145 131.762 135.166 130.113C135.192 128.929 135.303 127.748 135.499 126.58C134.533 128.689 134.087 130.998 134.196 133.315C134.458 140.713 135.933 144.725 141.899 146.599C147.865 148.474 142.77 153.849 146.046 158.116C149.323 162.383 145.44 174.324 132.17 178.056C118.9 181.788 112.631 181.833 98.8092 178.713C84.9875 175.592 80.3142 173.571 84.7949 169.902C88.9494 166.548 96.7818 163.683 97.3286 158.057L97.2203 158.132C96.6361 158.517 95.9887 158.786 95.4141 159.173C94.8395 159.56 94.3215 159.921 93.7973 160.35C93.273 160.78 92.8702 161.419 92.3201 161.872C91.77 162.326 91.3479 162.749 90.8377 163.161C89.8526 164.046 88.5712 164.53 87.247 164.515C85.987 164.321 84.7049 164.32 83.4445 164.511C82.7838 164.666 82.3983 165.36 81.9072 165.777C81.3961 166.166 81.0396 166.723 80.9009 167.35C80.8393 168.038 80.53 168.68 80.0306 169.157C79.5094 169.533 78.8919 169.753 78.2502 169.792C77.2094 169.938 75.294 170.038 74.8707 171.316C75.3243 171.531 75.7465 171.807 76.1255 172.137C77.3826 172.947 78.6824 173.748 79.9771 174.527C80.8645 175.029 81.7768 175.426 82.6597 175.947C83.751 176.608 84.9436 177.011 86.0743 177.59C86.82 177.968 87.6315 178.281 88.3908 178.602C89.1589 178.958 89.9526 179.257 90.7652 179.496C92.0516 179.8 93.2703 180.39 94.491 180.76C95.0913 180.902 95.701 181.046 96.281 181.274C96.861 181.502 97.5596 181.526 98.1868 181.725C99.3508 182.121 100.626 182.302 101.827 182.586C103.027 182.871 104.31 182.893 105.506 183.196C106.702 183.499 108.008 183.426 109.228 183.624C109.562 183.703 109.886 183.609 110.229 183.649C110.571 183.69 110.843 183.734 111.209 183.761C111.836 183.788 112.458 183.795 113.081 183.841C115.59 183.968 118.105 183.924 120.608 183.711C125.62 183.368 130.573 182.426 135.36 180.904C135.937 180.718 136.527 180.571 137.124 180.466C137.739 180.267 138.342 180.033 138.93 179.766C140.132 179.437 141.294 178.977 142.394 178.393C142.955 178.063 143.643 178.004 144.183 177.679C144.723 177.354 145.307 177.18 145.826 176.901C146.964 176.345 148.065 175.69 149.172 175.096C149.551 174.894 149.956 174.759 150.312 174.531C150.332 174.445 150.366 174.302 150.576 174.181C150.098 173.917 149.703 173.525 149.435 173.05C149.167 172.574 149.037 172.033 149.06 171.488Z" fill="#99DEFF"/>
<path d="M144.752 69.0706C141.743 71.8801 143.563 76.2653 142.866 81.2925C142.169 86.3197 151.6 85.5029 149.098 86.3798C146.596 87.2568 146.052 88.9191 144.963 91.0964C143.874 93.2738 140.352 94.4225 141.104 96.8142C141.856 99.2059 140.406 98.742 138.8 101.109C138.513 101.517 138.263 101.949 138.051 102.401C138.286 102.23 138.542 102.091 138.813 101.987C139.494 101.773 140.22 101.747 140.914 101.911C141.495 102.049 142.35 102.18 142.606 101.436C142.597 100.528 142.432 99.6279 142.119 98.7751C141.979 98.3082 141.958 97.8139 142.057 97.3366C142.156 96.8594 142.372 96.4143 142.686 96.0414C143.34 95.361 144.342 95.1656 145.042 94.5867C145.641 93.9964 146.072 93.2585 146.293 92.4477C146.524 91.7166 146.861 91.0234 147.293 90.3902C147.821 89.7816 148.524 89.3506 149.306 89.156C150.013 89.0032 150.696 88.759 151.34 88.4298C151.685 88.207 151.972 87.9058 152.179 87.5507C152.385 87.1956 152.505 86.7967 152.528 86.3866C152.562 85.5828 152.51 84.7776 152.372 83.985C152.307 83.3659 152.279 82.1218 151.54 81.9268C150.802 81.7318 150.063 82.8954 149.491 83.2327C149.097 83.4514 148.652 83.5617 148.202 83.5523C147.751 83.543 147.312 83.4143 146.927 83.1795C146.25 82.7081 145.708 82.068 145.355 81.3225C145.002 80.577 144.85 79.7521 144.914 78.9297C144.84 77.3007 145.109 75.6743 145.702 74.1555C146.003 73.3724 146.463 72.6603 147.052 72.0638C147.642 71.4673 148.349 70.9995 149.129 70.6899C149.836 70.4024 150.606 70.307 151.362 70.4135C152.118 70.5199 152.832 70.8244 153.433 71.296C153.452 69.7093 153.006 68.1517 152.148 66.8163C151.303 65.5639 150.265 64.4525 149.074 63.5227C147.81 62.5292 146.41 61.7251 145.163 60.7053C143.915 59.6854 142.349 59.033 141.482 57.5903C141.066 56.8932 140.749 56.1408 140.542 55.3554C140.441 55.0194 140.382 54.6734 140.32 54.2965C140.258 53.9197 140.039 53.4854 140.145 53.249C140.198 53.0004 140.298 52.7644 140.441 52.5541C140.556 52.2279 140.737 51.9283 140.971 51.6734C140.523 51.5674 140.13 51.2731 139.67 51.134C139.21 50.9949 138.682 50.7997 138.177 50.6802C137.044 50.4118 135.974 49.9574 134.843 49.7198C134.233 49.5755 133.633 49.4334 133.023 49.2891C131.612 48.9553 130.255 48.4831 128.831 48.1662C127.407 47.8492 125.927 47.6802 124.469 47.4658L122.814 47.1849C129.901 50.5325 135.751 55.2779 136.899 56.888C138.78 59.6977 147.762 66.261 144.752 69.0706Z" fill="#99DEFF"/>
<path d="M153.87 104.817C153.36 103.569 153.562 102.078 152.842 100.911C151.943 99.4403 150.527 100.363 149.501 101.126C148.341 101.848 147.452 102.932 146.97 104.21C146.76 104.946 146.512 105.669 146.225 106.378C147.378 105.122 148.377 103.708 149.54 103.299C152.122 102.381 151.817 106.434 153.716 106.914C154.015 107.014 154.338 107.021 154.642 106.933C154.945 106.844 155.214 106.665 155.412 106.42C154.708 106.108 154.154 105.533 153.87 104.817Z" fill="#99DEFF"/>
<path d="M170.192 104.775C169.52 104.043 168.693 103.414 168.455 102.422C167.953 100.291 170.148 98.798 171.05 97.0695C171.255 96.6515 171.289 96.1696 171.143 95.7271C170.998 95.2846 170.685 94.9166 170.272 94.7019C169.789 94.545 169.27 94.5307 168.779 94.6608C168.288 94.7908 167.845 95.0596 167.502 95.435C166.294 96.6865 165.579 98.3329 165.489 100.07C165.313 101.709 165.621 103.764 164.317 105.025C163.977 105.39 163.545 105.655 163.065 105.792C162.586 105.928 162.078 105.931 161.598 105.8C160.588 105.431 160.361 104.391 160.075 103.478C159.887 102.678 159.409 101.976 158.733 101.509C158.056 101.042 157.231 100.843 156.416 100.951C156.471 101.366 156.563 101.775 156.69 102.174C159.728 102.732 158.181 106.249 161.11 108.029C164.375 110.01 166.742 102.983 168.999 105.691C171.256 108.398 169.449 108.977 166.023 109.082C162.597 109.186 162.12 112.183 159.195 110.977C158.069 110.429 156.809 110.218 155.565 110.37C156.687 111.252 157.863 112.065 159.085 112.803C159.856 113.257 160.746 113.468 161.639 113.407C162.666 113.318 163.223 112.705 164.042 112.225C164.871 111.819 165.807 111.688 166.716 111.852C167.599 111.893 168.478 111.694 169.257 111.276C170.024 110.893 170.64 110.264 171.006 109.489C171.372 108.714 171.466 107.839 171.274 107.004C171.107 106.182 170.735 105.415 170.192 104.775Z" fill="#99DEFF"/>
<path d="M68.0177 94.0259C68.5195 96.1571 69.1657 97.6785 70.8923 97.4834C70.694 97.2594 70.5227 97.0128 70.3819 96.7488C70.2285 96.4509 70.1379 96.1247 70.1157 95.7903C70.0701 95.0626 70.1444 94.3323 70.3355 93.6286C70.5665 92.9966 70.6203 92.3134 70.4912 91.653C70.3247 91.3424 70.0951 91.0701 69.8171 90.8535C69.5391 90.637 69.2188 90.481 68.8769 90.3955C66.5406 89.5105 63.7744 90.6972 62.2033 92.4887C61.3569 93.415 60.7835 94.5574 60.5466 95.7895C60.5108 95.9734 60.5035 96.1618 60.5252 96.3479C63.1119 93.539 67.555 91.9844 68.0177 94.0259Z" fill="#0181BF"/>
<path d="M129.73 90.7513C126.175 87.193 118.794 86.4522 116.761 88.9193C114.728 91.3864 134.032 95.1504 129.73 90.7513Z" fill="#0181BF"/>
<path d="M152.862 73.8376C149.36 72.4353 145.3 76.7068 147.786 78.9556C150.273 81.2043 157.34 75.622 152.862 73.8376Z" fill="#99DEFF"/>
<path d="M132.26 113.306C128.912 112.443 123.584 120.671 126.024 124.307C128.463 127.944 136.67 114.44 132.26 113.306Z" fill="#0181BF"/>
<path d="M127.385 105.592C125.022 105.032 124.9 108.867 127.472 109.476C130.045 110.085 129.739 106.149 127.385 105.592Z" fill="#0181BF"/>
<path d="M128.918 148.216C125.425 146.906 121.479 153.499 125.93 155.398C130.381 157.297 132.428 149.5 128.918 148.216Z" fill="#0181BF"/>
<path d="M169.988 114.266C165.206 113.215 163.507 117.331 168.369 119.92C173.23 122.51 175.342 115.453 169.988 114.266Z" fill="#99DEFF"/>
<path d="M159.795 79.151C156.131 78.646 154.442 80.5103 157.635 82.8357C160.828 85.1611 162.348 79.5036 159.795 79.151Z" fill="#99DEFF"/>
<path d="M158.696 136.216C158.854 135.036 156.974 131.673 157.091 130.241C157.208 128.81 160.02 128.62 160.489 127.151C160.957 125.682 160.711 121.62 161.469 120.46C162.226 119.301 167.148 112.407 167.428 111.225C167.708 110.043 160.128 102.403 154.179 98.4999C148.23 94.5965 131.259 83.4857 122.978 81.5259C114.698 79.5662 94.5579 81.843 87.4794 82.7134C80.4008 83.5838 70.2139 86.9586 69.932 88.1497C69.6501 89.3407 70.9523 97.6988 71.1192 99.0766C71.2862 100.454 69.2261 103.972 68.9864 105.495C68.7467 107.018 71.2039 108.455 70.6482 109.782C70.0925 111.11 66.9039 113.273 66.5358 114.403C66.1676 115.534 67.2408 117.589 66.7077 118.821C66.1746 120.053 60.826 126.666 60.6411 127.448C60.4562 128.229 83.2018 158.436 103.641 163.273C124.089 168.113 157.957 151.326 158.147 150.525C158.336 149.725 156.535 141.39 156.59 140.095C156.645 138.799 158.566 137.403 158.696 136.216Z" fill="white" stroke="black" stroke-width="2" stroke-linecap="round" stroke-linejoin="round"/>
<path d="M71.1412 93.6684C67.9105 90.3697 64.4698 87.2832 60.8409 84.4284C56.6325 81.4199 52.6455 80.5366 51.6413 80.5706C52.2158 79.6453 52.9929 78.8624 53.9139 78.281C53.9139 78.281 57.7855 78.6741 62.5651 82.1599C65.6507 84.4946 68.3554 87.2936 70.5831 90.4572L71.1412 93.6684Z" fill="#E7F7FD" stroke="black" stroke-width="1.5" stroke-linecap="round" stroke-linejoin="round"/>
<path d="M64.796 123.028C64.796 123.028 62.9602 120.581 60.7634 120.212C58.5666 119.843 48.7795 121.018 46.2788 120.658C44.8631 120.504 43.553 119.836 42.5976 118.78L43.9752 122.185C43.9752 122.185 46.3196 125.034 48.9919 124.117C51.6642 123.2 58.3839 122.698 59.7416 123.381C61.0992 124.065 62.3367 126.531 62.3367 126.531L64.796 123.028Z" fill="#E7F7FD" stroke="black" stroke-width="1.5" stroke-linecap="round" stroke-linejoin="round"/>
<path d="M163.215 115.46C167.583 113.962 172.042 112.746 176.565 111.818C181.675 111.015 185.635 112.012 186.527 112.495C186.423 111.412 186.08 110.365 185.522 109.43C182.439 108.534 179.184 108.406 176.041 109.057C172.233 109.762 168.558 111.051 165.145 112.878L163.215 115.46Z" fill="#E7F7FD" stroke="black" stroke-width="1.5" stroke-linecap="round" stroke-linejoin="round"/>
<path d="M155.736 144.552C155.736 144.552 158.474 143.187 160.594 143.84C162.713 144.492 170.945 149.932 173.342 150.731C174.68 151.225 176.152 151.216 177.484 150.705L174.716 153.129C174.716 153.129 171.343 154.625 169.375 152.61C167.407 150.594 161.616 147.131 160.087 147.131C158.557 147.131 156.355 148.783 156.355 148.783L155.736 144.552Z" fill="#E7F7FD" stroke="black" stroke-width="1.5" stroke-linecap="round" stroke-linejoin="round"/>
<path d="M66.9785 126.855C67.1477 126.14 71.8387 120.308 72.3026 119.24C72.7666 118.173 71.8102 116.346 72.1541 115.361C72.498 114.376 75.2932 112.472 75.7797 111.309C76.2662 110.146 74.1059 108.9 74.3263 107.544C74.5468 106.187 76.3343 103.099 76.198 101.889C76.0617 100.679 74.9124 93.3336 75.1605 92.2855L74.145 85.9474C71.6931 86.8261 69.9864 87.6598 69.8737 88.1363C69.594 89.3178 70.8939 97.6854 71.0609 99.0632C71.2278 100.441 69.1678 103.958 68.928 105.481C68.6883 107.004 71.1456 108.441 70.5899 109.769C70.0342 111.096 66.8456 113.26 66.4774 114.39C66.1092 115.52 67.1825 117.576 66.6493 118.808C66.1162 120.04 60.7676 126.653 60.5827 127.434C61.4889 129.066 62.5671 130.596 63.7989 131.999L66.9785 126.855Z" fill="white" stroke="black" stroke-linecap="round" stroke-linejoin="round"/>
<path d="M153.205 134.544C153.339 133.509 151.694 130.554 151.771 129.294C151.847 128.035 154.346 127.892 154.767 126.582C155.188 125.273 154.917 121.697 155.629 120.689C156.34 119.68 160.613 113.617 160.861 112.569C161.109 111.521 154.453 104.824 149.218 101.391C143.983 97.9587 129.078 88.1923 121.788 86.4671C114.499 84.7418 96.7999 86.7813 90.5889 87.5149C84.3779 88.2486 75.4166 91.2493 75.1708 92.2879C74.9249 93.3265 76.0602 100.689 76.2083 101.891C76.3564 103.094 74.543 106.206 74.3366 107.546C74.1302 108.886 76.2883 110.141 75.79 111.311C75.2917 112.481 72.4988 114.376 72.1644 115.364C71.8301 116.351 72.7746 118.185 72.3129 119.243C71.8512 120.301 67.158 126.143 66.9889 126.857C66.8197 127.572 86.8139 154.099 104.813 158.359C122.784 162.613 152.579 147.859 152.746 147.154C152.913 146.449 151.336 139.123 151.4 137.961C151.464 136.799 153.051 135.575 153.205 134.544Z" fill="#E7F7FD" stroke="black" stroke-linecap="round" stroke-linejoin="round"/>
<path d="M104.766 158.348C122.737 162.602 152.531 147.848 152.698 147.143C152.865 146.438 151.289 139.112 151.352 137.95C151.416 136.788 153.08 135.581 153.224 134.549C153.368 133.516 151.713 130.559 151.79 129.299C151.867 128.039 154.366 127.896 154.786 126.587C155.207 125.278 154.936 121.702 155.648 120.693C156.36 119.684 160.632 113.622 160.88 112.574C160.892 112.473 160.874 112.371 160.829 112.28C158.276 113.97 153.621 117.225 153.18 118.62C152.604 120.546 148.798 120.129 146.625 122.17C144.451 124.211 140.939 124.598 141.112 126.46C141.285 128.322 148.198 132.997 147.32 134.621C146.443 136.244 115.491 147.383 109.549 146.812C103.607 146.241 96.0993 138.889 88.8607 134.016C81.622 129.144 75.723 120.694 75.7824 118.997C75.8418 117.301 83.6636 114.906 83.9072 113.877C84.1507 112.848 82.8095 110.819 80.5809 109.437C78.3524 108.054 78.3683 104.415 78.6466 102.177C78.8805 100.381 76.7923 94.1107 75.9372 91.6443C75.4962 91.8921 75.2329 92.1115 75.1946 92.2735C74.9465 93.3216 76.084 100.675 76.2321 101.877C76.3803 103.079 74.5669 106.192 74.3605 107.532C74.1541 108.872 76.3121 110.127 75.8138 111.297C75.3155 112.467 72.5226 114.362 72.1882 115.349C71.8539 116.337 72.7985 118.17 72.3368 119.228C71.8751 120.286 67.1818 126.128 67.0127 126.843C66.8435 127.558 86.8378 154.085 104.837 158.345L104.766 158.348Z" fill="#B7D2DC" stroke="black" stroke-width="0.5" stroke-linecap="round" stroke-linejoin="round"/>
<path d="M77.8776 105.295C81.7447 104.389 99.3836 104.348 106.537 103.928C113.69 103.508 117.32 103.562 121.926 105.145C126.532 106.728 137.52 112.72 142.107 115.959C146.694 119.198 152.561 123.655 152.561 123.655C152.561 123.655 135.257 114.076 129.554 112.495C123.851 110.913 109.684 107.55 103.743 107.483C97.8023 107.415 77.8776 105.295 77.8776 105.295Z" fill="#A3A5A8" stroke="black" stroke-width="0.5" stroke-linecap="round" stroke-linejoin="round"/>
<path d="M142.098 115.997C138.095 113.305 133.933 110.858 129.635 108.67C125.421 108.488 119.736 108.702 114.579 109.021C120.25 110.142 126.28 111.619 129.539 112.561C135.204 114.134 152.546 123.722 152.546 123.722C152.546 123.722 146.669 119.262 142.098 115.997Z" fill="#8F9194" stroke="black" stroke-width="0.5" stroke-linecap="round" stroke-linejoin="round"/>
<path d="M77.113 112.651C77.113 112.651 95.5942 119.339 113.089 123.48C130.583 127.621 147.116 129.702 149.072 129.682C149.072 129.682 135.005 125.347 128.305 123.429C121.604 121.511 93.3782 114.8 77.113 112.651Z" fill="#A3A5A8" stroke="black" stroke-width="0.5" stroke-linecap="round" stroke-linejoin="round"/>
<path d="M123.529 125.75C136.713 128.377 147.519 129.697 149.073 129.682C149.073 129.682 138.949 126.582 131.785 124.454C129.203 124.778 126.224 125.25 123.529 125.75Z" fill="#8F9194" stroke="black" stroke-width="0.5" stroke-linecap="round" stroke-linejoin="round"/>
<path d="M73.4171 121.375C75.8778 124.031 92.7869 133.748 99.2869 137.108C105.787 140.467 109.235 142.481 116.867 142.969C124.499 143.457 143.464 140.027 147.029 138.315C147.029 138.315 134.285 140.249 126.07 139.543C117.855 138.836 103.262 132.132 96.6967 130.578C90.1315 129.024 73.4171 121.375 73.4171 121.375Z" fill="#A3A5A8" stroke="black" stroke-width="0.5" stroke-linecap="round" stroke-linejoin="round"/>
<path d="M123.108 139.093C117.56 139.792 110.606 140.219 105.937 140.433C109.378 141.984 113.085 142.861 116.857 143.017C124.496 143.477 143.453 140.075 147.018 138.363C147.018 138.363 134.274 140.297 126.06 139.591C125.068 139.474 124.083 139.308 123.108 139.093Z" fill="#8F9194" stroke="black" stroke-width="0.5" stroke-linecap="round" stroke-linejoin="round"/>
<path d="M158.101 150.545C158.293 149.735 156.49 141.41 156.545 140.115C156.6 138.82 158.52 137.423 158.679 136.243C158.837 135.063 156.957 131.699 157.074 130.268C157.191 128.837 160.003 128.647 160.472 127.178C160.94 125.709 160.694 121.646 161.452 120.487C162.209 119.328 167.131 112.433 167.411 111.252C167.535 110.728 166.128 108.936 164.008 106.794L160.854 112.598C160.606 113.646 156.283 119.707 155.622 120.717C154.96 121.728 155.176 125.321 154.76 126.611C154.344 127.901 151.852 128.056 151.763 129.323C151.675 130.59 153.332 133.538 153.198 134.573C153.063 135.608 151.378 136.819 151.326 137.974C151.274 139.129 152.841 146.453 152.672 147.167L154.403 152.608C155.71 152.063 156.951 151.371 158.101 150.545Z" fill="white" stroke="black" stroke-linecap="round" stroke-linejoin="round"/>
<path d="M145.721 146.693C139.417 150.651 132.026 151.667 125.442 154.961C125.343 155.017 125.512 155.189 125.6 155.16C132.468 152.641 139.999 151.087 146.166 146.999C146.406 146.857 145.886 146.584 145.721 146.693Z" fill="black"/>
<path d="M135.345 147.505C132.661 148.86 129.615 149.395 126.747 150.245C125.002 150.755 122.861 151.614 121.05 151.633C120.802 151.633 120.839 151.865 121.025 151.95C122.312 152.496 124.913 151.281 126.146 150.936C129.324 150.047 132.785 149.357 135.721 147.787C135.881 147.691 135.5 147.424 135.345 147.505Z" fill="black"/>
<path d="M132.145 145.76C128.811 147.104 124.968 147.323 121.75 148.897C121.638 148.948 121.82 149.125 121.903 149.11C125.49 148.499 129.263 147.475 132.63 146.082C132.906 145.968 132.346 145.68 132.145 145.76Z" fill="black"/>
<path d="M91.2942 91.2081C87.9609 92.5518 84.1173 92.7714 80.8997 94.345C80.7873 94.396 80.9694 94.5732 81.0529 94.558C84.6395 93.9466 88.412 92.9233 91.7794 91.5302C92.0553 91.4163 91.4952 91.1282 91.2942 91.2081Z" fill="black"/>
<path d="M127.963 151.727C126.695 152.122 124.745 152.182 123.735 153.093C123.64 153.181 123.892 153.338 123.975 153.323C125.43 152.967 126.915 152.53 128.34 152.087C128.69 151.985 128.186 151.671 127.963 151.727Z" fill="black"/>
<path d="M91.5357 93.9439C90.2686 94.3384 88.3187 94.3987 87.3084 95.3093C87.213 95.3978 87.465 95.5546 87.5484 95.5393C89.0029 95.1841 90.4881 94.7472 91.9136 94.3034C92.2628 94.2014 91.7589 93.8878 91.5357 93.9439Z" fill="black"/>
</svg>
