<?xml version="1.0" standalone="no"?>
  <!DOCTYPE svg PUBLIC "-//W3C//DTD SVG 1.1//EN" "http://www.w3.org/Graphics/SVG/1.1/DTD/svg11.dtd" >
  <svg>
  <metadata>
  Created by font-carrier
  </metadata>
  <defs>
  <font id="ProximaNova-Regular" horiz-adv-x="1125" vert-adv-y="1125" >
    <font-face
      
      font-family="Proxima Nova Rg"
      
      font-weight="400"
      
      font-stretch="normal"
      
      units-per-em="1000"
      
      ascent="920"
      
      descent="-298"
      
    />
      <missing-glyph />

      

      
      <glyph glyph-name="uni21" unicode="&#x21;" d="M146 187L84 187L68 667L162 667L146 187M153.50 6.50Q153.50 6.50 145.25-1.75Q137-10 115-10Q93-10 76.50 6.50Q60 23 60 45Q60 68 76 84Q92 100 115 100Q138 100 154 84Q170 68 170 45Q170 23 153.50 6.50Z"  horiz-adv-x="230" vert-adv-y="1000"  />

      
      <glyph glyph-name="uni22" unicode="&#x22;" d="M118 412L81 412Q54 617 54 631Q54 650 67 663.50Q80 677 99 677Q118 677 131.50 663.50Q145 650 145 631L118 412M263 412L226 412Q199 617 199 631Q199 650 212.50 663.50Q226 677 245 677Q264 677 277 663.50Q290 650 290 631L263 412Z"  horiz-adv-x="343" vert-adv-y="1000"  />

      
      <glyph glyph-name="uni23" unicode="&#x23;" d="M300 0L239 0L300 181L189 181L129 0L67 0L128 181L22 181L39 234L146 234L212 433L104 433L120 485L230 485L290 667L352 667L292 485L402 485L462 667L523 667L462 485L569 485L554 433L445 433L378 234L489 234L473 181L360 181L300 0M317 234L383 433L273 433L207 234L317 234Z"  horiz-adv-x="590" vert-adv-y="1000"  />

      
      <glyph glyph-name="uni24" unicode="&#x24;" d="M271-100L271-11Q127-3 42 94L91 157Q164 75 271 63L271 307Q233 317 209.50 325Q186 333 155 348.50Q124 364 106 382Q88 400 75.50 428Q63 456 63 492Q63 569 121 620Q179 671 271 676L271 768L332 768L332 675Q453 663 529 584L479 523Q420 586 332 599L332 382Q379 369 410 356.50Q441 344 475.50 321.50Q510 299 527 264.50Q544 230 544 184Q544 108 492 52.50Q440-3 332-11L332-100L271-100M458 177Q458 222 425.50 247Q393 272 332 290L332 63Q397 70 427.50 103Q458 136 458 177M149 497Q149 459 180 437.50Q211 416 271 398L271 602Q217 598 183 569.50Q149 541 149 497Z"  horiz-adv-x="593" vert-adv-y="1000"  />

      
      <glyph glyph-name="uni25" unicode="&#x25;" d="M307.50 394.50Q307.50 394.50 284.75 371.25Q262 348 191 348Q120 348 75.50 394.50Q31 441 31 511Q31 582 76 629.50Q121 677 191 677Q262 677 307.50 629.50Q353 582 353 511Q353 441 307.50 394.50M182 0L128 0L554 667L609 667L182 0M655 34.50Q655 34.50 632.50 11.25Q610-12 539-12Q468-12 423.50 34.50Q379 81 379 151Q379 222 424 269.50Q469 317 539 317Q610 317 655 269.50Q700 222 700 151Q700 81 655 34.50M119 430.50Q119 430.50 133 414.25Q147 398 191 398Q235 398 264 430.50Q293 463 293 511Q293 561 264.50 593.50Q236 626 191 626Q147 626 119 593.50Q91 561 91 511Q91 463 119 430.50M466.50 70.50Q466.50 70.50 480.75 54.25Q495 38 539 38Q583 38 612 70.50Q641 103 641 151Q641 201 612.50 233.50Q584 266 539 266Q494 266 466 233.50Q438 201 438 151Q438 103 466.50 70.50Z"  horiz-adv-x="731" vert-adv-y="1000"  />

      
      <glyph glyph-name="uni26" unicode="&#x26;" d="M613 0L509 0Q479 26 436 70Q354-12 244-12Q153-12 94.50 36.50Q36 85 36 174Q36 245 75 290Q114 335 183 372Q132 459 132 522Q132 588 180.50 632.50Q229 677 300 677Q367 677 409 642.50Q451 608 451 546Q451 510 438 481.50Q425 453 396 429.50Q367 406 345.50 393Q324 380 281 358Q313 314 358 263Q394 220 437 174Q481 239 509 326L574 298Q525 184 483 126Q533 74 613 0M251 50Q325 50 391 116Q325 185 299 217Q253 270 215 323Q168 294 142.50 260.50Q117 227 117 179Q117 119 156.50 84.50Q196 50 251 50M210 521Q210 474 250 406Q315 438 348.50 468Q382 498 382 543Q382 579 360 598.50Q338 618 303 618Q264 618 237 590.50Q210 563 210 521Z"  horiz-adv-x="641" vert-adv-y="1000"  />

      
      <glyph glyph-name="uni27" unicode="&#x27;" d="M118 412L81 412Q54 617 54 631Q54 650 67 663.50Q80 677 99 677Q118 677 131.50 663.50Q145 650 145 631L118 412Z"  horiz-adv-x="199" vert-adv-y="1000"  />

      
      <glyph glyph-name="uni28" unicode="&#x28;" d="M230-164L185-199Q44-6 44 243Q44 491 185 685L230 651Q177 546 151.50 453Q126 360 126 243Q126 126 151.50 32.50Q177-61 230-164Z"  horiz-adv-x="248" vert-adv-y="1000"  />

      
      <glyph glyph-name="uni29" unicode="&#x29;" d="M62-199L17-164Q70-61 96 32.50Q122 126 122 243Q122 361 96 454Q70 547 17 651L62 685Q204 492 204 243Q204-7 62-199Z"  horiz-adv-x="248" vert-adv-y="1000"  />

      
      <glyph glyph-name="uni2a" unicode="&#x2a;" d="M193 389L147 389L152 504L56 441L34 481L136 533L34 585L56 624L152 562L147 677L193 677L187 562L283 624L306 585L204 533L306 481L283 441L187 504L193 389Z"  horiz-adv-x="340" vert-adv-y="1000"  />

      
      <glyph glyph-name="uni2b" unicode="&#x2b;" d="M470 311L278 311L278 98L221 98L221 311L29 311L29 363L221 363L221 570L278 570L278 363L470 363L470 311Z"  horiz-adv-x="499" vert-adv-y="1000"  />

      
      <glyph glyph-name="uni2c" unicode="&#x2c;" d="M176 24Q176-20 153-60.50Q130-101 94-127L57-96Q82-80 100.50-53.50Q119-27 122-3Q118-5 108-5Q87-5 73.50 9.50Q60 24 60 46Q60 68 75.50 84Q91 100 113 100Q139 100 157.50 79.50Q176 59 176 24Z"  horiz-adv-x="230" vert-adv-y="1000"  />

      
      <glyph glyph-name="uni2d" unicode="&#x2d;" d="M270 209L30 209L30 275L270 275L270 209Z"  horiz-adv-x="300" vert-adv-y="1000"  />

      
      <glyph glyph-name="uni2e" unicode="&#x2e;" d="M154 6Q154 6 146-2Q138-10 115-10Q92-10 76 6Q60 22 60 45Q60 68 76 84Q92 100 115 100Q138 100 154 84Q170 68 170 45Q170 22 154 6Z"  horiz-adv-x="230" vert-adv-y="1000"  />

      
      <glyph glyph-name="uni2f" unicode="&#x2f;" d="M59-20L0-20L237 687L296 687L59-20Z"  horiz-adv-x="296" vert-adv-y="1000"  />

      
      <glyph glyph-name="uni30" unicode="&#x30;" d="M306-12Q240-12 189.50 18.50Q139 49 109.50 100Q80 151 65.50 210Q51 269 51 333Q51 397 65.50 456Q80 515 109.50 565.50Q139 616 189.50 646.50Q240 677 306 677Q371 677 422 646.50Q473 616 502.50 565.50Q532 515 546.50 456Q561 397 561 333Q561 269 546.50 210Q532 151 502.50 100Q473 49 422 18.50Q371-12 306-12M206 103.50Q206 103.50 226 82.75Q246 62 306 62Q366 62 406 103.50Q446 145 461 203Q476 261 476 333Q476 405 461 463Q446 521 406 562Q366 603 306 603Q246 603 206 562Q166 521 151 463Q136 405 136 333Q136 261 151 203Q166 145 206 103.50Z"  horiz-adv-x="612" vert-adv-y="1000"  />

      
      <glyph glyph-name="uni31" unicode="&#x31;" d="M261 0L178 0L178 557L71 444L21 495L188 667L261 667L261 0Z"  horiz-adv-x="339" vert-adv-y="1000"  />

      
      <glyph glyph-name="uni32" unicode="&#x32;" d="M512 0L54 0L54 66Q158 148 215.50 196.50Q273 245 326.50 299.50Q380 354 402 396.50Q424 439 424 481Q424 541 383 572Q342 603 285 603Q170 603 104 519L53 572Q91 622 152.50 649.50Q214 677 285 677Q376 677 442.50 626Q509 575 509 481Q509 388 429 295.50Q349 203 185 74L512 74L512 0Z"  horiz-adv-x="588" vert-adv-y="1000"  />

      
      <glyph glyph-name="uni33" unicode="&#x33;" d="M266-12Q186-12 124 19Q62 50 29 98L78 150Q108 110 157 86Q206 62 264 62Q337 62 378.50 95.50Q420 129 420 187Q420 247 375.50 276Q331 305 254 305Q195 305 185 304L185 380Q196 379 254 379Q322 379 365.50 406.50Q409 434 409 489Q409 542 366.50 572.50Q324 603 260 603Q159 603 84 522L38 574Q123 677 266 677Q365 677 428.50 629.50Q492 582 492 499Q492 433 448 393.50Q404 354 348 344Q403 339 452.50 296Q502 253 502 180Q502 95 438 41.50Q374-12 266-12Z"  horiz-adv-x="557" vert-adv-y="1000"  />

      
      <glyph glyph-name="uni34" unicode="&#x34;" d="M432 0L349 0L349 169L32 169L32 238L318 667L432 667L432 242L526 242L526 169L432 169L432 0M349 242L349 590L115 242L349 242Z"  horiz-adv-x="558" vert-adv-y="1000"  />

      
      <glyph glyph-name="uni35" unicode="&#x35;" d="M301-12Q147-12 66 95L117 150Q186 62 301 62Q369 62 412 103Q455 144 455 205Q455 270 412.50 309.50Q370 349 302 349Q212 349 148 286L87 307L87 667L495 667L495 593L170 593L170 361Q230 421 326 421Q414 421 476 363.50Q538 306 538 208Q538 108 471 48Q404-12 301-12Z"  horiz-adv-x="590" vert-adv-y="1000"  />

      
      <glyph glyph-name="uni36" unicode="&#x36;" d="M308-12Q241-12 190 16Q139 44 109.50 92.50Q80 141 65.50 201.50Q51 262 51 332Q51 426 79 502Q107 578 169.50 627.50Q232 677 322 677Q437 677 507 597L465 535Q407 603 322 603Q260 603 216.50 564Q173 525 153.50 467.50Q134 410 134 341Q134 324 135 315Q160 355 212.50 387Q265 419 324 419Q419 419 480.50 363.50Q542 308 542 206Q542 115 478 51.50Q414-12 308-12M305 62Q377 62 417.50 105.50Q458 149 458 203Q458 273 415 310Q372 347 304 347Q255 347 210 319.50Q165 292 137 247Q144 173 185 117.50Q226 62 305 62Z"  horiz-adv-x="591" vert-adv-y="1000"  />

      
      <glyph glyph-name="uni37" unicode="&#x37;" d="M213 0L121 0L390 593L31 593L31 667L486 667L486 610L213 0Z"  horiz-adv-x="515" vert-adv-y="1000"  />

      
      <glyph glyph-name="uni38" unicode="&#x38;" d="M461.50 37.50Q461.50 37.50 427.25 12.75Q393-12 291-12Q189-12 120.50 37Q52 86 52 169Q52 232 97.50 278Q143 324 211 344Q147 362 105 402.50Q63 443 63 504Q63 588 131 632.50Q199 677 291 677Q383 677 451.50 632.50Q520 588 520 504Q520 443 478 402.50Q436 362 371 344Q439 324 484.50 278Q530 232 530 169Q530 87 461.50 37.50M291 378Q311 381 331.50 388Q352 395 378 407.50Q404 420 420 442.50Q436 465 436 493Q436 543 394.50 573Q353 603 291 603Q228 603 187 573Q146 543 146 493Q146 465 162 442.50Q178 420 204 407.50Q230 395 250.50 388.50Q271 382 291 378M291 62Q355 62 400.50 94Q446 126 446 178Q446 218 414.50 248.50Q383 279 350.50 291.50Q318 304 291 307Q264 304 231.50 291.50Q199 279 167 248.50Q135 218 135 178Q135 126 180.50 94Q226 62 291 62Z"  horiz-adv-x="581" vert-adv-y="1000"  />

      
      <glyph glyph-name="uni39" unicode="&#x39;" d="M269-11Q154-11 84 69L126 131Q184 63 269 63Q333 63 377 103Q421 143 439 200Q457 257 457 324Q457 342 456 351Q431 311 379 279Q327 247 268 247Q173 247 111 302.50Q49 358 49 460Q49 550 113 614Q177 678 282 678Q350 678 401 650Q452 622 481.50 573Q511 524 525.50 464Q540 404 540 333Q540 239 512 163.50Q484 88 421.50 38.50Q359-11 269-11M287 319Q336 319 381.50 346Q427 373 453 418Q447 492 406 548Q365 604 286 604Q215 604 174 560Q133 516 133 463Q133 393 176 356Q219 319 287 319Z"  horiz-adv-x="591" vert-adv-y="1000"  />

      
      <glyph glyph-name="uni3a" unicode="&#x3a;" d="M154 396Q154 396 146 388Q138 380 115 380Q92 380 76 396Q60 412 60 435Q60 458 76 474Q92 490 115 490Q138 490 154 474Q170 458 170 435Q170 412 154 396M154 6Q154 6 146-2Q138-10 115-10Q92-10 76 6Q60 22 60 45Q60 68 76 84Q92 100 115 100Q138 100 154 84Q170 68 170 45Q170 22 154 6Z"  horiz-adv-x="230" vert-adv-y="1000"  />

      
      <glyph glyph-name="uni3b" unicode="&#x3b;" d="M153.50 396.50Q153.50 396.50 145.25 388.25Q137 380 115 380Q93 380 76.50 396.50Q60 413 60 435Q60 458 76 474Q92 490 115 490Q138 490 154 474Q170 458 170 435Q170 413 153.50 396.50M176 26Q176-19 153-59.50Q130-100 94-125L57-95Q81-79 100-52Q119-25 122-1Q116-4 108-4Q87-4 73.50 10.50Q60 25 60 47Q60 70 75.50 86Q91 102 113 102Q139 102 157.50 81.50Q176 61 176 26Z"  horiz-adv-x="230" vert-adv-y="1000"  />

      
      <glyph glyph-name="uni3c" unicode="&#x3c;" d="M470 90L29 308L29 361L470 580L470 517L93 334L470 152L470 90Z"  horiz-adv-x="499" vert-adv-y="1000"  />

      
      <glyph glyph-name="uni3d" unicode="&#x3d;" d="M470 404L29 404L29 457L470 457L470 404M470 211L29 211L29 263L470 263L470 211Z"  horiz-adv-x="499" vert-adv-y="1000"  />

      
      <glyph glyph-name="uni3e" unicode="&#x3e;" d="M470 308L29 90L29 152L405 334L29 517L29 580L470 361L470 308Z"  horiz-adv-x="499" vert-adv-y="1000"  />

      
      <glyph glyph-name="uni3f" unicode="&#x3f;" d="M203 185Q164 218 164 266Q164 296 177.50 321Q191 346 211 362Q231 378 254.50 395.50Q278 413 298 428Q318 443 331.50 464Q345 485 345 510Q345 550 314.50 576.50Q284 603 227 603Q130 603 68 521L18 575Q97 677 235 677Q324 677 377.50 632.50Q431 588 431 522Q431 471 400.50 431.50Q370 392 334 371Q298 350 267.50 321Q237 292 237 260Q237 232 264 211L203 185M262.50 6Q262.50 6 254.25-2Q246-10 224-10Q202-10 185.50 6Q169 22 169 45Q169 68 185.50 84Q202 100 224 100Q246 100 262.50 84Q279 68 279 45Q279 22 262.50 6Z"  horiz-adv-x="462" vert-adv-y="1000"  />

      
      <glyph glyph-name="uni40" unicode="&#x40;" d="M352-70Q216-70 125.50 20.50Q35 111 35 244Q35 404 154.50 521Q274 638 432 638Q571 638 659 546.50Q747 455 747 321Q747 210 695 147.50Q643 85 574 85Q534 85 509.50 108.50Q485 132 483 166L482 172Q455 134 412.50 109.50Q370 85 324 85Q255 85 213 130Q171 175 171 248Q171 350 243 424.50Q315 499 406 499Q452 499 485.50 477Q519 455 534 421L547 483L615 483L558 212Q556 200 556 191Q556 166 569.50 152.50Q583 139 603 139Q641 139 676 184Q711 229 711 321Q711 445 632.50 524.50Q554 604 428 604Q284 604 176.50 495.50Q69 387 69 246Q69 125 150.50 44Q232-37 356-37Q453-37 542 19L560-7Q462-70 352-70M344 141Q431 141 493 231L522 369Q512 398 485.50 420.50Q459 443 419 443Q346 443 294 384.50Q242 326 242 252Q242 203 269.50 172Q297 141 344 141Z"  horiz-adv-x="783" vert-adv-y="1000"  />

      
      <glyph glyph-name="uni41" unicode="&#x41;" d="M649 0L554 0L495 148L163 148L104 0L9 0L277 667L380 667L649 0M470 222L329 581L187 222L470 222Z"  horiz-adv-x="658" vert-adv-y="1000"  />

      
      <glyph glyph-name="uni42" unicode="&#x42;" d="M382 0L78 0L78 667L375 667Q461 667 511.50 620Q562 573 562 497Q562 437 528 395.50Q494 354 445 344Q498 336 536.50 288Q575 240 575 180Q575 99 523.50 49.50Q472 0 382 0M361 378Q416 378 446 408Q476 438 476 485Q476 532 445.50 562.50Q415 593 361 593L161 593L161 378L361 378M365 74Q423 74 456 105Q489 136 489 189Q489 238 456.50 271Q424 304 365 304L161 304L161 74L365 74Z"  horiz-adv-x="629" vert-adv-y="1000"  />

      
      <glyph glyph-name="uni43" unicode="&#x43;" d="M394-12Q248-12 149.50 84.50Q51 181 51 333Q51 485 149.50 581.50Q248 678 394 678Q554 678 647 546L577 507Q548 550 499 577Q450 604 394 604Q284 604 210.50 527.50Q137 451 137 333Q137 215 210.50 138.50Q284 62 394 62Q450 62 499 88.50Q548 115 577 159L648 120Q551-12 394-12Z"  horiz-adv-x="676" vert-adv-y="1000"  />

      
      <glyph glyph-name="uni44" unicode="&#x44;" d="M306 0L78 0L78 667L306 667Q459 667 553.50 572Q648 477 648 333Q648 188 553.50 94Q459 0 306 0M306 74Q424 74 493 148Q562 222 562 333Q562 445 494 519Q426 593 306 593L161 593L161 74L306 74Z"  horiz-adv-x="700" vert-adv-y="1000"  />

      
      <glyph glyph-name="uni45" unicode="&#x45;" d="M515 0L78 0L78 667L515 667L515 593L161 593L161 378L508 378L508 304L161 304L161 74L515 74L515 0Z"  horiz-adv-x="569" vert-adv-y="1000"  />

      
      <glyph glyph-name="uni46" unicode="&#x46;" d="M161 0L78 0L78 667L515 667L515 593L161 593L161 378L508 378L508 304L161 304L161 0Z"  horiz-adv-x="550" vert-adv-y="1000"  />

      
      <glyph glyph-name="uni47" unicode="&#x47;" d="M394-13Q249-13 150 83.50Q51 180 51 333Q51 486 150 582Q249 678 394 678Q552 678 653 553L587 512Q555 554 503.50 579Q452 604 394 604Q284 604 210.50 527.50Q137 451 137 333Q137 215 210.50 138Q284 61 394 61Q449 61 496.50 82.50Q544 104 573 133L573 269L344 269L344 343L656 343L656 102Q553-13 394-13Z"  horiz-adv-x="713" vert-adv-y="1000"  />

      
      <glyph glyph-name="uni48" unicode="&#x48;" d="M634 0L551 0L551 306L161 306L161 0L78 0L78 667L161 667L161 380L551 380L551 667L634 667L634 0Z"  horiz-adv-x="712" vert-adv-y="1000"  />

      
      <glyph glyph-name="uni49" unicode="&#x49;" d="M161 0L78 0L78 667L161 667L161 0Z"  horiz-adv-x="239" vert-adv-y="1000"  />

      
      <glyph glyph-name="uni4a" unicode="&#x4a;" d="M185-12Q77-12 11 65L54 128Q109 62 180 62Q241 62 277.50 100.50Q314 139 314 202L314 667L397 667L397 201Q397 97 338 42.50Q279-12 185-12Z"  horiz-adv-x="475" vert-adv-y="1000"  />

      
      <glyph glyph-name="uni4b" unicode="&#x4b;" d="M584 0L481 0L228 300L161 224L161 0L78 0L78 667L161 667L161 322L456 667L560 667L282 350L584 0Z"  horiz-adv-x="601" vert-adv-y="1000"  />

      
      <glyph glyph-name="uni4c" unicode="&#x4c;" d="M471 0L78 0L78 667L161 667L161 74L471 74L471 0Z"  horiz-adv-x="510" vert-adv-y="1000"  />

      
      <glyph glyph-name="uni4d" unicode="&#x4d;" d="M731 0L648 0L648 549L421 0L387 0L161 549L161 0L78 0L78 667L197 667L404 165L612 667L731 667L731 0Z"  horiz-adv-x="809" vert-adv-y="1000"  />

      
      <glyph glyph-name="uni4e" unicode="&#x4e;" d="M630 0L550 0L161 532L161 0L78 0L78 667L163 667L547 146L547 667L630 667L630 0Z"  horiz-adv-x="708" vert-adv-y="1000"  />

      
      <glyph glyph-name="uni4f" unicode="&#x4f;" d="M382-12Q235-12 143 86Q51 184 51 333Q51 482 143 580Q235 678 382 678Q528 678 620.50 580Q713 482 713 333Q713 184 620.50 86Q528-12 382-12M382 62Q492 62 559.50 138.50Q627 215 627 333Q627 452 559.50 528Q492 604 382 604Q271 604 204 528Q137 452 137 333Q137 215 204 138.50Q271 62 382 62Z"  horiz-adv-x="765" vert-adv-y="1000"  />

      
      <glyph glyph-name="uni50" unicode="&#x50;" d="M161 0L78 0L78 667L346 667Q443 667 499 609Q555 551 555 466Q555 381 498.50 323Q442 265 346 265L161 265L161 0M336 339Q395 339 432 374.50Q469 410 469 466Q469 522 432 557.50Q395 593 336 593L161 593L161 339L336 339Z"  horiz-adv-x="587" vert-adv-y="1000"  />

      
      <glyph glyph-name="uni51" unicode="&#x51;" d="M382-12Q235-12 143 86Q51 184 51 333Q51 482 143 580Q235 678 382 678Q528 678 620.50 580Q713 482 713 333Q713 184 621 87L685 19L627-31L562 38Q484-12 382-12M382 62Q453 62 509 96L414 199L472 248L566 146Q627 221 627 333Q627 452 559.50 528Q492 604 382 604Q271 604 204 528Q137 452 137 333Q137 215 204 138.50Q271 62 382 62Z"  horiz-adv-x="765" vert-adv-y="1000"  />

      
      <glyph glyph-name="uni52" unicode="&#x52;" d="M562 0L464 0L294 265L161 265L161 0L78 0L78 667L346 667Q439 667 497 612Q555 557 555 466Q555 380 505 329Q455 278 382 272L562 0M336 338Q395 338 432 374Q469 410 469 466Q469 522 432 557.50Q395 593 336 593L161 593L161 338L336 338Z"  horiz-adv-x="608" vert-adv-y="1000"  />

      
      <glyph glyph-name="uni53" unicode="&#x53;" d="M294-12Q132-12 38 94L87 157Q172 62 297 62Q378 62 416 96.50Q454 131 454 177Q454 212 432 236Q410 260 375.50 273.50Q341 287 298.50 298Q256 309 214 322.50Q172 336 137.50 355Q103 374 81 409Q59 444 59 492Q59 574 124 625.50Q189 677 288 677Q437 677 525 584L475 523Q402 603 282 603Q222 603 183.50 573.50Q145 544 145 497Q145 462 174.50 439Q204 416 247.50 405Q291 394 342.50 377.50Q394 361 437.50 342.50Q481 324 510.50 283Q540 242 540 184Q540 102 479.50 45Q419-12 294-12Z"  horiz-adv-x="586" vert-adv-y="1000"  />

      
      <glyph glyph-name="uni54" unicode="&#x54;" d="M326 0L243 0L243 593L32 593L32 667L538 667L538 593L326 593L326 0Z"  horiz-adv-x="570" vert-adv-y="1000"  />

      
      <glyph glyph-name="uni55" unicode="&#x55;" d="M552.50 60.50Q552.50 60.50 517.75 24.25Q483-12 350-12Q217-12 147.50 60.50Q78 133 78 259L78 667L161 667L161 261Q161 168 210 115Q259 62 350 62Q441 62 490 115Q539 168 539 261L539 667L622 667L622 260Q622 133 552.50 60.50Z"  horiz-adv-x="700" vert-adv-y="1000"  />

      
      <glyph glyph-name="uni56" unicode="&#x56;" d="M380 0L277 0L9 667L104 667L329 91L554 667L649 667L380 0Z"  horiz-adv-x="658" vert-adv-y="1000"  />

      
      <glyph glyph-name="uni57" unicode="&#x57;" d="M678 0L588 0L441 538L294 0L204 0L14 667L106 667L254 111L407 667L476 667L629 111L776 667L868 667L678 0Z"  horiz-adv-x="883" vert-adv-y="1000"  />

      
      <glyph glyph-name="uni58" unicode="&#x58;" d="M639 0L539 0L326 284L113 0L12 0L272 342L27 667L128 667L326 400L523 667L624 667L380 343L639 0Z"  horiz-adv-x="652" vert-adv-y="1000"  />

      
      <glyph glyph-name="uni59" unicode="&#x59;" d="M355 0L272 0L272 282L9 667L106 667L313 357L520 667L617 667L355 282L355 0Z"  horiz-adv-x="626" vert-adv-y="1000"  />

      
      <glyph glyph-name="uni5a" unicode="&#x5a;" d="M536 0L48 0L48 69L423 593L48 593L48 667L529 667L529 598L154 74L536 74L536 0Z"  horiz-adv-x="585" vert-adv-y="1000"  />

      
      <glyph glyph-name="uni5b" unicode="&#x5b;" d="M226-190L40-190L40 678L226 678L226 623L98 623L98-135L226-135L226-190Z"  horiz-adv-x="243" vert-adv-y="1000"  />

      
      <glyph glyph-name="uni5c" unicode="&#x5c;" d="M237-20L0 687L59 687L296-20L237-20Z"  horiz-adv-x="296" vert-adv-y="1000"  />

      
      <glyph glyph-name="uni5d" unicode="&#x5d;" d="M203-190L17-190L17-135L145-135L145 623L17 623L17 678L203 678L203-190Z"  horiz-adv-x="243" vert-adv-y="1000"  />

      
      <glyph glyph-name="uni5e" unicode="&#x5e;" d="M413 333L351 333L216 612L81 333L19 333L188 667L245 667L413 333Z"  horiz-adv-x="432" vert-adv-y="1000"  />

      
      <glyph glyph-name="uni5f" unicode="&#x5f;" d="M567-95L-3-95L-3-40L567-40L567-95Z"  horiz-adv-x="564" vert-adv-y="1000"  />

      
      <glyph glyph-name="uni60" unicode="&#x60;" d="M226 556L169 556L0 700L78 700L226 556Z"  horiz-adv-x="226" vert-adv-y="1000"  />

      
      <glyph glyph-name="uni61" unicode="&#x61;" d="M452 0L377 0L377 55Q316-12 217-12Q150-12 99 31Q48 74 48 148Q48 224 98.50 265.50Q149 307 217 307Q320 307 377 241L377 328Q377 376 343 403Q309 430 255 430Q170 430 107 363L72 415Q149 495 265 495Q348 495 400 455Q452 415 452 332L452 0M244 42Q334 42 377 102L377 193Q334 253 244 253Q192 253 158.50 223.50Q125 194 125 147Q125 101 158.50 71.50Q192 42 244 42Z"  horiz-adv-x="527" vert-adv-y="1000"  />

      
      <glyph glyph-name="uni62" unicode="&#x62;" d="M150 131Q170 99 210.50 77Q251 55 294 55Q366 55 408 107Q450 159 450 241Q450 323 408 375.50Q366 428 294 428Q251 428 210.50 405.50Q170 383 150 350L150 131M150 0L75 0L75 667L150 667L150 410Q213 495 313 495Q408 495 468 425.50Q528 356 528 241Q528 125 468.50 56.50Q409-12 313-12Q212-12 150 72L150 0Z"  horiz-adv-x="575" vert-adv-y="1000"  />

      
      <glyph glyph-name="uni63" unicode="&#x63;" d="M288-12Q181-12 114 60.50Q47 133 47 242Q47 351 114 423Q181 495 288 495Q400 495 465 411L415 365Q369 428 292 428Q216 428 170.50 376Q125 324 125 242Q125 160 170.50 107.50Q216 55 292 55Q368 55 415 118L465 72Q400-12 288-12Z"  horiz-adv-x="495" vert-adv-y="1000"  />

      
      <glyph glyph-name="uni64" unicode="&#x64;" d="M500 0L425 0L425 72Q363-12 262-12Q166-12 106.50 56.50Q47 125 47 241Q47 356 106.50 425.50Q166 495 262 495Q362 495 425 410L425 667L500 667L500 0M280 55Q324 55 364 77Q404 99 425 131L425 350Q404 383 363.50 405.50Q323 428 280 428Q209 428 167 375.50Q125 323 125 241Q125 159 167 107Q209 55 280 55Z"  horiz-adv-x="575" vert-adv-y="1000"  />

      
      <glyph glyph-name="uni65" unicode="&#x65;" d="M293-12Q185-12 116 58.50Q47 129 47 242Q47 348 115 421.50Q183 495 285 495Q392 495 454.50 421.50Q517 348 517 236L517 217L126 217Q131 146 178 98Q225 50 300 50Q390 50 449 111L485 62Q411-12 293-12M443 272Q442 334 401 383.50Q360 433 284 433Q212 433 170.50 384Q129 335 126 272L443 272Z"  horiz-adv-x="563" vert-adv-y="1000"  />

      
      <glyph glyph-name="uni66" unicode="&#x66;" d="M171 0L96 0L96 417L16 417L16 483L96 483L96 520Q96 594 133.50 635.50Q171 677 236 677Q298 677 338 640L307 591Q280 615 247 615Q210 615 190.50 590.50Q171 566 171 520L171 483L269 483L269 417L171 417L171 0Z"  horiz-adv-x="283" vert-adv-y="1000"  />

      
      <glyph glyph-name="uni67" unicode="&#x67;" d="M269-196Q205-196 160-180.50Q115-165 74-124L112-68Q167-134 269-134Q336-134 380-98.50Q424-63 424 11L424 80Q397 42 354 18Q311-6 262-6Q166-6 106.50 61.50Q47 129 47 244Q47 359 106.50 427Q166 495 262 495Q361 495 424 410L424 483L499 483L499 14Q499-97 434-146.50Q369-196 269-196M280 60Q323 60 363.50 83Q404 106 424 139L424 350Q404 383 364 405.50Q324 428 280 428Q208 428 166.50 377Q125 326 125 244Q125 163 167 111.50Q209 60 280 60Z"  horiz-adv-x="574" vert-adv-y="1000"  />

      
      <glyph glyph-name="uni68" unicode="&#x68;" d="M477 0L402 0L402 318Q402 378 374 403Q346 428 293 428Q252 428 212.50 406Q173 384 150 353L150 0L75 0L75 667L150 667L150 413Q178 446 225 470.50Q272 495 323 495Q477 495 477 341L477 0Z"  horiz-adv-x="552" vert-adv-y="1000"  />

      
      <glyph glyph-name="uni69" unicode="&#x69;" d="M112 552Q92 552 77 566.50Q62 581 62 602Q62 623 77 638Q92 653 112 653Q133 653 148 638Q163 623 163 602Q163 581 148 566.50Q133 552 112 552M150 0L75 0L75 483L150 483L150 0Z"  horiz-adv-x="225" vert-adv-y="1000"  />

      
      <glyph glyph-name="uni6a" unicode="&#x6a;" d="M112 552Q92 552 77 566.50Q62 581 62 602Q62 623 77 638Q92 653 112 653Q133 653 148 638Q163 623 163 602Q163 581 148 566.50Q133 552 112 552M7-196Q-52-196-99-160L-72-103Q-41-134-3-134Q33-134 54-112.50Q75-91 75-47L75 483L150 483L150-47Q150-118 113-157Q76-196 7-196Z"  horiz-adv-x="225" vert-adv-y="1000"  />

      
      <glyph glyph-name="uni6b" unicode="&#x6b;" d="M500 0L404 0L230 217L150 138L150 0L75 0L75 667L150 667L150 226L404 483L499 483L285 264L500 0Z"  horiz-adv-x="514" vert-adv-y="1000"  />

      
      <glyph glyph-name="uni6c" unicode="&#x6c;" d="M150 0L75 0L75 667L150 667L150 0Z"  horiz-adv-x="225" vert-adv-y="1000"  />

      
      <glyph glyph-name="uni6d" unicode="&#x6d;" d="M733 0L658 0L658 328Q658 428 569 428Q533 428 497 406Q461 384 441 354L441 0L366 0L366 328Q366 428 277 428Q242 428 206.50 406Q171 384 150 353L150 0L75 0L75 483L150 483L150 413Q168 441 213 468Q258 495 306 495Q359 495 392 470Q425 445 436 405Q458 441 503 468Q548 495 598 495Q733 495 733 349L733 0Z"  horiz-adv-x="808" vert-adv-y="1000"  />

      
      <glyph glyph-name="uni6e" unicode="&#x6e;" d="M476 0L401 0L401 316Q401 377 373 402.50Q345 428 293 428Q251 428 211.50 406Q172 384 150 353L150 0L75 0L75 483L150 483L150 413Q178 446 225 470.50Q272 495 322 495Q476 495 476 339L476 0Z"  horiz-adv-x="551" vert-adv-y="1000"  />

      
      <glyph glyph-name="uni6f" unicode="&#x6f;" d="M459.50 61Q459.50 61 426.75 24.50Q394-12 286-12Q178-12 112.50 61Q47 134 47 242Q47 350 112.50 422.50Q178 495 286 495Q394 495 459.50 422.50Q525 350 525 242Q525 134 459.50 61M168.50 109.50Q168.50 109.50 190.25 82.25Q212 55 286 55Q360 55 403 109.50Q446 164 446 242Q446 320 403 374Q360 428 286 428Q212 428 168.50 373.50Q125 319 125 242Q125 164 168.50 109.50Z"  horiz-adv-x="572" vert-adv-y="1000"  />

      
      <glyph glyph-name="uni70" unicode="&#x70;" d="M313-12Q211-12 150 73L150-184L75-184L75 483L150 483L150 411Q177 449 220 472Q263 495 313 495Q409 495 468.50 426.50Q528 358 528 242Q528 126 468.50 57Q409-12 313-12M294 55Q365 55 407 107.50Q449 160 449 242Q449 324 407 376Q365 428 294 428Q251 428 210.50 405.50Q170 383 150 351L150 133Q170 100 210.50 77.50Q251 55 294 55Z"  horiz-adv-x="572" vert-adv-y="1000"  />

      
      <glyph glyph-name="uni71" unicode="&#x71;" d="M277 55Q321 55 361.50 77.50Q402 100 421 133L421 351Q402 383 361.50 405.50Q321 428 277 428Q206 428 164.50 376Q123 324 123 242Q123 160 164.50 107.50Q206 55 277 55M259-12Q163-12 103.50 57Q44 126 44 242Q44 358 103.50 426.50Q163 495 259 495Q309 495 352 472Q395 449 421 411L421 483L496 483L496-184L421-184L421 73Q360-12 259-12Z"  horiz-adv-x="572" vert-adv-y="1000"  />

      
      <glyph glyph-name="uni72" unicode="&#x72;" d="M150 0L75 0L75 483L150 483L150 405Q217 493 311 493L311 416Q297 419 281 419Q247 419 207 395Q167 371 150 342L150 0Z"  horiz-adv-x="330" vert-adv-y="1000"  />

      
      <glyph glyph-name="uni73" unicode="&#x73;" d="M228-12Q105-12 33 64L72 118Q97 89 140.50 69Q184 49 231 49Q285 49 315 72Q345 95 345 132Q345 164 314 182.50Q283 201 239.50 210.50Q196 220 152 232.50Q108 245 77 275.50Q46 306 46 356Q46 415 94.50 455Q143 495 226 495Q335 495 405 425L370 373Q319 434 226 434Q177 434 148 412.50Q119 391 119 358Q119 329 150 312.50Q181 296 224.50 286.50Q268 277 312 264Q356 251 387 218.50Q418 186 418 134Q418 70 368 29Q318-12 228-12Z"  horiz-adv-x="465" vert-adv-y="1000"  />

      
      <glyph glyph-name="uni74" unicode="&#x74;" d="M197-12Q144-12 117 17Q90 46 90 101L90 417L10 417L10 483L90 483L90 615L165 615L165 483L263 483L263 417L165 417L165 117Q165 89 177.50 72Q190 55 214 55Q247 55 265 75L287 19Q254-12 197-12Z"  horiz-adv-x="294" vert-adv-y="1000"  />

      
      <glyph glyph-name="uni75" unicode="&#x75;" d="M476 0L401 0L401 68Q371 34 325.50 11Q280-12 229-12Q75-12 75 142L75 483L150 483L150 165Q150 105 177.50 80Q205 55 258 55Q300 55 339.50 76Q379 97 401 128L401 483L476 483L476 0Z"  horiz-adv-x="551" vert-adv-y="1000"  />

      
      <glyph glyph-name="uni76" unicode="&#x76;" d="M286 0L204 0L3 483L84 483L245 87L405 483L487 483L286 0Z"  horiz-adv-x="490" vert-adv-y="1000"  />

      
      <glyph glyph-name="uni77" unicode="&#x77;" d="M568 0L493 0L367 388L241 0L166 0L12 483L90 483L208 98L335 483L399 483L526 98L644 483L722 483L568 0Z"  horiz-adv-x="734" vert-adv-y="1000"  />

      
      <glyph glyph-name="uni78" unicode="&#x78;" d="M475 0L388 0L243 198L98 0L12 0L197 248L22 483L109 483L243 299L377 483L464 483L289 248L475 0Z"  horiz-adv-x="486" vert-adv-y="1000"  />

      
      <glyph glyph-name="uni79" unicode="&#x79;" d="M48-189L60-121Q78-129 101-129Q127-129 144-118Q161-107 173-78L205-5L3 483L84 483L245 87L405 483L487 483L245-98Q205-194 103-196Q73-196 48-189Z"  horiz-adv-x="490" vert-adv-y="1000"  />

      
      <glyph glyph-name="uni7a" unicode="&#x7a;" d="M420 0L52 0L52 58L318 417L52 417L52 483L416 483L416 426L148 65L420 65L420 0Z"  horiz-adv-x="472" vert-adv-y="1000"  />

      
      <glyph glyph-name="uni7b" unicode="&#x7b;" d="M243-190L182-190Q132-190 94.50-152.50Q57-115 57-56L57 150Q57 180 43.50 199.50Q30 219 5 219L5 269Q30 269 43.50 288.50Q57 308 57 338L57 543Q57 603 94.50 640.50Q132 678 182 678L243 678L243 623L182 623Q155 623 135.50 600.50Q116 578 116 543L116 332Q116 264 70 244Q116 224 116 156L116-55Q116-89 135.50-112Q155-135 182-135L243-135L243-190Z"  horiz-adv-x="260" vert-adv-y="1000"  />

      
      <glyph glyph-name="uni7c" unicode="&#x7c;" d="M133-20L78-20L78 687L133 687L133-20Z"  horiz-adv-x="211" vert-adv-y="1000"  />

      
      <glyph glyph-name="uni7d" unicode="&#x7d;" d="M17-190L17-135L78-135Q105-135 124.50-112Q144-89 144-55L144 156Q144 224 190 244Q144 264 144 332L144 543Q144 578 124.50 600.50Q105 623 78 623L17 623L17 678L78 678Q128 678 165.50 640.50Q203 603 203 543L203 338Q203 308 216.50 288.50Q230 269 255 269L255 219Q230 219 216.50 199.50Q203 180 203 150L203-56Q203-115 165.50-152.50Q128-190 78-190L17-190Z"  horiz-adv-x="260" vert-adv-y="1000"  />

      
      <glyph glyph-name="uni7e" unicode="&#x7e;" d="M419 667L475 660Q470 609 462.50 571Q455 533 440 497Q425 461 399 442Q373 423 337 423Q302 423 279 442.50Q256 462 244.50 490Q233 518 223.50 546Q214 574 200 593.50Q186 613 165 613Q102 613 83 422L27 429Q32 479 40 517.50Q48 556 63 592Q78 628 104 647Q130 666 165 666Q200 666 223.50 646.50Q247 627 258.50 598.50Q270 570 279 542Q288 514 302 494.50Q316 475 337 475Q402 475 419 667Z"  horiz-adv-x="503" vert-adv-y="1000"  />

      
      <glyph glyph-name="unia1" unicode="&#xa1;" d="M69-184L84 296L146 296L162-184L69-184M76 399.50Q76 399.50 68 407.75Q60 416 60 438Q60 460 76.50 476.50Q93 493 115 493Q137 493 153.50 476.50Q170 460 170 438Q170 416 154 399.50Q138 383 115 383Q92 383 76 399.50Z"  horiz-adv-x="230" vert-adv-y="1000"  />

      
      <glyph glyph-name="unia2" unicode="&#xa2;" d="M252-100L252-9Q160 3 103.50 72.50Q47 142 47 242Q47 340 103.50 409.50Q160 479 252 492L252 565L311 565L311 494Q405 486 465 411L415 365Q375 419 311 427L311 56Q374 62 415 118L465 72Q407-3 311-11L311-100L252-100M125 242Q125 172 159 122Q193 72 252 59L252 423Q193 410 159 360.50Q125 311 125 242Z"  horiz-adv-x="495" vert-adv-y="1000"  />

      
      <glyph glyph-name="unia3" unicode="&#xa3;" d="M19 268L19 322L125 322Q97 354 86.50 367.50Q76 381 62 413.50Q48 446 48 480Q48 562 114 619.50Q180 677 272 677Q340 677 393 647.50Q446 618 474 565L407 525Q393 559 358.50 583Q324 607 280 607Q221 607 179 572Q137 537 137 479Q137 453 146 429Q155 405 163.50 392Q172 379 192 354.50Q212 330 218 322L368 322L368 268L246 268Q253 245 253 225Q253 147 177 93Q202 102 229 102Q262 102 305.50 81.50Q349 61 377 61Q408 61 434 73.50Q460 86 472 101L508 34Q459-13 373-13Q326-13 278 10Q230 33 194 33Q152 33 76-7L46 55Q110 84 144.50 123.50Q179 163 179 208Q179 238 164 268L19 268Z"  horiz-adv-x="518" vert-adv-y="1000"  />

      
      <glyph glyph-name="unia4" unicode="&#xa4;" d="M299 93Q213 93 150 140L75 64L28 109L105 186Q60 250 60 333Q60 419 106 480L27 559L74 605L152 526Q214 572 299 572Q385 572 445 526L523 604L569 558L491 480Q538 417 538 333Q538 250 492 185L569 109L523 64L446 139Q384 93 299 93M180.50 211.50Q180.50 211.50 202.25 186.25Q224 161 299 161Q374 161 417.50 211.50Q461 262 461 333Q461 404 417.50 453.50Q374 503 299 503Q224 503 180.50 453Q137 403 137 333Q137 262 180.50 211.50Z"  horiz-adv-x="598" vert-adv-y="1000"  />

      
      <glyph glyph-name="unia5" unicode="&#xa5;" d="M355 0L272 0L272 122L22 122L22 175L272 175L272 282L22 282L22 334L236 334L9 667L106 667L313 357L520 667L617 667L390 334L605 334L605 282L355 282L355 175L605 175L605 122L355 122L355 0Z"  horiz-adv-x="626" vert-adv-y="1000"  />

      
      <glyph glyph-name="unia6" unicode="&#xa6;" d="M133-20L78-20L78 296L133 296L133-20M133 371L78 371L78 687L133 687L133 371Z"  horiz-adv-x="211" vert-adv-y="1000"  />

      
      <glyph glyph-name="unia7" unicode="&#xa7;" d="M418 315Q418 228 326 187Q418 152 418 66Q418-3 366-42Q314-81 228-81Q114-81 34-3L72 46Q132-26 228-26Q281-26 313-3Q345 20 345 61Q345 95 314 114.50Q283 134 239.50 144.50Q196 155 152 167.50Q108 180 77 210.50Q46 241 46 290Q46 340 78.50 372.50Q111 405 161 418Q46 454 46 541Q46 599 94.50 638Q143 677 226 677Q343 677 404 606L370 561Q320 621 228 621Q180 621 149.50 599Q119 577 119 541Q119 510 150 492.50Q181 475 224.50 466Q268 457 312 444Q356 431 387 399Q418 367 418 315M344 305Q344 344 313.50 364Q283 384 231 397Q169 381 144 357Q119 333 119 298Q119 272 141 253.50Q163 235 182.50 228.50Q202 222 250 210Q257 208 261 207Q344 243 344 305Z"  horiz-adv-x="468" vert-adv-y="1000"  />

      
      <glyph glyph-name="unia8" unicode="&#xa8;" d="M272 636.50Q272 636.50 279 629.75Q286 623 286 604Q286 585 272 571Q258 557 239 557Q220 557 206 571Q192 585 192 604Q192 623 206 636.50Q220 650 239 650Q258 650 272 636.50M65.50 636.50Q65.50 636.50 72.25 629.75Q79 623 79 604Q79 585 65.50 571Q52 557 33 557Q14 557 0 570.50Q-14 584-14 604Q-14 623 0 636.50Q14 650 33 650Q52 650 65.50 636.50Z"  horiz-adv-x="272" vert-adv-y="1000"  />

      
      <glyph glyph-name="unia9" unicode="&#xa9;" d="M633 578Q633 578 683.50 527.50Q734 477 734 334Q734 191 633 90Q532-11 389-11Q246-11 145 90.50Q44 192 44 334Q44 477 145 578Q246 679 389 679Q532 679 633 578M611 112Q611 112 657 158Q703 204 703 334Q703 464 611 556Q519 648 389 648Q259 648 167 556Q75 464 75 334Q75 204 167 112Q259 20 389 20Q519 20 611 112M512 212L538 187Q481 121 391 121Q304 121 243.50 182.50Q183 244 183 335Q183 426 243.50 487Q304 548 391 548Q481 548 537 482L512 458Q493 484 459.50 499.50Q426 515 391 515Q321 515 270.50 464.50Q220 414 220 335Q220 258 271 206Q322 154 391 154Q427 154 459.50 170Q492 186 512 212Z"  horiz-adv-x="778" vert-adv-y="1000"  />

      
      <glyph glyph-name="uniaa" unicode="&#xaa;" d="M317 326L260 326L260 361Q220 318 153 318Q109 318 75 346Q41 374 41 422Q41 471 74.50 498Q108 525 153 525Q220 525 260 483L260 538Q260 568 237 585.50Q214 603 181 603Q122 603 82 557L57 594Q109 648 188 648Q245 648 281 621Q317 594 317 537L317 326M175 356Q231 356 260 394L260 450Q231 488 175 488Q142 488 120.50 469.50Q99 451 99 422Q99 392 120.50 374Q142 356 175 356Z"  horiz-adv-x="378" vert-adv-y="1000"  />

      
      <glyph glyph-name="uniab" unicode="&#xab;" d="M409 63L334 63L174 243L334 420L409 420L249 243L409 63M265 63L190 63L30 243L190 420L265 420L105 243L265 63Z"  horiz-adv-x="439" vert-adv-y="1000"  />

      
      <glyph glyph-name="uniac" unicode="&#xac;" d="M470 457L470 211L415 211L415 404L29 404L29 457L470 457Z"  horiz-adv-x="504" vert-adv-y="1000"  />

      
      <glyph glyph-name="uniad" unicode="&#xad;" d="M270 209L30 209L30 275L270 275L270 209Z"  horiz-adv-x="300" vert-adv-y="1000"  />

      
      <glyph glyph-name="uniae" unicode="&#xae;" d="M459 465Q459 377 397 315Q335 253 247 253Q159 253 97 315Q35 377 35 465Q35 553 97 615Q159 677 247 677Q336 677 397.50 615.50Q459 554 459 465M376.50 335Q376.50 335 403.25 362Q430 389 430 465Q430 541 376.50 594.50Q323 648 247 648Q170 648 116.50 594.50Q63 541 63 465Q63 389 117 335Q171 281 247 281Q323 281 376.50 335M345 343L305 343L242 439L198 439L198 343L166 343L166 586L265 586Q297 586 319.50 565.50Q342 545 342 512Q342 477 319.50 458.50Q297 440 280 440L345 343M309 512Q309 531 295.50 544.50Q282 558 265 558L198 558L198 468L265 468Q281 468 295 481Q309 494 309 512Z"  horiz-adv-x="494" vert-adv-y="1000"  />

      
      <glyph glyph-name="uniaf" unicode="&#xaf;" d="M363 572L0 572L0 620L363 620L363 572Z"  horiz-adv-x="363" vert-adv-y="1000"  />

      
      <glyph glyph-name="unib0" unicode="&#xb0;" d="M267 555Q267 504 231 468.50Q195 433 144 433Q94 433 58.50 468.50Q23 504 23 555Q23 605 58.50 641Q94 677 144 677Q195 677 231 641Q267 605 267 555M219 555Q219 585 197 607Q175 629 144 629Q114 629 93 607Q72 585 72 555Q72 524 93 502.50Q114 481 144 481Q175 481 197 502.50Q219 524 219 555Z"  horiz-adv-x="290" vert-adv-y="1000"  />

      
      <glyph glyph-name="unib1" unicode="&#xb1;" d="M470 324L278 324L278 110L221 110L221 324L29 324L29 376L221 376L221 583L278 583L278 376L470 376L470 324M470 0L29 0L29 52L470 52L470 0Z"  horiz-adv-x="499" vert-adv-y="1000"  />

      
      <glyph glyph-name="unib2" unicode="&#xb2;" d="M341 421L50 421L50 466Q174 554 226.50 606.50Q279 659 279 705Q279 741 254 759.50Q229 778 194 778Q121 778 82 726L49 764Q99 827 196 827Q256 827 297.50 796.50Q339 766 339 709Q339 653 289 597.50Q239 542 138 470L341 470L341 421Z"  horiz-adv-x="388" vert-adv-y="1000"  />

      
      <glyph glyph-name="unib3" unicode="&#xb3;" d="M343 530Q343 478 302 446Q261 414 192 414Q89 414 42 479L74 517Q118 463 190 463Q233 463 258 482Q283 501 283 533Q283 602 179 602Q145 602 139 601L139 651Q146 650 178 650Q276 650 276 714Q276 744 250.50 761Q225 778 187 778Q123 778 78 729L47 765Q102 827 192 827Q256 827 296 798Q336 769 336 720Q336 680 309 656.50Q282 633 247 627Q281 624 312 599Q343 574 343 530Z"  horiz-adv-x="388" vert-adv-y="1000"  />

      
      <glyph glyph-name="unib4" unicode="&#xb4;" d="M226 700L57 556L0 556L148 700L226 700Z"  horiz-adv-x="226" vert-adv-y="1000"  />

      
      <glyph glyph-name="unib5" unicode="&#xb5;" d="M150 36L150-184L75-184L75 483L150 483L150 165Q150 53 260 53Q301 53 340 75Q379 97 401 128L401 483L476 483L476 113Q476 55 523 55Q534 55 542 57L548-8Q526-12 508-12Q420-12 404 74Q377 37 336 12.50Q295-12 251-12Q176-12 150 36Z"  horiz-adv-x="565" vert-adv-y="1000"  />

      
      <glyph glyph-name="unib6" unicode="&#xb6;" d="M378-100L333-100L333 622L244 622L244-100L199-100L199 323Q128 323 77.50 373.50Q27 424 27 495Q27 566 77.50 616.50Q128 667 199 667L378 667L378-100Z"  horiz-adv-x="449" vert-adv-y="1000"  />

      
      <glyph glyph-name="unib7" unicode="&#xb7;" d="M154 282.50Q154 282.50 162 274.25Q170 266 170 244Q170 222 153.50 206Q137 190 115 190Q93 190 76.50 206Q60 222 60 244Q60 266 76 282.50Q92 299 115 299Q138 299 154 282.50Z"  horiz-adv-x="230" vert-adv-y="1000"  />

      
      <glyph glyph-name="unib8" unicode="&#xb8;" d="M101-191Q38-191 0-161L19-123Q54-152 99-152Q124-152 142-140.50Q160-129 160-110Q160-75 123-75Q100-75 85-92L52-73L83 11L128 11L102-55Q118-44 139-44Q168-44 186.50-62.50Q205-81 205-111Q205-147 175-169Q145-191 101-191Z"  horiz-adv-x="205" vert-adv-y="1000"  />

      
      <glyph glyph-name="unib9" unicode="&#xb9;" d="M175 421L115 421L115 743L49 674L14 711L122 821L175 821L175 421Z"  horiz-adv-x="235" vert-adv-y="1000"  />

      
      <glyph glyph-name="uniba" unicode="&#xba;" d="M202 318Q129 318 84.50 365.50Q40 413 40 483Q40 553 84.50 600.50Q129 648 202 648Q276 648 320.50 600.50Q365 553 365 483Q365 413 320.50 365.50Q276 318 202 318M202 366Q250 366 278 399Q306 432 306 483Q306 533 278 565.50Q250 598 202 598Q155 598 127.50 565.50Q100 533 100 483Q100 432 127.50 399Q155 366 202 366Z"  horiz-adv-x="405" vert-adv-y="1000"  />

      
      <glyph glyph-name="unibb" unicode="&#xbb;" d="M265 243L105 63L30 63L190 243L30 420L105 420L265 243M409 243L249 63L174 63L334 243L174 420L249 420L409 243Z"  horiz-adv-x="439" vert-adv-y="1000"  />

      
      <glyph glyph-name="unibc" unicode="&#xbc;" d="M175 267L115 267L115 589L49 520L14 557L122 667L175 667L175 267M733 100L675 100L675 0L616 0L616 100L420 100L420 144L592 400L675 400L675 149L733 149L733 100M616 149L616 347L480 149L616 149M590 667L163 0L108 0L534 667L590 667Z"  horiz-adv-x="770" vert-adv-y="1000"  />

      
      <glyph glyph-name="unibd" unicode="&#xbd;" d="M175 267L115 267L115 589L49 520L14 557L122 667L175 667L175 267M759 0L468 0L468 45Q592 133 644.50 185.50Q697 238 697 284Q697 320 672 338.50Q647 357 612 357Q539 357 500 305L467 343Q516 406 614 406Q674 406 715.50 375.50Q757 345 757 288Q757 232 707 176.50Q657 121 556 49L759 49L759 0M590 667L163 0L108 0L534 667L590 667Z"  horiz-adv-x="807" vert-adv-y="1000"  />

      
      <glyph glyph-name="unibe" unicode="&#xbe;" d="M842 100L784 100L784 0L725 0L725 100L529 100L529 144L701 400L784 400L784 149L842 149L842 100M725 149L725 347L589 149L725 149M698 667L271 0L216 0L642 667L698 667M343 376Q343 324 302 292Q261 260 192 260Q89 260 42 325L74 363Q118 309 190 309Q233 309 258 328Q283 347 283 379Q283 448 179 448Q145 448 139 447L139 497Q146 496 178 496Q276 496 276 560Q276 590 250.50 607Q225 624 187 624Q123 624 78 575L47 611Q102 673 192 673Q256 673 296 644Q336 615 336 566Q336 526 309 502.50Q282 479 247 473Q281 470 312 445Q343 420 343 376Z"  horiz-adv-x="878" vert-adv-y="1000"  />

      
      <glyph glyph-name="unibf" unicode="&#xbf;" d="M258 296Q297 261 297 214Q297 179 278.50 151Q260 123 233.50 103.50Q207 84 180.50 66Q154 48 135.50 23.50Q117-1 117-30Q117-69 147.50-95.50Q178-122 234-122Q333-122 394-41L443-94Q365-196 227-196Q138-196 84.50-151.50Q31-107 31-41Q31 1 51 34.50Q71 68 99 89Q127 110 155.50 129Q184 148 204 171Q224 194 224 221Q224 249 198 269L258 296M199.50 476.50Q199.50 476.50 207.75 484.75Q216 493 238 493Q260 493 276.50 476.50Q293 460 293 437Q293 415 276.50 399Q260 383 238 383Q216 383 199.50 399Q183 415 183 437Q183 460 199.50 476.50Z"  horiz-adv-x="394" vert-adv-y="1000"  />

      
      <glyph glyph-name="unic0" unicode="&#xc0;" d="M649 0L554 0L495 148L163 148L104 0L9 0L277 667L380 667L649 0M470 222L329 581L187 222L470 222M386 723L329 723L160 867L238 867L386 723Z"  horiz-adv-x="658" vert-adv-y="1000"  />

      
      <glyph glyph-name="unic1" unicode="&#xc1;" d="M649 0L554 0L495 148L163 148L104 0L9 0L277 667L380 667L649 0M470 222L329 581L187 222L470 222M498 867L329 723L272 723L420 867L498 867Z"  horiz-adv-x="658" vert-adv-y="1000"  />

      
      <glyph glyph-name="unic2" unicode="&#xc2;" d="M463 723L412 723L329 829L249 723L198 723L293 867L365 867L463 723M649 0L554 0L495 148L163 148L104 0L9 0L277 667L380 667L649 0M470 222L329 581L187 222L470 222Z"  horiz-adv-x="658" vert-adv-y="1000"  />

      
      <glyph glyph-name="unic3" unicode="&#xc3;" d="M649 0L554 0L495 148L163 148L104 0L9 0L277 667L380 667L649 0M470 222L329 581L187 222L470 222M389 721Q364 721 345.50 735.50Q327 750 318 767Q309 784 295.50 798.50Q282 813 266 813Q245 813 231.50 791.50Q218 770 218 727L173 727Q173 787 198.50 824Q224 861 270 861Q294 861 312.50 846.50Q331 832 340.50 815Q350 798 363.50 783.50Q377 769 393 769Q414 769 427.50 790.50Q441 812 441 855L486 855Q486 795 460.50 758Q435 721 389 721Z"  horiz-adv-x="658" vert-adv-y="1000"  />

      
      <glyph glyph-name="unic4" unicode="&#xc4;" d="M466 803.50Q466 803.50 473 796.75Q480 790 480 771Q480 752 466 738Q452 724 433 724Q414 724 400 738Q386 752 386 771Q386 790 400 803.50Q414 817 433 817Q452 817 466 803.50M259.50 803.50Q259.50 803.50 266.25 796.75Q273 790 273 771Q273 752 259.50 738Q246 724 227 724Q208 724 194 738Q180 752 180 771Q180 790 194 803.50Q208 817 227 817Q246 817 259.50 803.50M649 0L554 0L495 148L163 148L104 0L9 0L277 667L380 667L649 0M470 222L329 581L187 222L470 222Z"  horiz-adv-x="658" vert-adv-y="1000"  />

      
      <glyph glyph-name="unic5" unicode="&#xc5;" d="M649 0L554 0L495 148L163 148L104 0L9 0L277 667L380 667L649 0M470 222L329 581L187 222L470 222M398.50 719Q398.50 719 384.25 704.50Q370 690 329 690Q288 690 259.50 719Q231 748 231 788Q231 829 260 858Q289 887 329 887Q369 887 398 858Q427 829 427 788Q427 748 398.50 719M288 746.50Q288 746.50 296.50 737.75Q305 729 329 729Q353 729 370 746.50Q387 764 387 788Q387 813 370.50 830Q354 847 329 847Q305 847 288 830Q271 813 271 788Q271 764 288 746.50Z"  horiz-adv-x="658" vert-adv-y="1000"  />

      
      <glyph glyph-name="unic6" unicode="&#xc6;" d="M893 0L456 0L456 148L193 148L102 0L7 0L423 667L893 667L893 593L539 593L539 378L886 378L886 304L539 304L539 74L893 74L893 0M456 222L456 581L234 222L456 222Z"  horiz-adv-x="947" vert-adv-y="1000"  />

      
      <glyph glyph-name="unic7" unicode="&#xc7;" d="M388-187Q324-187 287-157L306-119Q341-148 386-148Q411-148 429-136.50Q447-125 447-106Q447-71 410-71Q387-71 372-88L339-69L360-10Q226 1 138.50 95.50Q51 190 51 333Q51 485 149.50 581.50Q248 678 394 678Q554 678 647 546L577 507Q548 550 499 577Q450 604 394 604Q284 604 210.50 527.50Q137 451 137 333Q137 215 210.50 138.50Q284 62 394 62Q450 62 499 88.50Q548 115 577 159L648 120Q553-8 404-12L389-51Q405-40 426-40Q455-40 473.50-58.50Q492-77 492-107Q492-143 462-165Q432-187 388-187Z"  horiz-adv-x="676" vert-adv-y="1000"  />

      
      <glyph glyph-name="unic8" unicode="&#xc8;" d="M515 0L78 0L78 667L515 667L515 593L161 593L161 378L508 378L508 304L161 304L161 74L515 74L515 0M353 723L296 723L127 867L205 867L353 723Z"  horiz-adv-x="569" vert-adv-y="1000"  />

      
      <glyph glyph-name="unic9" unicode="&#xc9;" d="M465 867L296 723L239 723L387 867L465 867M515 0L78 0L78 667L515 667L515 593L161 593L161 378L508 378L508 304L161 304L161 74L515 74L515 0Z"  horiz-adv-x="569" vert-adv-y="1000"  />

      
      <glyph glyph-name="unica" unicode="&#xca;" d="M428 723L377 723L294 829L214 723L163 723L258 867L330 867L428 723M515 0L78 0L78 667L515 667L515 593L161 593L161 378L508 378L508 304L161 304L161 74L515 74L515 0Z"  horiz-adv-x="569" vert-adv-y="1000"  />

      
      <glyph glyph-name="unicb" unicode="&#xcb;" d="M432 803.50Q432 803.50 439 796.75Q446 790 446 771Q446 752 432 738Q418 724 399 724Q380 724 366 738Q352 752 352 771Q352 790 366 803.50Q380 817 399 817Q418 817 432 803.50M225.50 803.50Q225.50 803.50 232.25 796.75Q239 790 239 771Q239 752 225.50 738Q212 724 193 724Q174 724 160 738Q146 752 146 771Q146 790 160 803.50Q174 817 193 817Q212 817 225.50 803.50M515 0L78 0L78 667L515 667L515 593L161 593L161 378L508 378L508 304L161 304L161 74L515 74L515 0Z"  horiz-adv-x="569" vert-adv-y="1000"  />

      
      <glyph glyph-name="unicc" unicode="&#xcc;" d="M161 0L78 0L78 667L161 667L161 0M176 723L119 723L-50 867L28 867L176 723Z"  horiz-adv-x="239" vert-adv-y="1000"  />

      
      <glyph glyph-name="unicd" unicode="&#xcd;" d="M161 0L78 0L78 667L161 667L161 0M289 867L120 723L63 723L211 867L289 867Z"  horiz-adv-x="239" vert-adv-y="1000"  />

      
      <glyph glyph-name="unice" unicode="&#xce;" d="M253 723L202 723L119 829L39 723L-12 723L83 867L155 867L253 723M161 0L78 0L78 667L161 667L161 0Z"  horiz-adv-x="239" vert-adv-y="1000"  />

      
      <glyph glyph-name="unicf" unicode="&#xcf;" d="M256 803.50Q256 803.50 263 796.75Q270 790 270 771Q270 752 256 738Q242 724 223 724Q204 724 190 738Q176 752 176 771Q176 790 190 803.50Q204 817 223 817Q242 817 256 803.50M49.50 803.50Q49.50 803.50 56.25 796.75Q63 790 63 771Q63 752 49.50 738Q36 724 17 724Q-2 724-16 738Q-30 752-30 771Q-30 790-16 803.50Q-2 817 17 817Q36 817 49.50 803.50M161 0L78 0L78 667L161 667L161 0Z"  horiz-adv-x="239" vert-adv-y="1000"  />

      
      <glyph glyph-name="unid0" unicode="&#xd0;" d="M334 0L106 0L106 299L10 299L10 360L106 360L106 667L334 667Q487 667 581.50 572Q676 477 676 333Q676 188 581.50 94Q487 0 334 0M334 74Q452 74 521 148Q590 222 590 333Q590 445 522 519Q454 593 334 593L189 593L189 360L358 360L358 299L189 299L189 74L334 74Z"  horiz-adv-x="728" vert-adv-y="1000"  />

      
      <glyph glyph-name="unid1" unicode="&#xd1;" d="M412 721Q387 721 368.50 735.50Q350 750 341 767Q332 784 318.50 798.50Q305 813 289 813Q268 813 254.50 791.50Q241 770 241 727L196 727Q196 787 221.50 824Q247 861 293 861Q317 861 335.50 846.50Q354 832 363.50 815Q373 798 386.50 783.50Q400 769 416 769Q437 769 450.50 790.50Q464 812 464 855L509 855Q509 795 483.50 758Q458 721 412 721M630 0L550 0L161 532L161 0L78 0L78 667L163 667L547 146L547 667L630 667L630 0Z"  horiz-adv-x="708" vert-adv-y="1000"  />

      
      <glyph glyph-name="unid2" unicode="&#xd2;" d="M440 723L383 723L214 867L292 867L440 723M382-12Q235-12 143 86Q51 184 51 333Q51 482 143 580Q235 678 382 678Q528 678 620.50 580Q713 482 713 333Q713 184 620.50 86Q528-12 382-12M382 62Q492 62 559.50 138.50Q627 215 627 333Q627 452 559.50 528Q492 604 382 604Q271 604 204 528Q137 452 137 333Q137 215 204 138.50Q271 62 382 62Z"  horiz-adv-x="765" vert-adv-y="1000"  />

      
      <glyph glyph-name="unid3" unicode="&#xd3;" d="M552 867L383 723L326 723L474 867L552 867M382-12Q235-12 143 86Q51 184 51 333Q51 482 143 580Q235 678 382 678Q528 678 620.50 580Q713 482 713 333Q713 184 620.50 86Q528-12 382-12M382 62Q492 62 559.50 138.50Q627 215 627 333Q627 452 559.50 528Q492 604 382 604Q271 604 204 528Q137 452 137 333Q137 215 204 138.50Q271 62 382 62Z"  horiz-adv-x="765" vert-adv-y="1000"  />

      
      <glyph glyph-name="unid4" unicode="&#xd4;" d="M517 723L466 723L383 829L303 723L252 723L347 867L419 867L517 723M382-12Q235-12 143 86Q51 184 51 333Q51 482 143 580Q235 678 382 678Q528 678 620.50 580Q713 482 713 333Q713 184 620.50 86Q528-12 382-12M382 62Q492 62 559.50 138.50Q627 215 627 333Q627 452 559.50 528Q492 604 382 604Q271 604 204 528Q137 452 137 333Q137 215 204 138.50Q271 62 382 62Z"  horiz-adv-x="765" vert-adv-y="1000"  />

      
      <glyph glyph-name="unid5" unicode="&#xd5;" d="M382-12Q235-12 143 86Q51 184 51 333Q51 482 143 580Q235 678 382 678Q528 678 620.50 580Q713 482 713 333Q713 184 620.50 86Q528-12 382-12M382 62Q492 62 559.50 138.50Q627 215 627 333Q627 452 559.50 528Q492 604 382 604Q271 604 204 528Q137 452 137 333Q137 215 204 138.50Q271 62 382 62M442 721Q417 721 398.50 735.50Q380 750 371 767Q362 784 348.50 798.50Q335 813 319 813Q298 813 284.50 791.50Q271 770 271 727L226 727Q226 787 251.50 824Q277 861 323 861Q347 861 365.50 846.50Q384 832 393.50 815Q403 798 416.50 783.50Q430 769 446 769Q467 769 480.50 790.50Q494 812 494 855L539 855Q539 795 513.50 758Q488 721 442 721Z"  horiz-adv-x="765" vert-adv-y="1000"  />

      
      <glyph glyph-name="unid6" unicode="&#xd6;" d="M518 803.50Q518 803.50 525 796.75Q532 790 532 771Q532 752 518 738Q504 724 485 724Q466 724 452 738Q438 752 438 771Q438 790 452 803.50Q466 817 485 817Q504 817 518 803.50M311.50 803.50Q311.50 803.50 318.25 796.75Q325 790 325 771Q325 752 311.50 738Q298 724 279 724Q260 724 246 738Q232 752 232 771Q232 790 246 803.50Q260 817 279 817Q298 817 311.50 803.50M382-12Q235-12 143 86Q51 184 51 333Q51 482 143 580Q235 678 382 678Q528 678 620.50 580Q713 482 713 333Q713 184 620.50 86Q528-12 382-12M382 62Q492 62 559.50 138.50Q627 215 627 333Q627 452 559.50 528Q492 604 382 604Q271 604 204 528Q137 452 137 333Q137 215 204 138.50Q271 62 382 62Z"  horiz-adv-x="765" vert-adv-y="1000"  />

      
      <glyph glyph-name="unid7" unicode="&#xd7;" d="M398 148L249 297L101 148L64 185L212 334L64 482L101 520L249 371L398 520L435 482L287 334L435 185L398 148Z"  horiz-adv-x="499" vert-adv-y="1000"  />

      
      <glyph glyph-name="unid8" unicode="&#xd8;" d="M382-12Q285-12 209 33L187 0L121 0L165 65Q51 163 51 333Q51 482 143 580Q235 678 382 678Q474 678 549 636L570 667L636 667L594 605Q651 558 682 487.50Q713 417 713 333Q713 184 620.50 86Q528-12 382-12M382 62Q492 62 559.50 138.50Q627 215 627 333Q627 463 549 538L252 97Q307 62 382 62M137 333Q137 207 210 132L506 572Q450 604 382 604Q271 604 204 528Q137 452 137 333Z"  horiz-adv-x="765" vert-adv-y="1000"  />

      
      <glyph glyph-name="unid9" unicode="&#xd9;" d="M552.50 60.50Q552.50 60.50 517.75 24.25Q483-12 350-12Q217-12 147.50 60.50Q78 133 78 259L78 667L161 667L161 261Q161 168 210 115Q259 62 350 62Q441 62 490 115Q539 168 539 261L539 667L622 667L622 260Q622 133 552.50 60.50M407 723L350 723L181 867L259 867L407 723Z"  horiz-adv-x="700" vert-adv-y="1000"  />

      
      <glyph glyph-name="unida" unicode="&#xda;" d="M519 867L350 723L293 723L441 867L519 867M552.50 60.50Q552.50 60.50 517.75 24.25Q483-12 350-12Q217-12 147.50 60.50Q78 133 78 259L78 667L161 667L161 261Q161 168 210 115Q259 62 350 62Q441 62 490 115Q539 168 539 261L539 667L622 667L622 260Q622 133 552.50 60.50Z"  horiz-adv-x="700" vert-adv-y="1000"  />

      
      <glyph glyph-name="unidb" unicode="&#xdb;" d="M485 723L434 723L351 829L271 723L220 723L315 867L387 867L485 723M552.50 60.50Q552.50 60.50 517.75 24.25Q483-12 350-12Q217-12 147.50 60.50Q78 133 78 259L78 667L161 667L161 261Q161 168 210 115Q259 62 350 62Q441 62 490 115Q539 168 539 261L539 667L622 667L622 260Q622 133 552.50 60.50Z"  horiz-adv-x="700" vert-adv-y="1000"  />

      
      <glyph glyph-name="unidc" unicode="&#xdc;" d="M487 803.50Q487 803.50 494 796.75Q501 790 501 771Q501 752 487 738Q473 724 454 724Q435 724 421 738Q407 752 407 771Q407 790 421 803.50Q435 817 454 817Q473 817 487 803.50M280.50 803.50Q280.50 803.50 287.25 796.75Q294 790 294 771Q294 752 280.50 738Q267 724 248 724Q228 724 214.50 738Q201 752 201 771Q201 790 215 803.50Q229 817 248 817Q267 817 280.50 803.50M552.50 60.50Q552.50 60.50 517.75 24.25Q483-12 350-12Q217-12 147.50 60.50Q78 133 78 259L78 667L161 667L161 261Q161 168 210 115Q259 62 350 62Q441 62 490 115Q539 168 539 261L539 667L622 667L622 260Q622 133 552.50 60.50Z"  horiz-adv-x="700" vert-adv-y="1000"  />

      
      <glyph glyph-name="unidd" unicode="&#xdd;" d="M355 0L272 0L272 282L9 667L106 667L313 357L520 667L617 667L355 282L355 0M482 867L313 723L256 723L404 867L482 867Z"  horiz-adv-x="626" vert-adv-y="1000"  />

      
      <glyph glyph-name="unide" unicode="&#xde;" d="M161 0L78 0L78 667L161 667L161 548L346 548Q443 548 499 490Q555 432 555 346Q555 261 498.50 203.50Q442 146 346 146L161 146L161 0M336 220Q395 220 432 255Q469 290 469 346Q469 402 432 438Q395 474 336 474L161 474L161 220L336 220Z"  horiz-adv-x="587" vert-adv-y="1000"  />

      
      <glyph glyph-name="unidf" unicode="&#xdf;" d="M578 135Q578 73 529.50 30.50Q481-12 392-12Q326-12 284.50 8Q243 28 206 66L244 118Q267 88 305.50 68.50Q344 49 392 49Q446 49 475.50 73.50Q505 98 505 133Q505 165 475.50 183.50Q446 202 404 212Q362 222 319.50 234.50Q277 247 247.50 277.50Q218 308 218 356Q218 393 241 422Q264 451 291 466Q318 481 341 501Q364 521 364 542Q364 574 334 592Q304 610 265 610Q216 610 183 579.50Q150 549 150 499L150 0L75 0L75 499Q75 574 127.50 625.50Q180 677 266 677Q338 677 389.50 642.50Q441 608 441 551Q441 514 417.50 486Q394 458 366 443.50Q338 429 314.50 406.50Q291 384 291 357Q291 329 320.50 312.50Q350 296 392 287Q434 278 476.50 265Q519 252 548.50 219.50Q578 187 578 135Z"  horiz-adv-x="597" vert-adv-y="1000"  />

      
      <glyph glyph-name="unie0" unicode="&#xe0;" d="M452 0L377 0L377 55Q316-12 217-12Q150-12 99 31Q48 74 48 148Q48 224 98.50 265.50Q149 307 217 307Q320 307 377 241L377 328Q377 376 343 403Q309 430 255 430Q170 430 107 363L72 415Q149 495 265 495Q348 495 400 455Q452 415 452 332L452 0M244 42Q334 42 377 102L377 193Q334 253 244 253Q192 253 158.50 223.50Q125 194 125 147Q125 101 158.50 71.50Q192 42 244 42M322 556L265 556L96 700L174 700L322 556Z"  horiz-adv-x="527" vert-adv-y="1000"  />

      
      <glyph glyph-name="unie1" unicode="&#xe1;" d="M452 0L377 0L377 55Q316-12 217-12Q150-12 99 31Q48 74 48 148Q48 224 98.50 265.50Q149 307 217 307Q320 307 377 241L377 328Q377 376 343 403Q309 430 255 430Q170 430 107 363L72 415Q149 495 265 495Q348 495 400 455Q452 415 452 332L452 0M244 42Q334 42 377 102L377 193Q334 253 244 253Q192 253 158.50 223.50Q125 194 125 147Q125 101 158.50 71.50Q192 42 244 42M434 700L265 556L208 556L356 700L434 700Z"  horiz-adv-x="527" vert-adv-y="1000"  />

      
      <glyph glyph-name="unie2" unicode="&#xe2;" d="M452 0L377 0L377 55Q316-12 217-12Q150-12 99 31Q48 74 48 148Q48 224 98.50 265.50Q149 307 217 307Q320 307 377 241L377 328Q377 376 343 403Q309 430 255 430Q170 430 107 363L72 415Q149 495 265 495Q348 495 400 455Q452 415 452 332L452 0M244 42Q334 42 377 102L377 193Q334 253 244 253Q192 253 158.50 223.50Q125 194 125 147Q125 101 158.50 71.50Q192 42 244 42M398 556L347 556L264 662L184 556L133 556L228 700L300 700L398 556Z"  horiz-adv-x="527" vert-adv-y="1000"  />

      
      <glyph glyph-name="unie3" unicode="&#xe3;" d="M452 0L377 0L377 55Q316-12 217-12Q150-12 99 31Q48 74 48 148Q48 224 98.50 265.50Q149 307 217 307Q320 307 377 241L377 328Q377 376 343 403Q309 430 255 430Q170 430 107 363L72 415Q149 495 265 495Q348 495 400 455Q452 415 452 332L452 0M244 42Q334 42 377 102L377 193Q334 253 244 253Q192 253 158.50 223.50Q125 194 125 147Q125 101 158.50 71.50Q192 42 244 42M325 554Q300 554 281.50 568.50Q263 583 254 600Q245 617 231.50 631.50Q218 646 202 646Q181 646 167.50 624.50Q154 603 154 560L109 560Q109 620 134.50 657Q160 694 206 694Q230 694 248.50 679.50Q267 665 276.50 648Q286 631 299.50 616.50Q313 602 329 602Q350 602 363.50 623.50Q377 645 377 688L422 688Q422 628 396.50 591Q371 554 325 554Z"  horiz-adv-x="527" vert-adv-y="1000"  />

      
      <glyph glyph-name="unie4" unicode="&#xe4;" d="M452 0L377 0L377 55Q316-12 217-12Q150-12 99 31Q48 74 48 148Q48 224 98.50 265.50Q149 307 217 307Q320 307 377 241L377 328Q377 376 343 403Q309 430 255 430Q170 430 107 363L72 415Q149 495 265 495Q348 495 400 455Q452 415 452 332L452 0M244 42Q334 42 377 102L377 193Q334 253 244 253Q192 253 158.50 223.50Q125 194 125 147Q125 101 158.50 71.50Q192 42 244 42M401 636.50Q401 636.50 408 629.75Q415 623 415 604Q415 585 401 571Q387 557 368 557Q349 557 335 571Q321 585 321 604Q321 623 335 636.50Q349 650 368 650Q387 650 401 636.50M194.50 636.50Q194.50 636.50 201.25 629.75Q208 623 208 604Q208 585 194.50 571Q181 557 162 557Q142 557 128.50 570.50Q115 584 115 604Q115 623 129 636.50Q143 650 162 650Q181 650 194.50 636.50Z"  horiz-adv-x="527" vert-adv-y="1000"  />

      
      <glyph glyph-name="unie5" unicode="&#xe5;" d="M452 0L377 0L377 55Q316-12 217-12Q150-12 99 31Q48 74 48 148Q48 224 98.50 265.50Q149 307 217 307Q320 307 377 241L377 328Q377 376 343 403Q309 430 255 430Q170 430 107 363L72 415Q149 495 265 495Q348 495 400 455Q452 415 452 332L452 0M244 42Q334 42 377 102L377 193Q334 253 244 253Q192 253 158.50 223.50Q125 194 125 147Q125 101 158.50 71.50Q192 42 244 42M334.50 571.50Q334.50 571.50 320.25 557.25Q306 543 265 543Q224 543 195.50 571.50Q167 600 167 641Q167 682 196 711Q225 740 265 740Q305 740 334 711Q363 682 363 641Q363 600 334.50 571.50M224 599.50Q224 599.50 232.50 590.75Q241 582 265 582Q289 582 306 599.50Q323 617 323 641Q323 666 306.50 683Q290 700 265 700Q241 700 224 683Q207 666 207 641Q207 617 224 599.50Z"  horiz-adv-x="527" vert-adv-y="1000"  />

      
      <glyph glyph-name="unie6" unicode="&#xe6;" d="M843 217L476 217Q481 146 524 99Q567 52 637 52Q721 52 776 113L812 62Q740-12 634-12Q498-12 441 104Q415 52 361.50 20Q308-12 242-12Q160-12 104 30.50Q48 73 48 148Q48 223 99.50 265Q151 307 226 307Q338 307 401 243L401 329Q401 376 364.50 403Q328 430 268 430Q174 430 107 363L72 415Q151 495 277 495Q341 495 388 469Q435 443 448 390Q508 495 627 495Q728 495 785.50 422Q843 349 843 236L843 217M476 272L769 272Q768 335 731 384Q694 433 622 433Q556 433 517.50 383.50Q479 334 476 272M401 180L401 192Q349 253 256 253Q197 253 161 225.50Q125 198 125 152Q125 107 161 79.50Q197 52 256 52Q318 52 359.50 91Q401 130 401 180Z"  horiz-adv-x="889" vert-adv-y="1000"  />

      
      <glyph glyph-name="unie7" unicode="&#xe7;" d="M289-189Q226-189 188-159L207-121Q242-150 287-150Q312-150 330-138.50Q348-127 348-108Q348-73 311-73Q288-73 273-90L240-71L262-10Q166-1 106.50 69Q47 139 47 242Q47 351 114 423Q181 495 288 495Q400 495 465 411L415 365Q369 428 292 428Q216 428 170.50 376Q125 324 125 242Q125 160 170.50 107.50Q216 55 292 55Q368 55 415 118L465 72Q405-5 306-11L290-53Q306-42 327-42Q356-42 374.50-60.50Q393-79 393-109Q393-145 363-167Q333-189 289-189Z"  horiz-adv-x="495" vert-adv-y="1000"  />

      
      <glyph glyph-name="unie8" unicode="&#xe8;" d="M293-12Q185-12 116 58.50Q47 129 47 242Q47 348 115 421.50Q183 495 285 495Q392 495 454.50 421.50Q517 348 517 236L517 217L126 217Q131 146 178 98Q225 50 300 50Q390 50 449 111L485 62Q411-12 293-12M443 272Q442 334 401 383.50Q360 433 284 433Q212 433 170.50 384Q129 335 126 272L443 272M342 556L285 556L116 700L194 700L342 556Z"  horiz-adv-x="563" vert-adv-y="1000"  />

      
      <glyph glyph-name="unie9" unicode="&#xe9;" d="M454 700L285 556L228 556L376 700L454 700M293-12Q185-12 116 58.50Q47 129 47 242Q47 348 115 421.50Q183 495 285 495Q392 495 454.50 421.50Q517 348 517 236L517 217L126 217Q131 146 178 98Q225 50 300 50Q390 50 449 111L485 62Q411-12 293-12M443 272Q442 334 401 383.50Q360 433 284 433Q212 433 170.50 384Q129 335 126 272L443 272Z"  horiz-adv-x="563" vert-adv-y="1000"  />

      
      <glyph glyph-name="uniea" unicode="&#xea;" d="M419 556L368 556L285 662L205 556L154 556L249 700L321 700L419 556M293-12Q185-12 116 58.50Q47 129 47 242Q47 348 115 421.50Q183 495 285 495Q392 495 454.50 421.50Q517 348 517 236L517 217L126 217Q131 146 178 98Q225 50 300 50Q390 50 449 111L485 62Q411-12 293-12M443 272Q442 334 401 383.50Q360 433 284 433Q212 433 170.50 384Q129 335 126 272L443 272Z"  horiz-adv-x="563" vert-adv-y="1000"  />

      
      <glyph glyph-name="unieb" unicode="&#xeb;" d="M422 636.50Q422 636.50 429 629.75Q436 623 436 604Q436 585 422 571Q408 557 389 557Q370 557 356 571Q342 585 342 604Q342 623 356 636.50Q370 650 389 650Q408 650 422 636.50M215.50 636.50Q215.50 636.50 222.25 629.75Q229 623 229 604Q229 585 215.50 571Q202 557 183 557Q164 557 150 570.50Q136 584 136 604Q136 623 150 636.50Q164 650 183 650Q202 650 215.50 636.50M293-12Q185-12 116 58.50Q47 129 47 242Q47 348 115 421.50Q183 495 285 495Q392 495 454.50 421.50Q517 348 517 236L517 217L126 217Q131 146 178 98Q225 50 300 50Q390 50 449 111L485 62Q411-12 293-12M443 272Q442 334 401 383.50Q360 433 284 433Q212 433 170.50 384Q129 335 126 272L443 272Z"  horiz-adv-x="563" vert-adv-y="1000"  />

      
      <glyph glyph-name="uniec" unicode="&#xec;" d="M150 0L75 0L75 483L150 483L150 0M169 556L112 556L-57 700L21 700L169 556Z"  horiz-adv-x="225" vert-adv-y="1000"  />

      
      <glyph glyph-name="unied" unicode="&#xed;" d="M282 700L113 556L56 556L204 700L282 700M150 0L75 0L75 483L150 483L150 0Z"  horiz-adv-x="225" vert-adv-y="1000"  />

      
      <glyph glyph-name="uniee" unicode="&#xee;" d="M245 556L194 556L111 662L31 556L-20 556L75 700L147 700L245 556M150 0L75 0L75 483L150 483L150 0Z"  horiz-adv-x="225" vert-adv-y="1000"  />

      
      <glyph glyph-name="unief" unicode="&#xef;" d="M249 636.50Q249 636.50 256 629.75Q263 623 263 604Q263 585 249 571Q235 557 216 557Q197 557 183 571Q169 585 169 604Q169 623 183 636.50Q197 650 216 650Q235 650 249 636.50M42.50 636.50Q42.50 636.50 49.25 629.75Q56 623 56 604Q56 585 42.50 571Q29 557 10 557Q-10 557-23.50 570.50Q-37 584-37 604Q-37 623-23 636.50Q-9 650 10 650Q29 650 42.50 636.50M150 0L75 0L75 483L150 483L150 0Z"  horiz-adv-x="225" vert-adv-y="1000"  />

      
      <glyph glyph-name="unif0" unicode="&#xf0;" d="M122 497L104 539L222 591Q211 598 198.50 606Q186 614 170.50 624Q155 634 147 639L188 701Q255 660 300 625L408 673L425 632L339 594Q525 436 525 247Q525 133 460 60.50Q395-12 286-12Q179-12 113 58Q47 128 47 234Q47 340 109 409.50Q171 479 267 479Q363 479 425 390Q376 478 265 560L122 497M168.50 107Q168.50 107 190.25 81Q212 55 286 55Q360 55 403 107Q446 159 446 234Q446 308 403 360Q360 412 286 412Q212 412 168.50 360Q125 308 125 234Q125 159 168.50 107Z"  horiz-adv-x="572" vert-adv-y="1000"  />

      
      <glyph glyph-name="unif1" unicode="&#xf1;" d="M476 0L401 0L401 316Q401 377 373 402.50Q345 428 293 428Q251 428 211.50 406Q172 384 150 353L150 0L75 0L75 483L150 483L150 413Q178 446 225 470.50Q272 495 322 495Q476 495 476 339L476 0M336 554Q311 554 292.50 568.50Q274 583 265 600Q256 617 242.50 631.50Q229 646 213 646Q192 646 178.50 624.50Q165 603 165 560L120 560Q120 620 145.50 657Q171 694 217 694Q241 694 259.50 679.50Q278 665 287.50 648Q297 631 310.50 616.50Q324 602 340 602Q361 602 374.50 623.50Q388 645 388 688L433 688Q433 628 407.50 591Q382 554 336 554Z"  horiz-adv-x="551" vert-adv-y="1000"  />

      
      <glyph glyph-name="unif2" unicode="&#xf2;" d="M459.50 61Q459.50 61 426.75 24.50Q394-12 286-12Q178-12 112.50 61Q47 134 47 242Q47 350 112.50 422.50Q178 495 286 495Q394 495 459.50 422.50Q525 350 525 242Q525 134 459.50 61M168.50 109.50Q168.50 109.50 190.25 82.25Q212 55 286 55Q360 55 403 109.50Q446 164 446 242Q446 320 403 374Q360 428 286 428Q212 428 168.50 373.50Q125 319 125 242Q125 164 168.50 109.50M343 556L286 556L117 700L195 700L343 556Z"  horiz-adv-x="572" vert-adv-y="1000"  />

      
      <glyph glyph-name="unif3" unicode="&#xf3;" d="M455 700L286 556L229 556L377 700L455 700M459.50 61Q459.50 61 426.75 24.50Q394-12 286-12Q178-12 112.50 61Q47 134 47 242Q47 350 112.50 422.50Q178 495 286 495Q394 495 459.50 422.50Q525 350 525 242Q525 134 459.50 61M168.50 109.50Q168.50 109.50 190.25 82.25Q212 55 286 55Q360 55 403 109.50Q446 164 446 242Q446 320 403 374Q360 428 286 428Q212 428 168.50 373.50Q125 319 125 242Q125 164 168.50 109.50Z"  horiz-adv-x="572" vert-adv-y="1000"  />

      
      <glyph glyph-name="unif4" unicode="&#xf4;" d="M419 556L368 556L285 662L205 556L154 556L249 700L321 700L419 556M459.50 61Q459.50 61 426.75 24.50Q394-12 286-12Q178-12 112.50 61Q47 134 47 242Q47 350 112.50 422.50Q178 495 286 495Q394 495 459.50 422.50Q525 350 525 242Q525 134 459.50 61M168.50 109.50Q168.50 109.50 190.25 82.25Q212 55 286 55Q360 55 403 109.50Q446 164 446 242Q446 320 403 374Q360 428 286 428Q212 428 168.50 373.50Q125 319 125 242Q125 164 168.50 109.50Z"  horiz-adv-x="572" vert-adv-y="1000"  />

      
      <glyph glyph-name="unif5" unicode="&#xf5;" d="M459.50 61Q459.50 61 426.75 24.50Q394-12 286-12Q178-12 112.50 61Q47 134 47 242Q47 350 112.50 422.50Q178 495 286 495Q394 495 459.50 422.50Q525 350 525 242Q525 134 459.50 61M168.50 109.50Q168.50 109.50 190.25 82.25Q212 55 286 55Q360 55 403 109.50Q446 164 446 242Q446 320 403 374Q360 428 286 428Q212 428 168.50 373.50Q125 319 125 242Q125 164 168.50 109.50M346 554Q321 554 302.50 568.50Q284 583 275 600Q266 617 252.50 631.50Q239 646 223 646Q202 646 188.50 624.50Q175 603 175 560L130 560Q130 620 155.50 657Q181 694 227 694Q251 694 269.50 679.50Q288 665 297.50 648Q307 631 320.50 616.50Q334 602 350 602Q371 602 384.50 623.50Q398 645 398 688L443 688Q443 628 417.50 591Q392 554 346 554Z"  horiz-adv-x="572" vert-adv-y="1000"  />

      
      <glyph glyph-name="unif6" unicode="&#xf6;" d="M422 636.50Q422 636.50 429 629.75Q436 623 436 604Q436 585 422 571Q408 557 389 557Q370 557 356 571Q342 585 342 604Q342 623 356 636.50Q370 650 389 650Q408 650 422 636.50M215.50 636.50Q215.50 636.50 222.25 629.75Q229 623 229 604Q229 585 215.50 571Q202 557 183 557Q164 557 150 570.50Q136 584 136 604Q136 623 150 636.50Q164 650 183 650Q202 650 215.50 636.50M459.50 61Q459.50 61 426.75 24.50Q394-12 286-12Q178-12 112.50 61Q47 134 47 242Q47 350 112.50 422.50Q178 495 286 495Q394 495 459.50 422.50Q525 350 525 242Q525 134 459.50 61M168.50 109.50Q168.50 109.50 190.25 82.25Q212 55 286 55Q360 55 403 109.50Q446 164 446 242Q446 320 403 374Q360 428 286 428Q212 428 168.50 373.50Q125 319 125 242Q125 164 168.50 109.50Z"  horiz-adv-x="572" vert-adv-y="1000"  />

      
      <glyph glyph-name="unif7" unicode="&#xf7;" d="M288.50 558.50Q288.50 558.50 295.25 551.75Q302 545 302 526Q302 507 288 493.50Q274 480 255 480Q236 480 223 493.50Q210 507 210 526Q210 545 223 558.50Q236 572 255 572Q275 572 288.50 558.50M482 311L29 311L29 363L482 363L482 311M288 176.50Q288 176.50 295 169.75Q302 163 302 144Q302 125 288 111.50Q274 98 255 98Q236 98 223 111.50Q210 125 210 144Q210 163 223 176.50Q236 190 255 190Q274 190 288 176.50Z"  horiz-adv-x="511" vert-adv-y="1000"  />

      
      <glyph glyph-name="unif8" unicode="&#xf8;" d="M118 0L64 0L112 61Q47 132 47 242Q47 350 112.50 422.50Q178 495 286 495Q365 495 423 454L446 483L500 483L455 426Q525 354 525 242Q525 134 459.50 61Q394-12 286-12Q203-12 144 33L118 0M286 55Q360 55 403 109.50Q446 164 446 242Q446 315 408 367L188 89Q230 55 286 55M125 242Q125 172 159 121L378 398Q340 428 286 428Q212 428 168.50 373.50Q125 319 125 242Z"  horiz-adv-x="572" vert-adv-y="1000"  />

      
      <glyph glyph-name="unif9" unicode="&#xf9;" d="M476 0L401 0L401 68Q371 34 325.50 11Q280-12 229-12Q75-12 75 142L75 483L150 483L150 165Q150 105 177.50 80Q205 55 258 55Q300 55 339.50 76Q379 97 401 128L401 483L476 483L476 0M332 556L275 556L106 700L184 700L332 556Z"  horiz-adv-x="551" vert-adv-y="1000"  />

      
      <glyph glyph-name="unifa" unicode="&#xfa;" d="M444 700L275 556L218 556L366 700L444 700M476 0L401 0L401 68Q371 34 325.50 11Q280-12 229-12Q75-12 75 142L75 483L150 483L150 165Q150 105 177.50 80Q205 55 258 55Q300 55 339.50 76Q379 97 401 128L401 483L476 483L476 0Z"  horiz-adv-x="551" vert-adv-y="1000"  />

      
      <glyph glyph-name="unifb" unicode="&#xfb;" d="M408 556L357 556L274 662L194 556L143 556L238 700L310 700L408 556M476 0L401 0L401 68Q371 34 325.50 11Q280-12 229-12Q75-12 75 142L75 483L150 483L150 165Q150 105 177.50 80Q205 55 258 55Q300 55 339.50 76Q379 97 401 128L401 483L476 483L476 0Z"  horiz-adv-x="551" vert-adv-y="1000"  />

      
      <glyph glyph-name="unifc" unicode="&#xfc;" d="M413 636.50Q413 636.50 420 629.75Q427 623 427 604Q427 585 413 571Q399 557 380 557Q361 557 347 571Q333 585 333 604Q333 623 347 636.50Q361 650 380 650Q399 650 413 636.50M206.50 636.50Q206.50 636.50 213.25 629.75Q220 623 220 604Q220 585 206.50 571Q193 557 174 557Q154 557 140.50 570.50Q127 584 127 604Q127 623 141 636.50Q155 650 174 650Q193 650 206.50 636.50M476 0L401 0L401 68Q371 34 325.50 11Q280-12 229-12Q75-12 75 142L75 483L150 483L150 165Q150 105 177.50 80Q205 55 258 55Q300 55 339.50 76Q379 97 401 128L401 483L476 483L476 0Z"  horiz-adv-x="551" vert-adv-y="1000"  />

      
      <glyph glyph-name="unifd" unicode="&#xfd;" d="M48-189L60-121Q78-129 101-129Q127-129 144-118Q161-107 173-78L205-5L3 483L84 483L245 87L405 483L487 483L245-98Q205-194 103-196Q73-196 48-189M414 700L245 556L188 556L336 700L414 700Z"  horiz-adv-x="490" vert-adv-y="1000"  />

      
      <glyph glyph-name="unife" unicode="&#xfe;" d="M313-12Q211-12 150 73L150-184L75-184L75 667L150 667L150 411Q177 449 220 472Q263 495 313 495Q409 495 468.50 426.50Q528 358 528 242Q528 126 468.50 57Q409-12 313-12M294 55Q365 55 407 107.50Q449 160 449 242Q449 324 407 376Q365 428 294 428Q251 428 210.50 405.50Q170 383 150 351L150 133Q170 100 210.50 77.50Q251 55 294 55Z"  horiz-adv-x="572" vert-adv-y="1000"  />

      
      <glyph glyph-name="uniff" unicode="&#xff;" d="M48-189L60-121Q78-129 101-129Q127-129 144-118Q161-107 173-78L205-5L3 483L84 483L245 87L405 483L487 483L245-98Q205-194 103-196Q73-196 48-189M381 636.50Q381 636.50 388 629.75Q395 623 395 604Q395 585 381 571Q367 557 348 557Q329 557 315 571Q301 585 301 604Q301 623 315 636.50Q329 650 348 650Q367 650 381 636.50M174.50 636.50Q174.50 636.50 181.25 629.75Q188 623 188 604Q188 585 174.50 571Q161 557 142 557Q122 557 108.50 570.50Q95 584 95 604Q95 623 109 636.50Q123 650 142 650Q161 650 174.50 636.50Z"  horiz-adv-x="490" vert-adv-y="1000"  />

      
      <glyph glyph-name="uni0100" unicode="&#x0100;" d="M649 0L554 0L495 148L163 148L104 0L9 0L277 667L380 667L649 0M470 222L329 581L187 222L470 222M510 739L147 739L147 787L510 787L510 739Z"  horiz-adv-x="658" vert-adv-y="1000"  />

      
      <glyph glyph-name="uni0101" unicode="&#x0101;" d="M452 0L377 0L377 55Q316-12 217-12Q150-12 99 31Q48 74 48 148Q48 224 98.50 265.50Q149 307 217 307Q320 307 377 241L377 328Q377 376 343 403Q309 430 255 430Q170 430 107 363L72 415Q149 495 265 495Q348 495 400 455Q452 415 452 332L452 0M244 42Q334 42 377 102L377 193Q334 253 244 253Q192 253 158.50 223.50Q125 194 125 147Q125 101 158.50 71.50Q192 42 244 42M445 572L82 572L82 620L445 620L445 572Z"  horiz-adv-x="527" vert-adv-y="1000"  />

      
      <glyph glyph-name="uni0102" unicode="&#x0102;" d="M649 0L554 0L495 148L163 148L104 0L9 0L277 667L380 667L649 0M470 222L329 581L187 222L470 222M504 793Q439 705 329 705Q220 705 153 793L190 825Q242 753 329 753Q417 753 467 825L504 793Z"  horiz-adv-x="658" vert-adv-y="1000"  />

      
      <glyph glyph-name="uni0103" unicode="&#x0103;" d="M452 0L377 0L377 55Q316-12 217-12Q150-12 99 31Q48 74 48 148Q48 224 98.50 265.50Q149 307 217 307Q320 307 377 241L377 328Q377 376 343 403Q309 430 255 430Q170 430 107 363L72 415Q149 495 265 495Q348 495 400 455Q452 415 452 332L452 0M244 42Q334 42 377 102L377 193Q334 253 244 253Q192 253 158.50 223.50Q125 194 125 147Q125 101 158.50 71.50Q192 42 244 42M439 626Q374 538 264 538Q155 538 88 626L125 658Q177 586 264 586Q352 586 402 658L439 626Z"  horiz-adv-x="527" vert-adv-y="1000"  />

      
      <glyph glyph-name="uni0104" unicode="&#x0104;" d="M669-105L706-126Q680-186 617-186Q579-186 553.50-164Q528-142 528-99Q528-42 581 0L554 0L495 148L163 148L104 0L9 0L277 667L380 667L649 0Q573-38 573-97Q573-147 617-147Q655-147 669-105M470 222L329 581L187 222L470 222Z"  horiz-adv-x="658" vert-adv-y="1000"  />

      
      <glyph glyph-name="uni0105" unicode="&#x0105;" d="M472-105L509-126Q483-186 420-186Q382-186 356.50-164Q331-142 331-99Q331-42 384 0L377 0L377 55Q316-12 217-12Q150-12 99 31Q48 74 48 148Q48 224 98.50 265.50Q149 307 217 307Q320 307 377 241L377 328Q377 376 343 403Q309 430 255 430Q170 430 107 363L72 415Q149 495 265 495Q348 495 400 455Q452 415 452 332L452 0Q376-38 376-97Q376-147 420-147Q458-147 472-105M244 42Q334 42 377 102L377 193Q334 253 244 253Q192 253 158.50 223.50Q125 194 125 147Q125 101 158.50 71.50Q192 42 244 42Z"  horiz-adv-x="527" vert-adv-y="1000"  />

      
      <glyph glyph-name="uni0106" unicode="&#x0106;" d="M563 867L394 723L337 723L485 867L563 867M394-12Q248-12 149.50 84.50Q51 181 51 333Q51 485 149.50 581.50Q248 678 394 678Q554 678 647 546L577 507Q548 550 499 577Q450 604 394 604Q284 604 210.50 527.50Q137 451 137 333Q137 215 210.50 138.50Q284 62 394 62Q450 62 499 88.50Q548 115 577 159L648 120Q551-12 394-12Z"  horiz-adv-x="676" vert-adv-y="1000"  />

      
      <glyph glyph-name="uni0107" unicode="&#x0107;" d="M456 700L287 556L230 556L378 700L456 700M288-12Q181-12 114 60.50Q47 133 47 242Q47 351 114 423Q181 495 288 495Q400 495 465 411L415 365Q369 428 292 428Q216 428 170.50 376Q125 324 125 242Q125 160 170.50 107.50Q216 55 292 55Q368 55 415 118L465 72Q400-12 288-12Z"  horiz-adv-x="495" vert-adv-y="1000"  />

      
      <glyph glyph-name="uni0108" unicode="&#x0108;" d="M526 723L475 723L392 829L312 723L261 723L356 867L428 867L526 723M394-12Q248-12 149.50 84.50Q51 181 51 333Q51 485 149.50 581.50Q248 678 394 678Q554 678 647 546L577 507Q548 550 499 577Q450 604 394 604Q284 604 210.50 527.50Q137 451 137 333Q137 215 210.50 138.50Q284 62 394 62Q450 62 499 88.50Q548 115 577 159L648 120Q551-12 394-12Z"  horiz-adv-x="676" vert-adv-y="1000"  />

      
      <glyph glyph-name="uni0109" unicode="&#x0109;" d="M421 556L370 556L287 662L207 556L156 556L251 700L323 700L421 556M288-12Q181-12 114 60.50Q47 133 47 242Q47 351 114 423Q181 495 288 495Q400 495 465 411L415 365Q369 428 292 428Q216 428 170.50 376Q125 324 125 242Q125 160 170.50 107.50Q216 55 292 55Q368 55 415 118L465 72Q400-12 288-12Z"  horiz-adv-x="495" vert-adv-y="1000"  />

      
      <glyph glyph-name="uni010A" unicode="&#x010A;" d="M394-12Q248-12 149.50 84.50Q51 181 51 333Q51 485 149.50 581.50Q248 678 394 678Q554 678 647 546L577 507Q548 550 499 577Q450 604 394 604Q284 604 210.50 527.50Q137 451 137 333Q137 215 210.50 138.50Q284 62 394 62Q450 62 499 88.50Q548 115 577 159L648 120Q551-12 394-12M428.50 735.50Q428.50 735.50 421.75 728.75Q415 722 396 722Q377 722 363 736Q349 750 349 769Q349 788 363 802Q377 816 396 816Q415 816 428.50 802.50Q442 789 442 769Q442 749 428.50 735.50Z"  horiz-adv-x="676" vert-adv-y="1000"  />

      
      <glyph glyph-name="uni010B" unicode="&#x010B;" d="M288-12Q181-12 114 60.50Q47 133 47 242Q47 351 114 423Q181 495 288 495Q400 495 465 411L415 365Q369 428 292 428Q216 428 170.50 376Q125 324 125 242Q125 160 170.50 107.50Q216 55 292 55Q368 55 415 118L465 72Q400-12 288-12M322.50 568.50Q322.50 568.50 315.75 561.75Q309 555 290 555Q271 555 257 569Q243 583 243 602Q243 621 257 635Q271 649 290 649Q309 649 322.50 635.50Q336 622 336 602Q336 582 322.50 568.50Z"  horiz-adv-x="495" vert-adv-y="1000"  />

      
      <glyph glyph-name="uni010C" unicode="&#x010C;" d="M431 723L359 723L261 867L312 867L395 761L475 867L526 867L431 723M394-12Q248-12 149.50 84.50Q51 181 51 333Q51 485 149.50 581.50Q248 678 394 678Q554 678 647 546L577 507Q548 550 499 577Q450 604 394 604Q284 604 210.50 527.50Q137 451 137 333Q137 215 210.50 138.50Q284 62 394 62Q450 62 499 88.50Q548 115 577 159L648 120Q551-12 394-12Z"  horiz-adv-x="676" vert-adv-y="1000"  />

      
      <glyph glyph-name="uni010D" unicode="&#x010D;" d="M326 556L254 556L156 700L207 700L290 594L370 700L421 700L326 556M288-12Q181-12 114 60.50Q47 133 47 242Q47 351 114 423Q181 495 288 495Q400 495 465 411L415 365Q369 428 292 428Q216 428 170.50 376Q125 324 125 242Q125 160 170.50 107.50Q216 55 292 55Q368 55 415 118L465 72Q400-12 288-12Z"  horiz-adv-x="495" vert-adv-y="1000"  />

      
      <glyph glyph-name="uni010E" unicode="&#x010E;" d="M389 723L317 723L219 867L270 867L353 761L433 867L484 867L389 723M306 0L78 0L78 667L306 667Q459 667 553.50 572Q648 477 648 333Q648 188 553.50 94Q459 0 306 0M306 74Q424 74 493 148Q562 222 562 333Q562 445 494 519Q426 593 306 593L161 593L161 74L306 74Z"  horiz-adv-x="700" vert-adv-y="1000"  />

      
      <glyph glyph-name="uni010F" unicode="&#x010F;" d="M648 613Q648 574 628 538Q608 502 577 479L544 505Q567 520 583.50 544.50Q600 569 602 591Q600 589 591 589Q573 589 561 601.50Q549 614 549 633Q549 653 562.50 666.50Q576 680 595 680Q617 680 632.50 662Q648 644 648 613M500 0L425 0L425 72Q363-12 262-12Q166-12 106.50 56.50Q47 125 47 241Q47 356 106.50 425.50Q166 495 262 495Q362 495 425 410L425 667L500 667L500 0M280 55Q324 55 364 77Q404 99 425 131L425 350Q404 383 363.50 405.50Q323 428 280 428Q209 428 167 375.50Q125 323 125 241Q125 159 167 107Q209 55 280 55Z"  horiz-adv-x="644" vert-adv-y="1000"  />

      
      <glyph glyph-name="uni0110" unicode="&#x0110;" d="M334 0L106 0L106 299L10 299L10 360L106 360L106 667L334 667Q487 667 581.50 572Q676 477 676 333Q676 188 581.50 94Q487 0 334 0M334 74Q452 74 521 148Q590 222 590 333Q590 445 522 519Q454 593 334 593L189 593L189 360L358 360L358 299L189 299L189 74L334 74Z"  horiz-adv-x="728" vert-adv-y="1000"  />

      
      <glyph glyph-name="uni0111" unicode="&#x0111;" d="M500 0L425 0L425 72Q363-12 262-12Q166-12 106.50 56.50Q47 125 47 241Q47 356 106.50 425.50Q166 495 262 495Q362 495 425 410L425 535L268 535L268 583L425 583L425 667L500 667L500 583L568 583L568 535L500 535L500 0M280 55Q324 55 364 77Q404 99 425 131L425 350Q404 383 363.50 405.50Q323 428 280 428Q209 428 167 375.50Q125 323 125 241Q125 159 167 107Q209 55 280 55Z"  horiz-adv-x="577" vert-adv-y="1000"  />

      
      <glyph glyph-name="uni0112" unicode="&#x0112;" d="M515 0L78 0L78 667L515 667L515 593L161 593L161 378L508 378L508 304L161 304L161 74L515 74L515 0M477 739L114 739L114 787L477 787L477 739Z"  horiz-adv-x="569" vert-adv-y="1000"  />

      
      <glyph glyph-name="uni0113" unicode="&#x0113;" d="M293-12Q185-12 116 58.50Q47 129 47 242Q47 348 115 421.50Q183 495 285 495Q392 495 454.50 421.50Q517 348 517 236L517 217L126 217Q131 146 178 98Q225 50 300 50Q390 50 449 111L485 62Q411-12 293-12M443 272Q442 334 401 383.50Q360 433 284 433Q212 433 170.50 384Q129 335 126 272L443 272M466 572L103 572L103 620L466 620L466 572Z"  horiz-adv-x="563" vert-adv-y="1000"  />

      
      <glyph glyph-name="uni0114" unicode="&#x0114;" d="M515 0L78 0L78 667L515 667L515 593L161 593L161 378L508 378L508 304L161 304L161 74L515 74L515 0M473 793Q408 705 298 705Q189 705 122 793L159 825Q211 753 298 753Q386 753 436 825L473 793Z"  horiz-adv-x="569" vert-adv-y="1000"  />

      
      <glyph glyph-name="uni0115" unicode="&#x0115;" d="M293-12Q185-12 116 58.50Q47 129 47 242Q47 348 115 421.50Q183 495 285 495Q392 495 454.50 421.50Q517 348 517 236L517 217L126 217Q131 146 178 98Q225 50 300 50Q390 50 449 111L485 62Q411-12 293-12M443 272Q442 334 401 383.50Q360 433 284 433Q212 433 170.50 384Q129 335 126 272L443 272M462 626Q397 538 287 538Q178 538 111 626L148 658Q200 586 287 586Q375 586 425 658L462 626Z"  horiz-adv-x="563" vert-adv-y="1000"  />

      
      <glyph glyph-name="uni0116" unicode="&#x0116;" d="M515 0L78 0L78 667L515 667L515 593L161 593L161 378L508 378L508 304L161 304L161 74L515 74L515 0M332.50 735.50Q332.50 735.50 325.75 728.75Q319 722 300 722Q281 722 267 736Q253 750 253 769Q253 788 267 802Q281 816 300 816Q319 816 332.50 802.50Q346 789 346 769Q346 749 332.50 735.50Z"  horiz-adv-x="569" vert-adv-y="1000"  />

      
      <glyph glyph-name="uni0117" unicode="&#x0117;" d="M293-12Q185-12 116 58.50Q47 129 47 242Q47 348 115 421.50Q183 495 285 495Q392 495 454.50 421.50Q517 348 517 236L517 217L126 217Q131 146 178 98Q225 50 300 50Q390 50 449 111L485 62Q411-12 293-12M443 272Q442 334 401 383.50Q360 433 284 433Q212 433 170.50 384Q129 335 126 272L443 272M318.50 568.50Q318.50 568.50 311.75 561.75Q305 555 286 555Q267 555 253 569Q239 583 239 602Q239 621 253 635Q267 649 286 649Q305 649 318.50 635.50Q332 622 332 602Q332 582 318.50 568.50Z"  horiz-adv-x="563" vert-adv-y="1000"  />

      
      <glyph glyph-name="uni0118" unicode="&#x0118;" d="M515 0Q439-38 439-97Q439-147 483-147Q521-147 535-105L572-126Q546-186 483-186Q445-186 419.50-164Q394-142 394-99Q394-42 447 0L78 0L78 667L515 667L515 593L161 593L161 378L508 378L508 304L161 304L161 74L515 74L515 0Z"  horiz-adv-x="569" vert-adv-y="1000"  />

      
      <glyph glyph-name="uni0119" unicode="&#x0119;" d="M293-12Q185-12 116 58.50Q47 129 47 242Q47 348 115 421.50Q183 495 285 495Q392 495 454.50 421.50Q517 348 517 236L517 217L126 217Q131 146 178 98Q225 50 300 50Q390 50 449 111L485 62Q439 16 379 0Q304-38 304-97Q304-147 348-147Q386-147 400-105L437-126Q411-186 348-186Q310-186 284.50-164Q259-142 259-99Q259-51 298-12L293-12M443 272Q442 334 401 383.50Q360 433 284 433Q212 433 170.50 384Q129 335 126 272L443 272Z"  horiz-adv-x="563" vert-adv-y="1000"  />

      
      <glyph glyph-name="uni011A" unicode="&#x011A;" d="M335 723L263 723L165 867L216 867L299 761L379 867L430 867L335 723M515 0L78 0L78 667L515 667L515 593L161 593L161 378L508 378L508 304L161 304L161 74L515 74L515 0Z"  horiz-adv-x="569" vert-adv-y="1000"  />

      
      <glyph glyph-name="uni011B" unicode="&#x011B;" d="M323 556L251 556L153 700L204 700L287 594L367 700L418 700L323 556M293-12Q185-12 116 58.50Q47 129 47 242Q47 348 115 421.50Q183 495 285 495Q392 495 454.50 421.50Q517 348 517 236L517 217L126 217Q131 146 178 98Q225 50 300 50Q390 50 449 111L485 62Q411-12 293-12M443 272Q442 334 401 383.50Q360 433 284 433Q212 433 170.50 384Q129 335 126 272L443 272Z"  horiz-adv-x="563" vert-adv-y="1000"  />

      
      <glyph glyph-name="uni011C" unicode="&#x011C;" d="M531 723L480 723L397 829L317 723L266 723L361 867L433 867L531 723M394-13Q249-13 150 83.50Q51 180 51 333Q51 486 150 582Q249 678 394 678Q552 678 653 553L587 512Q555 554 503.50 579Q452 604 394 604Q284 604 210.50 527.50Q137 451 137 333Q137 215 210.50 138Q284 61 394 61Q449 61 496.50 82.50Q544 104 573 133L573 269L344 269L344 343L656 343L656 102Q553-13 394-13Z"  horiz-adv-x="713" vert-adv-y="1000"  />

      
      <glyph glyph-name="uni011D" unicode="&#x011D;" d="M423 556L372 556L289 662L209 556L158 556L253 700L325 700L423 556M269-196Q205-196 160-180.50Q115-165 74-124L112-68Q167-134 269-134Q336-134 380-98.50Q424-63 424 11L424 80Q397 42 354 18Q311-6 262-6Q166-6 106.50 61.50Q47 129 47 244Q47 359 106.50 427Q166 495 262 495Q361 495 424 410L424 483L499 483L499 14Q499-97 434-146.50Q369-196 269-196M280 60Q323 60 363.50 83Q404 106 424 139L424 350Q404 383 364 405.50Q324 428 280 428Q208 428 166.50 377Q125 326 125 244Q125 163 167 111.50Q209 60 280 60Z"  horiz-adv-x="574" vert-adv-y="1000"  />

      
      <glyph glyph-name="uni011E" unicode="&#x011E;" d="M394-13Q249-13 150 83.50Q51 180 51 333Q51 486 150 582Q249 678 394 678Q552 678 653 553L587 512Q555 554 503.50 579Q452 604 394 604Q284 604 210.50 527.50Q137 451 137 333Q137 215 210.50 138Q284 61 394 61Q449 61 496.50 82.50Q544 104 573 133L573 269L344 269L344 343L656 343L656 102Q553-13 394-13M572 793Q507 705 397 705Q288 705 221 793L258 825Q310 753 397 753Q485 753 535 825L572 793Z"  horiz-adv-x="713" vert-adv-y="1000"  />

      
      <glyph glyph-name="uni011F" unicode="&#x011F;" d="M269-196Q205-196 160-180.50Q115-165 74-124L112-68Q167-134 269-134Q336-134 380-98.50Q424-63 424 11L424 80Q397 42 354 18Q311-6 262-6Q166-6 106.50 61.50Q47 129 47 244Q47 359 106.50 427Q166 495 262 495Q361 495 424 410L424 483L499 483L499 14Q499-97 434-146.50Q369-196 269-196M280 60Q323 60 363.50 83Q404 106 424 139L424 350Q404 383 364 405.50Q324 428 280 428Q208 428 166.50 377Q125 326 125 244Q125 163 167 111.50Q209 60 280 60M465 626Q400 538 290 538Q181 538 114 626L151 658Q203 586 290 586Q378 586 428 658L465 626Z"  horiz-adv-x="574" vert-adv-y="1000"  />

      
      <glyph glyph-name="uni0120" unicode="&#x0120;" d="M394-13Q249-13 150 83.50Q51 180 51 333Q51 486 150 582Q249 678 394 678Q552 678 653 553L587 512Q555 554 503.50 579Q452 604 394 604Q284 604 210.50 527.50Q137 451 137 333Q137 215 210.50 138Q284 61 394 61Q449 61 496.50 82.50Q544 104 573 133L573 269L344 269L344 343L656 343L656 102Q553-13 394-13M428.50 735.50Q428.50 735.50 421.75 728.75Q415 722 396 722Q377 722 363 736Q349 750 349 769Q349 788 363 802Q377 816 396 816Q415 816 428.50 802.50Q442 789 442 769Q442 749 428.50 735.50Z"  horiz-adv-x="713" vert-adv-y="1000"  />

      
      <glyph glyph-name="uni0121" unicode="&#x0121;" d="M269-196Q205-196 160-180.50Q115-165 74-124L112-68Q167-134 269-134Q336-134 380-98.50Q424-63 424 11L424 80Q397 42 354 18Q311-6 262-6Q166-6 106.50 61.50Q47 129 47 244Q47 359 106.50 427Q166 495 262 495Q361 495 424 410L424 483L499 483L499 14Q499-97 434-146.50Q369-196 269-196M280 60Q323 60 363.50 83Q404 106 424 139L424 350Q404 383 364 405.50Q324 428 280 428Q208 428 166.50 377Q125 326 125 244Q125 163 167 111.50Q209 60 280 60M321.50 568.50Q321.50 568.50 314.75 561.75Q308 555 289 555Q270 555 256 569Q242 583 242 602Q242 621 256 635Q270 649 289 649Q308 649 321.50 635.50Q335 622 335 602Q335 582 321.50 568.50Z"  horiz-adv-x="574" vert-adv-y="1000"  />

      
      <glyph glyph-name="uni0122" unicode="&#x0122;" d="M448-138Q448-177 428-213Q408-249 377-272L344-246Q367-231 383.50-206.50Q400-182 402-160Q400-162 391-162Q373-162 361-149.50Q349-137 349-118Q349-98 362.50-84.50Q376-71 395-71Q417-71 432.50-89Q448-107 448-138M394-13Q249-13 150 83.50Q51 180 51 333Q51 486 150 582Q249 678 394 678Q552 678 653 553L587 512Q555 554 503.50 579Q452 604 394 604Q284 604 210.50 527.50Q137 451 137 333Q137 215 210.50 138Q284 61 394 61Q449 61 496.50 82.50Q544 104 573 133L573 269L344 269L344 343L656 343L656 102Q553-13 394-13Z"  horiz-adv-x="713" vert-adv-y="1000"  />

      
      <glyph glyph-name="uni0123" unicode="&#x0123;" d="M238 611Q238 654 257.50 692.50Q277 731 307 752L340 725Q318 710 301 686.50Q284 663 283 641Q285 642 288 642Q305 642 319.50 628.50Q334 615 334 597Q334 579 320 565Q306 551 286 551Q267 551 252.50 566.50Q238 582 238 611M269-196Q205-196 160-180.50Q115-165 74-124L112-68Q167-134 269-134Q336-134 380-98.50Q424-63 424 11L424 80Q397 42 354 18Q311-6 262-6Q166-6 106.50 61.50Q47 129 47 244Q47 359 106.50 427Q166 495 262 495Q361 495 424 410L424 483L499 483L499 14Q499-97 434-146.50Q369-196 269-196M280 60Q323 60 363.50 83Q404 106 424 139L424 350Q404 383 364 405.50Q324 428 280 428Q208 428 166.50 377Q125 326 125 244Q125 163 167 111.50Q209 60 280 60Z"  horiz-adv-x="574" vert-adv-y="1000"  />

      
      <glyph glyph-name="uni0124" unicode="&#x0124;" d="M486 723L435 723L352 829L272 723L221 723L316 867L388 867L486 723M634 0L551 0L551 306L161 306L161 0L78 0L78 667L161 667L161 380L551 380L551 667L634 667L634 0Z"  horiz-adv-x="712" vert-adv-y="1000"  />

      
      <glyph glyph-name="uni0125" unicode="&#x0125;" d="M410 723L359 723L276 829L196 723L145 723L240 867L312 867L410 723M477 0L402 0L402 318Q402 378 374 403Q346 428 293 428Q252 428 212.50 406Q173 384 150 353L150 0L75 0L75 667L150 667L150 413Q178 446 225 470.50Q272 495 323 495Q477 495 477 341L477 0Z"  horiz-adv-x="552" vert-adv-y="1000"  />

      
      <glyph glyph-name="uni0126" unicode="&#x0126;" d="M644 0L561 0L561 306L171 306L171 0L88 0L88 498L10 498L10 546L88 546L88 667L171 667L171 546L561 546L561 667L644 667L644 546L721 546L721 498L644 498L644 0M171 380L561 380L561 498L171 498L171 380Z"  horiz-adv-x="731" vert-adv-y="1000"  />

      
      <glyph glyph-name="uni0127" unicode="&#x0127;" d="M308 535L152 535L152 413Q180 446 227 470.50Q274 495 325 495Q479 495 479 341L479 0L404 0L404 318Q404 378 376 403Q348 428 295 428Q254 428 214.50 406Q175 384 152 353L152 0L77 0L77 535L9 535L9 583L77 583L77 667L152 667L152 583L308 583L308 535Z"  horiz-adv-x="554" vert-adv-y="1000"  />

      
      <glyph glyph-name="uni0128" unicode="&#x0128;" d="M161 0L78 0L78 667L161 667L161 0M179 721Q154 721 135.50 735.50Q117 750 108 767Q99 784 85.50 798.50Q72 813 56 813Q35 813 21.50 791.50Q8 770 8 727L-37 727Q-37 787-11.50 824Q14 861 60 861Q84 861 102.50 846.50Q121 832 130.50 815Q140 798 153.50 783.50Q167 769 183 769Q204 769 217.50 790.50Q231 812 231 855L276 855Q276 795 250.50 758Q225 721 179 721Z"  horiz-adv-x="239" vert-adv-y="1000"  />

      
      <glyph glyph-name="uni0129" unicode="&#x0129;" d="M150 0L75 0L75 483L150 483L150 0M172 554Q147 554 128.50 568.50Q110 583 101 600Q92 617 78.50 631.50Q65 646 49 646Q28 646 14.50 624.50Q1 603 1 560L-44 560Q-44 620-18.50 657Q7 694 53 694Q77 694 95.50 679.50Q114 665 123.50 648Q133 631 146.50 616.50Q160 602 176 602Q197 602 210.50 623.50Q224 645 224 688L269 688Q269 628 243.50 591Q218 554 172 554Z"  horiz-adv-x="225" vert-adv-y="1000"  />

      
      <glyph glyph-name="uni012A" unicode="&#x012A;" d="M161 0L78 0L78 667L161 667L161 0M302 739L-61 739L-61 787L302 787L302 739Z"  horiz-adv-x="239" vert-adv-y="1000"  />

      
      <glyph glyph-name="uni012B" unicode="&#x012B;" d="M150 0L75 0L75 483L150 483L150 0M294 572L-69 572L-69 620L294 620L294 572Z"  horiz-adv-x="225" vert-adv-y="1000"  />

      
      <glyph glyph-name="uni012C" unicode="&#x012C;" d="M161 0L78 0L78 667L161 667L161 0M296 793Q231 705 121 705Q12 705-55 793L-18 825Q34 753 121 753Q209 753 259 825L296 793Z"  horiz-adv-x="239" vert-adv-y="1000"  />

      
      <glyph glyph-name="uni012D" unicode="&#x012D;" d="M150 0L75 0L75 483L150 483L150 0M288 626Q223 538 113 538Q4 538-63 626L-26 658Q26 586 113 586Q201 586 251 658L288 626Z"  horiz-adv-x="225" vert-adv-y="1000"  />

      
      <glyph glyph-name="uni012E" unicode="&#x012E;" d="M181-105L218-126Q192-186 129-186Q91-186 65.50-164Q40-142 40-99Q40-42 93 0L78 0L78 667L161 667L161 0Q85-38 85-97Q85-147 129-147Q167-147 181-105Z"  horiz-adv-x="239" vert-adv-y="1000"  />

      
      <glyph glyph-name="uni012F" unicode="&#x012F;" d="M170-105L207-126Q181-186 118-186Q80-186 54.50-164Q29-142 29-99Q29-42 82 0L75 0L75 483L150 483L150 0Q74-38 74-97Q74-147 118-147Q156-147 170-105M112 552Q92 552 77 566.50Q62 581 62 602Q62 623 77 638Q92 653 112 653Q133 653 148 638Q163 623 163 602Q163 581 148 566.50Q133 552 112 552Z"  horiz-adv-x="225" vert-adv-y="1000"  />

      
      <glyph glyph-name="uni0130" unicode="&#x0130;" d="M161 0L78 0L78 667L161 667L161 0M152.50 735.50Q152.50 735.50 145.75 728.75Q139 722 120 722Q101 722 87 736Q73 750 73 769Q73 788 87 802Q101 816 120 816Q139 816 152.50 802.50Q166 789 166 769Q166 749 152.50 735.50Z"  horiz-adv-x="239" vert-adv-y="1000"  />

      
      <glyph glyph-name="uni0131" unicode="&#x0131;" d="M150 0L75 0L75 483L150 483L150 0Z"  horiz-adv-x="225" vert-adv-y="1000"  />

      
      <glyph glyph-name="uni0132" unicode="&#x0132;" d="M161 0L78 0L78 667L161 667L161 0M424-12Q316-12 250 65L293 128Q348 62 419 62Q480 62 516.50 100.50Q553 139 553 202L553 667L636 667L636 201Q636 97 577 42.50Q518-12 424-12Z"  horiz-adv-x="713" vert-adv-y="1000"  />

      
      <glyph glyph-name="uni0133" unicode="&#x0133;" d="M112 552Q92 552 77 566.50Q62 581 62 602Q62 623 77 638Q92 653 112 653Q133 653 148 638Q163 623 163 602Q163 581 148 566.50Q133 552 112 552M150 0L75 0L75 483L150 483L150 0M337 552Q317 552 302 566.50Q287 581 287 602Q287 623 302 638Q317 653 337 653Q358 653 373 638Q388 623 388 602Q388 581 373 566.50Q358 552 337 552M232-196Q173-196 126-160L153-103Q184-134 222-134Q258-134 279-112.50Q300-91 300-47L300 483L375 483L375-47Q375-118 338-157Q301-196 232-196Z"  horiz-adv-x="451" vert-adv-y="1000"  />

      
      <glyph glyph-name="uni0134" unicode="&#x0134;" d="M488 723L437 723L354 829L274 723L223 723L318 867L390 867L488 723M185-12Q77-12 11 65L54 128Q109 62 180 62Q241 62 277.50 100.50Q314 139 314 202L314 667L397 667L397 201Q397 97 338 42.50Q279-12 185-12Z"  horiz-adv-x="475" vert-adv-y="1000"  />

      
      <glyph glyph-name="uni0135" unicode="&#x0135;" d="M247 556L196 556L113 662L33 556L-18 556L77 700L149 700L247 556M7-196Q-52-196-99-160L-72-103Q-41-134-3-134Q33-134 54-112.50Q75-91 75-47L75 483L150 483L150-47Q150-118 113-157Q76-196 7-196Z"  horiz-adv-x="225" vert-adv-y="1000"  />

      
      <glyph glyph-name="uni0136" unicode="&#x0136;" d="M360-138Q360-177 340-213Q320-249 289-272L256-246Q279-231 295.50-206.50Q312-182 314-160Q312-162 303-162Q285-162 273-149.50Q261-137 261-118Q261-98 274.50-84.50Q288-71 307-71Q329-71 344.50-89Q360-107 360-138M584 0L481 0L228 300L161 224L161 0L78 0L78 667L161 667L161 322L456 667L560 667L282 350L584 0Z"  horiz-adv-x="606" vert-adv-y="1000"  />

      
      <glyph glyph-name="uni0137" unicode="&#x0137;" d="M314-138Q314-177 294-213Q274-249 243-272L210-246Q233-231 249.50-206.50Q266-182 268-160Q266-162 257-162Q239-162 227-149.50Q215-137 215-118Q215-98 228.50-84.50Q242-71 261-71Q283-71 298.50-89Q314-107 314-138M500 0L404 0L230 217L150 138L150 0L75 0L75 667L150 667L150 226L404 483L499 483L285 264L500 0Z"  horiz-adv-x="514" vert-adv-y="1000"  />

      
      <glyph glyph-name="uni0138" unicode="&#x0138;" d="M500 0L404 0L230 217L150 138L150 0L75 0L75 483L150 483L150 226L404 483L499 483L285 264L500 0Z"  horiz-adv-x="514" vert-adv-y="1000"  />

      
      <glyph glyph-name="uni0139" unicode="&#x0139;" d="M443 867L274 723L217 723L365 867L443 867M471 0L78 0L78 667L161 667L161 74L471 74L471 0Z"  horiz-adv-x="510" vert-adv-y="1000"  />

      
      <glyph glyph-name="uni013A" unicode="&#x013A;" d="M282 867L113 723L56 723L204 867L282 867M150 0L75 0L75 667L150 667L150 0Z"  horiz-adv-x="225" vert-adv-y="1000"  />

      
      <glyph glyph-name="uni013B" unicode="&#x013B;" d="M319-138Q319-177 299-213Q279-249 248-272L215-246Q238-231 254.50-206.50Q271-182 273-160Q271-162 262-162Q244-162 232-149.50Q220-137 220-118Q220-98 233.50-84.50Q247-71 266-71Q288-71 303.50-89Q319-107 319-138M471 0L78 0L78 667L161 667L161 74L471 74L471 0Z"  horiz-adv-x="510" vert-adv-y="1000"  />

      
      <glyph glyph-name="uni013C" unicode="&#x013C;" d="M170-138Q170-177 150-213Q130-249 99-272L66-246Q89-231 105.50-206.50Q122-182 124-160Q122-162 113-162Q95-162 83-149.50Q71-137 71-118Q71-98 84.50-84.50Q98-71 117-71Q139-71 154.50-89Q170-107 170-138M150 0L75 0L75 667L150 667L150 0Z"  horiz-adv-x="225" vert-adv-y="1000"  />

      
      <glyph glyph-name="uni013D" unicode="&#x013D;" d="M354 613Q354 574 334 538Q314 502 283 479L250 505Q273 520 289.50 544.50Q306 569 308 591Q306 589 297 589Q279 589 267 601.50Q255 614 255 633Q255 653 268.50 666.50Q282 680 301 680Q323 680 338.50 662Q354 644 354 613M471 0L78 0L78 667L161 667L161 74L471 74L471 0Z"  horiz-adv-x="510" vert-adv-y="1000"  />

      
      <glyph glyph-name="uni013E" unicode="&#x013E;" d="M311 613Q311 574 291 538Q271 502 240 479L207 505Q230 520 246.50 544.50Q263 569 265 591Q263 589 254 589Q236 589 224 601.50Q212 614 212 633Q212 653 225.50 666.50Q239 680 258 680Q280 680 295.50 662Q311 644 311 613M150 0L75 0L75 667L150 667L150 0Z"  horiz-adv-x="291" vert-adv-y="1000"  />

      
      <glyph glyph-name="uni013F" unicode="&#x013F;" d="M471 0L78 0L78 667L161 667L161 74L471 74L471 0M424 341Q424 319 407.50 303Q391 287 369 287Q347 287 330.50 303Q314 319 314 341Q314 364 330 380Q346 396 369 396Q392 396 408 380Q424 364 424 341Z"  horiz-adv-x="510" vert-adv-y="1000"  />

      
      <glyph glyph-name="uni0140" unicode="&#x0140;" d="M150 0L75 0L75 667L150 667L150 0M304.50 282.50Q304.50 282.50 312.75 274.25Q321 266 321 244Q321 222 304.50 206Q288 190 266 190Q244 190 227.50 206Q211 222 211 244Q211 266 227.50 282.50Q244 299 266 299Q288 299 304.50 282.50Z"  horiz-adv-x="307" vert-adv-y="1000"  />

      
      <glyph glyph-name="uni0141" unicode="&#x0141;" d="M10 221L10 293L97 343L97 667L180 667L180 391L277 447L277 375L180 319L180 74L490 74L490 0L97 0L97 271L10 221Z"  horiz-adv-x="529" vert-adv-y="1000"  />

      
      <glyph glyph-name="uni0142" unicode="&#x0142;" d="M10 228L10 288L106 343L106 667L181 667L181 386L276 440L276 380L181 326L181 0L106 0L106 283L10 228Z"  horiz-adv-x="287" vert-adv-y="1000"  />

      
      <glyph glyph-name="uni0143" unicode="&#x0143;" d="M531 867L362 723L305 723L453 867L531 867M630 0L550 0L161 532L161 0L78 0L78 667L163 667L547 146L547 667L630 667L630 0Z"  horiz-adv-x="708" vert-adv-y="1000"  />

      
      <glyph glyph-name="uni0144" unicode="&#x0144;" d="M444 700L275 556L218 556L366 700L444 700M476 0L401 0L401 316Q401 377 373 402.50Q345 428 293 428Q251 428 211.50 406Q172 384 150 353L150 0L75 0L75 483L150 483L150 413Q178 446 225 470.50Q272 495 322 495Q476 495 476 339L476 0Z"  horiz-adv-x="551" vert-adv-y="1000"  />

      
      <glyph glyph-name="uni0145" unicode="&#x0145;" d="M411-138Q411-177 391-213Q371-249 340-272L307-246Q330-231 346.50-206.50Q363-182 365-160Q363-162 354-162Q336-162 324-149.50Q312-137 312-118Q312-98 325.50-84.50Q339-71 358-71Q380-71 395.50-89Q411-107 411-138M630 0L550 0L161 532L161 0L78 0L78 667L163 667L547 146L547 667L630 667L630 0Z"  horiz-adv-x="708" vert-adv-y="1000"  />

      
      <glyph glyph-name="uni0146" unicode="&#x0146;" d="M330-138Q330-177 310-213Q290-249 259-272L226-246Q249-231 265.50-206.50Q282-182 284-160Q282-162 273-162Q255-162 243-149.50Q231-137 231-118Q231-98 244.50-84.50Q258-71 277-71Q299-71 314.50-89Q330-107 330-138M476 0L401 0L401 316Q401 377 373 402.50Q345 428 293 428Q251 428 211.50 406Q172 384 150 353L150 0L75 0L75 483L150 483L150 413Q178 446 225 470.50Q272 495 322 495Q476 495 476 339L476 0Z"  horiz-adv-x="551" vert-adv-y="1000"  />

      
      <glyph glyph-name="uni0147" unicode="&#x0147;" d="M390 723L318 723L220 867L271 867L354 761L434 867L485 867L390 723M630 0L550 0L161 532L161 0L78 0L78 667L163 667L547 146L547 667L630 667L630 0Z"  horiz-adv-x="708" vert-adv-y="1000"  />

      
      <glyph glyph-name="uni0148" unicode="&#x0148;" d="M314 556L242 556L144 700L195 700L278 594L358 700L409 700L314 556M476 0L401 0L401 316Q401 377 373 402.50Q345 428 293 428Q251 428 211.50 406Q172 384 150 353L150 0L75 0L75 483L150 483L150 413Q178 446 225 470.50Q272 495 322 495Q476 495 476 339L476 0Z"  horiz-adv-x="551" vert-adv-y="1000"  />

      
      <glyph glyph-name="uni0149" unicode="&#x0149;" d="M161 676Q161 637 141 601Q121 565 90 542L57 568Q80 583 96.50 607.50Q113 632 115 654Q113 652 104 652Q86 652 74 664.50Q62 677 62 696Q62 716 75.50 729.50Q89 743 108 743Q130 743 145.50 725Q161 707 161 676M476 0L401 0L401 316Q401 377 373 402.50Q345 428 293 428Q251 428 211.50 406Q172 384 150 353L150 0L75 0L75 483L150 483L150 413Q178 446 225 470.50Q272 495 322 495Q476 495 476 339L476 0Z"  horiz-adv-x="551" vert-adv-y="1000"  />

      
      <glyph glyph-name="uni014A" unicode="&#x014A;" d="M418-196Q310-196 244-119L288-56Q341-122 413-122Q471-122 507-87.50Q543-53 546 4L161 532L161 0L78 0L78 667L163 667L547 146L547 667L630 667L630 15Q630-89 571-142.50Q512-196 418-196Z"  horiz-adv-x="708" vert-adv-y="1000"  />

      
      <glyph glyph-name="uni014B" unicode="&#x014B;" d="M476 339L476-47Q476-119 439-157.50Q402-196 333-196Q274-196 228-160L254-99Q284-129 323-129Q359-129 380-108.50Q401-88 401-47L401 316Q401 377 373 402.50Q345 428 293 428Q251 428 211.50 406Q172 384 150 353L150 0L75 0L75 483L150 483L150 413Q178 446 225 470.50Q272 495 322 495Q476 495 476 339Z"  horiz-adv-x="551" vert-adv-y="1000"  />

      
      </font>
</defs>
</svg>
